%TF.GenerationSoftware,KiCad,Pcbnew,(6.0.6)*%
%TF.CreationDate,2022-10-08T15:01:50-05:00*%
%TF.ProjectId,better-klipper-expander,62657474-6572-42d6-9b6c-69707065722d,V1*%
%TF.SameCoordinates,Original*%
%TF.FileFunction,Soldermask,Bot*%
%TF.FilePolarity,Negative*%
%FSLAX46Y46*%
G04 Gerber Fmt 4.6, Leading zero omitted, Abs format (unit mm)*
G04 Created by KiCad (PCBNEW (6.0.6)) date 2022-10-08 15:01:50*
%MOMM*%
%LPD*%
G01*
G04 APERTURE LIST*
G04 Aperture macros list*
%AMRoundRect*
0 Rectangle with rounded corners*
0 $1 Rounding radius*
0 $2 $3 $4 $5 $6 $7 $8 $9 X,Y pos of 4 corners*
0 Add a 4 corners polygon primitive as box body*
4,1,4,$2,$3,$4,$5,$6,$7,$8,$9,$2,$3,0*
0 Add four circle primitives for the rounded corners*
1,1,$1+$1,$2,$3*
1,1,$1+$1,$4,$5*
1,1,$1+$1,$6,$7*
1,1,$1+$1,$8,$9*
0 Add four rect primitives between the rounded corners*
20,1,$1+$1,$2,$3,$4,$5,0*
20,1,$1+$1,$4,$5,$6,$7,0*
20,1,$1+$1,$6,$7,$8,$9,0*
20,1,$1+$1,$8,$9,$2,$3,0*%
G04 Aperture macros list end*
%TA.AperFunction,Profile*%
%ADD10C,0.050000*%
%TD*%
%ADD11R,1.700000X1.700000*%
%ADD12O,1.700000X1.700000*%
%ADD13C,0.300000*%
%ADD14R,1.337000X1.337000*%
%ADD15C,1.337000*%
%ADD16RoundRect,0.250000X-0.600000X-0.750000X0.600000X-0.750000X0.600000X0.750000X-0.600000X0.750000X0*%
%ADD17O,1.700000X2.000000*%
%ADD18R,2.600000X2.600000*%
%ADD19C,2.600000*%
%ADD20C,3.200000*%
%ADD21R,1.600000X1.600000*%
%ADD22C,1.600000*%
%ADD23C,0.609600*%
%ADD24C,0.660400*%
G04 APERTURE END LIST*
D10*
X88045000Y-77495000D02*
X88045000Y-107495000D01*
X193045000Y-77500000D02*
X88045000Y-77495000D01*
X88045000Y-107495000D02*
X193045000Y-107495000D01*
X193045000Y-107495000D02*
X193045000Y-77495000D01*
D11*
%TO.C,J11*%
X116300000Y-99400000D03*
D12*
X118840000Y-99400000D03*
X116300000Y-101940000D03*
X118840000Y-101940000D03*
%TD*%
D13*
%TO.C,U3*%
X171090000Y-93750000D03*
X169790000Y-93750000D03*
X171090000Y-92450000D03*
X169790000Y-92450000D03*
X171090000Y-91150000D03*
X169790000Y-91150000D03*
X171090000Y-89850000D03*
X169790000Y-89850000D03*
%TD*%
D14*
%TO.C,F2*%
X151800000Y-80250000D03*
D15*
X151800000Y-83950000D03*
X151800000Y-88250000D03*
X151800000Y-91950000D03*
%TD*%
D16*
%TO.C,J8*%
X108550000Y-80575000D03*
D17*
X111050000Y-80575000D03*
%TD*%
D11*
%TO.C,JP2*%
X99325000Y-98000000D03*
D12*
X101865000Y-98000000D03*
%TD*%
D16*
%TO.C,J5*%
X125350000Y-80575000D03*
D17*
X127850000Y-80575000D03*
%TD*%
D16*
%TO.C,J9*%
X100150000Y-80575000D03*
D17*
X102650000Y-80575000D03*
%TD*%
D16*
%TO.C,J3*%
X142200000Y-80575000D03*
D17*
X144700000Y-80575000D03*
%TD*%
D16*
%TO.C,J4*%
X133800000Y-80575000D03*
D17*
X136300000Y-80575000D03*
%TD*%
D16*
%TO.C,J6*%
X91545000Y-96295000D03*
D17*
X94045000Y-96295000D03*
%TD*%
D18*
%TO.C,J1*%
X158300000Y-84295000D03*
D19*
X163300000Y-84295000D03*
%TD*%
D20*
%TO.C,H2*%
X92045000Y-81495000D03*
X92045000Y-81495000D03*
%TD*%
%TO.C,H1*%
X189050000Y-81495000D03*
X189050000Y-81495000D03*
%TD*%
D16*
%TO.C,J7*%
X116950000Y-80575000D03*
D17*
X119450000Y-80575000D03*
%TD*%
D16*
%TO.C,J10*%
X91545000Y-88975000D03*
D17*
X94045000Y-88975000D03*
%TD*%
D11*
%TO.C,JP1*%
X187425000Y-99700000D03*
D12*
X189965000Y-99700000D03*
%TD*%
D21*
%TO.C,C19*%
X167047349Y-102200000D03*
D22*
X170547349Y-102200000D03*
%TD*%
D23*
%TO.C,J2*%
X168580000Y-84164700D03*
X177220000Y-80924500D03*
X177220002Y-84164700D03*
X177220002Y-85256900D03*
X168580000Y-85256900D03*
X168580000Y-80137100D03*
X177220000Y-80137100D03*
X168580000Y-80924500D03*
D24*
X175789999Y-84210801D03*
X170010001Y-84210801D03*
%TD*%
M02*
