%TF.GenerationSoftware,KiCad,Pcbnew,(6.0.6)*%
%TF.CreationDate,2022-10-09T22:35:45-05:00*%
%TF.ProjectId,better-klipper-expander,62657474-6572-42d6-9b6c-69707065722d,V1*%
%TF.SameCoordinates,Original*%
%TF.FileFunction,Copper,L3,Inr*%
%TF.FilePolarity,Positive*%
%FSLAX46Y46*%
G04 Gerber Fmt 4.6, Leading zero omitted, Abs format (unit mm)*
G04 Created by KiCad (PCBNEW (6.0.6)) date 2022-10-09 22:35:45*
%MOMM*%
%LPD*%
G01*
G04 APERTURE LIST*
G04 Aperture macros list*
%AMRoundRect*
0 Rectangle with rounded corners*
0 $1 Rounding radius*
0 $2 $3 $4 $5 $6 $7 $8 $9 X,Y pos of 4 corners*
0 Add a 4 corners polygon primitive as box body*
4,1,4,$2,$3,$4,$5,$6,$7,$8,$9,$2,$3,0*
0 Add four circle primitives for the rounded corners*
1,1,$1+$1,$2,$3*
1,1,$1+$1,$4,$5*
1,1,$1+$1,$6,$7*
1,1,$1+$1,$8,$9*
0 Add four rect primitives between the rounded corners*
20,1,$1+$1,$2,$3,$4,$5,0*
20,1,$1+$1,$4,$5,$6,$7,0*
20,1,$1+$1,$6,$7,$8,$9,0*
20,1,$1+$1,$8,$9,$2,$3,0*%
G04 Aperture macros list end*
%TA.AperFunction,Profile*%
%ADD10C,0.050000*%
%TD*%
%TA.AperFunction,ComponentPad*%
%ADD11C,0.300000*%
%TD*%
%TA.AperFunction,ComponentPad*%
%ADD12R,1.337000X1.337000*%
%TD*%
%TA.AperFunction,ComponentPad*%
%ADD13C,1.337000*%
%TD*%
%TA.AperFunction,ComponentPad*%
%ADD14RoundRect,0.250000X-0.600000X-0.750000X0.600000X-0.750000X0.600000X0.750000X-0.600000X0.750000X0*%
%TD*%
%TA.AperFunction,ComponentPad*%
%ADD15O,1.700000X2.000000*%
%TD*%
%TA.AperFunction,ComponentPad*%
%ADD16R,1.700000X1.700000*%
%TD*%
%TA.AperFunction,ComponentPad*%
%ADD17O,1.700000X1.700000*%
%TD*%
%TA.AperFunction,ComponentPad*%
%ADD18R,2.600000X2.600000*%
%TD*%
%TA.AperFunction,ComponentPad*%
%ADD19C,2.600000*%
%TD*%
%TA.AperFunction,ComponentPad*%
%ADD20R,1.600000X1.600000*%
%TD*%
%TA.AperFunction,ComponentPad*%
%ADD21C,1.600000*%
%TD*%
%TA.AperFunction,ComponentPad*%
%ADD22C,0.660400*%
%TD*%
%TA.AperFunction,ViaPad*%
%ADD23C,0.500000*%
%TD*%
%TA.AperFunction,ViaPad*%
%ADD24C,0.600000*%
%TD*%
%TA.AperFunction,ViaPad*%
%ADD25C,0.800000*%
%TD*%
%TA.AperFunction,ViaPad*%
%ADD26C,1.000000*%
%TD*%
%TA.AperFunction,ViaPad*%
%ADD27C,1.500000*%
%TD*%
%TA.AperFunction,Conductor*%
%ADD28C,0.400000*%
%TD*%
%TA.AperFunction,Conductor*%
%ADD29C,0.300000*%
%TD*%
%TA.AperFunction,Conductor*%
%ADD30C,0.200000*%
%TD*%
%TA.AperFunction,Conductor*%
%ADD31C,0.250000*%
%TD*%
%TA.AperFunction,Conductor*%
%ADD32C,0.350000*%
%TD*%
%TA.AperFunction,Conductor*%
%ADD33C,0.600000*%
%TD*%
%TA.AperFunction,Conductor*%
%ADD34C,0.500000*%
%TD*%
%TA.AperFunction,Conductor*%
%ADD35C,0.750000*%
%TD*%
G04 APERTURE END LIST*
D10*
X88045000Y-77495000D02*
X88045000Y-107495000D01*
X193045000Y-77500000D02*
X88045000Y-77495000D01*
X88045000Y-107495000D02*
X193045000Y-107495000D01*
X193045000Y-107495000D02*
X193045000Y-77495000D01*
D11*
%TO.N,N/C*%
%TO.C,U3*%
X171090000Y-93750000D03*
X169790000Y-93750000D03*
X171090000Y-92450000D03*
X169790000Y-92450000D03*
X171090000Y-91150000D03*
X169790000Y-91150000D03*
X171090000Y-89850000D03*
X169790000Y-89850000D03*
%TD*%
D12*
%TO.N,Net-(F2-Pad1)*%
%TO.C,F2*%
X151800000Y-80250000D03*
D13*
X151800000Y-83950000D03*
%TO.N,VCC*%
X151800000Y-88250000D03*
X151800000Y-91950000D03*
%TD*%
D14*
%TO.N,Net-(D9-Pad2)*%
%TO.C,J8*%
X108550000Y-80575000D03*
D15*
%TO.N,VFAN*%
X111050000Y-80575000D03*
%TD*%
D16*
%TO.N,Net-(J6-Pad1)*%
%TO.C,JP2*%
X99325000Y-98000000D03*
D17*
%TO.N,Net-(JP2-Pad2)*%
X101865000Y-98000000D03*
%TD*%
D14*
%TO.N,Net-(D7-Pad2)*%
%TO.C,J5*%
X125350000Y-80575000D03*
D15*
%TO.N,VFAN*%
X127850000Y-80575000D03*
%TD*%
D14*
%TO.N,Net-(D10-Pad1)*%
%TO.C,J9*%
X100150000Y-80575000D03*
D15*
%TO.N,GND*%
X102650000Y-80575000D03*
%TD*%
D14*
%TO.N,Net-(D5-Pad2)*%
%TO.C,J3*%
X142200000Y-80575000D03*
D15*
%TO.N,VFAN*%
X144700000Y-80575000D03*
%TD*%
D14*
%TO.N,Net-(D6-Pad2)*%
%TO.C,J4*%
X133800000Y-80575000D03*
D15*
%TO.N,VFAN*%
X136300000Y-80575000D03*
%TD*%
D14*
%TO.N,Net-(J6-Pad1)*%
%TO.C,J6*%
X91545000Y-96295000D03*
D15*
%TO.N,GND*%
X94045000Y-96295000D03*
%TD*%
D18*
%TO.N,Net-(F2-Pad1)*%
%TO.C,J1*%
X158300000Y-84295000D03*
D19*
%TO.N,GND*%
X163300000Y-84295000D03*
%TD*%
D16*
%TO.N,VFAN*%
%TO.C,J11*%
X116300000Y-99400000D03*
D17*
X118840000Y-99400000D03*
%TO.N,Net-(F3-Pad1)*%
X116300000Y-101940000D03*
%TO.N,VCC*%
X118840000Y-101940000D03*
%TD*%
D14*
%TO.N,Net-(D8-Pad2)*%
%TO.C,J7*%
X116950000Y-80575000D03*
D15*
%TO.N,VFAN*%
X119450000Y-80575000D03*
%TD*%
D17*
%TO.N,GND*%
%TO.C,J12*%
X152920000Y-104200000D03*
%TO.N,NEO_DATA*%
X155460000Y-104200000D03*
D16*
%TO.N,+5V*%
X158000000Y-104200000D03*
%TD*%
D14*
%TO.N,Net-(J10-Pad1)*%
%TO.C,J10*%
X91545000Y-88975000D03*
D15*
%TO.N,GND*%
X94045000Y-88975000D03*
%TD*%
D16*
%TO.N,GND*%
%TO.C,JP1*%
X187425000Y-99700000D03*
D17*
%TO.N,Net-(C4-Pad2)*%
X189965000Y-99700000D03*
%TD*%
D20*
%TO.N,+5V*%
%TO.C,C19*%
X167047349Y-102200000D03*
D21*
%TO.N,GND*%
X170547349Y-102200000D03*
%TD*%
D22*
%TO.N,N/C*%
%TO.C,J2*%
X175789999Y-84210801D03*
X170010001Y-84210801D03*
%TD*%
D23*
%TO.N,GPIO24*%
X187400000Y-93500000D03*
X164550569Y-104349431D03*
D24*
%TO.N,GND*%
X163400000Y-104300000D03*
D25*
X181917500Y-94605000D03*
X186400000Y-105200000D03*
X191400000Y-94400000D03*
X184017500Y-92605000D03*
X176650000Y-103650000D03*
X184017500Y-94605000D03*
X103125100Y-104587400D03*
X191100000Y-105100000D03*
X108362500Y-87587500D03*
X181917500Y-92605000D03*
X116862500Y-87582905D03*
X142762500Y-87571351D03*
X182917500Y-93600000D03*
X163245000Y-92095000D03*
X172600000Y-83300000D03*
D24*
X176100000Y-96400000D03*
X178900000Y-101100000D03*
D25*
X183500000Y-85500000D03*
X165000000Y-97550000D03*
D26*
X151800000Y-100200000D03*
X111200000Y-91800000D03*
D25*
X134262500Y-87571351D03*
X102000000Y-86300000D03*
X158500000Y-99200000D03*
X125462500Y-87571351D03*
X184000000Y-103200000D03*
X102312600Y-94887400D03*
%TO.N,+3.3V*%
X180850000Y-98800000D03*
X105062500Y-104600000D03*
X190700000Y-87400000D03*
X104250000Y-94900000D03*
D24*
X180900000Y-102000000D03*
D25*
X105900000Y-100100000D03*
D23*
X180700000Y-94200000D03*
X183400000Y-91400000D03*
D25*
X191100000Y-102800000D03*
X108000000Y-106300000D03*
X178400000Y-104600000D03*
D23*
X187300000Y-91000000D03*
X185200000Y-94600000D03*
D25*
X186700000Y-86400000D03*
%TO.N,+5V*%
X160600000Y-100200000D03*
X145300000Y-100200000D03*
%TO.N,VCC*%
X157900000Y-92100000D03*
X179700000Y-80600000D03*
D23*
%TO.N,SD0*%
X181371850Y-88653165D03*
D25*
X183500000Y-80600000D03*
D23*
%TO.N,CLK*%
X181800000Y-88100000D03*
D25*
X182200000Y-80600000D03*
%TO.N,SD3*%
X181000000Y-80600000D03*
D23*
X182512000Y-88500961D03*
D26*
%TO.N,Net-(D6-Pad2)*%
X135200000Y-91000000D03*
%TO.N,Net-(D7-Pad2)*%
X129200000Y-91000000D03*
%TO.N,Net-(D8-Pad2)*%
X123200000Y-91000000D03*
%TO.N,Net-(D9-Pad2)*%
X117200000Y-91000000D03*
%TO.N,Net-(D10-Pad1)*%
X111200000Y-96000000D03*
D24*
%TO.N,XIN*%
X182200000Y-105400000D03*
D23*
X182200000Y-98100000D03*
%TO.N,XOUT*%
X182900000Y-98100000D03*
D24*
X186400000Y-103300000D03*
D25*
%TO.N,Net-(C10-Pad1)*%
X189500000Y-92000000D03*
D23*
X185400000Y-88875500D03*
X183797382Y-97911054D03*
D25*
X187700000Y-97400000D03*
D26*
%TO.N,Net-(D5-Pad2)*%
X141200000Y-91000000D03*
D25*
%TO.N,FAN0*%
X146612500Y-88762500D03*
D23*
X178200000Y-90900000D03*
%TO.N,FAN1*%
X177600000Y-91500000D03*
D25*
X138112500Y-88662500D03*
D23*
%TO.N,FAN2*%
X177300000Y-92200000D03*
D25*
X129362500Y-88600000D03*
%TO.N,FAN3*%
X120762500Y-88900000D03*
D23*
X177500000Y-92900000D03*
D25*
%TO.N,FAN4*%
X112262500Y-88900000D03*
D23*
X178000000Y-93400000D03*
%TO.N,FAN5*%
X178600000Y-93800000D03*
D25*
X103812500Y-88812500D03*
%TO.N,TH0*%
X109050000Y-101937500D03*
D23*
X188000000Y-92000000D03*
%TO.N,TH1*%
X188025500Y-92800000D03*
D25*
X108237500Y-92100000D03*
D27*
%TO.N,VFAN*%
X143800000Y-95900000D03*
D26*
X99950000Y-87550000D03*
D25*
%TO.N,D-*%
X178600000Y-87200000D03*
D23*
X184376516Y-88940488D03*
%TO.N,D+*%
X183620878Y-88920878D03*
D25*
X174800000Y-88000000D03*
%TO.N,Net-(F3-Pad1)*%
X143400000Y-100200000D03*
%TD*%
D28*
%TO.N,+5V*%
X158000000Y-102200000D02*
X158000000Y-104200000D01*
X158000000Y-102200000D02*
X160500000Y-102200000D01*
X150200000Y-102200000D02*
X158000000Y-102200000D01*
D29*
%TO.N,+3.3V*%
X180700000Y-91700000D02*
X180700000Y-94200000D01*
X180700000Y-94200000D02*
X180700000Y-98000000D01*
D30*
X187100000Y-87400000D02*
X190700000Y-87400000D01*
D29*
X180700000Y-98000000D02*
X180900000Y-98200000D01*
D30*
X187800000Y-90800000D02*
X187600000Y-91000000D01*
X191100000Y-102800000D02*
X190100000Y-102800000D01*
D29*
X181000000Y-91400000D02*
X180700000Y-91700000D01*
D30*
X186700000Y-86400000D02*
X186700000Y-87000000D01*
X189300000Y-102000000D02*
X180800000Y-102000000D01*
D31*
X105900000Y-101100000D02*
X105900000Y-100100000D01*
D30*
X187600000Y-91000000D02*
X187300000Y-91000000D01*
D29*
X179000000Y-102000000D02*
X178400000Y-102600000D01*
X180900000Y-98200000D02*
X180900000Y-98750000D01*
D30*
X190100000Y-102800000D02*
X189300000Y-102000000D01*
X187800000Y-87400000D02*
X187800000Y-90800000D01*
D29*
X180850000Y-98800000D02*
X180800000Y-98800000D01*
D31*
X106100000Y-106300000D02*
X105062500Y-105262500D01*
D29*
X178400000Y-102600000D02*
X178400000Y-104600000D01*
D31*
X108000000Y-106300000D02*
X106100000Y-106300000D01*
X105062500Y-101937500D02*
X105900000Y-101100000D01*
D29*
X183400000Y-91400000D02*
X181000000Y-91400000D01*
X184900000Y-91400000D02*
X185200000Y-91700000D01*
D31*
X105062500Y-105262500D02*
X105062500Y-101937500D01*
D29*
X180800000Y-102000000D02*
X179000000Y-102000000D01*
D31*
X105900000Y-100100000D02*
X105900000Y-97400000D01*
X105900000Y-97400000D02*
X104250000Y-95750000D01*
D30*
X186700000Y-87000000D02*
X187100000Y-87400000D01*
D29*
X183400000Y-91400000D02*
X184900000Y-91400000D01*
D31*
X104250000Y-95750000D02*
X104250000Y-94900000D01*
D29*
X180900000Y-98750000D02*
X180850000Y-98800000D01*
X185200000Y-91700000D02*
X185200000Y-94600000D01*
D28*
%TO.N,+5V*%
X148200000Y-100200000D02*
X150200000Y-102200000D01*
D32*
X160600000Y-102100000D02*
X160500000Y-102200000D01*
D28*
X160500000Y-102200000D02*
X167047349Y-102200000D01*
D32*
X160600000Y-100200000D02*
X160600000Y-102100000D01*
D28*
X145300000Y-100200000D02*
X148200000Y-100200000D01*
D33*
%TO.N,VCC*%
X148300000Y-94200000D02*
X148300000Y-93050000D01*
X148300000Y-97300000D02*
X148300000Y-94200000D01*
D30*
X167500000Y-87100000D02*
X167500000Y-83700000D01*
X177100000Y-82600000D02*
X179100000Y-80600000D01*
X158400000Y-90200000D02*
X164400000Y-90200000D01*
D33*
X118800000Y-101940000D02*
X122360000Y-101940000D01*
D30*
X179100000Y-80600000D02*
X179700000Y-80600000D01*
D33*
X125600000Y-98700000D02*
X146900000Y-98700000D01*
X146900000Y-98700000D02*
X148300000Y-97300000D01*
D30*
X164400000Y-90200000D02*
X167500000Y-87100000D01*
X168600000Y-82600000D02*
X177100000Y-82600000D01*
D33*
X148300000Y-93050000D02*
X149400000Y-91950000D01*
D30*
X157900000Y-92100000D02*
X157900000Y-90700000D01*
X157900000Y-90700000D02*
X158400000Y-90200000D01*
D33*
X149400000Y-91950000D02*
X151800000Y-91950000D01*
X148300000Y-94500000D02*
X148300000Y-94200000D01*
D30*
X167500000Y-83700000D02*
X168600000Y-82600000D01*
D33*
X122360000Y-101940000D02*
X125600000Y-98700000D01*
D28*
%TO.N,VFAN*%
X144700000Y-79300000D02*
X144200000Y-78800000D01*
X127700000Y-78800000D02*
X119600000Y-78800000D01*
X144200000Y-78800000D02*
X136200000Y-78800000D01*
X99950000Y-86350000D02*
X107500000Y-78800000D01*
D34*
X119600000Y-78800000D02*
X119450000Y-78950000D01*
D28*
X136300000Y-78900000D02*
X136300000Y-80575000D01*
X144700000Y-80575000D02*
X144700000Y-79300000D01*
X143800000Y-94200000D02*
X144700000Y-93300000D01*
D35*
X127700000Y-78800000D02*
X127850000Y-78950000D01*
D28*
X107500000Y-78800000D02*
X111000000Y-78800000D01*
X119600000Y-78800000D02*
X111100000Y-78800000D01*
X111050000Y-78850000D02*
X111050000Y-80575000D01*
X144700000Y-93300000D02*
X144700000Y-80575000D01*
X111000000Y-78800000D02*
X111050000Y-78850000D01*
X99950000Y-87700000D02*
X99950000Y-86350000D01*
X127850000Y-78950000D02*
X127850000Y-80575000D01*
X119450000Y-78950000D02*
X119450000Y-80575000D01*
D34*
X111100000Y-78800000D02*
X111050000Y-78850000D01*
D28*
X136200000Y-78800000D02*
X127700000Y-78800000D01*
D34*
X136200000Y-78800000D02*
X136300000Y-78900000D01*
D28*
X143800000Y-95900000D02*
X143800000Y-94200000D01*
%TO.N,Net-(F3-Pad1)*%
X126000000Y-100200000D02*
X122900000Y-103300000D01*
X116600000Y-103300000D02*
X116260000Y-102960000D01*
X122900000Y-103300000D02*
X116600000Y-103300000D01*
X143400000Y-100200000D02*
X126000000Y-100200000D01*
X116260000Y-102960000D02*
X116260000Y-101940000D01*
%TD*%
M02*
