%TF.GenerationSoftware,KiCad,Pcbnew,(6.0.6)*%
%TF.CreationDate,2022-10-06T01:30:08-05:00*%
%TF.ProjectId,better-klipper-expander,62657474-6572-42d6-9b6c-69707065722d,V1*%
%TF.SameCoordinates,Original*%
%TF.FileFunction,Copper,L1,Top*%
%TF.FilePolarity,Positive*%
%FSLAX46Y46*%
G04 Gerber Fmt 4.6, Leading zero omitted, Abs format (unit mm)*
G04 Created by KiCad (PCBNEW (6.0.6)) date 2022-10-06 01:30:08*
%MOMM*%
%LPD*%
G01*
G04 APERTURE LIST*
G04 Aperture macros list*
%AMRoundRect*
0 Rectangle with rounded corners*
0 $1 Rounding radius*
0 $2 $3 $4 $5 $6 $7 $8 $9 X,Y pos of 4 corners*
0 Add a 4 corners polygon primitive as box body*
4,1,4,$2,$3,$4,$5,$6,$7,$8,$9,$2,$3,0*
0 Add four circle primitives for the rounded corners*
1,1,$1+$1,$2,$3*
1,1,$1+$1,$4,$5*
1,1,$1+$1,$6,$7*
1,1,$1+$1,$8,$9*
0 Add four rect primitives between the rounded corners*
20,1,$1+$1,$2,$3,$4,$5,0*
20,1,$1+$1,$4,$5,$6,$7,0*
20,1,$1+$1,$6,$7,$8,$9,0*
20,1,$1+$1,$8,$9,$2,$3,0*%
G04 Aperture macros list end*
%TA.AperFunction,SMDPad,CuDef*%
%ADD10RoundRect,0.006000X0.769000X0.294000X-0.769000X0.294000X-0.769000X-0.294000X0.769000X-0.294000X0*%
%TD*%
%TA.AperFunction,SMDPad,CuDef*%
%ADD11R,2.950000X4.900000*%
%TD*%
%TA.AperFunction,ComponentPad*%
%ADD12C,0.300000*%
%TD*%
%TA.AperFunction,SMDPad,CuDef*%
%ADD13RoundRect,0.042000X0.258000X-0.943000X0.258000X0.943000X-0.258000X0.943000X-0.258000X-0.943000X0*%
%TD*%
%TA.AperFunction,ComponentPad*%
%ADD14R,1.337000X1.337000*%
%TD*%
%TA.AperFunction,ComponentPad*%
%ADD15C,1.337000*%
%TD*%
%TA.AperFunction,SMDPad,CuDef*%
%ADD16R,2.500000X1.800000*%
%TD*%
%TA.AperFunction,SMDPad,CuDef*%
%ADD17R,2.100000X1.800000*%
%TD*%
%TA.AperFunction,SMDPad,CuDef*%
%ADD18RoundRect,0.250000X-0.262500X-0.450000X0.262500X-0.450000X0.262500X0.450000X-0.262500X0.450000X0*%
%TD*%
%TA.AperFunction,SMDPad,CuDef*%
%ADD19RoundRect,0.250000X0.262500X0.450000X-0.262500X0.450000X-0.262500X-0.450000X0.262500X-0.450000X0*%
%TD*%
%TA.AperFunction,ComponentPad*%
%ADD20O,1.700000X1.700000*%
%TD*%
%TA.AperFunction,ComponentPad*%
%ADD21R,1.700000X1.700000*%
%TD*%
%TA.AperFunction,SMDPad,CuDef*%
%ADD22RoundRect,0.250000X0.475000X-0.250000X0.475000X0.250000X-0.475000X0.250000X-0.475000X-0.250000X0*%
%TD*%
%TA.AperFunction,SMDPad,CuDef*%
%ADD23RoundRect,0.250000X-0.250000X-0.475000X0.250000X-0.475000X0.250000X0.475000X-0.250000X0.475000X0*%
%TD*%
%TA.AperFunction,SMDPad,CuDef*%
%ADD24RoundRect,0.250000X-0.475000X0.250000X-0.475000X-0.250000X0.475000X-0.250000X0.475000X0.250000X0*%
%TD*%
%TA.AperFunction,SMDPad,CuDef*%
%ADD25RoundRect,0.250000X0.250000X0.475000X-0.250000X0.475000X-0.250000X-0.475000X0.250000X-0.475000X0*%
%TD*%
%TA.AperFunction,SMDPad,CuDef*%
%ADD26RoundRect,0.250000X-0.450000X0.262500X-0.450000X-0.262500X0.450000X-0.262500X0.450000X0.262500X0*%
%TD*%
%TA.AperFunction,ComponentPad*%
%ADD27RoundRect,0.250000X-0.600000X-0.750000X0.600000X-0.750000X0.600000X0.750000X-0.600000X0.750000X0*%
%TD*%
%TA.AperFunction,ComponentPad*%
%ADD28O,1.700000X2.000000*%
%TD*%
%TA.AperFunction,SMDPad,CuDef*%
%ADD29R,1.800000X2.500000*%
%TD*%
%TA.AperFunction,SMDPad,CuDef*%
%ADD30RoundRect,0.050000X-0.387500X-0.050000X0.387500X-0.050000X0.387500X0.050000X-0.387500X0.050000X0*%
%TD*%
%TA.AperFunction,SMDPad,CuDef*%
%ADD31RoundRect,0.050000X-0.050000X-0.387500X0.050000X-0.387500X0.050000X0.387500X-0.050000X0.387500X0*%
%TD*%
%TA.AperFunction,SMDPad,CuDef*%
%ADD32R,3.200000X3.200000*%
%TD*%
%TA.AperFunction,SMDPad,CuDef*%
%ADD33R,1.000000X1.400000*%
%TD*%
%TA.AperFunction,SMDPad,CuDef*%
%ADD34RoundRect,0.150000X0.150000X-0.587500X0.150000X0.587500X-0.150000X0.587500X-0.150000X-0.587500X0*%
%TD*%
%TA.AperFunction,SMDPad,CuDef*%
%ADD35RoundRect,0.237500X-0.287500X-0.237500X0.287500X-0.237500X0.287500X0.237500X-0.287500X0.237500X0*%
%TD*%
%TA.AperFunction,SMDPad,CuDef*%
%ADD36RoundRect,0.243750X-0.456250X0.243750X-0.456250X-0.243750X0.456250X-0.243750X0.456250X0.243750X0*%
%TD*%
%TA.AperFunction,SMDPad,CuDef*%
%ADD37R,1.900000X0.800000*%
%TD*%
%TA.AperFunction,ComponentPad*%
%ADD38R,2.600000X2.600000*%
%TD*%
%TA.AperFunction,ComponentPad*%
%ADD39C,2.600000*%
%TD*%
%TA.AperFunction,SMDPad,CuDef*%
%ADD40RoundRect,0.250000X0.375000X1.075000X-0.375000X1.075000X-0.375000X-1.075000X0.375000X-1.075000X0*%
%TD*%
%TA.AperFunction,ComponentPad*%
%ADD41R,1.600000X1.600000*%
%TD*%
%TA.AperFunction,ComponentPad*%
%ADD42C,1.600000*%
%TD*%
%TA.AperFunction,SMDPad,CuDef*%
%ADD43R,3.500000X2.300000*%
%TD*%
%TA.AperFunction,SMDPad,CuDef*%
%ADD44RoundRect,0.250000X0.450000X-0.262500X0.450000X0.262500X-0.450000X0.262500X-0.450000X-0.262500X0*%
%TD*%
%TA.AperFunction,SMDPad,CuDef*%
%ADD45R,0.304800X1.143000*%
%TD*%
%TA.AperFunction,SMDPad,CuDef*%
%ADD46R,0.584200X1.143000*%
%TD*%
%TA.AperFunction,ComponentPad*%
%ADD47C,0.660400*%
%TD*%
%TA.AperFunction,SMDPad,CuDef*%
%ADD48O,0.990600X2.108200*%
%TD*%
%TA.AperFunction,SMDPad,CuDef*%
%ADD49O,0.990600X1.803400*%
%TD*%
%TA.AperFunction,ViaPad*%
%ADD50C,0.500000*%
%TD*%
%TA.AperFunction,ViaPad*%
%ADD51C,0.800000*%
%TD*%
%TA.AperFunction,ViaPad*%
%ADD52C,1.000000*%
%TD*%
%TA.AperFunction,Conductor*%
%ADD53C,0.350000*%
%TD*%
%TA.AperFunction,Conductor*%
%ADD54C,0.250000*%
%TD*%
%TA.AperFunction,Conductor*%
%ADD55C,0.300000*%
%TD*%
%TA.AperFunction,Conductor*%
%ADD56C,0.200000*%
%TD*%
%TA.AperFunction,Conductor*%
%ADD57C,0.150000*%
%TD*%
%TA.AperFunction,Conductor*%
%ADD58C,0.400000*%
%TD*%
%TA.AperFunction,Conductor*%
%ADD59C,0.600000*%
%TD*%
G04 APERTURE END LIST*
D10*
%TO.P,U3,1,BOOT*%
%TO.N,Net-(C13-Pad1)*%
X173140000Y-93705000D03*
%TO.P,U3,2,NC*%
%TO.N,unconnected-(U3-Pad2)*%
X173140000Y-92435000D03*
%TO.P,U3,3,NC*%
%TO.N,unconnected-(U3-Pad3)*%
X173140000Y-91165000D03*
%TO.P,U3,4,VSENSE*%
%TO.N,Net-(R6-Pad2)*%
X173140000Y-89895000D03*
%TO.P,U3,5,ENA*%
%TO.N,unconnected-(U3-Pad5)*%
X167740000Y-89895000D03*
%TO.P,U3,6,GND*%
%TO.N,GND*%
X167740000Y-91165000D03*
%TO.P,U3,7,VIN*%
%TO.N,Net-(C1-Pad1)*%
X167740000Y-92435000D03*
%TO.P,U3,8,PH*%
%TO.N,Net-(C13-Pad2)*%
X167740000Y-93705000D03*
D11*
%TO.P,U3,9,POWERPAD*%
%TO.N,GND*%
X170440000Y-91800000D03*
D12*
%TO.P,U3,10*%
%TO.N,N/C*%
X171090000Y-93750000D03*
%TO.P,U3,11*%
X169790000Y-93750000D03*
%TO.P,U3,12*%
X171090000Y-92450000D03*
%TO.P,U3,13*%
X169790000Y-92450000D03*
%TO.P,U3,14*%
X171090000Y-91150000D03*
%TO.P,U3,15*%
X169790000Y-91150000D03*
%TO.P,U3,16*%
X171090000Y-89850000D03*
%TO.P,U3,17*%
X169790000Y-89850000D03*
%TD*%
D13*
%TO.P,U1,1,CS*%
%TO.N,CS*%
X179695000Y-84920000D03*
%TO.P,U1,2,DO*%
%TO.N,SD1*%
X180965000Y-84920000D03*
%TO.P,U1,3,WP*%
%TO.N,SD2*%
X182235000Y-84920000D03*
%TO.P,U1,4,GND*%
%TO.N,GND*%
X183505000Y-84920000D03*
%TO.P,U1,5,DI*%
%TO.N,SD0*%
X183505000Y-79970000D03*
%TO.P,U1,6,CLK*%
%TO.N,CLK*%
X182235000Y-79970000D03*
%TO.P,U1,7,HOLD*%
%TO.N,SD3*%
X180965000Y-79970000D03*
%TO.P,U1,8,VCC*%
%TO.N,VCC*%
X179695000Y-79970000D03*
%TD*%
D14*
%TO.P,F2,1,1*%
%TO.N,Net-(F2-Pad1)*%
X151800000Y-80250000D03*
D15*
%TO.P,F2,2,2*%
X151800000Y-83950000D03*
%TO.P,F2,3,3*%
%TO.N,VCC*%
X151800000Y-88250000D03*
%TO.P,F2,4,4*%
X151800000Y-91950000D03*
%TD*%
D16*
%TO.P,D12,1,K*%
%TO.N,VCC*%
X125300000Y-101100000D03*
%TO.P,D12,2,A*%
%TO.N,+5V*%
X129300000Y-101100000D03*
%TD*%
D17*
%TO.P,Y1,1,1*%
%TO.N,Net-(C7-Pad1)*%
X184150000Y-105450000D03*
%TO.P,Y1,2,2*%
%TO.N,GND*%
X187250000Y-105450000D03*
%TO.P,Y1,3,3*%
%TO.N,Net-(U4-Pad21)*%
X187250000Y-102950000D03*
%TO.P,Y1,4,4*%
%TO.N,GND*%
X184150000Y-102950000D03*
%TD*%
D18*
%TO.P,R5,1*%
%TO.N,Net-(C16-Pad1)*%
X188887500Y-87300000D03*
%TO.P,R5,2*%
%TO.N,+3.3V*%
X190712500Y-87300000D03*
%TD*%
D19*
%TO.P,R2,2*%
%TO.N,Net-(C4-Pad2)*%
X189687500Y-102800000D03*
%TO.P,R2,1*%
%TO.N,+3.3V*%
X191512500Y-102800000D03*
%TD*%
%TO.P,R1,1*%
%TO.N,Net-(J2-PadA5)*%
X170700000Y-87600000D03*
%TO.P,R1,2*%
%TO.N,GND*%
X168875000Y-87600000D03*
%TD*%
D20*
%TO.P,JP1,2,B*%
%TO.N,Net-(C4-Pad2)*%
X187265000Y-99800000D03*
D21*
%TO.P,JP1,1,A*%
%TO.N,GND*%
X184725000Y-99800000D03*
%TD*%
D22*
%TO.P,C21,2*%
%TO.N,GND*%
X162950000Y-103450000D03*
%TO.P,C21,1*%
%TO.N,+3.3V*%
X162950000Y-105350000D03*
%TD*%
%TO.P,C20,1*%
%TO.N,+3.3V*%
X160275000Y-105350000D03*
%TO.P,C20,2*%
%TO.N,GND*%
X160275000Y-103450000D03*
%TD*%
%TO.P,C18,1*%
%TO.N,+3.3V*%
X157600000Y-105350000D03*
%TO.P,C18,2*%
%TO.N,GND*%
X157600000Y-103450000D03*
%TD*%
D23*
%TO.P,C16,1*%
%TO.N,Net-(C16-Pad1)*%
X188850000Y-89600000D03*
%TO.P,C16,2*%
%TO.N,GND*%
X190750000Y-89600000D03*
%TD*%
D24*
%TO.P,C14,1*%
%TO.N,+3.3V*%
X186500000Y-86050000D03*
%TO.P,C14,2*%
%TO.N,Net-(C14-Pad2)*%
X186500000Y-87950000D03*
%TD*%
D25*
%TO.P,C8,2*%
%TO.N,GND*%
X176250000Y-101600000D03*
%TO.P,C8,1*%
%TO.N,Net-(C7-Pad2)*%
X178150000Y-101600000D03*
%TD*%
D22*
%TO.P,C7,1*%
%TO.N,Net-(C7-Pad1)*%
X181100000Y-105550000D03*
%TO.P,C7,2*%
%TO.N,Net-(C7-Pad2)*%
X181100000Y-103650000D03*
%TD*%
D25*
%TO.P,C6,2*%
%TO.N,GND*%
X176250000Y-99200000D03*
%TO.P,C6,1*%
%TO.N,+3.3V*%
X178150000Y-99200000D03*
%TD*%
%TO.P,C4,2*%
%TO.N,Net-(C4-Pad2)*%
X189650000Y-105100000D03*
%TO.P,C4,1*%
%TO.N,GND*%
X191550000Y-105100000D03*
%TD*%
D20*
%TO.P,J11,4,Pin_4*%
%TO.N,+5V*%
X113860000Y-102300000D03*
%TO.P,J11,3,Pin_3*%
%TO.N,VCC*%
X116400000Y-102300000D03*
%TO.P,J11,2,Pin_2*%
%TO.N,VFAN*%
X113860000Y-99760000D03*
D21*
%TO.P,J11,1,Pin_1*%
X116400000Y-99760000D03*
%TD*%
D18*
%TO.P,R21,1*%
%TO.N,GND*%
X110437500Y-86300000D03*
%TO.P,R21,2*%
%TO.N,FAN4*%
X112262500Y-86300000D03*
%TD*%
%TO.P,R19,1*%
%TO.N,GND*%
X118937500Y-86300000D03*
%TO.P,R19,2*%
%TO.N,FAN3*%
X120762500Y-86300000D03*
%TD*%
%TO.P,R13,1*%
%TO.N,GND*%
X127537500Y-86300000D03*
%TO.P,R13,2*%
%TO.N,FAN2*%
X129362500Y-86300000D03*
%TD*%
%TO.P,R11,1*%
%TO.N,GND*%
X136287500Y-86300000D03*
%TO.P,R11,2*%
%TO.N,FAN1*%
X138112500Y-86300000D03*
%TD*%
%TO.P,R9,1*%
%TO.N,GND*%
X144787500Y-86300000D03*
%TO.P,R9,2*%
%TO.N,FAN0*%
X146612500Y-86300000D03*
%TD*%
%TO.P,R23,1*%
%TO.N,GND*%
X101987500Y-86300000D03*
%TO.P,R23,2*%
%TO.N,FAN5*%
X103812500Y-86300000D03*
%TD*%
%TO.P,R10,1*%
%TO.N,Net-(Q2-Pad1)*%
X136287500Y-88762500D03*
%TO.P,R10,2*%
%TO.N,FAN1*%
X138112500Y-88762500D03*
%TD*%
%TO.P,R20,1*%
%TO.N,Net-(Q5-Pad1)*%
X110437500Y-88762500D03*
%TO.P,R20,2*%
%TO.N,FAN4*%
X112262500Y-88762500D03*
%TD*%
%TO.P,R18,1*%
%TO.N,Net-(Q4-Pad1)*%
X118937500Y-88762500D03*
%TO.P,R18,2*%
%TO.N,FAN3*%
X120762500Y-88762500D03*
%TD*%
%TO.P,R26,1*%
%TO.N,Net-(J10-Pad1)*%
X98487500Y-94787500D03*
%TO.P,R26,2*%
%TO.N,+3.3V*%
X100312500Y-94787500D03*
%TD*%
%TO.P,R22,1*%
%TO.N,Net-(Q6-Pad1)*%
X101987500Y-88762500D03*
%TO.P,R22,2*%
%TO.N,FAN5*%
X103812500Y-88762500D03*
%TD*%
%TO.P,R12,1*%
%TO.N,Net-(Q3-Pad1)*%
X127537500Y-88762500D03*
%TO.P,R12,2*%
%TO.N,FAN2*%
X129362500Y-88762500D03*
%TD*%
%TO.P,R8,1*%
%TO.N,Net-(Q1-Pad1)*%
X144787500Y-88762500D03*
%TO.P,R8,2*%
%TO.N,FAN0*%
X146612500Y-88762500D03*
%TD*%
D19*
%TO.P,R25,1*%
%TO.N,Net-(D11-Pad3)*%
X100312500Y-92087500D03*
%TO.P,R25,2*%
%TO.N,Net-(J10-Pad1)*%
X98487500Y-92087500D03*
%TD*%
%TO.P,R24,1*%
%TO.N,TH1*%
X108112500Y-92087500D03*
%TO.P,R24,2*%
%TO.N,Net-(D11-Pad3)*%
X106287500Y-92087500D03*
%TD*%
D26*
%TO.P,R17,1*%
%TO.N,Net-(JP2-Pad2)*%
X104700000Y-98287500D03*
%TO.P,R17,2*%
%TO.N,+3.3V*%
X104700000Y-100112500D03*
%TD*%
D18*
%TO.P,R16,1*%
%TO.N,Net-(J6-Pad1)*%
X99487500Y-104600000D03*
%TO.P,R16,2*%
%TO.N,+3.3V*%
X101312500Y-104600000D03*
%TD*%
D19*
%TO.P,R15,1*%
%TO.N,Net-(D4-Pad3)*%
X101312500Y-101900000D03*
%TO.P,R15,2*%
%TO.N,Net-(J6-Pad1)*%
X99487500Y-101900000D03*
%TD*%
%TO.P,R14,1*%
%TO.N,TH0*%
X109112500Y-101950000D03*
%TO.P,R14,2*%
%TO.N,Net-(D4-Pad3)*%
X107287500Y-101950000D03*
%TD*%
D25*
%TO.P,C23,1*%
%TO.N,TH1*%
X108150000Y-94787500D03*
%TO.P,C23,2*%
%TO.N,GND*%
X106250000Y-94787500D03*
%TD*%
%TO.P,C22,1*%
%TO.N,TH0*%
X109150000Y-104600000D03*
%TO.P,C22,2*%
%TO.N,GND*%
X107250000Y-104600000D03*
%TD*%
D27*
%TO.P,J8,1,Pin_1*%
%TO.N,Net-(D9-Pad2)*%
X108550000Y-80575000D03*
D28*
%TO.P,J8,2,Pin_2*%
%TO.N,VFAN*%
X111050000Y-80575000D03*
%TD*%
D16*
%TO.P,D1,1,K*%
%TO.N,Net-(C1-Pad1)*%
X155800000Y-96500000D03*
%TO.P,D1,2,A*%
%TO.N,VCC*%
X151800000Y-96500000D03*
%TD*%
D24*
%TO.P,C1,1*%
%TO.N,Net-(C1-Pad1)*%
X158400000Y-95650000D03*
%TO.P,C1,2*%
%TO.N,GND*%
X158400000Y-97550000D03*
%TD*%
D29*
%TO.P,D8,1,K*%
%TO.N,VFAN*%
X123200000Y-95900000D03*
%TO.P,D8,2,A*%
%TO.N,Net-(D8-Pad2)*%
X123200000Y-91900000D03*
%TD*%
D23*
%TO.P,C11,2*%
%TO.N,GND*%
X191400000Y-94400000D03*
%TO.P,C11,1*%
%TO.N,Net-(C10-Pad1)*%
X189500000Y-94400000D03*
%TD*%
D30*
%TO.P,U4,1,IOVDD*%
%TO.N,+3.3V*%
X179525000Y-91000000D03*
%TO.P,U4,2,GPIO0*%
%TO.N,FAN0*%
X179525000Y-91400000D03*
%TO.P,U4,3,GPIO1*%
%TO.N,FAN1*%
X179525000Y-91800000D03*
%TO.P,U4,4,GPIO2*%
%TO.N,FAN2*%
X179525000Y-92200000D03*
%TO.P,U4,5,GPIO3*%
%TO.N,FAN3*%
X179525000Y-92600000D03*
%TO.P,U4,6,GPIO4*%
%TO.N,FAN4*%
X179525000Y-93000000D03*
%TO.P,U4,7,GPIO5*%
%TO.N,FAN5*%
X179525000Y-93400000D03*
%TO.P,U4,8,GPIO6*%
%TO.N,unconnected-(U4-Pad8)*%
X179525000Y-93800000D03*
%TO.P,U4,9,GPIO7*%
%TO.N,unconnected-(U4-Pad9)*%
X179525000Y-94200000D03*
%TO.P,U4,10,IOVDD*%
%TO.N,+3.3V*%
X179525000Y-94600000D03*
%TO.P,U4,11,GPIO8*%
%TO.N,unconnected-(U4-Pad11)*%
X179525000Y-95000000D03*
%TO.P,U4,12,GPIO9*%
%TO.N,unconnected-(U4-Pad12)*%
X179525000Y-95400000D03*
%TO.P,U4,13,GPIO10*%
%TO.N,unconnected-(U4-Pad13)*%
X179525000Y-95800000D03*
%TO.P,U4,14,GPIO11*%
%TO.N,unconnected-(U4-Pad14)*%
X179525000Y-96200000D03*
D31*
%TO.P,U4,15,GPIO12*%
%TO.N,unconnected-(U4-Pad15)*%
X180362500Y-97037500D03*
%TO.P,U4,16,GPIO13*%
%TO.N,unconnected-(U4-Pad16)*%
X180762500Y-97037500D03*
%TO.P,U4,17,GPIO14*%
%TO.N,unconnected-(U4-Pad17)*%
X181162500Y-97037500D03*
%TO.P,U4,18,GPIO15*%
%TO.N,unconnected-(U4-Pad18)*%
X181562500Y-97037500D03*
%TO.P,U4,19,TESTEN*%
%TO.N,GND*%
X181962500Y-97037500D03*
%TO.P,U4,20,XIN*%
%TO.N,Net-(C7-Pad1)*%
X182362500Y-97037500D03*
%TO.P,U4,21,XOUT*%
%TO.N,Net-(U4-Pad21)*%
X182762500Y-97037500D03*
%TO.P,U4,22,IOVDD*%
%TO.N,+3.3V*%
X183162500Y-97037500D03*
%TO.P,U4,23,DVDD*%
%TO.N,Net-(C10-Pad1)*%
X183562500Y-97037500D03*
%TO.P,U4,24,SWCLK*%
%TO.N,unconnected-(U4-Pad24)*%
X183962500Y-97037500D03*
%TO.P,U4,25,SWD*%
%TO.N,unconnected-(U4-Pad25)*%
X184362500Y-97037500D03*
%TO.P,U4,26,RUN*%
%TO.N,Net-(C4-Pad2)*%
X184762500Y-97037500D03*
%TO.P,U4,27,GPIO16*%
%TO.N,unconnected-(U4-Pad27)*%
X185162500Y-97037500D03*
%TO.P,U4,28,GPIO17*%
%TO.N,unconnected-(U4-Pad28)*%
X185562500Y-97037500D03*
D30*
%TO.P,U4,29,GPIO18*%
%TO.N,unconnected-(U4-Pad29)*%
X186400000Y-96200000D03*
%TO.P,U4,30,GPIO19*%
%TO.N,unconnected-(U4-Pad30)*%
X186400000Y-95800000D03*
%TO.P,U4,31,GPIO20*%
%TO.N,unconnected-(U4-Pad31)*%
X186400000Y-95400000D03*
%TO.P,U4,32,GPIO21*%
%TO.N,unconnected-(U4-Pad32)*%
X186400000Y-95000000D03*
%TO.P,U4,33,IOVDD*%
%TO.N,+3.3V*%
X186400000Y-94600000D03*
%TO.P,U4,34,GPIO22*%
%TO.N,unconnected-(U4-Pad34)*%
X186400000Y-94200000D03*
%TO.P,U4,35,GPIO23*%
%TO.N,unconnected-(U4-Pad35)*%
X186400000Y-93800000D03*
%TO.P,U4,36,GPIO24*%
%TO.N,unconnected-(U4-Pad36)*%
X186400000Y-93400000D03*
%TO.P,U4,37,GPIO25*%
%TO.N,unconnected-(U4-Pad37)*%
X186400000Y-93000000D03*
%TO.P,U4,38,GPIO26_ADC0*%
%TO.N,TH1*%
X186400000Y-92600000D03*
%TO.P,U4,39,GPIO27_ADC1*%
%TO.N,TH0*%
X186400000Y-92200000D03*
%TO.P,U4,40,GPIO28_ADC2*%
%TO.N,unconnected-(U4-Pad40)*%
X186400000Y-91800000D03*
%TO.P,U4,41,GPIO29_ADC3*%
%TO.N,unconnected-(U4-Pad41)*%
X186400000Y-91400000D03*
%TO.P,U4,42,IOVDD*%
%TO.N,+3.3V*%
X186400000Y-91000000D03*
D31*
%TO.P,U4,43,ADC_AVDD*%
%TO.N,Net-(C16-Pad1)*%
X185562500Y-90162500D03*
%TO.P,U4,44,VREG_IN*%
%TO.N,Net-(C14-Pad2)*%
X185162500Y-90162500D03*
%TO.P,U4,45,VREG_VOUT*%
%TO.N,Net-(C10-Pad1)*%
X184762500Y-90162500D03*
%TO.P,U4,46,USB_DM*%
%TO.N,/D-*%
X184362500Y-90162500D03*
%TO.P,U4,47,USB_DP*%
%TO.N,/D+*%
X183962500Y-90162500D03*
%TO.P,U4,48,USB_VDD*%
%TO.N,+3.3V*%
X183562500Y-90162500D03*
%TO.P,U4,49,IOVDD*%
X183162500Y-90162500D03*
%TO.P,U4,50,DVDD*%
%TO.N,Net-(C10-Pad1)*%
X182762500Y-90162500D03*
%TO.P,U4,51,QSPI_SD3*%
%TO.N,SD3*%
X182362500Y-90162500D03*
%TO.P,U4,52,QSPI_SCLK*%
%TO.N,CLK*%
X181962500Y-90162500D03*
%TO.P,U4,53,QSPI_SD0*%
%TO.N,SD0*%
X181562500Y-90162500D03*
%TO.P,U4,54,QSPI_SD2*%
%TO.N,SD2*%
X181162500Y-90162500D03*
%TO.P,U4,55,QSPI_SD1*%
%TO.N,SD1*%
X180762500Y-90162500D03*
%TO.P,U4,56,QSPI_SS*%
%TO.N,CS*%
X180362500Y-90162500D03*
D32*
%TO.P,U4,57,GND*%
%TO.N,GND*%
X182962500Y-93600000D03*
%TD*%
D21*
%TO.P,JP2,1,A*%
%TO.N,Net-(J6-Pad1)*%
X99325000Y-98000000D03*
D20*
%TO.P,JP2,2,B*%
%TO.N,Net-(JP2-Pad2)*%
X101865000Y-98000000D03*
%TD*%
D29*
%TO.P,D9,1,K*%
%TO.N,VFAN*%
X117200000Y-95900000D03*
%TO.P,D9,2,A*%
%TO.N,Net-(D9-Pad2)*%
X117200000Y-91900000D03*
%TD*%
D27*
%TO.P,J5,1,Pin_1*%
%TO.N,Net-(D7-Pad2)*%
X125350000Y-80575000D03*
D28*
%TO.P,J5,2,Pin_2*%
%TO.N,VFAN*%
X127850000Y-80575000D03*
%TD*%
D23*
%TO.P,C10,1*%
%TO.N,Net-(C10-Pad1)*%
X189500000Y-92000000D03*
%TO.P,C10,2*%
%TO.N,GND*%
X191400000Y-92000000D03*
%TD*%
D18*
%TO.P,R4,1*%
%TO.N,/D-*%
X176487500Y-87600000D03*
%TO.P,R4,2*%
X178312500Y-87600000D03*
%TD*%
D24*
%TO.P,C9,2*%
%TO.N,GND*%
X173800000Y-98250000D03*
%TO.P,C9,1*%
%TO.N,Net-(C9-Pad1)*%
X173800000Y-96350000D03*
%TD*%
D29*
%TO.P,D5,1,K*%
%TO.N,VFAN*%
X141200000Y-95900000D03*
%TO.P,D5,2,A*%
%TO.N,Net-(D5-Pad2)*%
X141200000Y-91900000D03*
%TD*%
D27*
%TO.P,J9,1,Pin_1*%
%TO.N,Net-(D10-Pad2)*%
X100150000Y-80575000D03*
D28*
%TO.P,J9,2,Pin_2*%
%TO.N,VFAN*%
X102650000Y-80575000D03*
%TD*%
D24*
%TO.P,C2,1*%
%TO.N,Net-(C1-Pad1)*%
X160600000Y-95650000D03*
%TO.P,C2,2*%
%TO.N,GND*%
X160600000Y-97550000D03*
%TD*%
D33*
%TO.P,D11,1*%
%TO.N,GND*%
X102350000Y-94587500D03*
%TO.P,D11,2*%
%TO.N,+3.3V*%
X104250000Y-94587500D03*
%TO.P,D11,3*%
%TO.N,Net-(D11-Pad3)*%
X103300000Y-92387500D03*
%TD*%
D27*
%TO.P,J3,1,Pin_1*%
%TO.N,Net-(D5-Pad2)*%
X142200000Y-80575000D03*
D28*
%TO.P,J3,2,Pin_2*%
%TO.N,VFAN*%
X144700000Y-80575000D03*
%TD*%
D34*
%TO.P,Q3,1,G*%
%TO.N,Net-(Q3-Pad1)*%
X123600000Y-87550000D03*
%TO.P,Q3,2,S*%
%TO.N,GND*%
X125500000Y-87550000D03*
%TO.P,Q3,3,D*%
%TO.N,Net-(D7-Pad2)*%
X124550000Y-85675000D03*
%TD*%
D18*
%TO.P,R3,1*%
%TO.N,/D+*%
X172687500Y-87600000D03*
%TO.P,R3,2*%
X174512500Y-87600000D03*
%TD*%
D35*
%TO.P,F1,1*%
%TO.N,+5V*%
X170125000Y-96400000D03*
%TO.P,F1,2*%
%TO.N,Net-(C9-Pad1)*%
X171875000Y-96400000D03*
%TD*%
D27*
%TO.P,J4,1,Pin_1*%
%TO.N,Net-(D6-Pad2)*%
X133800000Y-80575000D03*
D28*
%TO.P,J4,2,Pin_2*%
%TO.N,VFAN*%
X136300000Y-80575000D03*
%TD*%
D22*
%TO.P,C17,1*%
%TO.N,+5V*%
X158500000Y-101150000D03*
%TO.P,C17,2*%
%TO.N,GND*%
X158500000Y-99250000D03*
%TD*%
D34*
%TO.P,Q6,1,G*%
%TO.N,Net-(Q6-Pad1)*%
X98050000Y-87550000D03*
%TO.P,Q6,2,S*%
%TO.N,GND*%
X99950000Y-87550000D03*
%TO.P,Q6,3,D*%
%TO.N,Net-(D10-Pad2)*%
X99000000Y-85675000D03*
%TD*%
D36*
%TO.P,L2,1*%
%TO.N,Net-(C9-Pad1)*%
X174300000Y-99962500D03*
%TO.P,L2,2*%
%TO.N,Net-(L2-Pad2)*%
X174300000Y-101837500D03*
%TD*%
D37*
%TO.P,U2,1,GND*%
%TO.N,GND*%
X175400000Y-103650000D03*
%TO.P,U2,2,LX*%
%TO.N,Net-(L2-Pad2)*%
X175400000Y-105550000D03*
%TO.P,U2,3,VOUT*%
%TO.N,+3.3V*%
X178400000Y-104600000D03*
%TD*%
D24*
%TO.P,C5,1*%
%TO.N,Net-(C1-Pad1)*%
X165000000Y-95650000D03*
%TO.P,C5,2*%
%TO.N,GND*%
X165000000Y-97550000D03*
%TD*%
D27*
%TO.P,J6,1,Pin_1*%
%TO.N,Net-(J6-Pad1)*%
X91545000Y-96295000D03*
D28*
%TO.P,J6,2,Pin_2*%
%TO.N,GND*%
X94045000Y-96295000D03*
%TD*%
D34*
%TO.P,Q5,1,G*%
%TO.N,Net-(Q5-Pad1)*%
X106500000Y-87550000D03*
%TO.P,Q5,2,S*%
%TO.N,GND*%
X108400000Y-87550000D03*
%TO.P,Q5,3,D*%
%TO.N,Net-(D9-Pad2)*%
X107450000Y-85675000D03*
%TD*%
D38*
%TO.P,J1,1,Pin_1*%
%TO.N,Net-(F2-Pad1)*%
X158300000Y-84295000D03*
D39*
%TO.P,J1,2,Pin_2*%
%TO.N,GND*%
X163300000Y-84295000D03*
%TD*%
D22*
%TO.P,C13,1*%
%TO.N,Net-(C13-Pad1)*%
X167500000Y-97250000D03*
%TO.P,C13,2*%
%TO.N,Net-(C13-Pad2)*%
X167500000Y-95350000D03*
%TD*%
D27*
%TO.P,J7,1,Pin_1*%
%TO.N,Net-(D8-Pad2)*%
X116950000Y-80575000D03*
D28*
%TO.P,J7,2,Pin_2*%
%TO.N,VFAN*%
X119450000Y-80575000D03*
%TD*%
D26*
%TO.P,R7,2*%
%TO.N,GND*%
X176300000Y-95412500D03*
%TO.P,R7,1*%
%TO.N,Net-(R6-Pad2)*%
X176300000Y-93587500D03*
%TD*%
D23*
%TO.P,C12,1*%
%TO.N,Net-(C10-Pad1)*%
X189500000Y-96800000D03*
%TO.P,C12,2*%
%TO.N,GND*%
X191400000Y-96800000D03*
%TD*%
D34*
%TO.P,Q1,1,G*%
%TO.N,Net-(Q1-Pad1)*%
X140850000Y-87550000D03*
%TO.P,Q1,2,S*%
%TO.N,GND*%
X142750000Y-87550000D03*
%TO.P,Q1,3,D*%
%TO.N,Net-(D5-Pad2)*%
X141800000Y-85675000D03*
%TD*%
D29*
%TO.P,D10,1,K*%
%TO.N,VFAN*%
X111200000Y-95900000D03*
%TO.P,D10,2,A*%
%TO.N,Net-(D10-Pad2)*%
X111200000Y-91900000D03*
%TD*%
D40*
%TO.P,L1,1*%
%TO.N,Net-(C13-Pad2)*%
X163400000Y-100200000D03*
%TO.P,L1,2*%
%TO.N,+5V*%
X160600000Y-100200000D03*
%TD*%
D28*
%TO.P,J10,2,Pin_2*%
%TO.N,GND*%
X94045000Y-88975000D03*
D27*
%TO.P,J10,1,Pin_1*%
%TO.N,Net-(J10-Pad1)*%
X91545000Y-88975000D03*
%TD*%
D24*
%TO.P,C3,1*%
%TO.N,Net-(C1-Pad1)*%
X162800000Y-95650000D03*
%TO.P,C3,2*%
%TO.N,GND*%
X162800000Y-97550000D03*
%TD*%
D33*
%TO.P,D4,1*%
%TO.N,GND*%
X103350000Y-104300000D03*
%TO.P,D4,2*%
%TO.N,+3.3V*%
X105250000Y-104300000D03*
%TO.P,D4,3*%
%TO.N,Net-(D4-Pad3)*%
X104300000Y-102100000D03*
%TD*%
D41*
%TO.P,C19,1*%
%TO.N,+5V*%
X167047349Y-102200000D03*
D42*
%TO.P,C19,2*%
%TO.N,GND*%
X170547349Y-102200000D03*
%TD*%
D29*
%TO.P,D6,1,K*%
%TO.N,VFAN*%
X135200000Y-95900000D03*
%TO.P,D6,2,A*%
%TO.N,Net-(D6-Pad2)*%
X135200000Y-91900000D03*
%TD*%
D43*
%TO.P,D2,1,A*%
%TO.N,GND*%
X163245000Y-92095000D03*
%TO.P,D2,2,K*%
%TO.N,VCC*%
X157845000Y-92095000D03*
%TD*%
D34*
%TO.P,Q4,1,G*%
%TO.N,Net-(Q4-Pad1)*%
X115000000Y-87550000D03*
%TO.P,Q4,2,S*%
%TO.N,GND*%
X116900000Y-87550000D03*
%TO.P,Q4,3,D*%
%TO.N,Net-(D8-Pad2)*%
X115950000Y-85675000D03*
%TD*%
D29*
%TO.P,D7,1,K*%
%TO.N,VFAN*%
X129200000Y-95900000D03*
%TO.P,D7,2,A*%
%TO.N,Net-(D7-Pad2)*%
X129200000Y-91900000D03*
%TD*%
D16*
%TO.P,D3,1,K*%
%TO.N,Net-(C13-Pad2)*%
X155800000Y-100200000D03*
%TO.P,D3,2,A*%
%TO.N,GND*%
X151800000Y-100200000D03*
%TD*%
D44*
%TO.P,R6,1*%
%TO.N,+5V*%
X175200000Y-91712500D03*
%TO.P,R6,2*%
%TO.N,Net-(R6-Pad2)*%
X175200000Y-89887500D03*
%TD*%
D45*
%TO.P,J2,B8,SBU2*%
%TO.N,unconnected-(J2-PadB8)*%
X174649999Y-85285800D03*
%TO.P,J2,B7,DN2*%
%TO.N,/D-*%
X173650001Y-85285800D03*
%TO.P,J2,B6,DP2*%
%TO.N,/D+*%
X172149999Y-85285800D03*
%TO.P,J2,B5,CC2*%
%TO.N,Net-(J2-PadA5)*%
X171150001Y-85285800D03*
D46*
%TO.P,J2,B4-A9,VBUS*%
%TO.N,unconnected-(J2-PadB4-A9)*%
X170499999Y-85285800D03*
%TO.P,J2,B1-A12,GND*%
%TO.N,GND*%
X169700000Y-85285800D03*
D45*
%TO.P,J2,A8,SBU1*%
%TO.N,unconnected-(J2-PadA8)*%
X171650000Y-85285800D03*
%TO.P,J2,A7,DN1*%
%TO.N,/D-*%
X172650000Y-85285800D03*
%TO.P,J2,A6,DP1*%
%TO.N,/D+*%
X173150000Y-85285800D03*
%TO.P,J2,A5,CC1*%
%TO.N,Net-(J2-PadA5)*%
X174150000Y-85285800D03*
D46*
%TO.P,J2,A4-B9,VBUS*%
%TO.N,unconnected-(J2-PadA4-B9)*%
X175300001Y-85285800D03*
%TO.P,J2,A1-B12,GND*%
%TO.N,GND*%
X176100000Y-85285800D03*
D47*
%TO.P,J2,18*%
%TO.N,N/C*%
X170010001Y-84210801D03*
%TO.P,J2,17*%
X175789999Y-84210801D03*
D48*
%TO.P,J2,16*%
X168579998Y-84710800D03*
%TO.P,J2,15*%
X177220002Y-84710800D03*
D49*
%TO.P,J2,14*%
X168579998Y-80530800D03*
%TO.P,J2,13*%
X177220002Y-80530800D03*
%TD*%
D34*
%TO.P,Q2,1,G*%
%TO.N,Net-(Q2-Pad1)*%
X132350000Y-87550000D03*
%TO.P,Q2,2,S*%
%TO.N,GND*%
X134250000Y-87550000D03*
%TO.P,Q2,3,D*%
%TO.N,Net-(D6-Pad2)*%
X133300000Y-85675000D03*
%TD*%
D50*
%TO.N,+3.3V*%
X157600000Y-106474500D03*
D51*
%TO.N,GND*%
X163245000Y-92095000D03*
X165000000Y-97550000D03*
X158400000Y-99150000D03*
%TO.N,VCC*%
X125300000Y-99000000D03*
%TO.N,+5V*%
X129300000Y-103200000D03*
%TO.N,+3.3V*%
X179500000Y-99700000D03*
%TO.N,FAN2*%
X129362500Y-88600000D03*
%TO.N,FAN3*%
X120762500Y-88900000D03*
%TO.N,FAN0*%
X146612500Y-88762500D03*
%TO.N,FAN1*%
X138112500Y-88662500D03*
%TO.N,FAN4*%
X112262500Y-88900000D03*
%TO.N,FAN5*%
X103812500Y-88812500D03*
%TO.N,TH0*%
X109237500Y-101937500D03*
%TO.N,TH1*%
X108237500Y-92237500D03*
D50*
%TO.N,FAN2*%
X177300000Y-92200000D03*
%TO.N,FAN1*%
X177600000Y-91500000D03*
%TO.N,FAN0*%
X178200000Y-90900000D03*
%TO.N,FAN3*%
X177500000Y-92900000D03*
%TO.N,FAN4*%
X178000000Y-93400000D03*
%TO.N,FAN5*%
X178600000Y-93800000D03*
%TO.N,TH0*%
X187800000Y-92000000D03*
%TO.N,TH1*%
X187800000Y-92800000D03*
D51*
%TO.N,+3.3V*%
X186800000Y-86100000D03*
X190700000Y-87600000D03*
D50*
X187300000Y-91000000D03*
D51*
%TO.N,Net-(C10-Pad1)*%
X189500000Y-92000000D03*
D50*
X185300000Y-88400000D03*
D51*
%TO.N,+3.3V*%
X191700000Y-102800000D03*
%TO.N,GND*%
X191700000Y-105100000D03*
%TO.N,+5V*%
X160600000Y-101100000D03*
%TO.N,GND*%
X175200000Y-95400000D03*
%TO.N,Net-(C10-Pad1)*%
X187700000Y-97400000D03*
%TO.N,GND*%
X187300000Y-105400000D03*
X184100000Y-102900000D03*
D50*
%TO.N,Net-(C10-Pad1)*%
X183797382Y-97911054D03*
%TO.N,+3.3V*%
X183039671Y-98259623D03*
%TO.N,CLK*%
X181500000Y-88000000D03*
%TO.N,/D+*%
X183620878Y-88920878D03*
%TO.N,/D-*%
X184376516Y-88940488D03*
%TO.N,SD0*%
X181234314Y-88700000D03*
%TO.N,SD3*%
X182512000Y-88500961D03*
D51*
%TO.N,/D+*%
X174800000Y-88000000D03*
%TO.N,/D-*%
X178600000Y-87200000D03*
%TO.N,GND*%
X168875000Y-87600000D03*
X183500000Y-85500000D03*
%TO.N,SD0*%
X183500000Y-80600000D03*
%TO.N,CLK*%
X182200000Y-80600000D03*
%TO.N,SD3*%
X181000000Y-80600000D03*
%TO.N,VCC*%
X179700000Y-80600000D03*
D52*
%TO.N,VFAN*%
X143300000Y-95900000D03*
%TO.N,GND*%
X151800000Y-100200000D03*
D51*
X173800000Y-98300000D03*
X175700000Y-103650000D03*
X184017500Y-94605000D03*
X181917500Y-94605000D03*
X181917500Y-92605000D03*
X184017500Y-92605000D03*
X182917500Y-93600000D03*
%TO.N,VCC*%
X157900000Y-92100000D03*
%TO.N,Net-(D5-Pad2)*%
X141200000Y-91000000D03*
%TO.N,Net-(D6-Pad2)*%
X135200000Y-91000000D03*
%TO.N,Net-(D7-Pad2)*%
X129200000Y-91000000D03*
%TO.N,Net-(D8-Pad2)*%
X123200000Y-91000000D03*
%TO.N,Net-(D9-Pad2)*%
X117200000Y-91000000D03*
%TO.N,Net-(D10-Pad2)*%
X111200000Y-91000000D03*
%TO.N,GND*%
X142762500Y-87571351D03*
X134262500Y-87571351D03*
X125462500Y-87571351D03*
X116862500Y-87582905D03*
X108362500Y-87587500D03*
X99950000Y-87600000D03*
X191400000Y-94400000D03*
X102312600Y-94887400D03*
X103312600Y-104587400D03*
%TO.N,+3.3V*%
X104250000Y-94900000D03*
X105900000Y-100100000D03*
X105250000Y-104600000D03*
X178400000Y-104600000D03*
%TD*%
D53*
%TO.N,GND*%
X168175000Y-91165000D02*
X169200000Y-91165000D01*
D54*
%TO.N,+3.3V*%
X157600000Y-106474500D02*
X157600000Y-105350000D01*
D53*
%TO.N,VCC*%
X125300000Y-101000000D02*
X125300000Y-99000000D01*
X125200000Y-101100000D02*
X125300000Y-101000000D01*
%TO.N,+5V*%
X129300000Y-101200000D02*
X129300000Y-103200000D01*
X129200000Y-101100000D02*
X129300000Y-101200000D01*
D55*
%TO.N,GND*%
X170250000Y-103450000D02*
X170547349Y-103152651D01*
X170547349Y-103152651D02*
X170547349Y-102200000D01*
X162950000Y-103450000D02*
X170250000Y-103450000D01*
X157600000Y-103450000D02*
X162950000Y-103450000D01*
%TO.N,+3.3V*%
X177700000Y-106300000D02*
X178400000Y-105600000D01*
X163200000Y-106300000D02*
X177700000Y-106300000D01*
X162950000Y-105350000D02*
X162950000Y-106050000D01*
X162950000Y-106050000D02*
X163200000Y-106300000D01*
X178400000Y-105600000D02*
X178400000Y-104600000D01*
X162950000Y-105350000D02*
X157600000Y-105350000D01*
D53*
X179000000Y-99200000D02*
X179500000Y-99700000D01*
X178150000Y-99200000D02*
X179000000Y-99200000D01*
D54*
%TO.N,GND*%
X176300000Y-95412500D02*
X176300000Y-99150000D01*
D56*
%TO.N,FAN3*%
X177500000Y-92900000D02*
X177800000Y-92600000D01*
X177800000Y-92600000D02*
X179525000Y-92600000D01*
%TO.N,FAN0*%
X178700000Y-91400000D02*
X179525000Y-91400000D01*
X178200000Y-90900000D02*
X178700000Y-91400000D01*
D54*
%TO.N,GND*%
X175200000Y-95400000D02*
X176287500Y-95400000D01*
D55*
%TO.N,Net-(C4-Pad2)*%
X186800000Y-98200000D02*
X187265000Y-98665000D01*
X185000000Y-98200000D02*
X186800000Y-98200000D01*
X187265000Y-98665000D02*
X187265000Y-99800000D01*
D56*
X184762500Y-97962500D02*
X185000000Y-98200000D01*
X184762500Y-97037500D02*
X184762500Y-97962500D01*
D55*
%TO.N,+3.3V*%
X105887500Y-100112500D02*
X105900000Y-100100000D01*
X104700000Y-100112500D02*
X105887500Y-100112500D01*
%TO.N,Net-(JP2-Pad2)*%
X101865000Y-98000000D02*
X104412500Y-98000000D01*
%TO.N,Net-(J6-Pad1)*%
X99125000Y-98200000D02*
X92200000Y-98200000D01*
X92200000Y-98200000D02*
X91545000Y-97545000D01*
X91545000Y-97545000D02*
X91545000Y-96295000D01*
X99325000Y-99825000D02*
X99325000Y-98000000D01*
X99487500Y-101900000D02*
X99487500Y-99987500D01*
X99487500Y-99987500D02*
X99325000Y-99825000D01*
%TO.N,+5V*%
X167047349Y-100952651D02*
X167047349Y-102200000D01*
X170125000Y-97875000D02*
X167047349Y-100952651D01*
X170125000Y-96400000D02*
X170125000Y-97875000D01*
%TO.N,Net-(C9-Pad1)*%
X174500000Y-99100000D02*
X174300000Y-99300000D01*
X174300000Y-99300000D02*
X174300000Y-99962500D01*
X174900000Y-98723528D02*
X174523528Y-99100000D01*
X174900000Y-96600000D02*
X174900000Y-98723528D01*
X174523528Y-99100000D02*
X174500000Y-99100000D01*
X174650000Y-96350000D02*
X174900000Y-96600000D01*
X173800000Y-96350000D02*
X174650000Y-96350000D01*
X171875000Y-96400000D02*
X173750000Y-96400000D01*
D56*
%TO.N,FAN4*%
X178000000Y-93400000D02*
X178400000Y-93000000D01*
X178400000Y-93000000D02*
X179525000Y-93000000D01*
%TO.N,FAN1*%
X177900000Y-91800000D02*
X179525000Y-91800000D01*
X177600000Y-91500000D02*
X177900000Y-91800000D01*
%TO.N,FAN2*%
X177300000Y-92200000D02*
X179525000Y-92200000D01*
%TO.N,FAN5*%
X178992525Y-93400000D02*
X179525000Y-93400000D01*
X178600000Y-93792525D02*
X178992525Y-93400000D01*
X178600000Y-93800000D02*
X178600000Y-93792525D01*
%TO.N,TH1*%
X187600000Y-92600000D02*
X186400000Y-92600000D01*
X187800000Y-92800000D02*
X187600000Y-92600000D01*
%TO.N,TH0*%
X187600000Y-92200000D02*
X186400000Y-92200000D01*
X187800000Y-92000000D02*
X187600000Y-92200000D01*
D57*
%TO.N,Net-(C10-Pad1)*%
X185300000Y-88400000D02*
X184900000Y-88400000D01*
X184900000Y-88400000D02*
X184739245Y-88560755D01*
%TO.N,Net-(C14-Pad2)*%
X186300000Y-88800000D02*
X186500000Y-88600000D01*
X185930330Y-88800000D02*
X186300000Y-88800000D01*
X185162500Y-89567830D02*
X185930330Y-88800000D01*
X186500000Y-88600000D02*
X186500000Y-87950000D01*
X185162500Y-90162500D02*
X185162500Y-89567830D01*
D56*
%TO.N,+3.3V*%
X186400000Y-91000000D02*
X187300000Y-91000000D01*
D54*
%TO.N,GND*%
X191400000Y-91150000D02*
X191400000Y-92000000D01*
X190750000Y-89700000D02*
X190750000Y-90500000D01*
X190750000Y-90500000D02*
X191400000Y-91150000D01*
D56*
%TO.N,Net-(C16-Pad1)*%
X186037500Y-90162500D02*
X185562500Y-90162500D01*
D54*
X188887500Y-89662500D02*
X188887500Y-87300000D01*
D56*
X188850000Y-89700000D02*
X186500000Y-89700000D01*
X186500000Y-89700000D02*
X186037500Y-90162500D01*
D54*
%TO.N,Net-(C10-Pad1)*%
X188300000Y-96800000D02*
X189500000Y-96800000D01*
X187700000Y-97400000D02*
X188300000Y-96800000D01*
D57*
X184739245Y-88560755D02*
X184901516Y-88723025D01*
X184553491Y-88375000D02*
X184739245Y-88560755D01*
X182762500Y-90162500D02*
X182762500Y-89637500D01*
X184901516Y-89298484D02*
X184762500Y-89437500D01*
X182762500Y-89637500D02*
X183000000Y-89400000D01*
X184901516Y-88723025D02*
X184901516Y-89298484D01*
X183000000Y-89400000D02*
X183000000Y-88800000D01*
X183000000Y-88800000D02*
X183425000Y-88375000D01*
X183425000Y-88375000D02*
X184553491Y-88375000D01*
X184762500Y-89437500D02*
X184762500Y-90162500D01*
%TO.N,/D-*%
X184376516Y-89521035D02*
X184362500Y-89535051D01*
X184376516Y-88940488D02*
X184376516Y-89521035D01*
X184362500Y-89535051D02*
X184362500Y-90162500D01*
%TO.N,/D+*%
X183962500Y-89262500D02*
X183962500Y-90162500D01*
X183620878Y-88920878D02*
X183962500Y-89262500D01*
%TO.N,Net-(C10-Pad1)*%
X183562500Y-97676172D02*
X183562500Y-97037500D01*
X183797382Y-97911054D02*
X183562500Y-97676172D01*
D56*
%TO.N,+3.3V*%
X183039671Y-98259623D02*
X183162500Y-98136794D01*
X183162500Y-98136794D02*
X183162500Y-97037500D01*
D55*
%TO.N,Net-(C4-Pad2)*%
X189687500Y-102800000D02*
X189687500Y-105062500D01*
X189687500Y-100987500D02*
X189687500Y-102800000D01*
X188500000Y-99800000D02*
X189687500Y-100987500D01*
X187265000Y-99800000D02*
X188500000Y-99800000D01*
D56*
%TO.N,Net-(U4-Pad21)*%
X182489671Y-101089671D02*
X182489671Y-98031805D01*
X182900000Y-101500000D02*
X182489671Y-101089671D01*
X186900000Y-101500000D02*
X182900000Y-101500000D01*
X182489671Y-98031805D02*
X182762500Y-97758976D01*
X182762500Y-97758976D02*
X182762500Y-97037500D01*
X187250000Y-101850000D02*
X186900000Y-101500000D01*
X187250000Y-102950000D02*
X187250000Y-101850000D01*
%TO.N,Net-(C7-Pad1)*%
X182500000Y-105500000D02*
X182450000Y-105550000D01*
X182500000Y-102800000D02*
X182500000Y-105500000D01*
X182089671Y-97866825D02*
X182089671Y-102389671D01*
X182089671Y-102389671D02*
X182500000Y-102800000D01*
X182362500Y-97593996D02*
X182089671Y-97866825D01*
X182362500Y-97037500D02*
X182362500Y-97593996D01*
D53*
X182450000Y-105550000D02*
X184050000Y-105550000D01*
X181100000Y-105550000D02*
X182450000Y-105550000D01*
%TO.N,Net-(C7-Pad2)*%
X179800000Y-101600000D02*
X181100000Y-102900000D01*
X181100000Y-102900000D02*
X181100000Y-103650000D01*
X178150000Y-101600000D02*
X179800000Y-101600000D01*
%TO.N,GND*%
X176100000Y-102350000D02*
X176100000Y-103650000D01*
X176100000Y-101600000D02*
X176100000Y-102900000D01*
%TO.N,Net-(L2-Pad2)*%
X174250000Y-105550000D02*
X175400000Y-105550000D01*
X173900000Y-105200000D02*
X174250000Y-105550000D01*
X173900000Y-102237500D02*
X173900000Y-105200000D01*
X174300000Y-101837500D02*
X173900000Y-102237500D01*
D55*
%TO.N,+5V*%
X170125000Y-95775000D02*
X170125000Y-96400000D01*
X173200000Y-95200000D02*
X170700000Y-95200000D01*
X174056460Y-94355000D02*
X174045000Y-94355000D01*
X175200000Y-91712500D02*
X175200000Y-93211460D01*
X175200000Y-93211460D02*
X174056460Y-94355000D01*
X174045000Y-94355000D02*
X173200000Y-95200000D01*
X170700000Y-95200000D02*
X170125000Y-95775000D01*
%TO.N,GND*%
X158400000Y-97550000D02*
X158400000Y-99150000D01*
D53*
%TO.N,Net-(C13-Pad2)*%
X166650000Y-95350000D02*
X167500000Y-95350000D01*
X166300000Y-95700000D02*
X166650000Y-95350000D01*
X164300000Y-100200000D02*
X166300000Y-98200000D01*
X166300000Y-98200000D02*
X166300000Y-95700000D01*
X163400000Y-100200000D02*
X164300000Y-100200000D01*
D58*
%TO.N,Net-(C1-Pad1)*%
X166200000Y-94700000D02*
X166200000Y-92800000D01*
X165250000Y-95650000D02*
X166200000Y-94700000D01*
X166200000Y-92800000D02*
X166565000Y-92435000D01*
X166565000Y-92435000D02*
X167740000Y-92435000D01*
D53*
%TO.N,Net-(C13-Pad2)*%
X167500000Y-93945000D02*
X167740000Y-93705000D01*
X167500000Y-95350000D02*
X167500000Y-93945000D01*
D55*
%TO.N,Net-(C13-Pad1)*%
X168350000Y-97250000D02*
X167500000Y-97250000D01*
X168600000Y-95100000D02*
X168600000Y-97000000D01*
X172700000Y-94700000D02*
X169000000Y-94700000D01*
X168600000Y-97000000D02*
X168350000Y-97250000D01*
X173140000Y-94260000D02*
X172700000Y-94700000D01*
X173140000Y-93705000D02*
X173140000Y-94260000D01*
X169000000Y-94700000D02*
X168600000Y-95100000D01*
D53*
%TO.N,Net-(C13-Pad2)*%
X163400000Y-101700000D02*
X163400000Y-100200000D01*
X163075000Y-102025000D02*
X163400000Y-101700000D01*
X156525000Y-102025000D02*
X163075000Y-102025000D01*
X155800000Y-100200000D02*
X155800000Y-101300000D01*
X155800000Y-101300000D02*
X156525000Y-102025000D01*
D55*
%TO.N,+5V*%
X158500000Y-101150000D02*
X160650000Y-101150000D01*
%TO.N,GND*%
X191400000Y-94400000D02*
X191400000Y-92000000D01*
X191400000Y-96800000D02*
X191400000Y-94400000D01*
%TO.N,Net-(C10-Pad1)*%
X189500000Y-94400000D02*
X189500000Y-96800000D01*
X189500000Y-94400000D02*
X189500000Y-92000000D01*
D56*
%TO.N,SD0*%
X181562500Y-90162500D02*
X181562500Y-89028186D01*
X181562500Y-89028186D02*
X181234314Y-88700000D01*
%TO.N,CLK*%
X181500000Y-88000000D02*
X181962500Y-88462500D01*
X181962500Y-88462500D02*
X181962500Y-90162500D01*
D57*
%TO.N,SD3*%
X182362500Y-89437500D02*
X182362500Y-90162500D01*
X182512000Y-88500961D02*
X182512000Y-89288000D01*
X182512000Y-89288000D02*
X182362500Y-89437500D01*
%TO.N,SD1*%
X180300000Y-89100000D02*
X180762500Y-89562500D01*
X180300000Y-87605026D02*
X180300000Y-89100000D01*
X180965000Y-86940026D02*
X180300000Y-87605026D01*
X180762500Y-89562500D02*
X180762500Y-90162500D01*
X180965000Y-84920000D02*
X180965000Y-86940026D01*
%TO.N,SD2*%
X182235000Y-86165000D02*
X182235000Y-84920000D01*
X180650000Y-87750000D02*
X182235000Y-86165000D01*
X180650000Y-88955026D02*
X180650000Y-87750000D01*
X181162500Y-89467526D02*
X180650000Y-88955026D01*
X181162500Y-90162500D02*
X181162500Y-89467526D01*
%TO.N,CS*%
X179862500Y-90162500D02*
X180362500Y-90162500D01*
X179695000Y-89995000D02*
X179862500Y-90162500D01*
X179695000Y-84920000D02*
X179695000Y-89995000D01*
D56*
%TO.N,+3.3V*%
X183162500Y-96382513D02*
X183162500Y-97037500D01*
X183340013Y-96205000D02*
X183162500Y-96382513D01*
%TO.N,/D-*%
X176487500Y-86775000D02*
X176487500Y-87600000D01*
X176312500Y-86600000D02*
X176487500Y-86775000D01*
X173600000Y-86600000D02*
X176312500Y-86600000D01*
X173442700Y-86442700D02*
X173600000Y-86600000D01*
X173442700Y-86157300D02*
X173442700Y-86442700D01*
X173442700Y-86157300D02*
X173602400Y-86157300D01*
X172697600Y-86157300D02*
X173442700Y-86157300D01*
X173650001Y-86109699D02*
X173650001Y-85285800D01*
X173602400Y-86157300D02*
X173650001Y-86109699D01*
X172650000Y-86109700D02*
X172697600Y-86157300D01*
X172650000Y-85285800D02*
X172650000Y-86109700D01*
D54*
%TO.N,GND*%
X168875000Y-87600000D02*
X168875000Y-86225000D01*
D56*
%TO.N,Net-(J2-PadA5)*%
X170700000Y-86700000D02*
X170700000Y-87600000D01*
X171150001Y-86249999D02*
X170700000Y-86700000D01*
X171150001Y-85285800D02*
X171150001Y-86249999D01*
D54*
%TO.N,GND*%
X168200000Y-87600000D02*
X168875000Y-87600000D01*
X166600000Y-89200000D02*
X168200000Y-87600000D01*
X166600000Y-91200000D02*
X166600000Y-89200000D01*
D56*
%TO.N,Net-(J2-PadA5)*%
X171716900Y-83895000D02*
X173583101Y-83895000D01*
X173583101Y-83895000D02*
X174150000Y-84461899D01*
X171150001Y-84461899D02*
X171716900Y-83895000D01*
X174150000Y-84461899D02*
X174150000Y-85285800D01*
X171150001Y-85285800D02*
X171150001Y-84461899D01*
%TO.N,GND*%
X168900000Y-86200000D02*
X168315302Y-86200000D01*
X168875000Y-86225000D02*
X168900000Y-86200000D01*
X169515302Y-86200000D02*
X168900000Y-86200000D01*
%TO.N,/D+*%
X172300000Y-86500000D02*
X172300000Y-87212500D01*
X172149999Y-86349999D02*
X172300000Y-86500000D01*
X172149999Y-85285800D02*
X172149999Y-86349999D01*
%TO.N,GND*%
X176100000Y-86000000D02*
X176100000Y-85285800D01*
X177500000Y-86200000D02*
X176300000Y-86200000D01*
X178015302Y-85684698D02*
X177500000Y-86200000D01*
X176300000Y-86200000D02*
X176100000Y-86000000D01*
X178015302Y-83822576D02*
X178015302Y-85684698D01*
X167800000Y-83807274D02*
X168307274Y-83300000D01*
X167800000Y-85684698D02*
X167800000Y-83807274D01*
X168307274Y-83300000D02*
X177492726Y-83300000D01*
X168315302Y-86200000D02*
X167800000Y-85684698D01*
X169715302Y-85285800D02*
X169715302Y-86000000D01*
X169715302Y-86000000D02*
X169515302Y-86200000D01*
X177492726Y-83300000D02*
X178015302Y-83822576D01*
D55*
%TO.N,Net-(R6-Pad2)*%
X175987500Y-89887500D02*
X176300000Y-90200000D01*
X176300000Y-90200000D02*
X176300000Y-93587500D01*
X175200000Y-89887500D02*
X175987500Y-89887500D01*
X173140000Y-89895000D02*
X175192500Y-89895000D01*
%TO.N,GND*%
X161750000Y-97550000D02*
X158400000Y-97550000D01*
D56*
X181962500Y-97037500D02*
X181962500Y-94650000D01*
D58*
%TO.N,VCC*%
X151800000Y-96500000D02*
X151800000Y-91950000D01*
%TO.N,Net-(C1-Pad1)*%
X158200000Y-96500000D02*
X155800000Y-96500000D01*
X158400000Y-96300000D02*
X158200000Y-96500000D01*
X158400000Y-95650000D02*
X158400000Y-96300000D01*
D55*
%TO.N,Net-(J10-Pad1)*%
X93187500Y-92087500D02*
X98487500Y-92087500D01*
X91545000Y-90445000D02*
X93187500Y-92087500D01*
X91545000Y-88975000D02*
X91545000Y-90445000D01*
D59*
%TO.N,Net-(D10-Pad2)*%
X99000000Y-84450000D02*
X99000000Y-85725000D01*
X100150000Y-83300000D02*
X99000000Y-84450000D01*
X100150000Y-80575000D02*
X100150000Y-83300000D01*
%TO.N,Net-(D9-Pad2)*%
X107450000Y-84550000D02*
X107450000Y-85812500D01*
X108550000Y-83450000D02*
X107450000Y-84550000D01*
X108550000Y-80575000D02*
X108550000Y-83450000D01*
%TO.N,Net-(D7-Pad2)*%
X125350000Y-83550000D02*
X125350000Y-80575000D01*
X124550000Y-84350000D02*
X125350000Y-83550000D01*
X124550000Y-85512500D02*
X124550000Y-84350000D01*
%TO.N,Net-(D6-Pad2)*%
X133800000Y-83900000D02*
X133800000Y-80575000D01*
X133300000Y-84400000D02*
X133800000Y-83900000D01*
X133300000Y-85575000D02*
X133300000Y-84400000D01*
%TO.N,Net-(D5-Pad2)*%
X141800000Y-84400000D02*
X142200000Y-84000000D01*
X141800000Y-85675000D02*
X141800000Y-84400000D01*
X142200000Y-84000000D02*
X142200000Y-80575000D01*
%TO.N,Net-(D8-Pad2)*%
X115950000Y-84550000D02*
X115950000Y-85812500D01*
X116950000Y-83550000D02*
X115950000Y-84550000D01*
X116950000Y-80575000D02*
X116950000Y-83550000D01*
D55*
%TO.N,FAN0*%
X146612500Y-86162500D02*
X146612500Y-88762500D01*
%TO.N,FAN1*%
X138112500Y-88662500D02*
X138112500Y-86062500D01*
%TO.N,FAN2*%
X129362500Y-88600000D02*
X129362500Y-86000000D01*
%TO.N,FAN3*%
X120762500Y-86300000D02*
X120762500Y-88900000D01*
%TO.N,FAN4*%
X112262500Y-88900000D02*
X112262500Y-86300000D01*
%TO.N,GND*%
X142762500Y-86721351D02*
X142762500Y-87571351D01*
%TO.N,Net-(Q1-Pad1)*%
X144800000Y-88783851D02*
X141325000Y-88783851D01*
X140862500Y-88321351D02*
X140862500Y-87571351D01*
%TO.N,GND*%
X143300000Y-86183851D02*
X142762500Y-86721351D01*
X144800000Y-86183851D02*
X143300000Y-86183851D01*
%TO.N,Net-(Q1-Pad1)*%
X141325000Y-88783851D02*
X140862500Y-88321351D01*
%TO.N,GND*%
X134262500Y-86721351D02*
X134262500Y-87571351D01*
%TO.N,Net-(Q2-Pad1)*%
X132362500Y-88321351D02*
X132362500Y-87571351D01*
%TO.N,GND*%
X134800000Y-86183851D02*
X134262500Y-86721351D01*
%TO.N,Net-(Q2-Pad1)*%
X136300000Y-88783851D02*
X132825000Y-88783851D01*
%TO.N,GND*%
X136300000Y-86183851D02*
X134800000Y-86183851D01*
%TO.N,Net-(Q2-Pad1)*%
X132825000Y-88783851D02*
X132362500Y-88321351D01*
%TO.N,Net-(Q3-Pad1)*%
X123562500Y-88321351D02*
X123562500Y-87571351D01*
%TO.N,GND*%
X125462500Y-86721351D02*
X125462500Y-87571351D01*
%TO.N,Net-(Q3-Pad1)*%
X124025000Y-88783851D02*
X123562500Y-88321351D01*
%TO.N,GND*%
X127500000Y-86183851D02*
X126000000Y-86183851D01*
%TO.N,Net-(Q3-Pad1)*%
X127500000Y-88783851D02*
X124025000Y-88783851D01*
%TO.N,GND*%
X126000000Y-86183851D02*
X125462500Y-86721351D01*
%TO.N,Net-(Q4-Pad1)*%
X114962500Y-88332905D02*
X114962500Y-87582905D01*
X115425000Y-88795405D02*
X114962500Y-88332905D01*
%TO.N,GND*%
X118900000Y-86195405D02*
X117400000Y-86195405D01*
X117400000Y-86195405D02*
X116862500Y-86732905D01*
X116862500Y-86732905D02*
X116862500Y-87582905D01*
%TO.N,Net-(Q4-Pad1)*%
X118900000Y-88795405D02*
X115425000Y-88795405D01*
%TO.N,GND*%
X108362500Y-86737500D02*
X108362500Y-87587500D01*
X110400000Y-86200000D02*
X108900000Y-86200000D01*
X108900000Y-86200000D02*
X108362500Y-86737500D01*
%TO.N,Net-(Q5-Pad1)*%
X106925000Y-88800000D02*
X106462500Y-88337500D01*
X106462500Y-88337500D02*
X106462500Y-87587500D01*
X110400000Y-88800000D02*
X106925000Y-88800000D01*
%TO.N,FAN5*%
X103812500Y-86212500D02*
X103812500Y-88812500D01*
%TO.N,Net-(Q6-Pad1)*%
X98050000Y-88350000D02*
X98050000Y-87600000D01*
X98512500Y-88812500D02*
X98050000Y-88350000D01*
X101987500Y-88812500D02*
X98512500Y-88812500D01*
%TO.N,GND*%
X100487500Y-86212500D02*
X99950000Y-86750000D01*
X101987500Y-86212500D02*
X100487500Y-86212500D01*
X99950000Y-86750000D02*
X99950000Y-87600000D01*
X102312600Y-94887400D02*
X102312600Y-95812600D01*
X103312600Y-104587400D02*
X103312600Y-105512600D01*
%TO.N,Net-(D11-Pad3)*%
X103300000Y-92500000D02*
X100700000Y-92500000D01*
%TO.N,Net-(J10-Pad1)*%
X98400000Y-94900000D02*
X98400000Y-92200000D01*
%TO.N,Net-(D11-Pad3)*%
X105900000Y-92500000D02*
X103300000Y-92500000D01*
%TO.N,TH1*%
X108237500Y-94900000D02*
X108237500Y-92237500D01*
%TO.N,+3.3V*%
X103450000Y-93600000D02*
X104250000Y-94400000D01*
X101700000Y-93600000D02*
X103450000Y-93600000D01*
X100400000Y-94900000D02*
X101700000Y-93600000D01*
%TO.N,GND*%
X102312600Y-95812600D02*
X102600000Y-96100000D01*
X102600000Y-96100000D02*
X105900000Y-96100000D01*
X106162500Y-95837500D02*
X106162500Y-94900000D01*
X105900000Y-96100000D02*
X106162500Y-95837500D01*
X103600000Y-105800000D02*
X106900000Y-105800000D01*
X103312600Y-105512600D02*
X103600000Y-105800000D01*
X106900000Y-105800000D02*
X107162500Y-105537500D01*
X107162500Y-105537500D02*
X107162500Y-104600000D01*
%TO.N,Net-(J6-Pad1)*%
X99400000Y-104600000D02*
X99400000Y-101900000D01*
%TO.N,Net-(D4-Pad3)*%
X106900000Y-102200000D02*
X104300000Y-102200000D01*
X104300000Y-102200000D02*
X101700000Y-102200000D01*
%TO.N,TH0*%
X109237500Y-104600000D02*
X109237500Y-101937500D01*
%TO.N,+3.3V*%
X104450000Y-103300000D02*
X105250000Y-104100000D01*
X102700000Y-103300000D02*
X104450000Y-103300000D01*
X101400000Y-104600000D02*
X102700000Y-103300000D01*
D58*
%TO.N,Net-(C1-Pad1)*%
X158400000Y-95650000D02*
X165000000Y-95650000D01*
D55*
%TO.N,GND*%
X165000000Y-97550000D02*
X161750000Y-97550000D01*
D53*
X167740000Y-91165000D02*
X166435000Y-91165000D01*
X165495000Y-92095000D02*
X163245000Y-92095000D01*
D54*
X165500000Y-92100000D02*
X165495000Y-92095000D01*
D53*
X166435000Y-91165000D02*
X165500000Y-92100000D01*
D56*
%TO.N,+3.3V*%
X180262500Y-91050000D02*
X180212500Y-91000000D01*
X180212500Y-91000000D02*
X179525000Y-91000000D01*
X185622500Y-96000000D02*
X185622500Y-94600000D01*
X185417500Y-96205000D02*
X185622500Y-96000000D01*
X186400000Y-94600000D02*
X185622500Y-94600000D01*
X183162500Y-90950000D02*
X183212500Y-91000000D01*
X185622500Y-91000000D02*
X183512500Y-91000000D01*
X179525000Y-94600000D02*
X180057475Y-94600000D01*
X180262500Y-94394975D02*
X180262500Y-91050000D01*
X183562500Y-90950000D02*
X183512500Y-91000000D01*
X183162500Y-90162500D02*
X183162500Y-90950000D01*
X183212500Y-91000000D02*
X180212500Y-91000000D01*
X183512500Y-91000000D02*
X183212500Y-91000000D01*
X186400000Y-91000000D02*
X185622500Y-91000000D01*
X183340013Y-96205000D02*
X185417500Y-96205000D01*
X183562500Y-90162500D02*
X183562500Y-90950000D01*
X185622500Y-94600000D02*
X185622500Y-91000000D01*
X180057475Y-94600000D02*
X180262500Y-94394975D01*
%TO.N,/D+*%
X173150000Y-85285800D02*
X173150000Y-84500000D01*
X172945000Y-84295000D02*
X172345000Y-84295000D01*
X172345000Y-84295000D02*
X172149999Y-84490001D01*
X173150000Y-84500000D02*
X172945000Y-84295000D01*
X172149999Y-84490001D02*
X172149999Y-85285800D01*
%TD*%
%TA.AperFunction,Conductor*%
%TO.N,VCC*%
G36*
X160370405Y-86314962D02*
G01*
X160424943Y-86369500D01*
X160444905Y-86444094D01*
X160442190Y-90687616D01*
X160439786Y-94444494D01*
X160419776Y-94518982D01*
X160365203Y-94573484D01*
X160290803Y-94593399D01*
X150276525Y-94594541D01*
X149394128Y-94594642D01*
X149319626Y-94574688D01*
X149265082Y-94520157D01*
X149245111Y-94445644D01*
X149245095Y-93285154D01*
X155795000Y-93285154D01*
X155795523Y-93293966D01*
X155796791Y-93304623D01*
X155802652Y-93325949D01*
X155837895Y-93405293D01*
X155853214Y-93427583D01*
X155912839Y-93487104D01*
X155935155Y-93502384D01*
X156014545Y-93537482D01*
X156035918Y-93543309D01*
X156046124Y-93544498D01*
X156054754Y-93545000D01*
X157475384Y-93545000D01*
X157490855Y-93540855D01*
X157495000Y-93525384D01*
X158195000Y-93525384D01*
X158199145Y-93540855D01*
X158214616Y-93545000D01*
X159635154Y-93545000D01*
X159643966Y-93544477D01*
X159654623Y-93543209D01*
X159675949Y-93537348D01*
X159755293Y-93502105D01*
X159777583Y-93486786D01*
X159837104Y-93427161D01*
X159852384Y-93404845D01*
X159887482Y-93325455D01*
X159893309Y-93304082D01*
X159894498Y-93293876D01*
X159895000Y-93285246D01*
X159895000Y-92464616D01*
X159890855Y-92449145D01*
X159875384Y-92445000D01*
X158214616Y-92445000D01*
X158199145Y-92449145D01*
X158195000Y-92464616D01*
X158195000Y-93525384D01*
X157495000Y-93525384D01*
X157495000Y-92464616D01*
X157490855Y-92449145D01*
X157475384Y-92445000D01*
X155814616Y-92445000D01*
X155799145Y-92449145D01*
X155795000Y-92464616D01*
X155795000Y-93285154D01*
X149245095Y-93285154D01*
X149245089Y-92839209D01*
X151411629Y-92839209D01*
X151413442Y-92842350D01*
X151417319Y-92844044D01*
X151584087Y-92898230D01*
X151598263Y-92901347D01*
X151772388Y-92922111D01*
X151786880Y-92922414D01*
X151961727Y-92908960D01*
X151976012Y-92906441D01*
X152144908Y-92859284D01*
X152158431Y-92854039D01*
X152174564Y-92845890D01*
X152186502Y-92835215D01*
X152185720Y-92831470D01*
X152183687Y-92828662D01*
X151813871Y-92458846D01*
X151800000Y-92450838D01*
X151786129Y-92458846D01*
X151419637Y-92825338D01*
X151411629Y-92839209D01*
X149245089Y-92839209D01*
X149245077Y-91943673D01*
X150827519Y-91943673D01*
X150842192Y-92118410D01*
X150844812Y-92132689D01*
X150893146Y-92301248D01*
X150898486Y-92314735D01*
X150903710Y-92324900D01*
X150914470Y-92336766D01*
X150918476Y-92335900D01*
X150920873Y-92334152D01*
X151291154Y-91963871D01*
X151299162Y-91950000D01*
X152300838Y-91950000D01*
X152308846Y-91963871D01*
X152675617Y-92330642D01*
X152688695Y-92338192D01*
X152694972Y-92328029D01*
X152746700Y-92172528D01*
X152749916Y-92158374D01*
X152772285Y-91981305D01*
X152772865Y-91973014D01*
X152773128Y-91954152D01*
X152772780Y-91945864D01*
X152755363Y-91768230D01*
X152752544Y-91753991D01*
X152743907Y-91725384D01*
X155795000Y-91725384D01*
X155799145Y-91740855D01*
X155814616Y-91745000D01*
X157475384Y-91745000D01*
X157490855Y-91740855D01*
X157495000Y-91725384D01*
X158195000Y-91725384D01*
X158199145Y-91740855D01*
X158214616Y-91745000D01*
X159875384Y-91745000D01*
X159890855Y-91740855D01*
X159895000Y-91725384D01*
X159895000Y-90904846D01*
X159894477Y-90896034D01*
X159893209Y-90885377D01*
X159887348Y-90864051D01*
X159852105Y-90784707D01*
X159836786Y-90762417D01*
X159777161Y-90702896D01*
X159754845Y-90687616D01*
X159675455Y-90652518D01*
X159654082Y-90646691D01*
X159643876Y-90645502D01*
X159635246Y-90645000D01*
X158214616Y-90645000D01*
X158199145Y-90649145D01*
X158195000Y-90664616D01*
X158195000Y-91725384D01*
X157495000Y-91725384D01*
X157495000Y-90664616D01*
X157490855Y-90649145D01*
X157475384Y-90645000D01*
X156054846Y-90645000D01*
X156046034Y-90645523D01*
X156035377Y-90646791D01*
X156014051Y-90652652D01*
X155934707Y-90687895D01*
X155912417Y-90703214D01*
X155852896Y-90762839D01*
X155837616Y-90785155D01*
X155802518Y-90864545D01*
X155796691Y-90885918D01*
X155795502Y-90896124D01*
X155795000Y-90904754D01*
X155795000Y-91725384D01*
X152743907Y-91725384D01*
X152701862Y-91586128D01*
X152696842Y-91573948D01*
X152686264Y-91562605D01*
X152681740Y-91563649D01*
X152680147Y-91564828D01*
X152308846Y-91936129D01*
X152300838Y-91950000D01*
X151299162Y-91950000D01*
X151291154Y-91936129D01*
X150925105Y-91570080D01*
X150911234Y-91562072D01*
X150907247Y-91564374D01*
X150903306Y-91573568D01*
X150850284Y-91740714D01*
X150847267Y-91754909D01*
X150827721Y-91929170D01*
X150827519Y-91943673D01*
X149245077Y-91943673D01*
X149245065Y-91064120D01*
X151412935Y-91064120D01*
X151413888Y-91068382D01*
X151415357Y-91070382D01*
X151786129Y-91441154D01*
X151800000Y-91449162D01*
X151813871Y-91441154D01*
X152179509Y-91075516D01*
X152187517Y-91061645D01*
X152185061Y-91057391D01*
X152183871Y-91056504D01*
X152183535Y-91056322D01*
X152170161Y-91050700D01*
X152002648Y-90998846D01*
X151988441Y-90995929D01*
X151814035Y-90977599D01*
X151799543Y-90977498D01*
X151624899Y-90993392D01*
X151610654Y-90996109D01*
X151442430Y-91045620D01*
X151428978Y-91051055D01*
X151424726Y-91053278D01*
X151412935Y-91064120D01*
X149245065Y-91064120D01*
X149245039Y-89139209D01*
X151411629Y-89139209D01*
X151413442Y-89142350D01*
X151417319Y-89144044D01*
X151584087Y-89198230D01*
X151598263Y-89201347D01*
X151772388Y-89222111D01*
X151786880Y-89222414D01*
X151961727Y-89208960D01*
X151976012Y-89206441D01*
X152144908Y-89159284D01*
X152158431Y-89154039D01*
X152174564Y-89145890D01*
X152186502Y-89135215D01*
X152185720Y-89131470D01*
X152183687Y-89128662D01*
X151813871Y-88758846D01*
X151800000Y-88750838D01*
X151786129Y-88758846D01*
X151419637Y-89125338D01*
X151411629Y-89139209D01*
X149245039Y-89139209D01*
X149245027Y-88243673D01*
X150827519Y-88243673D01*
X150842192Y-88418410D01*
X150844812Y-88432689D01*
X150893146Y-88601248D01*
X150898486Y-88614735D01*
X150903710Y-88624900D01*
X150914470Y-88636766D01*
X150918476Y-88635900D01*
X150920873Y-88634152D01*
X151291154Y-88263871D01*
X151299162Y-88250000D01*
X152300838Y-88250000D01*
X152308846Y-88263871D01*
X152675617Y-88630642D01*
X152688695Y-88638192D01*
X152694972Y-88628029D01*
X152746700Y-88472528D01*
X152749916Y-88458374D01*
X152772285Y-88281305D01*
X152772865Y-88273014D01*
X152773128Y-88254152D01*
X152772780Y-88245864D01*
X152755363Y-88068230D01*
X152752544Y-88053991D01*
X152701862Y-87886128D01*
X152696842Y-87873948D01*
X152686264Y-87862605D01*
X152681740Y-87863649D01*
X152680147Y-87864828D01*
X152308846Y-88236129D01*
X152300838Y-88250000D01*
X151299162Y-88250000D01*
X151291154Y-88236129D01*
X150925105Y-87870080D01*
X150911234Y-87862072D01*
X150907247Y-87864374D01*
X150903306Y-87873568D01*
X150850284Y-88040714D01*
X150847267Y-88054909D01*
X150827721Y-88229170D01*
X150827519Y-88243673D01*
X149245027Y-88243673D01*
X149245015Y-87364120D01*
X151412935Y-87364120D01*
X151413888Y-87368382D01*
X151415357Y-87370382D01*
X151786129Y-87741154D01*
X151800000Y-87749162D01*
X151813871Y-87741154D01*
X152179509Y-87375516D01*
X152187517Y-87361645D01*
X152185061Y-87357391D01*
X152183871Y-87356504D01*
X152183535Y-87356322D01*
X152170161Y-87350700D01*
X152002648Y-87298846D01*
X151988441Y-87295929D01*
X151814035Y-87277599D01*
X151799543Y-87277498D01*
X151624899Y-87293392D01*
X151610654Y-87296109D01*
X151442430Y-87345620D01*
X151428978Y-87351055D01*
X151424726Y-87353278D01*
X151412935Y-87364120D01*
X149245015Y-87364120D01*
X149245002Y-86444002D01*
X149264963Y-86369502D01*
X149319500Y-86314963D01*
X149394002Y-86295000D01*
X160295905Y-86295000D01*
X160370405Y-86314962D01*
G37*
%TD.AperFunction*%
%TD*%
%TA.AperFunction,Conductor*%
%TO.N,Net-(F2-Pad1)*%
G36*
X160404191Y-78613907D02*
G01*
X160440155Y-78663407D01*
X160445000Y-78694000D01*
X160445000Y-85996000D01*
X160426093Y-86054191D01*
X160376593Y-86090155D01*
X160346000Y-86095000D01*
X149344000Y-86095000D01*
X149285809Y-86076093D01*
X149249845Y-86026593D01*
X149245000Y-85996000D01*
X149245000Y-85636639D01*
X156700000Y-85636639D01*
X156700346Y-85642485D01*
X156702234Y-85658353D01*
X156706128Y-85672519D01*
X156744770Y-85759514D01*
X156754946Y-85774321D01*
X156821108Y-85840367D01*
X156835931Y-85850517D01*
X156922980Y-85889000D01*
X156937185Y-85892873D01*
X156952580Y-85894668D01*
X156958292Y-85895000D01*
X157934320Y-85895000D01*
X157947005Y-85890878D01*
X157950000Y-85886757D01*
X157950000Y-85879320D01*
X158650000Y-85879320D01*
X158654122Y-85892005D01*
X158658243Y-85895000D01*
X159641639Y-85895000D01*
X159647485Y-85894654D01*
X159663353Y-85892766D01*
X159677519Y-85888872D01*
X159764514Y-85850230D01*
X159779321Y-85840054D01*
X159845367Y-85773892D01*
X159855517Y-85759069D01*
X159894000Y-85672020D01*
X159897873Y-85657815D01*
X159899668Y-85642420D01*
X159900000Y-85636708D01*
X159900000Y-84660680D01*
X159895878Y-84647995D01*
X159891757Y-84645000D01*
X158665680Y-84645000D01*
X158652995Y-84649122D01*
X158650000Y-84653243D01*
X158650000Y-85879320D01*
X157950000Y-85879320D01*
X157950000Y-84660680D01*
X157945878Y-84647995D01*
X157941757Y-84645000D01*
X156715680Y-84645000D01*
X156702995Y-84649122D01*
X156700000Y-84653243D01*
X156700000Y-85636639D01*
X149245000Y-85636639D01*
X149245000Y-84838872D01*
X151411375Y-84838872D01*
X151415912Y-84843587D01*
X151586418Y-84898988D01*
X151595831Y-84901057D01*
X151774817Y-84922400D01*
X151784443Y-84922602D01*
X151964164Y-84908773D01*
X151973655Y-84907099D01*
X152147267Y-84858625D01*
X152156246Y-84855143D01*
X152178076Y-84844116D01*
X152186115Y-84836132D01*
X152180922Y-84825897D01*
X151811086Y-84456061D01*
X151799203Y-84450007D01*
X151794172Y-84450803D01*
X151416852Y-84828123D01*
X151411375Y-84838872D01*
X149245000Y-84838872D01*
X149245000Y-83941232D01*
X150827314Y-83941232D01*
X150842397Y-84120860D01*
X150844135Y-84130328D01*
X150893819Y-84303596D01*
X150897370Y-84312564D01*
X150905510Y-84328403D01*
X150913637Y-84336474D01*
X150923701Y-84331324D01*
X151293939Y-83961086D01*
X151299181Y-83950797D01*
X152300007Y-83950797D01*
X152300803Y-83955828D01*
X152678402Y-84333427D01*
X152688550Y-84338598D01*
X152692904Y-84334244D01*
X152747475Y-84170199D01*
X152749609Y-84160805D01*
X152772459Y-83979925D01*
X152772846Y-83974400D01*
X152773148Y-83952760D01*
X152772917Y-83947261D01*
X152771158Y-83929320D01*
X156700000Y-83929320D01*
X156704122Y-83942005D01*
X156708243Y-83945000D01*
X157934320Y-83945000D01*
X157947005Y-83940878D01*
X157950000Y-83936757D01*
X157950000Y-83929320D01*
X158650000Y-83929320D01*
X158654122Y-83942005D01*
X158658243Y-83945000D01*
X159884320Y-83945000D01*
X159897005Y-83940878D01*
X159900000Y-83936757D01*
X159900000Y-82953361D01*
X159899654Y-82947515D01*
X159897766Y-82931647D01*
X159893872Y-82917481D01*
X159855230Y-82830486D01*
X159845054Y-82815679D01*
X159778892Y-82749633D01*
X159764069Y-82739483D01*
X159677020Y-82701000D01*
X159662815Y-82697127D01*
X159647420Y-82695332D01*
X159641708Y-82695000D01*
X158665680Y-82695000D01*
X158652995Y-82699122D01*
X158650000Y-82703243D01*
X158650000Y-83929320D01*
X157950000Y-83929320D01*
X157950000Y-82710680D01*
X157945878Y-82697995D01*
X157941757Y-82695000D01*
X156958361Y-82695000D01*
X156952515Y-82695346D01*
X156936647Y-82697234D01*
X156922481Y-82701128D01*
X156835486Y-82739770D01*
X156820679Y-82749946D01*
X156754633Y-82816108D01*
X156744483Y-82830931D01*
X156706000Y-82917980D01*
X156702127Y-82932185D01*
X156700332Y-82947580D01*
X156700000Y-82953292D01*
X156700000Y-83929320D01*
X152771158Y-83929320D01*
X152755124Y-83765784D01*
X152753255Y-83756347D01*
X152701155Y-83583784D01*
X152697481Y-83574872D01*
X152695338Y-83570842D01*
X152686921Y-83562713D01*
X152677203Y-83567772D01*
X152306061Y-83938914D01*
X152300007Y-83950797D01*
X151299181Y-83950797D01*
X151299993Y-83949203D01*
X151299197Y-83944172D01*
X150922320Y-83567295D01*
X150911678Y-83561873D01*
X150905488Y-83567871D01*
X150904045Y-83571238D01*
X150849544Y-83743048D01*
X150847540Y-83752476D01*
X150827448Y-83931604D01*
X150827314Y-83941232D01*
X149245000Y-83941232D01*
X149245000Y-83063374D01*
X151413135Y-83063374D01*
X151418241Y-83073266D01*
X151788914Y-83443939D01*
X151800797Y-83449993D01*
X151805828Y-83449197D01*
X152182294Y-83072731D01*
X152187661Y-83062197D01*
X152180381Y-83054737D01*
X152172508Y-83051427D01*
X152000307Y-82998121D01*
X151990875Y-82996185D01*
X151811610Y-82977344D01*
X151801972Y-82977277D01*
X151622463Y-82993613D01*
X151612997Y-82995419D01*
X151440081Y-83046311D01*
X151431147Y-83049921D01*
X151421236Y-83055102D01*
X151413135Y-83063374D01*
X149245000Y-83063374D01*
X149245000Y-80960139D01*
X150831500Y-80960139D01*
X150831846Y-80965985D01*
X150833734Y-80981853D01*
X150837628Y-80996019D01*
X150876270Y-81083014D01*
X150886446Y-81097821D01*
X150952608Y-81163867D01*
X150967431Y-81174017D01*
X151054480Y-81212500D01*
X151068685Y-81216373D01*
X151084080Y-81218168D01*
X151089792Y-81218500D01*
X151434320Y-81218500D01*
X151447005Y-81214378D01*
X151450000Y-81210257D01*
X151450000Y-81202820D01*
X152150000Y-81202820D01*
X152154122Y-81215505D01*
X152158243Y-81218500D01*
X152510139Y-81218500D01*
X152515985Y-81218154D01*
X152531853Y-81216266D01*
X152546019Y-81212372D01*
X152633014Y-81173730D01*
X152647821Y-81163554D01*
X152713867Y-81097392D01*
X152724017Y-81082569D01*
X152762500Y-80995520D01*
X152766373Y-80981315D01*
X152768168Y-80965920D01*
X152768500Y-80960208D01*
X152768500Y-80615680D01*
X152764378Y-80602995D01*
X152760257Y-80600000D01*
X152165680Y-80600000D01*
X152152995Y-80604122D01*
X152150000Y-80608243D01*
X152150000Y-81202820D01*
X151450000Y-81202820D01*
X151450000Y-80615680D01*
X151445878Y-80602995D01*
X151441757Y-80600000D01*
X150847180Y-80600000D01*
X150834495Y-80604122D01*
X150831500Y-80608243D01*
X150831500Y-80960139D01*
X149245000Y-80960139D01*
X149245000Y-79884320D01*
X150831500Y-79884320D01*
X150835622Y-79897005D01*
X150839743Y-79900000D01*
X151434320Y-79900000D01*
X151447005Y-79895878D01*
X151450000Y-79891757D01*
X151450000Y-79884320D01*
X152150000Y-79884320D01*
X152154122Y-79897005D01*
X152158243Y-79900000D01*
X152752820Y-79900000D01*
X152765505Y-79895878D01*
X152768500Y-79891757D01*
X152768500Y-79539861D01*
X152768154Y-79534015D01*
X152766266Y-79518147D01*
X152762372Y-79503981D01*
X152723730Y-79416986D01*
X152713554Y-79402179D01*
X152647392Y-79336133D01*
X152632569Y-79325983D01*
X152545520Y-79287500D01*
X152531315Y-79283627D01*
X152515920Y-79281832D01*
X152510208Y-79281500D01*
X152165680Y-79281500D01*
X152152995Y-79285622D01*
X152150000Y-79289743D01*
X152150000Y-79884320D01*
X151450000Y-79884320D01*
X151450000Y-79297180D01*
X151445878Y-79284495D01*
X151441757Y-79281500D01*
X151089861Y-79281500D01*
X151084015Y-79281846D01*
X151068147Y-79283734D01*
X151053981Y-79287628D01*
X150966986Y-79326270D01*
X150952179Y-79336446D01*
X150886133Y-79402608D01*
X150875983Y-79417431D01*
X150837500Y-79504480D01*
X150833627Y-79518685D01*
X150831832Y-79534080D01*
X150831500Y-79539792D01*
X150831500Y-79884320D01*
X149245000Y-79884320D01*
X149245000Y-78694000D01*
X149263907Y-78635809D01*
X149313407Y-78599845D01*
X149344000Y-78595000D01*
X160346000Y-78595000D01*
X160404191Y-78613907D01*
G37*
%TD.AperFunction*%
%TD*%
%TA.AperFunction,Conductor*%
%TO.N,GND*%
G36*
X165870500Y-78614962D02*
G01*
X165925038Y-78669500D01*
X165945000Y-78744000D01*
X165945000Y-92285468D01*
X165925038Y-92359968D01*
X165901359Y-92390827D01*
X165896654Y-92395532D01*
X165887866Y-92403641D01*
X165881256Y-92409267D01*
X165872280Y-92414930D01*
X165837714Y-92454069D01*
X165831406Y-92460780D01*
X165820680Y-92471506D01*
X165815101Y-92478950D01*
X165807576Y-92488193D01*
X165777377Y-92522388D01*
X165772866Y-92531997D01*
X165767512Y-92540147D01*
X165762838Y-92548685D01*
X165756474Y-92557176D01*
X165752749Y-92567112D01*
X165752748Y-92567114D01*
X165740468Y-92599871D01*
X165735826Y-92610887D01*
X165716447Y-92652163D01*
X165714814Y-92662655D01*
X165711962Y-92671982D01*
X165709873Y-92681485D01*
X165706148Y-92691420D01*
X165705362Y-92702003D01*
X165705361Y-92702005D01*
X165702769Y-92736890D01*
X165701405Y-92748770D01*
X165699500Y-92761009D01*
X165699500Y-92775362D01*
X165699090Y-92786401D01*
X165695524Y-92834392D01*
X165697740Y-92844774D01*
X165698462Y-92855364D01*
X165698090Y-92855389D01*
X165699500Y-92868743D01*
X165699500Y-94430968D01*
X165679538Y-94505468D01*
X165655859Y-94536327D01*
X165640827Y-94551359D01*
X165574032Y-94589923D01*
X165535468Y-94595000D01*
X160794000Y-94595000D01*
X160719500Y-94575038D01*
X160664962Y-94520500D01*
X160645000Y-94446000D01*
X160645000Y-93285154D01*
X161195000Y-93285154D01*
X161195523Y-93293966D01*
X161196791Y-93304623D01*
X161202652Y-93325949D01*
X161237895Y-93405293D01*
X161253214Y-93427583D01*
X161312839Y-93487104D01*
X161335155Y-93502384D01*
X161414545Y-93537482D01*
X161435918Y-93543309D01*
X161446124Y-93544498D01*
X161454754Y-93545000D01*
X162875384Y-93545000D01*
X162890855Y-93540855D01*
X162895000Y-93525384D01*
X163595000Y-93525384D01*
X163599145Y-93540855D01*
X163614616Y-93545000D01*
X165035154Y-93545000D01*
X165043966Y-93544477D01*
X165054623Y-93543209D01*
X165075949Y-93537348D01*
X165155293Y-93502105D01*
X165177583Y-93486786D01*
X165237104Y-93427161D01*
X165252384Y-93404845D01*
X165287482Y-93325455D01*
X165293309Y-93304082D01*
X165294498Y-93293876D01*
X165295000Y-93285246D01*
X165295000Y-92464616D01*
X165290855Y-92449145D01*
X165275384Y-92445000D01*
X163614616Y-92445000D01*
X163599145Y-92449145D01*
X163595000Y-92464616D01*
X163595000Y-93525384D01*
X162895000Y-93525384D01*
X162895000Y-92464616D01*
X162890855Y-92449145D01*
X162875384Y-92445000D01*
X161214616Y-92445000D01*
X161199145Y-92449145D01*
X161195000Y-92464616D01*
X161195000Y-93285154D01*
X160645000Y-93285154D01*
X160645000Y-91725384D01*
X161195000Y-91725384D01*
X161199145Y-91740855D01*
X161214616Y-91745000D01*
X162875384Y-91745000D01*
X162890855Y-91740855D01*
X162895000Y-91725384D01*
X163595000Y-91725384D01*
X163599145Y-91740855D01*
X163614616Y-91745000D01*
X165275384Y-91745000D01*
X165290855Y-91740855D01*
X165295000Y-91725384D01*
X165295000Y-90904846D01*
X165294477Y-90896034D01*
X165293209Y-90885377D01*
X165287348Y-90864051D01*
X165252105Y-90784707D01*
X165236786Y-90762417D01*
X165177161Y-90702896D01*
X165154845Y-90687616D01*
X165075455Y-90652518D01*
X165054082Y-90646691D01*
X165043876Y-90645502D01*
X165035246Y-90645000D01*
X163614616Y-90645000D01*
X163599145Y-90649145D01*
X163595000Y-90664616D01*
X163595000Y-91725384D01*
X162895000Y-91725384D01*
X162895000Y-90664616D01*
X162890855Y-90649145D01*
X162875384Y-90645000D01*
X161454846Y-90645000D01*
X161446034Y-90645523D01*
X161435377Y-90646791D01*
X161414051Y-90652652D01*
X161334707Y-90687895D01*
X161312417Y-90703214D01*
X161252896Y-90762839D01*
X161237616Y-90785155D01*
X161202518Y-90864545D01*
X161196691Y-90885918D01*
X161195502Y-90896124D01*
X161195000Y-90904754D01*
X161195000Y-91725384D01*
X160645000Y-91725384D01*
X160645000Y-85646590D01*
X162449247Y-85646590D01*
X162452456Y-85652150D01*
X162566384Y-85721964D01*
X162576773Y-85727257D01*
X162798634Y-85819155D01*
X162809739Y-85822763D01*
X163043239Y-85878821D01*
X163054763Y-85880647D01*
X163294168Y-85899489D01*
X163305832Y-85899489D01*
X163545237Y-85880647D01*
X163556761Y-85878821D01*
X163790261Y-85822763D01*
X163801366Y-85819155D01*
X164023227Y-85727257D01*
X164033616Y-85721964D01*
X164139890Y-85656839D01*
X164150916Y-85645221D01*
X164149093Y-85639067D01*
X163313871Y-84803846D01*
X163300000Y-84795838D01*
X163286129Y-84803846D01*
X162457255Y-85632719D01*
X162449247Y-85646590D01*
X160645000Y-85646590D01*
X160645000Y-84300832D01*
X161695511Y-84300832D01*
X161714353Y-84540237D01*
X161716179Y-84551761D01*
X161772237Y-84785261D01*
X161775845Y-84796366D01*
X161867743Y-85018227D01*
X161873036Y-85028616D01*
X161938161Y-85134890D01*
X161949779Y-85145916D01*
X161955933Y-85144093D01*
X162791154Y-84308871D01*
X162799162Y-84295000D01*
X163800838Y-84295000D01*
X163808846Y-84308871D01*
X164637719Y-85137745D01*
X164651590Y-85145753D01*
X164657150Y-85142544D01*
X164726964Y-85028616D01*
X164732257Y-85018227D01*
X164824155Y-84796366D01*
X164827763Y-84785261D01*
X164883821Y-84551761D01*
X164885647Y-84540237D01*
X164904489Y-84300832D01*
X164904489Y-84289168D01*
X164885647Y-84049763D01*
X164883821Y-84038239D01*
X164827763Y-83804739D01*
X164824155Y-83793634D01*
X164732257Y-83571773D01*
X164726964Y-83561384D01*
X164661839Y-83455110D01*
X164650221Y-83444084D01*
X164644067Y-83445907D01*
X163808846Y-84281129D01*
X163800838Y-84295000D01*
X162799162Y-84295000D01*
X162791154Y-84281129D01*
X161962281Y-83452255D01*
X161948410Y-83444247D01*
X161942850Y-83447456D01*
X161873036Y-83561384D01*
X161867743Y-83571773D01*
X161775845Y-83793634D01*
X161772237Y-83804739D01*
X161716179Y-84038239D01*
X161714353Y-84049763D01*
X161695511Y-84289168D01*
X161695511Y-84300832D01*
X160645000Y-84300832D01*
X160645000Y-82944779D01*
X162449084Y-82944779D01*
X162450907Y-82950933D01*
X163286129Y-83786154D01*
X163300000Y-83794162D01*
X163313871Y-83786154D01*
X164142745Y-82957281D01*
X164150753Y-82943410D01*
X164147544Y-82937850D01*
X164033616Y-82868036D01*
X164023227Y-82862743D01*
X163801366Y-82770845D01*
X163790261Y-82767237D01*
X163556761Y-82711179D01*
X163545237Y-82709353D01*
X163305832Y-82690511D01*
X163294168Y-82690511D01*
X163054763Y-82709353D01*
X163043239Y-82711179D01*
X162809739Y-82767237D01*
X162798634Y-82770845D01*
X162576773Y-82862743D01*
X162566384Y-82868036D01*
X162460110Y-82933161D01*
X162449084Y-82944779D01*
X160645000Y-82944779D01*
X160645000Y-78744000D01*
X160664962Y-78669500D01*
X160719500Y-78614962D01*
X160794000Y-78595000D01*
X165796000Y-78595000D01*
X165870500Y-78614962D01*
G37*
%TD.AperFunction*%
%TD*%
%TA.AperFunction,Conductor*%
%TO.N,VFAN*%
G36*
X143825500Y-94019962D02*
G01*
X143880038Y-94074500D01*
X143900000Y-94149000D01*
X143900000Y-97851000D01*
X143880038Y-97925500D01*
X143825500Y-97980038D01*
X143751000Y-98000000D01*
X118100000Y-98000000D01*
X118100000Y-100651000D01*
X118080038Y-100725500D01*
X118025500Y-100780038D01*
X117951000Y-100800000D01*
X117699000Y-100800000D01*
X117624500Y-100780038D01*
X117569962Y-100725500D01*
X117550000Y-100651000D01*
X117550000Y-100129616D01*
X117545855Y-100114145D01*
X117530384Y-100110000D01*
X116199000Y-100110000D01*
X116124500Y-100090038D01*
X116069962Y-100035500D01*
X116050000Y-99961000D01*
X116050000Y-99390384D01*
X116750000Y-99390384D01*
X116754145Y-99405855D01*
X116769616Y-99410000D01*
X117530384Y-99410000D01*
X117545855Y-99405855D01*
X117550000Y-99390384D01*
X117550000Y-98869846D01*
X117549477Y-98861034D01*
X117548209Y-98850377D01*
X117542348Y-98829051D01*
X117507105Y-98749707D01*
X117491786Y-98727417D01*
X117432161Y-98667896D01*
X117409845Y-98652616D01*
X117330455Y-98617518D01*
X117309082Y-98611691D01*
X117298876Y-98610502D01*
X117290246Y-98610000D01*
X116769616Y-98610000D01*
X116754145Y-98614145D01*
X116750000Y-98629616D01*
X116750000Y-99390384D01*
X116050000Y-99390384D01*
X116050000Y-98629616D01*
X116045855Y-98614145D01*
X116030384Y-98610000D01*
X115509846Y-98610000D01*
X115501034Y-98610523D01*
X115490377Y-98611791D01*
X115469051Y-98617652D01*
X115389707Y-98652895D01*
X115367417Y-98668214D01*
X115307896Y-98727839D01*
X115292616Y-98750155D01*
X115257518Y-98829545D01*
X115251691Y-98850918D01*
X115250502Y-98861124D01*
X115250000Y-98869754D01*
X115250000Y-99374371D01*
X115230038Y-99448871D01*
X115175500Y-99503409D01*
X115101000Y-99523371D01*
X115026500Y-99503409D01*
X114971962Y-99448871D01*
X114957594Y-99414816D01*
X114940072Y-99352687D01*
X114935194Y-99339981D01*
X114847756Y-99162674D01*
X114840653Y-99151082D01*
X114722366Y-98992677D01*
X114713260Y-98982565D01*
X114568096Y-98848376D01*
X114557294Y-98840087D01*
X114390104Y-98734599D01*
X114377978Y-98728421D01*
X114228220Y-98668672D01*
X114212314Y-98666790D01*
X114211474Y-98667914D01*
X114210000Y-98675588D01*
X114210000Y-99961000D01*
X114190038Y-100035500D01*
X114135500Y-100090038D01*
X114061000Y-100110000D01*
X112781912Y-100110000D01*
X112766441Y-100114145D01*
X112764854Y-100120071D01*
X112769637Y-100138904D01*
X112774177Y-100151724D01*
X112856945Y-100331260D01*
X112863744Y-100343038D01*
X112977849Y-100504493D01*
X112986681Y-100514834D01*
X113016900Y-100544272D01*
X113056335Y-100610556D01*
X113057344Y-100687678D01*
X113019657Y-100754971D01*
X112953373Y-100794406D01*
X112912929Y-100800000D01*
X112249000Y-100800000D01*
X112174500Y-100780038D01*
X112119962Y-100725500D01*
X112100000Y-100651000D01*
X112100000Y-99407270D01*
X112769617Y-99407270D01*
X112773398Y-99409656D01*
X112775665Y-99410000D01*
X113490384Y-99410000D01*
X113505855Y-99405855D01*
X113510000Y-99390384D01*
X113510000Y-98682888D01*
X113505855Y-98667417D01*
X113503508Y-98666789D01*
X113497616Y-98667841D01*
X113369199Y-98715216D01*
X113356920Y-98721073D01*
X113187020Y-98822153D01*
X113176018Y-98830146D01*
X113027378Y-98960500D01*
X113018019Y-98970363D01*
X112895629Y-99125613D01*
X112888213Y-99137034D01*
X112796168Y-99311983D01*
X112790962Y-99324551D01*
X112770246Y-99391267D01*
X112769617Y-99407270D01*
X112100000Y-99407270D01*
X112100000Y-98000000D01*
X109649000Y-98000000D01*
X109574500Y-97980038D01*
X109519962Y-97925500D01*
X109500000Y-97851000D01*
X109500000Y-97190154D01*
X110000000Y-97190154D01*
X110000523Y-97198966D01*
X110001791Y-97209623D01*
X110007652Y-97230949D01*
X110042895Y-97310293D01*
X110058214Y-97332583D01*
X110117839Y-97392104D01*
X110140155Y-97407384D01*
X110219545Y-97442482D01*
X110240918Y-97448309D01*
X110251124Y-97449498D01*
X110259754Y-97450000D01*
X110830384Y-97450000D01*
X110845855Y-97445855D01*
X110850000Y-97430384D01*
X111550000Y-97430384D01*
X111554145Y-97445855D01*
X111569616Y-97450000D01*
X112140154Y-97450000D01*
X112148966Y-97449477D01*
X112159623Y-97448209D01*
X112180949Y-97442348D01*
X112260293Y-97407105D01*
X112282583Y-97391786D01*
X112342104Y-97332161D01*
X112357384Y-97309845D01*
X112392482Y-97230455D01*
X112398309Y-97209082D01*
X112399498Y-97198876D01*
X112400000Y-97190246D01*
X112400000Y-97190154D01*
X116000000Y-97190154D01*
X116000523Y-97198966D01*
X116001791Y-97209623D01*
X116007652Y-97230949D01*
X116042895Y-97310293D01*
X116058214Y-97332583D01*
X116117839Y-97392104D01*
X116140155Y-97407384D01*
X116219545Y-97442482D01*
X116240918Y-97448309D01*
X116251124Y-97449498D01*
X116259754Y-97450000D01*
X116830384Y-97450000D01*
X116845855Y-97445855D01*
X116850000Y-97430384D01*
X117550000Y-97430384D01*
X117554145Y-97445855D01*
X117569616Y-97450000D01*
X118140154Y-97450000D01*
X118148966Y-97449477D01*
X118159623Y-97448209D01*
X118180949Y-97442348D01*
X118260293Y-97407105D01*
X118282583Y-97391786D01*
X118342104Y-97332161D01*
X118357384Y-97309845D01*
X118392482Y-97230455D01*
X118398309Y-97209082D01*
X118399498Y-97198876D01*
X118400000Y-97190246D01*
X118400000Y-97190154D01*
X122000000Y-97190154D01*
X122000523Y-97198966D01*
X122001791Y-97209623D01*
X122007652Y-97230949D01*
X122042895Y-97310293D01*
X122058214Y-97332583D01*
X122117839Y-97392104D01*
X122140155Y-97407384D01*
X122219545Y-97442482D01*
X122240918Y-97448309D01*
X122251124Y-97449498D01*
X122259754Y-97450000D01*
X122830384Y-97450000D01*
X122845855Y-97445855D01*
X122850000Y-97430384D01*
X123550000Y-97430384D01*
X123554145Y-97445855D01*
X123569616Y-97450000D01*
X124140154Y-97450000D01*
X124148966Y-97449477D01*
X124159623Y-97448209D01*
X124180949Y-97442348D01*
X124260293Y-97407105D01*
X124282583Y-97391786D01*
X124342104Y-97332161D01*
X124357384Y-97309845D01*
X124392482Y-97230455D01*
X124398309Y-97209082D01*
X124399498Y-97198876D01*
X124400000Y-97190246D01*
X124400000Y-97190154D01*
X128000000Y-97190154D01*
X128000523Y-97198966D01*
X128001791Y-97209623D01*
X128007652Y-97230949D01*
X128042895Y-97310293D01*
X128058214Y-97332583D01*
X128117839Y-97392104D01*
X128140155Y-97407384D01*
X128219545Y-97442482D01*
X128240918Y-97448309D01*
X128251124Y-97449498D01*
X128259754Y-97450000D01*
X128830384Y-97450000D01*
X128845855Y-97445855D01*
X128850000Y-97430384D01*
X129550000Y-97430384D01*
X129554145Y-97445855D01*
X129569616Y-97450000D01*
X130140154Y-97450000D01*
X130148966Y-97449477D01*
X130159623Y-97448209D01*
X130180949Y-97442348D01*
X130260293Y-97407105D01*
X130282583Y-97391786D01*
X130342104Y-97332161D01*
X130357384Y-97309845D01*
X130392482Y-97230455D01*
X130398309Y-97209082D01*
X130399498Y-97198876D01*
X130400000Y-97190246D01*
X130400000Y-97190154D01*
X134000000Y-97190154D01*
X134000523Y-97198966D01*
X134001791Y-97209623D01*
X134007652Y-97230949D01*
X134042895Y-97310293D01*
X134058214Y-97332583D01*
X134117839Y-97392104D01*
X134140155Y-97407384D01*
X134219545Y-97442482D01*
X134240918Y-97448309D01*
X134251124Y-97449498D01*
X134259754Y-97450000D01*
X134830384Y-97450000D01*
X134845855Y-97445855D01*
X134850000Y-97430384D01*
X135550000Y-97430384D01*
X135554145Y-97445855D01*
X135569616Y-97450000D01*
X136140154Y-97450000D01*
X136148966Y-97449477D01*
X136159623Y-97448209D01*
X136180949Y-97442348D01*
X136260293Y-97407105D01*
X136282583Y-97391786D01*
X136342104Y-97332161D01*
X136357384Y-97309845D01*
X136392482Y-97230455D01*
X136398309Y-97209082D01*
X136399498Y-97198876D01*
X136400000Y-97190246D01*
X136400000Y-97190154D01*
X140000000Y-97190154D01*
X140000523Y-97198966D01*
X140001791Y-97209623D01*
X140007652Y-97230949D01*
X140042895Y-97310293D01*
X140058214Y-97332583D01*
X140117839Y-97392104D01*
X140140155Y-97407384D01*
X140219545Y-97442482D01*
X140240918Y-97448309D01*
X140251124Y-97449498D01*
X140259754Y-97450000D01*
X140830384Y-97450000D01*
X140845855Y-97445855D01*
X140850000Y-97430384D01*
X141550000Y-97430384D01*
X141554145Y-97445855D01*
X141569616Y-97450000D01*
X142140154Y-97450000D01*
X142148966Y-97449477D01*
X142159623Y-97448209D01*
X142180949Y-97442348D01*
X142260293Y-97407105D01*
X142282583Y-97391786D01*
X142342104Y-97332161D01*
X142357384Y-97309845D01*
X142392482Y-97230455D01*
X142398309Y-97209082D01*
X142399498Y-97198876D01*
X142400000Y-97190246D01*
X142400000Y-96269616D01*
X142395855Y-96254145D01*
X142380384Y-96250000D01*
X141569616Y-96250000D01*
X141554145Y-96254145D01*
X141550000Y-96269616D01*
X141550000Y-97430384D01*
X140850000Y-97430384D01*
X140850000Y-96269616D01*
X140845855Y-96254145D01*
X140830384Y-96250000D01*
X140019616Y-96250000D01*
X140004145Y-96254145D01*
X140000000Y-96269616D01*
X140000000Y-97190154D01*
X136400000Y-97190154D01*
X136400000Y-96269616D01*
X136395855Y-96254145D01*
X136380384Y-96250000D01*
X135569616Y-96250000D01*
X135554145Y-96254145D01*
X135550000Y-96269616D01*
X135550000Y-97430384D01*
X134850000Y-97430384D01*
X134850000Y-96269616D01*
X134845855Y-96254145D01*
X134830384Y-96250000D01*
X134019616Y-96250000D01*
X134004145Y-96254145D01*
X134000000Y-96269616D01*
X134000000Y-97190154D01*
X130400000Y-97190154D01*
X130400000Y-96269616D01*
X130395855Y-96254145D01*
X130380384Y-96250000D01*
X129569616Y-96250000D01*
X129554145Y-96254145D01*
X129550000Y-96269616D01*
X129550000Y-97430384D01*
X128850000Y-97430384D01*
X128850000Y-96269616D01*
X128845855Y-96254145D01*
X128830384Y-96250000D01*
X128019616Y-96250000D01*
X128004145Y-96254145D01*
X128000000Y-96269616D01*
X128000000Y-97190154D01*
X124400000Y-97190154D01*
X124400000Y-96269616D01*
X124395855Y-96254145D01*
X124380384Y-96250000D01*
X123569616Y-96250000D01*
X123554145Y-96254145D01*
X123550000Y-96269616D01*
X123550000Y-97430384D01*
X122850000Y-97430384D01*
X122850000Y-96269616D01*
X122845855Y-96254145D01*
X122830384Y-96250000D01*
X122019616Y-96250000D01*
X122004145Y-96254145D01*
X122000000Y-96269616D01*
X122000000Y-97190154D01*
X118400000Y-97190154D01*
X118400000Y-96269616D01*
X118395855Y-96254145D01*
X118380384Y-96250000D01*
X117569616Y-96250000D01*
X117554145Y-96254145D01*
X117550000Y-96269616D01*
X117550000Y-97430384D01*
X116850000Y-97430384D01*
X116850000Y-96269616D01*
X116845855Y-96254145D01*
X116830384Y-96250000D01*
X116019616Y-96250000D01*
X116004145Y-96254145D01*
X116000000Y-96269616D01*
X116000000Y-97190154D01*
X112400000Y-97190154D01*
X112400000Y-96269616D01*
X112395855Y-96254145D01*
X112380384Y-96250000D01*
X111569616Y-96250000D01*
X111554145Y-96254145D01*
X111550000Y-96269616D01*
X111550000Y-97430384D01*
X110850000Y-97430384D01*
X110850000Y-96269616D01*
X110845855Y-96254145D01*
X110830384Y-96250000D01*
X110019616Y-96250000D01*
X110004145Y-96254145D01*
X110000000Y-96269616D01*
X110000000Y-97190154D01*
X109500000Y-97190154D01*
X109500000Y-95530384D01*
X110000000Y-95530384D01*
X110004145Y-95545855D01*
X110019616Y-95550000D01*
X110830384Y-95550000D01*
X110845855Y-95545855D01*
X110850000Y-95530384D01*
X111550000Y-95530384D01*
X111554145Y-95545855D01*
X111569616Y-95550000D01*
X112380384Y-95550000D01*
X112395855Y-95545855D01*
X112400000Y-95530384D01*
X116000000Y-95530384D01*
X116004145Y-95545855D01*
X116019616Y-95550000D01*
X116830384Y-95550000D01*
X116845855Y-95545855D01*
X116850000Y-95530384D01*
X117550000Y-95530384D01*
X117554145Y-95545855D01*
X117569616Y-95550000D01*
X118380384Y-95550000D01*
X118395855Y-95545855D01*
X118400000Y-95530384D01*
X122000000Y-95530384D01*
X122004145Y-95545855D01*
X122019616Y-95550000D01*
X122830384Y-95550000D01*
X122845855Y-95545855D01*
X122850000Y-95530384D01*
X123550000Y-95530384D01*
X123554145Y-95545855D01*
X123569616Y-95550000D01*
X124380384Y-95550000D01*
X124395855Y-95545855D01*
X124400000Y-95530384D01*
X128000000Y-95530384D01*
X128004145Y-95545855D01*
X128019616Y-95550000D01*
X128830384Y-95550000D01*
X128845855Y-95545855D01*
X128850000Y-95530384D01*
X129550000Y-95530384D01*
X129554145Y-95545855D01*
X129569616Y-95550000D01*
X130380384Y-95550000D01*
X130395855Y-95545855D01*
X130400000Y-95530384D01*
X134000000Y-95530384D01*
X134004145Y-95545855D01*
X134019616Y-95550000D01*
X134830384Y-95550000D01*
X134845855Y-95545855D01*
X134850000Y-95530384D01*
X135550000Y-95530384D01*
X135554145Y-95545855D01*
X135569616Y-95550000D01*
X136380384Y-95550000D01*
X136395855Y-95545855D01*
X136400000Y-95530384D01*
X140000000Y-95530384D01*
X140004145Y-95545855D01*
X140019616Y-95550000D01*
X140830384Y-95550000D01*
X140845855Y-95545855D01*
X140850000Y-95530384D01*
X141550000Y-95530384D01*
X141554145Y-95545855D01*
X141569616Y-95550000D01*
X142380384Y-95550000D01*
X142395855Y-95545855D01*
X142400000Y-95530384D01*
X142400000Y-94609846D01*
X142399477Y-94601034D01*
X142398209Y-94590377D01*
X142392348Y-94569051D01*
X142357105Y-94489707D01*
X142341786Y-94467417D01*
X142282161Y-94407896D01*
X142259845Y-94392616D01*
X142180455Y-94357518D01*
X142159082Y-94351691D01*
X142148876Y-94350502D01*
X142140246Y-94350000D01*
X141569616Y-94350000D01*
X141554145Y-94354145D01*
X141550000Y-94369616D01*
X141550000Y-95530384D01*
X140850000Y-95530384D01*
X140850000Y-94369616D01*
X140845855Y-94354145D01*
X140830384Y-94350000D01*
X140259846Y-94350000D01*
X140251034Y-94350523D01*
X140240377Y-94351791D01*
X140219051Y-94357652D01*
X140139707Y-94392895D01*
X140117417Y-94408214D01*
X140057896Y-94467839D01*
X140042616Y-94490155D01*
X140007518Y-94569545D01*
X140001691Y-94590918D01*
X140000502Y-94601124D01*
X140000000Y-94609754D01*
X140000000Y-95530384D01*
X136400000Y-95530384D01*
X136400000Y-94609846D01*
X136399477Y-94601034D01*
X136398209Y-94590377D01*
X136392348Y-94569051D01*
X136357105Y-94489707D01*
X136341786Y-94467417D01*
X136282161Y-94407896D01*
X136259845Y-94392616D01*
X136180455Y-94357518D01*
X136159082Y-94351691D01*
X136148876Y-94350502D01*
X136140246Y-94350000D01*
X135569616Y-94350000D01*
X135554145Y-94354145D01*
X135550000Y-94369616D01*
X135550000Y-95530384D01*
X134850000Y-95530384D01*
X134850000Y-94369616D01*
X134845855Y-94354145D01*
X134830384Y-94350000D01*
X134259846Y-94350000D01*
X134251034Y-94350523D01*
X134240377Y-94351791D01*
X134219051Y-94357652D01*
X134139707Y-94392895D01*
X134117417Y-94408214D01*
X134057896Y-94467839D01*
X134042616Y-94490155D01*
X134007518Y-94569545D01*
X134001691Y-94590918D01*
X134000502Y-94601124D01*
X134000000Y-94609754D01*
X134000000Y-95530384D01*
X130400000Y-95530384D01*
X130400000Y-94609846D01*
X130399477Y-94601034D01*
X130398209Y-94590377D01*
X130392348Y-94569051D01*
X130357105Y-94489707D01*
X130341786Y-94467417D01*
X130282161Y-94407896D01*
X130259845Y-94392616D01*
X130180455Y-94357518D01*
X130159082Y-94351691D01*
X130148876Y-94350502D01*
X130140246Y-94350000D01*
X129569616Y-94350000D01*
X129554145Y-94354145D01*
X129550000Y-94369616D01*
X129550000Y-95530384D01*
X128850000Y-95530384D01*
X128850000Y-94369616D01*
X128845855Y-94354145D01*
X128830384Y-94350000D01*
X128259846Y-94350000D01*
X128251034Y-94350523D01*
X128240377Y-94351791D01*
X128219051Y-94357652D01*
X128139707Y-94392895D01*
X128117417Y-94408214D01*
X128057896Y-94467839D01*
X128042616Y-94490155D01*
X128007518Y-94569545D01*
X128001691Y-94590918D01*
X128000502Y-94601124D01*
X128000000Y-94609754D01*
X128000000Y-95530384D01*
X124400000Y-95530384D01*
X124400000Y-94609846D01*
X124399477Y-94601034D01*
X124398209Y-94590377D01*
X124392348Y-94569051D01*
X124357105Y-94489707D01*
X124341786Y-94467417D01*
X124282161Y-94407896D01*
X124259845Y-94392616D01*
X124180455Y-94357518D01*
X124159082Y-94351691D01*
X124148876Y-94350502D01*
X124140246Y-94350000D01*
X123569616Y-94350000D01*
X123554145Y-94354145D01*
X123550000Y-94369616D01*
X123550000Y-95530384D01*
X122850000Y-95530384D01*
X122850000Y-94369616D01*
X122845855Y-94354145D01*
X122830384Y-94350000D01*
X122259846Y-94350000D01*
X122251034Y-94350523D01*
X122240377Y-94351791D01*
X122219051Y-94357652D01*
X122139707Y-94392895D01*
X122117417Y-94408214D01*
X122057896Y-94467839D01*
X122042616Y-94490155D01*
X122007518Y-94569545D01*
X122001691Y-94590918D01*
X122000502Y-94601124D01*
X122000000Y-94609754D01*
X122000000Y-95530384D01*
X118400000Y-95530384D01*
X118400000Y-94609846D01*
X118399477Y-94601034D01*
X118398209Y-94590377D01*
X118392348Y-94569051D01*
X118357105Y-94489707D01*
X118341786Y-94467417D01*
X118282161Y-94407896D01*
X118259845Y-94392616D01*
X118180455Y-94357518D01*
X118159082Y-94351691D01*
X118148876Y-94350502D01*
X118140246Y-94350000D01*
X117569616Y-94350000D01*
X117554145Y-94354145D01*
X117550000Y-94369616D01*
X117550000Y-95530384D01*
X116850000Y-95530384D01*
X116850000Y-94369616D01*
X116845855Y-94354145D01*
X116830384Y-94350000D01*
X116259846Y-94350000D01*
X116251034Y-94350523D01*
X116240377Y-94351791D01*
X116219051Y-94357652D01*
X116139707Y-94392895D01*
X116117417Y-94408214D01*
X116057896Y-94467839D01*
X116042616Y-94490155D01*
X116007518Y-94569545D01*
X116001691Y-94590918D01*
X116000502Y-94601124D01*
X116000000Y-94609754D01*
X116000000Y-95530384D01*
X112400000Y-95530384D01*
X112400000Y-94609846D01*
X112399477Y-94601034D01*
X112398209Y-94590377D01*
X112392348Y-94569051D01*
X112357105Y-94489707D01*
X112341786Y-94467417D01*
X112282161Y-94407896D01*
X112259845Y-94392616D01*
X112180455Y-94357518D01*
X112159082Y-94351691D01*
X112148876Y-94350502D01*
X112140246Y-94350000D01*
X111569616Y-94350000D01*
X111554145Y-94354145D01*
X111550000Y-94369616D01*
X111550000Y-95530384D01*
X110850000Y-95530384D01*
X110850000Y-94369616D01*
X110845855Y-94354145D01*
X110830384Y-94350000D01*
X110259846Y-94350000D01*
X110251034Y-94350523D01*
X110240377Y-94351791D01*
X110219051Y-94357652D01*
X110139707Y-94392895D01*
X110117417Y-94408214D01*
X110057896Y-94467839D01*
X110042616Y-94490155D01*
X110007518Y-94569545D01*
X110001691Y-94590918D01*
X110000502Y-94601124D01*
X110000000Y-94609754D01*
X110000000Y-95530384D01*
X109500000Y-95530384D01*
X109500000Y-94149000D01*
X109519962Y-94074500D01*
X109574500Y-94019962D01*
X109649000Y-94000000D01*
X143751000Y-94000000D01*
X143825500Y-94019962D01*
G37*
%TD.AperFunction*%
%TD*%
M02*
