%TF.GenerationSoftware,KiCad,Pcbnew,(6.0.6)*%
%TF.CreationDate,2022-10-06T01:30:09-05:00*%
%TF.ProjectId,better-klipper-expander,62657474-6572-42d6-9b6c-69707065722d,V1*%
%TF.SameCoordinates,Original*%
%TF.FileFunction,Copper,L3,Inr*%
%TF.FilePolarity,Positive*%
%FSLAX46Y46*%
G04 Gerber Fmt 4.6, Leading zero omitted, Abs format (unit mm)*
G04 Created by KiCad (PCBNEW (6.0.6)) date 2022-10-06 01:30:09*
%MOMM*%
%LPD*%
G01*
G04 APERTURE LIST*
G04 Aperture macros list*
%AMRoundRect*
0 Rectangle with rounded corners*
0 $1 Rounding radius*
0 $2 $3 $4 $5 $6 $7 $8 $9 X,Y pos of 4 corners*
0 Add a 4 corners polygon primitive as box body*
4,1,4,$2,$3,$4,$5,$6,$7,$8,$9,$2,$3,0*
0 Add four circle primitives for the rounded corners*
1,1,$1+$1,$2,$3*
1,1,$1+$1,$4,$5*
1,1,$1+$1,$6,$7*
1,1,$1+$1,$8,$9*
0 Add four rect primitives between the rounded corners*
20,1,$1+$1,$2,$3,$4,$5,0*
20,1,$1+$1,$4,$5,$6,$7,0*
20,1,$1+$1,$6,$7,$8,$9,0*
20,1,$1+$1,$8,$9,$2,$3,0*%
G04 Aperture macros list end*
%TA.AperFunction,ComponentPad*%
%ADD10C,0.300000*%
%TD*%
%TA.AperFunction,ComponentPad*%
%ADD11R,1.337000X1.337000*%
%TD*%
%TA.AperFunction,ComponentPad*%
%ADD12C,1.337000*%
%TD*%
%TA.AperFunction,ComponentPad*%
%ADD13O,1.700000X1.700000*%
%TD*%
%TA.AperFunction,ComponentPad*%
%ADD14R,1.700000X1.700000*%
%TD*%
%TA.AperFunction,ComponentPad*%
%ADD15RoundRect,0.250000X-0.600000X-0.750000X0.600000X-0.750000X0.600000X0.750000X-0.600000X0.750000X0*%
%TD*%
%TA.AperFunction,ComponentPad*%
%ADD16O,1.700000X2.000000*%
%TD*%
%TA.AperFunction,ComponentPad*%
%ADD17R,2.600000X2.600000*%
%TD*%
%TA.AperFunction,ComponentPad*%
%ADD18C,2.600000*%
%TD*%
%TA.AperFunction,ComponentPad*%
%ADD19R,1.600000X1.600000*%
%TD*%
%TA.AperFunction,ComponentPad*%
%ADD20C,1.600000*%
%TD*%
%TA.AperFunction,ComponentPad*%
%ADD21C,0.660400*%
%TD*%
%TA.AperFunction,ViaPad*%
%ADD22C,0.500000*%
%TD*%
%TA.AperFunction,ViaPad*%
%ADD23C,0.800000*%
%TD*%
%TA.AperFunction,ViaPad*%
%ADD24C,1.000000*%
%TD*%
%TA.AperFunction,Conductor*%
%ADD25C,0.250000*%
%TD*%
%TA.AperFunction,Conductor*%
%ADD26C,0.200000*%
%TD*%
%TA.AperFunction,Conductor*%
%ADD27C,0.350000*%
%TD*%
%TA.AperFunction,Conductor*%
%ADD28C,0.500000*%
%TD*%
%TA.AperFunction,Conductor*%
%ADD29C,0.300000*%
%TD*%
G04 APERTURE END LIST*
D10*
%TO.N,N/C*%
%TO.C,U3*%
X171090000Y-93750000D03*
X169790000Y-93750000D03*
X171090000Y-92450000D03*
X169790000Y-92450000D03*
X171090000Y-91150000D03*
X169790000Y-91150000D03*
X171090000Y-89850000D03*
X169790000Y-89850000D03*
%TD*%
D11*
%TO.N,Net-(F2-Pad1)*%
%TO.C,F2*%
X151800000Y-80250000D03*
D12*
X151800000Y-83950000D03*
%TO.N,VCC*%
X151800000Y-88250000D03*
X151800000Y-91950000D03*
%TD*%
D13*
%TO.N,Net-(C4-Pad2)*%
%TO.C,JP1*%
X187265000Y-99800000D03*
D14*
%TO.N,GND*%
X184725000Y-99800000D03*
%TD*%
D13*
%TO.N,+5V*%
%TO.C,J11*%
X113860000Y-102300000D03*
%TO.N,VCC*%
X116400000Y-102300000D03*
%TO.N,VFAN*%
X113860000Y-99760000D03*
D14*
X116400000Y-99760000D03*
%TD*%
D15*
%TO.N,Net-(D9-Pad2)*%
%TO.C,J8*%
X108550000Y-80575000D03*
D16*
%TO.N,VFAN*%
X111050000Y-80575000D03*
%TD*%
D14*
%TO.N,Net-(J6-Pad1)*%
%TO.C,JP2*%
X99325000Y-98000000D03*
D13*
%TO.N,Net-(JP2-Pad2)*%
X101865000Y-98000000D03*
%TD*%
D15*
%TO.N,Net-(D7-Pad2)*%
%TO.C,J5*%
X125350000Y-80575000D03*
D16*
%TO.N,VFAN*%
X127850000Y-80575000D03*
%TD*%
D15*
%TO.N,Net-(D10-Pad2)*%
%TO.C,J9*%
X100150000Y-80575000D03*
D16*
%TO.N,VFAN*%
X102650000Y-80575000D03*
%TD*%
D15*
%TO.N,Net-(D5-Pad2)*%
%TO.C,J3*%
X142200000Y-80575000D03*
D16*
%TO.N,VFAN*%
X144700000Y-80575000D03*
%TD*%
D15*
%TO.N,Net-(D6-Pad2)*%
%TO.C,J4*%
X133800000Y-80575000D03*
D16*
%TO.N,VFAN*%
X136300000Y-80575000D03*
%TD*%
D15*
%TO.N,Net-(J6-Pad1)*%
%TO.C,J6*%
X91545000Y-96295000D03*
D16*
%TO.N,GND*%
X94045000Y-96295000D03*
%TD*%
D17*
%TO.N,Net-(F2-Pad1)*%
%TO.C,J1*%
X158300000Y-84295000D03*
D18*
%TO.N,GND*%
X163300000Y-84295000D03*
%TD*%
D15*
%TO.N,Net-(D8-Pad2)*%
%TO.C,J7*%
X116950000Y-80575000D03*
D16*
%TO.N,VFAN*%
X119450000Y-80575000D03*
%TD*%
%TO.N,GND*%
%TO.C,J10*%
X94045000Y-88975000D03*
D15*
%TO.N,Net-(J10-Pad1)*%
X91545000Y-88975000D03*
%TD*%
D19*
%TO.N,+5V*%
%TO.C,C19*%
X167047349Y-102200000D03*
D20*
%TO.N,GND*%
X170547349Y-102200000D03*
%TD*%
D21*
%TO.N,N/C*%
%TO.C,J2*%
X170010001Y-84210801D03*
X175789999Y-84210801D03*
%TD*%
D22*
%TO.N,+3.3V*%
X157600000Y-106474500D03*
D23*
%TO.N,GND*%
X163245000Y-92095000D03*
X165000000Y-97550000D03*
X158400000Y-99150000D03*
%TO.N,VCC*%
X125300000Y-99000000D03*
%TO.N,+5V*%
X129300000Y-103200000D03*
%TO.N,+3.3V*%
X179500000Y-99700000D03*
%TO.N,FAN2*%
X129362500Y-88600000D03*
%TO.N,FAN3*%
X120762500Y-88900000D03*
%TO.N,FAN0*%
X146612500Y-88762500D03*
%TO.N,FAN1*%
X138112500Y-88662500D03*
%TO.N,FAN4*%
X112262500Y-88900000D03*
%TO.N,FAN5*%
X103812500Y-88812500D03*
%TO.N,TH0*%
X109237500Y-101937500D03*
%TO.N,TH1*%
X108237500Y-92237500D03*
D22*
%TO.N,FAN2*%
X177300000Y-92200000D03*
%TO.N,FAN1*%
X177600000Y-91500000D03*
%TO.N,FAN0*%
X178200000Y-90900000D03*
%TO.N,FAN3*%
X177500000Y-92900000D03*
%TO.N,FAN4*%
X178000000Y-93400000D03*
%TO.N,FAN5*%
X178600000Y-93800000D03*
%TO.N,TH0*%
X187800000Y-92000000D03*
%TO.N,TH1*%
X187800000Y-92800000D03*
D23*
%TO.N,+3.3V*%
X186800000Y-86100000D03*
X190700000Y-87600000D03*
D22*
X187300000Y-91000000D03*
D23*
%TO.N,Net-(C10-Pad1)*%
X189500000Y-92000000D03*
D22*
X185300000Y-88400000D03*
D23*
%TO.N,+3.3V*%
X191700000Y-102800000D03*
%TO.N,GND*%
X191700000Y-105100000D03*
%TO.N,+5V*%
X160600000Y-101100000D03*
%TO.N,GND*%
X175200000Y-95400000D03*
%TO.N,Net-(C10-Pad1)*%
X187700000Y-97400000D03*
%TO.N,GND*%
X187300000Y-105400000D03*
X184100000Y-102900000D03*
D22*
%TO.N,Net-(C10-Pad1)*%
X183797382Y-97911054D03*
%TO.N,+3.3V*%
X183039671Y-98259623D03*
%TO.N,CLK*%
X181500000Y-88000000D03*
%TO.N,/D+*%
X183620878Y-88920878D03*
%TO.N,/D-*%
X184376516Y-88940488D03*
%TO.N,SD0*%
X181234314Y-88700000D03*
%TO.N,SD3*%
X182512000Y-88500961D03*
D23*
%TO.N,/D+*%
X174800000Y-88000000D03*
%TO.N,/D-*%
X178600000Y-87200000D03*
%TO.N,GND*%
X168875000Y-87600000D03*
X183500000Y-85500000D03*
%TO.N,SD0*%
X183500000Y-80600000D03*
%TO.N,CLK*%
X182200000Y-80600000D03*
%TO.N,SD3*%
X181000000Y-80600000D03*
%TO.N,VCC*%
X179700000Y-80600000D03*
D24*
%TO.N,VFAN*%
X143300000Y-95900000D03*
%TO.N,GND*%
X151800000Y-100200000D03*
D23*
X173800000Y-98300000D03*
X175700000Y-103650000D03*
X184017500Y-94605000D03*
X181917500Y-94605000D03*
X181917500Y-92605000D03*
X184017500Y-92605000D03*
X182917500Y-93600000D03*
%TO.N,VCC*%
X157900000Y-92100000D03*
%TO.N,Net-(D5-Pad2)*%
X141200000Y-91000000D03*
%TO.N,Net-(D6-Pad2)*%
X135200000Y-91000000D03*
%TO.N,Net-(D7-Pad2)*%
X129200000Y-91000000D03*
%TO.N,Net-(D8-Pad2)*%
X123200000Y-91000000D03*
%TO.N,Net-(D9-Pad2)*%
X117200000Y-91000000D03*
%TO.N,Net-(D10-Pad2)*%
X111200000Y-91000000D03*
%TO.N,GND*%
X142762500Y-87571351D03*
X134262500Y-87571351D03*
X125462500Y-87571351D03*
X116862500Y-87582905D03*
X108362500Y-87587500D03*
X99950000Y-87600000D03*
X191400000Y-94400000D03*
X102312600Y-94887400D03*
X103312600Y-104587400D03*
%TO.N,+3.3V*%
X104250000Y-94900000D03*
X105900000Y-100100000D03*
X105250000Y-104600000D03*
X178400000Y-104600000D03*
%TD*%
D25*
%TO.N,+3.3V*%
X156200000Y-106300000D02*
X106100000Y-106300000D01*
X106100000Y-106300000D02*
X105250000Y-105450000D01*
X156374500Y-106474500D02*
X156200000Y-106300000D01*
X157600000Y-106474500D02*
X156374500Y-106474500D01*
X105250000Y-105450000D02*
X105250000Y-104600000D01*
D26*
%TO.N,VCC*%
X179100000Y-80600000D02*
X179700000Y-80600000D01*
X167500000Y-83700000D02*
X168300000Y-82900000D01*
X167500000Y-87100000D02*
X167500000Y-83700000D01*
X176800000Y-82900000D02*
X179100000Y-80600000D01*
X158400000Y-90200000D02*
X164400000Y-90200000D01*
X164400000Y-90200000D02*
X167500000Y-87100000D01*
X157900000Y-90700000D02*
X158400000Y-90200000D01*
X168300000Y-82900000D02*
X176800000Y-82900000D01*
X157900000Y-92100000D02*
X157900000Y-90700000D01*
D27*
%TO.N,+5V*%
X160600000Y-102100000D02*
X160500000Y-102200000D01*
X160600000Y-101100000D02*
X160600000Y-102100000D01*
D28*
X160500000Y-102200000D02*
X167047349Y-102200000D01*
X156600000Y-102200000D02*
X160500000Y-102200000D01*
X123400000Y-103700000D02*
X123900000Y-103200000D01*
X155600000Y-103200000D02*
X156600000Y-102200000D01*
X114300000Y-103700000D02*
X123400000Y-103700000D01*
X113860000Y-102300000D02*
X113860000Y-103260000D01*
X113860000Y-103260000D02*
X114300000Y-103700000D01*
X123900000Y-103200000D02*
X155600000Y-103200000D01*
%TO.N,VCC*%
X143400000Y-99000000D02*
X148700000Y-93700000D01*
X148700000Y-93700000D02*
X148700000Y-92650000D01*
X149400000Y-91950000D02*
X151800000Y-91950000D01*
X123600000Y-99000000D02*
X143400000Y-99000000D01*
X116400000Y-102300000D02*
X120300000Y-102300000D01*
X120300000Y-102300000D02*
X123600000Y-99000000D01*
X148700000Y-92650000D02*
X149400000Y-91950000D01*
D25*
%TO.N,+3.3V*%
X104250000Y-95750000D02*
X104250000Y-94900000D01*
X105900000Y-97400000D02*
X104250000Y-95750000D01*
X105900000Y-100100000D02*
X105900000Y-97400000D01*
X105250000Y-101750000D02*
X105250000Y-104600000D01*
X105900000Y-101100000D02*
X105250000Y-101750000D01*
X105900000Y-100100000D02*
X105900000Y-101100000D01*
D26*
X187400000Y-86100000D02*
X187800000Y-86500000D01*
X187800000Y-86500000D02*
X187800000Y-88400000D01*
X186800000Y-86100000D02*
X187400000Y-86100000D01*
X190500000Y-88400000D02*
X187800000Y-88400000D01*
X190700000Y-87600000D02*
X190700000Y-88200000D01*
X190700000Y-88200000D02*
X190500000Y-88400000D01*
X187800000Y-90800000D02*
X187800000Y-88400000D01*
X187600000Y-91000000D02*
X187800000Y-90800000D01*
X187300000Y-91000000D02*
X187600000Y-91000000D01*
X191200000Y-102800000D02*
X191700000Y-102800000D01*
X189600000Y-101200000D02*
X191200000Y-102800000D01*
X183700000Y-101200000D02*
X189600000Y-101200000D01*
X183039671Y-100539671D02*
X183700000Y-101200000D01*
X183039671Y-98259623D02*
X183039671Y-100539671D01*
D28*
%TO.N,VFAN*%
X144700000Y-94500000D02*
X144700000Y-80575000D01*
X143300000Y-95900000D02*
X144700000Y-94500000D01*
D29*
X111050000Y-79250000D02*
X111075000Y-79225000D01*
D28*
X111050000Y-80575000D02*
X111050000Y-79250000D01*
X111075000Y-79225000D02*
X102875000Y-79225000D01*
X119425000Y-79225000D02*
X111075000Y-79225000D01*
D29*
X119450000Y-79250000D02*
X119425000Y-79225000D01*
D28*
X119450000Y-80575000D02*
X119450000Y-79250000D01*
X127825000Y-79225000D02*
X119425000Y-79225000D01*
D29*
X127850000Y-79250000D02*
X127825000Y-79225000D01*
D28*
X127850000Y-80575000D02*
X127850000Y-79250000D01*
X136325000Y-79225000D02*
X127825000Y-79225000D01*
D29*
X136300000Y-79250000D02*
X136325000Y-79225000D01*
D28*
X136300000Y-80575000D02*
X136300000Y-79250000D01*
X144525000Y-79225000D02*
X136325000Y-79225000D01*
X102875000Y-79225000D02*
X102650000Y-79450000D01*
X102650000Y-79450000D02*
X102650000Y-80575000D01*
X144700000Y-79400000D02*
X144525000Y-79225000D01*
X144700000Y-80575000D02*
X144700000Y-79400000D01*
%TD*%
M02*
