%TF.GenerationSoftware,KiCad,Pcbnew,(6.0.9)*%
%TF.CreationDate,2022-12-19T22:17:39-06:00*%
%TF.ProjectId,better-klipper-expander,62657474-6572-42d6-9b6c-69707065722d,V1*%
%TF.SameCoordinates,Original*%
%TF.FileFunction,Drillmap*%
%TF.FilePolarity,Positive*%
%FSLAX45Y45*%
G04 Gerber Fmt 4.5, Leading zero omitted, Abs format (unit mm)*
G04 Created by KiCad (PCBNEW (6.0.9)) date 2022-12-19 22:17:39*
%MOMM*%
%LPD*%
G01*
G04 APERTURE LIST*
%ADD10C,0.050000*%
%ADD11C,0.200000*%
%ADD12C,0.060960*%
%ADD13C,0.320000*%
G04 APERTURE END LIST*
D10*
X8804500Y-7749500D02*
X8804500Y-10749500D01*
X19304500Y-7750000D02*
X8804500Y-7749500D01*
X8804500Y-10749500D02*
X19304500Y-10749500D01*
X19304500Y-10749500D02*
X19304500Y-7749500D01*
D11*
D12*
X16827520Y-7983230D02*
X16888480Y-8044190D01*
X16888480Y-7983230D02*
X16827520Y-8044190D01*
X16827520Y-8061970D02*
X16888480Y-8122930D01*
X16888480Y-8061970D02*
X16827520Y-8122930D01*
X16827520Y-8385990D02*
X16888480Y-8446950D01*
X16888480Y-8385990D02*
X16827520Y-8446950D01*
X16827520Y-8495210D02*
X16888480Y-8556170D01*
X16888480Y-8495210D02*
X16827520Y-8556170D01*
X17691520Y-7983230D02*
X17752480Y-8044190D01*
X17752480Y-7983230D02*
X17691520Y-8044190D01*
X17691520Y-8061970D02*
X17752480Y-8122930D01*
X17752480Y-8061970D02*
X17691520Y-8122930D01*
X17691520Y-8385990D02*
X17752480Y-8446950D01*
X17752480Y-8385990D02*
X17691520Y-8446950D01*
X17691520Y-8495210D02*
X17752480Y-8556170D01*
X17752480Y-8495210D02*
X17691520Y-8556170D01*
D13*
X9364500Y-8149500D02*
G75*
G03*
X9364500Y-8149500I-160000J0D01*
G01*
X9364500Y-8149500D02*
G75*
G03*
X9364500Y-8149500I-160000J0D01*
G01*
X19065000Y-8149500D02*
G75*
G03*
X19065000Y-8149500I-160000J0D01*
G01*
X19065000Y-8149500D02*
G75*
G03*
X19065000Y-8149500I-160000J0D01*
G01*
D11*
X9059619Y-11062476D02*
X9059619Y-10862476D01*
X9107238Y-10862476D01*
X9135810Y-10872000D01*
X9154857Y-10891048D01*
X9164381Y-10910095D01*
X9173905Y-10948190D01*
X9173905Y-10976762D01*
X9164381Y-11014857D01*
X9154857Y-11033905D01*
X9135810Y-11052952D01*
X9107238Y-11062476D01*
X9059619Y-11062476D01*
X9259619Y-11062476D02*
X9259619Y-10929143D01*
X9259619Y-10967238D02*
X9269143Y-10948190D01*
X9278667Y-10938667D01*
X9297714Y-10929143D01*
X9316762Y-10929143D01*
X9383429Y-11062476D02*
X9383429Y-10929143D01*
X9383429Y-10862476D02*
X9373905Y-10872000D01*
X9383429Y-10881524D01*
X9392952Y-10872000D01*
X9383429Y-10862476D01*
X9383429Y-10881524D01*
X9507238Y-11062476D02*
X9488190Y-11052952D01*
X9478667Y-11033905D01*
X9478667Y-10862476D01*
X9612000Y-11062476D02*
X9592952Y-11052952D01*
X9583429Y-11033905D01*
X9583429Y-10862476D01*
X9840571Y-11062476D02*
X9840571Y-10862476D01*
X9907238Y-11005333D01*
X9973905Y-10862476D01*
X9973905Y-11062476D01*
X10154857Y-11062476D02*
X10154857Y-10957714D01*
X10145333Y-10938667D01*
X10126286Y-10929143D01*
X10088190Y-10929143D01*
X10069143Y-10938667D01*
X10154857Y-11052952D02*
X10135810Y-11062476D01*
X10088190Y-11062476D01*
X10069143Y-11052952D01*
X10059619Y-11033905D01*
X10059619Y-11014857D01*
X10069143Y-10995810D01*
X10088190Y-10986286D01*
X10135810Y-10986286D01*
X10154857Y-10976762D01*
X10250095Y-10929143D02*
X10250095Y-11129143D01*
X10250095Y-10938667D02*
X10269143Y-10929143D01*
X10307238Y-10929143D01*
X10326286Y-10938667D01*
X10335810Y-10948190D01*
X10345333Y-10967238D01*
X10345333Y-11024381D01*
X10335810Y-11043429D01*
X10326286Y-11052952D01*
X10307238Y-11062476D01*
X10269143Y-11062476D01*
X10250095Y-11052952D01*
X10431048Y-11043429D02*
X10440571Y-11052952D01*
X10431048Y-11062476D01*
X10421524Y-11052952D01*
X10431048Y-11043429D01*
X10431048Y-11062476D01*
X10431048Y-10938667D02*
X10440571Y-10948190D01*
X10431048Y-10957714D01*
X10421524Y-10948190D01*
X10431048Y-10938667D01*
X10431048Y-10957714D01*
D12*
X8741040Y-11361520D02*
X8802000Y-11422480D01*
X8802000Y-11361520D02*
X8741040Y-11422480D01*
D11*
X9097714Y-11282476D02*
X9116762Y-11282476D01*
X9135810Y-11292000D01*
X9145333Y-11301524D01*
X9154857Y-11320571D01*
X9164381Y-11358667D01*
X9164381Y-11406286D01*
X9154857Y-11444381D01*
X9145333Y-11463428D01*
X9135810Y-11472952D01*
X9116762Y-11482476D01*
X9097714Y-11482476D01*
X9078667Y-11472952D01*
X9069143Y-11463428D01*
X9059619Y-11444381D01*
X9050095Y-11406286D01*
X9050095Y-11358667D01*
X9059619Y-11320571D01*
X9069143Y-11301524D01*
X9078667Y-11292000D01*
X9097714Y-11282476D01*
X9250095Y-11463428D02*
X9259619Y-11472952D01*
X9250095Y-11482476D01*
X9240571Y-11472952D01*
X9250095Y-11463428D01*
X9250095Y-11482476D01*
X9431048Y-11282476D02*
X9392952Y-11282476D01*
X9373905Y-11292000D01*
X9364381Y-11301524D01*
X9345333Y-11330095D01*
X9335810Y-11368190D01*
X9335810Y-11444381D01*
X9345333Y-11463428D01*
X9354857Y-11472952D01*
X9373905Y-11482476D01*
X9412000Y-11482476D01*
X9431048Y-11472952D01*
X9440571Y-11463428D01*
X9450095Y-11444381D01*
X9450095Y-11396762D01*
X9440571Y-11377714D01*
X9431048Y-11368190D01*
X9412000Y-11358667D01*
X9373905Y-11358667D01*
X9354857Y-11368190D01*
X9345333Y-11377714D01*
X9335810Y-11396762D01*
X9640571Y-11482476D02*
X9526286Y-11482476D01*
X9583429Y-11482476D02*
X9583429Y-11282476D01*
X9564381Y-11311048D01*
X9545333Y-11330095D01*
X9526286Y-11339619D01*
X9764381Y-11282476D02*
X9783429Y-11282476D01*
X9802476Y-11292000D01*
X9812000Y-11301524D01*
X9821524Y-11320571D01*
X9831048Y-11358667D01*
X9831048Y-11406286D01*
X9821524Y-11444381D01*
X9812000Y-11463428D01*
X9802476Y-11472952D01*
X9783429Y-11482476D01*
X9764381Y-11482476D01*
X9745333Y-11472952D01*
X9735810Y-11463428D01*
X9726286Y-11444381D01*
X9716762Y-11406286D01*
X9716762Y-11358667D01*
X9726286Y-11320571D01*
X9735810Y-11301524D01*
X9745333Y-11292000D01*
X9764381Y-11282476D01*
X9916762Y-11482476D02*
X9916762Y-11349143D01*
X9916762Y-11368190D02*
X9926286Y-11358667D01*
X9945333Y-11349143D01*
X9973905Y-11349143D01*
X9992952Y-11358667D01*
X10002476Y-11377714D01*
X10002476Y-11482476D01*
X10002476Y-11377714D02*
X10012000Y-11358667D01*
X10031048Y-11349143D01*
X10059619Y-11349143D01*
X10078667Y-11358667D01*
X10088190Y-11377714D01*
X10088190Y-11482476D01*
X10183429Y-11482476D02*
X10183429Y-11349143D01*
X10183429Y-11368190D02*
X10192952Y-11358667D01*
X10212000Y-11349143D01*
X10240571Y-11349143D01*
X10259619Y-11358667D01*
X10269143Y-11377714D01*
X10269143Y-11482476D01*
X10269143Y-11377714D02*
X10278667Y-11358667D01*
X10297714Y-11349143D01*
X10326286Y-11349143D01*
X10345333Y-11358667D01*
X10354857Y-11377714D01*
X10354857Y-11482476D01*
X10745333Y-11272952D02*
X10573905Y-11530095D01*
X11002476Y-11282476D02*
X11021524Y-11282476D01*
X11040571Y-11292000D01*
X11050095Y-11301524D01*
X11059619Y-11320571D01*
X11069143Y-11358667D01*
X11069143Y-11406286D01*
X11059619Y-11444381D01*
X11050095Y-11463428D01*
X11040571Y-11472952D01*
X11021524Y-11482476D01*
X11002476Y-11482476D01*
X10983429Y-11472952D01*
X10973905Y-11463428D01*
X10964381Y-11444381D01*
X10954857Y-11406286D01*
X10954857Y-11358667D01*
X10964381Y-11320571D01*
X10973905Y-11301524D01*
X10983429Y-11292000D01*
X11002476Y-11282476D01*
X11154857Y-11463428D02*
X11164381Y-11472952D01*
X11154857Y-11482476D01*
X11145333Y-11472952D01*
X11154857Y-11463428D01*
X11154857Y-11482476D01*
X11288190Y-11282476D02*
X11307238Y-11282476D01*
X11326286Y-11292000D01*
X11335809Y-11301524D01*
X11345333Y-11320571D01*
X11354857Y-11358667D01*
X11354857Y-11406286D01*
X11345333Y-11444381D01*
X11335809Y-11463428D01*
X11326286Y-11472952D01*
X11307238Y-11482476D01*
X11288190Y-11482476D01*
X11269143Y-11472952D01*
X11259619Y-11463428D01*
X11250095Y-11444381D01*
X11240571Y-11406286D01*
X11240571Y-11358667D01*
X11250095Y-11320571D01*
X11259619Y-11301524D01*
X11269143Y-11292000D01*
X11288190Y-11282476D01*
X11431048Y-11301524D02*
X11440571Y-11292000D01*
X11459619Y-11282476D01*
X11507238Y-11282476D01*
X11526286Y-11292000D01*
X11535809Y-11301524D01*
X11545333Y-11320571D01*
X11545333Y-11339619D01*
X11535809Y-11368190D01*
X11421524Y-11482476D01*
X11545333Y-11482476D01*
X11716762Y-11349143D02*
X11716762Y-11482476D01*
X11669143Y-11272952D02*
X11621524Y-11415809D01*
X11745333Y-11415809D01*
X11859619Y-11282476D02*
X11878667Y-11282476D01*
X11897714Y-11292000D01*
X11907238Y-11301524D01*
X11916762Y-11320571D01*
X11926286Y-11358667D01*
X11926286Y-11406286D01*
X11916762Y-11444381D01*
X11907238Y-11463428D01*
X11897714Y-11472952D01*
X11878667Y-11482476D01*
X11859619Y-11482476D01*
X11840571Y-11472952D01*
X11831048Y-11463428D01*
X11821524Y-11444381D01*
X11812000Y-11406286D01*
X11812000Y-11358667D01*
X11821524Y-11320571D01*
X11831048Y-11301524D01*
X11840571Y-11292000D01*
X11859619Y-11282476D01*
X12002476Y-11282476D02*
X12002476Y-11320571D01*
X12078667Y-11282476D02*
X12078667Y-11320571D01*
X12373905Y-11558667D02*
X12364381Y-11549143D01*
X12345333Y-11520571D01*
X12335809Y-11501524D01*
X12326286Y-11472952D01*
X12316762Y-11425333D01*
X12316762Y-11387238D01*
X12326286Y-11339619D01*
X12335809Y-11311048D01*
X12345333Y-11292000D01*
X12364381Y-11263428D01*
X12373905Y-11253905D01*
X12478667Y-11368190D02*
X12459619Y-11358667D01*
X12450095Y-11349143D01*
X12440571Y-11330095D01*
X12440571Y-11320571D01*
X12450095Y-11301524D01*
X12459619Y-11292000D01*
X12478667Y-11282476D01*
X12516762Y-11282476D01*
X12535809Y-11292000D01*
X12545333Y-11301524D01*
X12554857Y-11320571D01*
X12554857Y-11330095D01*
X12545333Y-11349143D01*
X12535809Y-11358667D01*
X12516762Y-11368190D01*
X12478667Y-11368190D01*
X12459619Y-11377714D01*
X12450095Y-11387238D01*
X12440571Y-11406286D01*
X12440571Y-11444381D01*
X12450095Y-11463428D01*
X12459619Y-11472952D01*
X12478667Y-11482476D01*
X12516762Y-11482476D01*
X12535809Y-11472952D01*
X12545333Y-11463428D01*
X12554857Y-11444381D01*
X12554857Y-11406286D01*
X12545333Y-11387238D01*
X12535809Y-11377714D01*
X12516762Y-11368190D01*
X12792952Y-11482476D02*
X12792952Y-11282476D01*
X12878667Y-11482476D02*
X12878667Y-11377714D01*
X12869143Y-11358667D01*
X12850095Y-11349143D01*
X12821524Y-11349143D01*
X12802476Y-11358667D01*
X12792952Y-11368190D01*
X13002476Y-11482476D02*
X12983428Y-11472952D01*
X12973905Y-11463428D01*
X12964381Y-11444381D01*
X12964381Y-11387238D01*
X12973905Y-11368190D01*
X12983428Y-11358667D01*
X13002476Y-11349143D01*
X13031048Y-11349143D01*
X13050095Y-11358667D01*
X13059619Y-11368190D01*
X13069143Y-11387238D01*
X13069143Y-11444381D01*
X13059619Y-11463428D01*
X13050095Y-11472952D01*
X13031048Y-11482476D01*
X13002476Y-11482476D01*
X13183428Y-11482476D02*
X13164381Y-11472952D01*
X13154857Y-11453905D01*
X13154857Y-11282476D01*
X13335809Y-11472952D02*
X13316762Y-11482476D01*
X13278667Y-11482476D01*
X13259619Y-11472952D01*
X13250095Y-11453905D01*
X13250095Y-11377714D01*
X13259619Y-11358667D01*
X13278667Y-11349143D01*
X13316762Y-11349143D01*
X13335809Y-11358667D01*
X13345333Y-11377714D01*
X13345333Y-11396762D01*
X13250095Y-11415809D01*
X13421524Y-11472952D02*
X13440571Y-11482476D01*
X13478667Y-11482476D01*
X13497714Y-11472952D01*
X13507238Y-11453905D01*
X13507238Y-11444381D01*
X13497714Y-11425333D01*
X13478667Y-11415809D01*
X13450095Y-11415809D01*
X13431048Y-11406286D01*
X13421524Y-11387238D01*
X13421524Y-11377714D01*
X13431048Y-11358667D01*
X13450095Y-11349143D01*
X13478667Y-11349143D01*
X13497714Y-11358667D01*
X13573905Y-11558667D02*
X13583428Y-11549143D01*
X13602476Y-11520571D01*
X13612000Y-11501524D01*
X13621524Y-11472952D01*
X13631048Y-11425333D01*
X13631048Y-11387238D01*
X13621524Y-11339619D01*
X13612000Y-11311048D01*
X13602476Y-11292000D01*
X13583428Y-11263428D01*
X13573905Y-11253905D01*
X13935809Y-11558667D02*
X13926286Y-11549143D01*
X13907238Y-11520571D01*
X13897714Y-11501524D01*
X13888190Y-11472952D01*
X13878667Y-11425333D01*
X13878667Y-11387238D01*
X13888190Y-11339619D01*
X13897714Y-11311048D01*
X13907238Y-11292000D01*
X13926286Y-11263428D01*
X13935809Y-11253905D01*
X14012000Y-11349143D02*
X14012000Y-11482476D01*
X14012000Y-11368190D02*
X14021524Y-11358667D01*
X14040571Y-11349143D01*
X14069143Y-11349143D01*
X14088190Y-11358667D01*
X14097714Y-11377714D01*
X14097714Y-11482476D01*
X14221524Y-11482476D02*
X14202476Y-11472952D01*
X14192952Y-11463428D01*
X14183428Y-11444381D01*
X14183428Y-11387238D01*
X14192952Y-11368190D01*
X14202476Y-11358667D01*
X14221524Y-11349143D01*
X14250095Y-11349143D01*
X14269143Y-11358667D01*
X14278667Y-11368190D01*
X14288190Y-11387238D01*
X14288190Y-11444381D01*
X14278667Y-11463428D01*
X14269143Y-11472952D01*
X14250095Y-11482476D01*
X14221524Y-11482476D01*
X14345333Y-11349143D02*
X14421524Y-11349143D01*
X14373905Y-11282476D02*
X14373905Y-11453905D01*
X14383428Y-11472952D01*
X14402476Y-11482476D01*
X14421524Y-11482476D01*
X14640571Y-11349143D02*
X14640571Y-11549143D01*
X14640571Y-11358667D02*
X14659619Y-11349143D01*
X14697714Y-11349143D01*
X14716762Y-11358667D01*
X14726286Y-11368190D01*
X14735809Y-11387238D01*
X14735809Y-11444381D01*
X14726286Y-11463428D01*
X14716762Y-11472952D01*
X14697714Y-11482476D01*
X14659619Y-11482476D01*
X14640571Y-11472952D01*
X14850095Y-11482476D02*
X14831048Y-11472952D01*
X14821524Y-11453905D01*
X14821524Y-11282476D01*
X15012000Y-11482476D02*
X15012000Y-11377714D01*
X15002476Y-11358667D01*
X14983428Y-11349143D01*
X14945333Y-11349143D01*
X14926286Y-11358667D01*
X15012000Y-11472952D02*
X14992952Y-11482476D01*
X14945333Y-11482476D01*
X14926286Y-11472952D01*
X14916762Y-11453905D01*
X14916762Y-11434857D01*
X14926286Y-11415809D01*
X14945333Y-11406286D01*
X14992952Y-11406286D01*
X15012000Y-11396762D01*
X15078667Y-11349143D02*
X15154857Y-11349143D01*
X15107238Y-11282476D02*
X15107238Y-11453905D01*
X15116762Y-11472952D01*
X15135809Y-11482476D01*
X15154857Y-11482476D01*
X15297714Y-11472952D02*
X15278667Y-11482476D01*
X15240571Y-11482476D01*
X15221524Y-11472952D01*
X15212000Y-11453905D01*
X15212000Y-11377714D01*
X15221524Y-11358667D01*
X15240571Y-11349143D01*
X15278667Y-11349143D01*
X15297714Y-11358667D01*
X15307238Y-11377714D01*
X15307238Y-11396762D01*
X15212000Y-11415809D01*
X15478667Y-11482476D02*
X15478667Y-11282476D01*
X15478667Y-11472952D02*
X15459619Y-11482476D01*
X15421524Y-11482476D01*
X15402476Y-11472952D01*
X15392952Y-11463428D01*
X15383428Y-11444381D01*
X15383428Y-11387238D01*
X15392952Y-11368190D01*
X15402476Y-11358667D01*
X15421524Y-11349143D01*
X15459619Y-11349143D01*
X15478667Y-11358667D01*
X15554857Y-11558667D02*
X15564381Y-11549143D01*
X15583428Y-11520571D01*
X15592952Y-11501524D01*
X15602476Y-11472952D01*
X15612000Y-11425333D01*
X15612000Y-11387238D01*
X15602476Y-11339619D01*
X15592952Y-11311048D01*
X15583428Y-11292000D01*
X15564381Y-11263428D01*
X15554857Y-11253905D01*
X8802000Y-11656000D02*
G75*
G03*
X8802000Y-11656000I-100000J0D01*
G01*
X9040571Y-11546476D02*
X9164381Y-11546476D01*
X9097714Y-11622667D01*
X9126286Y-11622667D01*
X9145333Y-11632190D01*
X9154857Y-11641714D01*
X9164381Y-11660762D01*
X9164381Y-11708381D01*
X9154857Y-11727428D01*
X9145333Y-11736952D01*
X9126286Y-11746476D01*
X9069143Y-11746476D01*
X9050095Y-11736952D01*
X9040571Y-11727428D01*
X9250095Y-11727428D02*
X9259619Y-11736952D01*
X9250095Y-11746476D01*
X9240571Y-11736952D01*
X9250095Y-11727428D01*
X9250095Y-11746476D01*
X9335810Y-11565524D02*
X9345333Y-11556000D01*
X9364381Y-11546476D01*
X9412000Y-11546476D01*
X9431048Y-11556000D01*
X9440571Y-11565524D01*
X9450095Y-11584571D01*
X9450095Y-11603619D01*
X9440571Y-11632190D01*
X9326286Y-11746476D01*
X9450095Y-11746476D01*
X9573905Y-11546476D02*
X9592952Y-11546476D01*
X9612000Y-11556000D01*
X9621524Y-11565524D01*
X9631048Y-11584571D01*
X9640571Y-11622667D01*
X9640571Y-11670286D01*
X9631048Y-11708381D01*
X9621524Y-11727428D01*
X9612000Y-11736952D01*
X9592952Y-11746476D01*
X9573905Y-11746476D01*
X9554857Y-11736952D01*
X9545333Y-11727428D01*
X9535810Y-11708381D01*
X9526286Y-11670286D01*
X9526286Y-11622667D01*
X9535810Y-11584571D01*
X9545333Y-11565524D01*
X9554857Y-11556000D01*
X9573905Y-11546476D01*
X9764381Y-11546476D02*
X9783429Y-11546476D01*
X9802476Y-11556000D01*
X9812000Y-11565524D01*
X9821524Y-11584571D01*
X9831048Y-11622667D01*
X9831048Y-11670286D01*
X9821524Y-11708381D01*
X9812000Y-11727428D01*
X9802476Y-11736952D01*
X9783429Y-11746476D01*
X9764381Y-11746476D01*
X9745333Y-11736952D01*
X9735810Y-11727428D01*
X9726286Y-11708381D01*
X9716762Y-11670286D01*
X9716762Y-11622667D01*
X9726286Y-11584571D01*
X9735810Y-11565524D01*
X9745333Y-11556000D01*
X9764381Y-11546476D01*
X9916762Y-11746476D02*
X9916762Y-11613143D01*
X9916762Y-11632190D02*
X9926286Y-11622667D01*
X9945333Y-11613143D01*
X9973905Y-11613143D01*
X9992952Y-11622667D01*
X10002476Y-11641714D01*
X10002476Y-11746476D01*
X10002476Y-11641714D02*
X10012000Y-11622667D01*
X10031048Y-11613143D01*
X10059619Y-11613143D01*
X10078667Y-11622667D01*
X10088190Y-11641714D01*
X10088190Y-11746476D01*
X10183429Y-11746476D02*
X10183429Y-11613143D01*
X10183429Y-11632190D02*
X10192952Y-11622667D01*
X10212000Y-11613143D01*
X10240571Y-11613143D01*
X10259619Y-11622667D01*
X10269143Y-11641714D01*
X10269143Y-11746476D01*
X10269143Y-11641714D02*
X10278667Y-11622667D01*
X10297714Y-11613143D01*
X10326286Y-11613143D01*
X10345333Y-11622667D01*
X10354857Y-11641714D01*
X10354857Y-11746476D01*
X10745333Y-11536952D02*
X10573905Y-11794095D01*
X11002476Y-11546476D02*
X11021524Y-11546476D01*
X11040571Y-11556000D01*
X11050095Y-11565524D01*
X11059619Y-11584571D01*
X11069143Y-11622667D01*
X11069143Y-11670286D01*
X11059619Y-11708381D01*
X11050095Y-11727428D01*
X11040571Y-11736952D01*
X11021524Y-11746476D01*
X11002476Y-11746476D01*
X10983429Y-11736952D01*
X10973905Y-11727428D01*
X10964381Y-11708381D01*
X10954857Y-11670286D01*
X10954857Y-11622667D01*
X10964381Y-11584571D01*
X10973905Y-11565524D01*
X10983429Y-11556000D01*
X11002476Y-11546476D01*
X11154857Y-11727428D02*
X11164381Y-11736952D01*
X11154857Y-11746476D01*
X11145333Y-11736952D01*
X11154857Y-11727428D01*
X11154857Y-11746476D01*
X11354857Y-11746476D02*
X11240571Y-11746476D01*
X11297714Y-11746476D02*
X11297714Y-11546476D01*
X11278667Y-11575048D01*
X11259619Y-11594095D01*
X11240571Y-11603619D01*
X11431048Y-11565524D02*
X11440571Y-11556000D01*
X11459619Y-11546476D01*
X11507238Y-11546476D01*
X11526286Y-11556000D01*
X11535809Y-11565524D01*
X11545333Y-11584571D01*
X11545333Y-11603619D01*
X11535809Y-11632190D01*
X11421524Y-11746476D01*
X11545333Y-11746476D01*
X11716762Y-11546476D02*
X11678667Y-11546476D01*
X11659619Y-11556000D01*
X11650095Y-11565524D01*
X11631048Y-11594095D01*
X11621524Y-11632190D01*
X11621524Y-11708381D01*
X11631048Y-11727428D01*
X11640571Y-11736952D01*
X11659619Y-11746476D01*
X11697714Y-11746476D01*
X11716762Y-11736952D01*
X11726286Y-11727428D01*
X11735809Y-11708381D01*
X11735809Y-11660762D01*
X11726286Y-11641714D01*
X11716762Y-11632190D01*
X11697714Y-11622667D01*
X11659619Y-11622667D01*
X11640571Y-11632190D01*
X11631048Y-11641714D01*
X11621524Y-11660762D01*
X11859619Y-11546476D02*
X11878667Y-11546476D01*
X11897714Y-11556000D01*
X11907238Y-11565524D01*
X11916762Y-11584571D01*
X11926286Y-11622667D01*
X11926286Y-11670286D01*
X11916762Y-11708381D01*
X11907238Y-11727428D01*
X11897714Y-11736952D01*
X11878667Y-11746476D01*
X11859619Y-11746476D01*
X11840571Y-11736952D01*
X11831048Y-11727428D01*
X11821524Y-11708381D01*
X11812000Y-11670286D01*
X11812000Y-11622667D01*
X11821524Y-11584571D01*
X11831048Y-11565524D01*
X11840571Y-11556000D01*
X11859619Y-11546476D01*
X12002476Y-11546476D02*
X12002476Y-11584571D01*
X12078667Y-11546476D02*
X12078667Y-11584571D01*
X12373905Y-11822667D02*
X12364381Y-11813143D01*
X12345333Y-11784571D01*
X12335809Y-11765524D01*
X12326286Y-11736952D01*
X12316762Y-11689333D01*
X12316762Y-11651238D01*
X12326286Y-11603619D01*
X12335809Y-11575048D01*
X12345333Y-11556000D01*
X12364381Y-11527428D01*
X12373905Y-11517905D01*
X12535809Y-11613143D02*
X12535809Y-11746476D01*
X12488190Y-11536952D02*
X12440571Y-11679809D01*
X12564381Y-11679809D01*
X12792952Y-11746476D02*
X12792952Y-11546476D01*
X12878667Y-11746476D02*
X12878667Y-11641714D01*
X12869143Y-11622667D01*
X12850095Y-11613143D01*
X12821524Y-11613143D01*
X12802476Y-11622667D01*
X12792952Y-11632190D01*
X13002476Y-11746476D02*
X12983428Y-11736952D01*
X12973905Y-11727428D01*
X12964381Y-11708381D01*
X12964381Y-11651238D01*
X12973905Y-11632190D01*
X12983428Y-11622667D01*
X13002476Y-11613143D01*
X13031048Y-11613143D01*
X13050095Y-11622667D01*
X13059619Y-11632190D01*
X13069143Y-11651238D01*
X13069143Y-11708381D01*
X13059619Y-11727428D01*
X13050095Y-11736952D01*
X13031048Y-11746476D01*
X13002476Y-11746476D01*
X13183428Y-11746476D02*
X13164381Y-11736952D01*
X13154857Y-11717905D01*
X13154857Y-11546476D01*
X13335809Y-11736952D02*
X13316762Y-11746476D01*
X13278667Y-11746476D01*
X13259619Y-11736952D01*
X13250095Y-11717905D01*
X13250095Y-11641714D01*
X13259619Y-11622667D01*
X13278667Y-11613143D01*
X13316762Y-11613143D01*
X13335809Y-11622667D01*
X13345333Y-11641714D01*
X13345333Y-11660762D01*
X13250095Y-11679809D01*
X13421524Y-11736952D02*
X13440571Y-11746476D01*
X13478667Y-11746476D01*
X13497714Y-11736952D01*
X13507238Y-11717905D01*
X13507238Y-11708381D01*
X13497714Y-11689333D01*
X13478667Y-11679809D01*
X13450095Y-11679809D01*
X13431048Y-11670286D01*
X13421524Y-11651238D01*
X13421524Y-11641714D01*
X13431048Y-11622667D01*
X13450095Y-11613143D01*
X13478667Y-11613143D01*
X13497714Y-11622667D01*
X13573905Y-11822667D02*
X13583428Y-11813143D01*
X13602476Y-11784571D01*
X13612000Y-11765524D01*
X13621524Y-11736952D01*
X13631048Y-11689333D01*
X13631048Y-11651238D01*
X13621524Y-11603619D01*
X13612000Y-11575048D01*
X13602476Y-11556000D01*
X13583428Y-11527428D01*
X13573905Y-11517905D01*
X13935809Y-11822667D02*
X13926286Y-11813143D01*
X13907238Y-11784571D01*
X13897714Y-11765524D01*
X13888190Y-11736952D01*
X13878667Y-11689333D01*
X13878667Y-11651238D01*
X13888190Y-11603619D01*
X13897714Y-11575048D01*
X13907238Y-11556000D01*
X13926286Y-11527428D01*
X13935809Y-11517905D01*
X14012000Y-11613143D02*
X14012000Y-11746476D01*
X14012000Y-11632190D02*
X14021524Y-11622667D01*
X14040571Y-11613143D01*
X14069143Y-11613143D01*
X14088190Y-11622667D01*
X14097714Y-11641714D01*
X14097714Y-11746476D01*
X14221524Y-11746476D02*
X14202476Y-11736952D01*
X14192952Y-11727428D01*
X14183428Y-11708381D01*
X14183428Y-11651238D01*
X14192952Y-11632190D01*
X14202476Y-11622667D01*
X14221524Y-11613143D01*
X14250095Y-11613143D01*
X14269143Y-11622667D01*
X14278667Y-11632190D01*
X14288190Y-11651238D01*
X14288190Y-11708381D01*
X14278667Y-11727428D01*
X14269143Y-11736952D01*
X14250095Y-11746476D01*
X14221524Y-11746476D01*
X14345333Y-11613143D02*
X14421524Y-11613143D01*
X14373905Y-11546476D02*
X14373905Y-11717905D01*
X14383428Y-11736952D01*
X14402476Y-11746476D01*
X14421524Y-11746476D01*
X14640571Y-11613143D02*
X14640571Y-11813143D01*
X14640571Y-11622667D02*
X14659619Y-11613143D01*
X14697714Y-11613143D01*
X14716762Y-11622667D01*
X14726286Y-11632190D01*
X14735809Y-11651238D01*
X14735809Y-11708381D01*
X14726286Y-11727428D01*
X14716762Y-11736952D01*
X14697714Y-11746476D01*
X14659619Y-11746476D01*
X14640571Y-11736952D01*
X14850095Y-11746476D02*
X14831048Y-11736952D01*
X14821524Y-11717905D01*
X14821524Y-11546476D01*
X15012000Y-11746476D02*
X15012000Y-11641714D01*
X15002476Y-11622667D01*
X14983428Y-11613143D01*
X14945333Y-11613143D01*
X14926286Y-11622667D01*
X15012000Y-11736952D02*
X14992952Y-11746476D01*
X14945333Y-11746476D01*
X14926286Y-11736952D01*
X14916762Y-11717905D01*
X14916762Y-11698857D01*
X14926286Y-11679809D01*
X14945333Y-11670286D01*
X14992952Y-11670286D01*
X15012000Y-11660762D01*
X15078667Y-11613143D02*
X15154857Y-11613143D01*
X15107238Y-11546476D02*
X15107238Y-11717905D01*
X15116762Y-11736952D01*
X15135809Y-11746476D01*
X15154857Y-11746476D01*
X15297714Y-11736952D02*
X15278667Y-11746476D01*
X15240571Y-11746476D01*
X15221524Y-11736952D01*
X15212000Y-11717905D01*
X15212000Y-11641714D01*
X15221524Y-11622667D01*
X15240571Y-11613143D01*
X15278667Y-11613143D01*
X15297714Y-11622667D01*
X15307238Y-11641714D01*
X15307238Y-11660762D01*
X15212000Y-11679809D01*
X15478667Y-11746476D02*
X15478667Y-11546476D01*
X15478667Y-11736952D02*
X15459619Y-11746476D01*
X15421524Y-11746476D01*
X15402476Y-11736952D01*
X15392952Y-11727428D01*
X15383428Y-11708381D01*
X15383428Y-11651238D01*
X15392952Y-11632190D01*
X15402476Y-11622667D01*
X15421524Y-11613143D01*
X15459619Y-11613143D01*
X15478667Y-11622667D01*
X15554857Y-11822667D02*
X15564381Y-11813143D01*
X15583428Y-11784571D01*
X15592952Y-11765524D01*
X15602476Y-11736952D01*
X15612000Y-11689333D01*
X15612000Y-11651238D01*
X15602476Y-11603619D01*
X15592952Y-11575048D01*
X15583428Y-11556000D01*
X15564381Y-11527428D01*
X15554857Y-11517905D01*
M02*
