%TF.GenerationSoftware,KiCad,Pcbnew,(6.0.6)*%
%TF.CreationDate,2022-10-06T01:30:09-05:00*%
%TF.ProjectId,better-klipper-expander,62657474-6572-42d6-9b6c-69707065722d,V1*%
%TF.SameCoordinates,Original*%
%TF.FileFunction,Legend,Top*%
%TF.FilePolarity,Positive*%
%FSLAX46Y46*%
G04 Gerber Fmt 4.6, Leading zero omitted, Abs format (unit mm)*
G04 Created by KiCad (PCBNEW (6.0.6)) date 2022-10-06 01:30:09*
%MOMM*%
%LPD*%
G01*
G04 APERTURE LIST*
%ADD10C,0.300000*%
%ADD11C,0.200000*%
%ADD12C,0.120000*%
%ADD13C,0.250000*%
%ADD14C,0.127000*%
%ADD15C,0.100000*%
%ADD16C,0.010000*%
G04 APERTURE END LIST*
D10*
X139128571Y-101685357D02*
X139342857Y-101756785D01*
X139414285Y-101828214D01*
X139485714Y-101971071D01*
X139485714Y-102185357D01*
X139414285Y-102328214D01*
X139342857Y-102399642D01*
X139200000Y-102471071D01*
X138628571Y-102471071D01*
X138628571Y-100971071D01*
X139128571Y-100971071D01*
X139271428Y-101042500D01*
X139342857Y-101113928D01*
X139414285Y-101256785D01*
X139414285Y-101399642D01*
X139342857Y-101542500D01*
X139271428Y-101613928D01*
X139128571Y-101685357D01*
X138628571Y-101685357D01*
X140700000Y-102399642D02*
X140557142Y-102471071D01*
X140271428Y-102471071D01*
X140128571Y-102399642D01*
X140057142Y-102256785D01*
X140057142Y-101685357D01*
X140128571Y-101542500D01*
X140271428Y-101471071D01*
X140557142Y-101471071D01*
X140700000Y-101542500D01*
X140771428Y-101685357D01*
X140771428Y-101828214D01*
X140057142Y-101971071D01*
X141200000Y-101471071D02*
X141771428Y-101471071D01*
X141414285Y-100971071D02*
X141414285Y-102256785D01*
X141485714Y-102399642D01*
X141628571Y-102471071D01*
X141771428Y-102471071D01*
X142057142Y-101471071D02*
X142628571Y-101471071D01*
X142271428Y-100971071D02*
X142271428Y-102256785D01*
X142342857Y-102399642D01*
X142485714Y-102471071D01*
X142628571Y-102471071D01*
X143700000Y-102399642D02*
X143557142Y-102471071D01*
X143271428Y-102471071D01*
X143128571Y-102399642D01*
X143057142Y-102256785D01*
X143057142Y-101685357D01*
X143128571Y-101542500D01*
X143271428Y-101471071D01*
X143557142Y-101471071D01*
X143700000Y-101542500D01*
X143771428Y-101685357D01*
X143771428Y-101828214D01*
X143057142Y-101971071D01*
X144414285Y-102471071D02*
X144414285Y-101471071D01*
X144414285Y-101756785D02*
X144485714Y-101613928D01*
X144557142Y-101542500D01*
X144700000Y-101471071D01*
X144842857Y-101471071D01*
X130985714Y-104886071D02*
X130985714Y-103386071D01*
X131842857Y-104886071D02*
X131200000Y-104028928D01*
X131842857Y-103386071D02*
X130985714Y-104243214D01*
X132700000Y-104886071D02*
X132557142Y-104814642D01*
X132485714Y-104671785D01*
X132485714Y-103386071D01*
X133271428Y-104886071D02*
X133271428Y-103886071D01*
X133271428Y-103386071D02*
X133200000Y-103457500D01*
X133271428Y-103528928D01*
X133342857Y-103457500D01*
X133271428Y-103386071D01*
X133271428Y-103528928D01*
X133985714Y-103886071D02*
X133985714Y-105386071D01*
X133985714Y-103957500D02*
X134128571Y-103886071D01*
X134414285Y-103886071D01*
X134557142Y-103957500D01*
X134628571Y-104028928D01*
X134700000Y-104171785D01*
X134700000Y-104600357D01*
X134628571Y-104743214D01*
X134557142Y-104814642D01*
X134414285Y-104886071D01*
X134128571Y-104886071D01*
X133985714Y-104814642D01*
X135342857Y-103886071D02*
X135342857Y-105386071D01*
X135342857Y-103957500D02*
X135485714Y-103886071D01*
X135771428Y-103886071D01*
X135914285Y-103957500D01*
X135985714Y-104028928D01*
X136057142Y-104171785D01*
X136057142Y-104600357D01*
X135985714Y-104743214D01*
X135914285Y-104814642D01*
X135771428Y-104886071D01*
X135485714Y-104886071D01*
X135342857Y-104814642D01*
X137271428Y-104814642D02*
X137128571Y-104886071D01*
X136842857Y-104886071D01*
X136700000Y-104814642D01*
X136628571Y-104671785D01*
X136628571Y-104100357D01*
X136700000Y-103957500D01*
X136842857Y-103886071D01*
X137128571Y-103886071D01*
X137271428Y-103957500D01*
X137342857Y-104100357D01*
X137342857Y-104243214D01*
X136628571Y-104386071D01*
X137985714Y-104886071D02*
X137985714Y-103886071D01*
X137985714Y-104171785D02*
X138057142Y-104028928D01*
X138128571Y-103957500D01*
X138271428Y-103886071D01*
X138414285Y-103886071D01*
X140057142Y-104100357D02*
X140557142Y-104100357D01*
X140771428Y-104886071D02*
X140057142Y-104886071D01*
X140057142Y-103386071D01*
X140771428Y-103386071D01*
X141271428Y-104886071D02*
X142057142Y-103886071D01*
X141271428Y-103886071D02*
X142057142Y-104886071D01*
X142628571Y-103886071D02*
X142628571Y-105386071D01*
X142628571Y-103957500D02*
X142771428Y-103886071D01*
X143057142Y-103886071D01*
X143200000Y-103957500D01*
X143271428Y-104028928D01*
X143342857Y-104171785D01*
X143342857Y-104600357D01*
X143271428Y-104743214D01*
X143200000Y-104814642D01*
X143057142Y-104886071D01*
X142771428Y-104886071D01*
X142628571Y-104814642D01*
X144628571Y-104886071D02*
X144628571Y-104100357D01*
X144557142Y-103957500D01*
X144414285Y-103886071D01*
X144128571Y-103886071D01*
X143985714Y-103957500D01*
X144628571Y-104814642D02*
X144485714Y-104886071D01*
X144128571Y-104886071D01*
X143985714Y-104814642D01*
X143914285Y-104671785D01*
X143914285Y-104528928D01*
X143985714Y-104386071D01*
X144128571Y-104314642D01*
X144485714Y-104314642D01*
X144628571Y-104243214D01*
X145342857Y-103886071D02*
X145342857Y-104886071D01*
X145342857Y-104028928D02*
X145414285Y-103957500D01*
X145557142Y-103886071D01*
X145771428Y-103886071D01*
X145914285Y-103957500D01*
X145985714Y-104100357D01*
X145985714Y-104886071D01*
X147342857Y-104886071D02*
X147342857Y-103386071D01*
X147342857Y-104814642D02*
X147200000Y-104886071D01*
X146914285Y-104886071D01*
X146771428Y-104814642D01*
X146700000Y-104743214D01*
X146628571Y-104600357D01*
X146628571Y-104171785D01*
X146700000Y-104028928D01*
X146771428Y-103957500D01*
X146914285Y-103886071D01*
X147200000Y-103886071D01*
X147342857Y-103957500D01*
X148628571Y-104814642D02*
X148485714Y-104886071D01*
X148200000Y-104886071D01*
X148057142Y-104814642D01*
X147985714Y-104671785D01*
X147985714Y-104100357D01*
X148057142Y-103957500D01*
X148200000Y-103886071D01*
X148485714Y-103886071D01*
X148628571Y-103957500D01*
X148700000Y-104100357D01*
X148700000Y-104243214D01*
X147985714Y-104386071D01*
X149342857Y-104886071D02*
X149342857Y-103886071D01*
X149342857Y-104171785D02*
X149414285Y-104028928D01*
X149485714Y-103957500D01*
X149628571Y-103886071D01*
X149771428Y-103886071D01*
X151200000Y-103386071D02*
X151700000Y-104886071D01*
X152200000Y-103386071D01*
X153485714Y-104886071D02*
X152628571Y-104886071D01*
X153057142Y-104886071D02*
X153057142Y-103386071D01*
X152914285Y-103600357D01*
X152771428Y-103743214D01*
X152628571Y-103814642D01*
D11*
X91766428Y-85461904D02*
X92223571Y-85461904D01*
X91995000Y-86261904D02*
X91995000Y-85461904D01*
X92490238Y-86261904D02*
X92490238Y-85461904D01*
X92490238Y-85842857D02*
X92947380Y-85842857D01*
X92947380Y-86261904D02*
X92947380Y-85461904D01*
X93747380Y-86261904D02*
X93290238Y-86261904D01*
X93518809Y-86261904D02*
X93518809Y-85461904D01*
X93442619Y-85576190D01*
X93366428Y-85652380D01*
X93290238Y-85690476D01*
X91766428Y-92761904D02*
X92223571Y-92761904D01*
X91995000Y-93561904D02*
X91995000Y-92761904D01*
X92490238Y-93561904D02*
X92490238Y-92761904D01*
X92490238Y-93142857D02*
X92947380Y-93142857D01*
X92947380Y-93561904D02*
X92947380Y-92761904D01*
X93480714Y-92761904D02*
X93556904Y-92761904D01*
X93633095Y-92800000D01*
X93671190Y-92838095D01*
X93709285Y-92914285D01*
X93747380Y-93066666D01*
X93747380Y-93257142D01*
X93709285Y-93409523D01*
X93671190Y-93485714D01*
X93633095Y-93523809D01*
X93556904Y-93561904D01*
X93480714Y-93561904D01*
X93404523Y-93523809D01*
X93366428Y-93485714D01*
X93328333Y-93409523D01*
X93290238Y-93257142D01*
X93290238Y-93066666D01*
X93328333Y-92914285D01*
X93366428Y-92838095D01*
X93404523Y-92800000D01*
X93480714Y-92761904D01*
X98861904Y-100461904D02*
X98861904Y-99661904D01*
X99166666Y-99661904D01*
X99242857Y-99700000D01*
X99280952Y-99738095D01*
X99319047Y-99814285D01*
X99319047Y-99928571D01*
X99280952Y-100004761D01*
X99242857Y-100042857D01*
X99166666Y-100080952D01*
X98861904Y-100080952D01*
X99547619Y-99661904D02*
X100004761Y-99661904D01*
X99776190Y-100461904D02*
X99776190Y-99661904D01*
X100690476Y-100461904D02*
X100233333Y-100461904D01*
X100461904Y-100461904D02*
X100461904Y-99661904D01*
X100385714Y-99776190D01*
X100309523Y-99852380D01*
X100233333Y-99890476D01*
X101185714Y-99661904D02*
X101261904Y-99661904D01*
X101338095Y-99700000D01*
X101376190Y-99738095D01*
X101414285Y-99814285D01*
X101452380Y-99966666D01*
X101452380Y-100157142D01*
X101414285Y-100309523D01*
X101376190Y-100385714D01*
X101338095Y-100423809D01*
X101261904Y-100461904D01*
X101185714Y-100461904D01*
X101109523Y-100423809D01*
X101071428Y-100385714D01*
X101033333Y-100309523D01*
X100995238Y-100157142D01*
X100995238Y-99966666D01*
X101033333Y-99814285D01*
X101071428Y-99738095D01*
X101109523Y-99700000D01*
X101185714Y-99661904D01*
X101947619Y-99661904D02*
X102023809Y-99661904D01*
X102100000Y-99700000D01*
X102138095Y-99738095D01*
X102176190Y-99814285D01*
X102214285Y-99966666D01*
X102214285Y-100157142D01*
X102176190Y-100309523D01*
X102138095Y-100385714D01*
X102100000Y-100423809D01*
X102023809Y-100461904D01*
X101947619Y-100461904D01*
X101871428Y-100423809D01*
X101833333Y-100385714D01*
X101795238Y-100309523D01*
X101757142Y-100157142D01*
X101757142Y-99966666D01*
X101795238Y-99814285D01*
X101833333Y-99738095D01*
X101871428Y-99700000D01*
X101947619Y-99661904D01*
X102709523Y-99661904D02*
X102785714Y-99661904D01*
X102861904Y-99700000D01*
X102900000Y-99738095D01*
X102938095Y-99814285D01*
X102976190Y-99966666D01*
X102976190Y-100157142D01*
X102938095Y-100309523D01*
X102900000Y-100385714D01*
X102861904Y-100423809D01*
X102785714Y-100461904D01*
X102709523Y-100461904D01*
X102633333Y-100423809D01*
X102595238Y-100385714D01*
X102557142Y-100309523D01*
X102519047Y-100157142D01*
X102519047Y-99966666D01*
X102557142Y-99814285D01*
X102595238Y-99738095D01*
X102633333Y-99700000D01*
X102709523Y-99661904D01*
D12*
X192300000Y-81495000D02*
G75*
G03*
X192300000Y-81495000I-3250000J0D01*
G01*
X95295000Y-81495000D02*
G75*
G03*
X95295000Y-81495000I-3250000J0D01*
G01*
D13*
X157464047Y-78187857D02*
X158454523Y-78187857D01*
X157959285Y-78683095D02*
X157959285Y-77692619D01*
X163035476Y-78187857D02*
X164025952Y-78187857D01*
D11*
%TO.C,U3*%
X174610000Y-93705000D02*
G75*
G03*
X174610000Y-93705000I-100000J0D01*
G01*
D14*
X172390000Y-89275000D02*
X168490000Y-89275000D01*
X172390000Y-94325000D02*
X168490000Y-94325000D01*
D11*
%TO.C,U1*%
X179225000Y-86890000D02*
G75*
G03*
X179225000Y-86890000I-100000J0D01*
G01*
D14*
X179075000Y-84395000D02*
X179075000Y-80495000D01*
X184125000Y-84395000D02*
X184125000Y-80495000D01*
D11*
%TO.C,F2*%
X154200000Y-78700000D02*
X154200000Y-93500000D01*
X154200000Y-93500000D02*
X149400000Y-93500000D01*
X149400000Y-93500000D02*
X149400000Y-78700000D01*
X149400000Y-78700000D02*
X154200000Y-78700000D01*
D15*
X151800000Y-78250000D02*
X151800000Y-78250000D01*
X151800000Y-78150000D02*
X151800000Y-78150000D01*
X151800000Y-78250000D02*
G75*
G03*
X151800000Y-78150000I0J50000D01*
G01*
X151800000Y-78150000D02*
G75*
G03*
X151800000Y-78250000I0J-50000D01*
G01*
D12*
%TO.C,D12*%
X123900000Y-99450000D02*
X129300000Y-99450000D01*
X123900000Y-102750000D02*
X129300000Y-102750000D01*
X123900000Y-99450000D02*
X123900000Y-102750000D01*
%TO.C,Y1*%
X182900000Y-101850000D02*
X182900000Y-106550000D01*
X182900000Y-106550000D02*
X188500000Y-106550000D01*
%TO.C,R5*%
X189572936Y-86565000D02*
X190027064Y-86565000D01*
X189572936Y-88035000D02*
X190027064Y-88035000D01*
%TO.C,R2*%
X190827064Y-102065000D02*
X190372936Y-102065000D01*
X190827064Y-103535000D02*
X190372936Y-103535000D01*
%TO.C,R1*%
X170014564Y-88335000D02*
X169560436Y-88335000D01*
X170014564Y-86865000D02*
X169560436Y-86865000D01*
%TO.C,JP1*%
X185995000Y-98470000D02*
X188595000Y-98470000D01*
X183395000Y-101130000D02*
X183395000Y-99800000D01*
X185995000Y-101130000D02*
X185995000Y-98470000D01*
X185995000Y-101130000D02*
X188595000Y-101130000D01*
X188595000Y-101130000D02*
X188595000Y-98470000D01*
X184725000Y-101130000D02*
X183395000Y-101130000D01*
%TO.C,C21*%
X162215000Y-104661252D02*
X162215000Y-104138748D01*
X163685000Y-104661252D02*
X163685000Y-104138748D01*
%TO.C,C20*%
X161010000Y-104661252D02*
X161010000Y-104138748D01*
X159540000Y-104661252D02*
X159540000Y-104138748D01*
%TO.C,C18*%
X158335000Y-104661252D02*
X158335000Y-104138748D01*
X156865000Y-104661252D02*
X156865000Y-104138748D01*
%TO.C,C16*%
X189538748Y-90335000D02*
X190061252Y-90335000D01*
X189538748Y-88865000D02*
X190061252Y-88865000D01*
%TO.C,C14*%
X185765000Y-86738748D02*
X185765000Y-87261252D01*
X187235000Y-86738748D02*
X187235000Y-87261252D01*
%TO.C,C8*%
X177461252Y-102335000D02*
X176938748Y-102335000D01*
X177461252Y-100865000D02*
X176938748Y-100865000D01*
%TO.C,C7*%
X181835000Y-104861252D02*
X181835000Y-104338748D01*
X180365000Y-104861252D02*
X180365000Y-104338748D01*
%TO.C,C6*%
X177461252Y-99935000D02*
X176938748Y-99935000D01*
X177461252Y-98465000D02*
X176938748Y-98465000D01*
%TO.C,C4*%
X190861252Y-105835000D02*
X190338748Y-105835000D01*
X190861252Y-104365000D02*
X190338748Y-104365000D01*
%TO.C,J11*%
X116400000Y-98430000D02*
X117730000Y-98430000D01*
X112530000Y-98430000D02*
X115130000Y-98430000D01*
X112530000Y-103630000D02*
X117730000Y-103630000D01*
X117730000Y-101030000D02*
X117730000Y-103630000D01*
X117730000Y-98430000D02*
X117730000Y-99760000D01*
X115130000Y-98430000D02*
X115130000Y-101030000D01*
X115130000Y-101030000D02*
X117730000Y-101030000D01*
X112530000Y-98430000D02*
X112530000Y-103630000D01*
%TO.C,R21*%
X111122936Y-85565000D02*
X111577064Y-85565000D01*
X111122936Y-87035000D02*
X111577064Y-87035000D01*
%TO.C,R19*%
X119622936Y-85565000D02*
X120077064Y-85565000D01*
X119622936Y-87035000D02*
X120077064Y-87035000D01*
%TO.C,R13*%
X128222936Y-85565000D02*
X128677064Y-85565000D01*
X128222936Y-87035000D02*
X128677064Y-87035000D01*
%TO.C,R11*%
X136972936Y-85565000D02*
X137427064Y-85565000D01*
X136972936Y-87035000D02*
X137427064Y-87035000D01*
%TO.C,R9*%
X145472936Y-85565000D02*
X145927064Y-85565000D01*
X145472936Y-87035000D02*
X145927064Y-87035000D01*
%TO.C,R23*%
X102672936Y-85565000D02*
X103127064Y-85565000D01*
X102672936Y-87035000D02*
X103127064Y-87035000D01*
%TO.C,R10*%
X136972936Y-88027500D02*
X137427064Y-88027500D01*
X136972936Y-89497500D02*
X137427064Y-89497500D01*
%TO.C,R20*%
X111122936Y-88027500D02*
X111577064Y-88027500D01*
X111122936Y-89497500D02*
X111577064Y-89497500D01*
%TO.C,R18*%
X119622936Y-88027500D02*
X120077064Y-88027500D01*
X119622936Y-89497500D02*
X120077064Y-89497500D01*
%TO.C,R26*%
X99172936Y-94052500D02*
X99627064Y-94052500D01*
X99172936Y-95522500D02*
X99627064Y-95522500D01*
%TO.C,R22*%
X102672936Y-88027500D02*
X103127064Y-88027500D01*
X102672936Y-89497500D02*
X103127064Y-89497500D01*
%TO.C,R12*%
X128222936Y-88027500D02*
X128677064Y-88027500D01*
X128222936Y-89497500D02*
X128677064Y-89497500D01*
%TO.C,R8*%
X145472936Y-88027500D02*
X145927064Y-88027500D01*
X145472936Y-89497500D02*
X145927064Y-89497500D01*
%TO.C,R25*%
X99627064Y-92822500D02*
X99172936Y-92822500D01*
X99627064Y-91352500D02*
X99172936Y-91352500D01*
%TO.C,R24*%
X107427064Y-92822500D02*
X106972936Y-92822500D01*
X107427064Y-91352500D02*
X106972936Y-91352500D01*
%TO.C,R17*%
X105435000Y-98972936D02*
X105435000Y-99427064D01*
X103965000Y-98972936D02*
X103965000Y-99427064D01*
%TO.C,R16*%
X100172936Y-103865000D02*
X100627064Y-103865000D01*
X100172936Y-105335000D02*
X100627064Y-105335000D01*
%TO.C,R15*%
X100627064Y-102635000D02*
X100172936Y-102635000D01*
X100627064Y-101165000D02*
X100172936Y-101165000D01*
%TO.C,R14*%
X108427064Y-102685000D02*
X107972936Y-102685000D01*
X108427064Y-101215000D02*
X107972936Y-101215000D01*
%TO.C,C23*%
X107461252Y-94052500D02*
X106938748Y-94052500D01*
X107461252Y-95522500D02*
X106938748Y-95522500D01*
%TO.C,C22*%
X108461252Y-103865000D02*
X107938748Y-103865000D01*
X108461252Y-105335000D02*
X107938748Y-105335000D01*
%TO.C,J8*%
X107800000Y-78875000D02*
X107800000Y-78125000D01*
X107800000Y-78125000D02*
X106000000Y-78125000D01*
X106000000Y-80375000D02*
X106750000Y-80375000D01*
X106750000Y-83325000D02*
X109800000Y-83325000D01*
X112850000Y-80375000D02*
X112850000Y-83325000D01*
X113610000Y-78115000D02*
X105990000Y-78115000D01*
X113600000Y-78875000D02*
X113600000Y-78125000D01*
X106000000Y-78875000D02*
X107800000Y-78875000D01*
X111800000Y-78875000D02*
X113600000Y-78875000D01*
X110300000Y-78875000D02*
X110300000Y-78125000D01*
X113610000Y-84085000D02*
X113610000Y-78115000D01*
X110300000Y-78125000D02*
X109300000Y-78125000D01*
X106000000Y-78125000D02*
X106000000Y-78875000D01*
X106750000Y-80375000D02*
X106750000Y-83325000D01*
X112850000Y-83325000D02*
X109800000Y-83325000D01*
X109300000Y-78875000D02*
X110300000Y-78875000D01*
X105990000Y-78115000D02*
X105990000Y-84085000D01*
X113600000Y-80375000D02*
X112850000Y-80375000D01*
X106950000Y-77825000D02*
X105700000Y-77825000D01*
X109300000Y-78125000D02*
X109300000Y-78875000D01*
X105990000Y-84085000D02*
X113610000Y-84085000D01*
X113600000Y-78125000D02*
X111800000Y-78125000D01*
X105700000Y-77825000D02*
X105700000Y-79075000D01*
X111800000Y-78125000D02*
X111800000Y-78875000D01*
%TO.C,D1*%
X157200000Y-98150000D02*
X157200000Y-94850000D01*
X157200000Y-98150000D02*
X151800000Y-98150000D01*
X157200000Y-94850000D02*
X151800000Y-94850000D01*
%TO.C,C1*%
X159135000Y-96338748D02*
X159135000Y-96861252D01*
X157665000Y-96338748D02*
X157665000Y-96861252D01*
%TO.C,D8*%
X121550000Y-97300000D02*
X121550000Y-91900000D01*
X121550000Y-97300000D02*
X124850000Y-97300000D01*
X124850000Y-97300000D02*
X124850000Y-91900000D01*
%TO.C,C11*%
X190188748Y-93665000D02*
X190711252Y-93665000D01*
X190188748Y-95135000D02*
X190711252Y-95135000D01*
%TO.C,U4*%
X185922500Y-89990000D02*
X186572500Y-89990000D01*
X186572500Y-89990000D02*
X186572500Y-90640000D01*
X179352500Y-97210000D02*
X179352500Y-96560000D01*
X186572500Y-97210000D02*
X186572500Y-96560000D01*
X185922500Y-97210000D02*
X186572500Y-97210000D01*
X180002500Y-89990000D02*
X179352500Y-89990000D01*
X180002500Y-97210000D02*
X179352500Y-97210000D01*
%TO.C,JP2*%
X100595000Y-99330000D02*
X103195000Y-99330000D01*
X100595000Y-96670000D02*
X103195000Y-96670000D01*
X103195000Y-99330000D02*
X103195000Y-96670000D01*
X100595000Y-99330000D02*
X100595000Y-96670000D01*
X97995000Y-99330000D02*
X97995000Y-98000000D01*
X99325000Y-99330000D02*
X97995000Y-99330000D01*
%TO.C,D9*%
X115550000Y-97300000D02*
X115550000Y-91900000D01*
X118850000Y-97300000D02*
X118850000Y-91900000D01*
X115550000Y-97300000D02*
X118850000Y-97300000D01*
%TO.C,J5*%
X127100000Y-78125000D02*
X126100000Y-78125000D01*
X123550000Y-80375000D02*
X123550000Y-83325000D01*
X128600000Y-78125000D02*
X128600000Y-78875000D01*
X123550000Y-83325000D02*
X126600000Y-83325000D01*
X130410000Y-84085000D02*
X130410000Y-78115000D01*
X122800000Y-78125000D02*
X122800000Y-78875000D01*
X122800000Y-78875000D02*
X124600000Y-78875000D01*
X123750000Y-77825000D02*
X122500000Y-77825000D01*
X129650000Y-80375000D02*
X129650000Y-83325000D01*
X130400000Y-78125000D02*
X128600000Y-78125000D01*
X124600000Y-78125000D02*
X122800000Y-78125000D01*
X122500000Y-77825000D02*
X122500000Y-79075000D01*
X129650000Y-83325000D02*
X126600000Y-83325000D01*
X122800000Y-80375000D02*
X123550000Y-80375000D01*
X122790000Y-84085000D02*
X130410000Y-84085000D01*
X124600000Y-78875000D02*
X124600000Y-78125000D01*
X127100000Y-78875000D02*
X127100000Y-78125000D01*
X130410000Y-78115000D02*
X122790000Y-78115000D01*
X126100000Y-78125000D02*
X126100000Y-78875000D01*
X128600000Y-78875000D02*
X130400000Y-78875000D01*
X122790000Y-78115000D02*
X122790000Y-84085000D01*
X130400000Y-78875000D02*
X130400000Y-78125000D01*
X130400000Y-80375000D02*
X129650000Y-80375000D01*
X126100000Y-78875000D02*
X127100000Y-78875000D01*
%TO.C,C10*%
X190188748Y-92735000D02*
X190711252Y-92735000D01*
X190188748Y-91265000D02*
X190711252Y-91265000D01*
%TO.C,R4*%
X177172936Y-88335000D02*
X177627064Y-88335000D01*
X177172936Y-86865000D02*
X177627064Y-86865000D01*
%TO.C,C9*%
X174535000Y-97038748D02*
X174535000Y-97561252D01*
X173065000Y-97038748D02*
X173065000Y-97561252D01*
%TO.C,D5*%
X139550000Y-97300000D02*
X139550000Y-91900000D01*
X142850000Y-97300000D02*
X142850000Y-91900000D01*
X139550000Y-97300000D02*
X142850000Y-97300000D01*
%TO.C,J9*%
X99400000Y-78875000D02*
X99400000Y-78125000D01*
X97600000Y-78125000D02*
X97600000Y-78875000D01*
X101900000Y-78125000D02*
X100900000Y-78125000D01*
X105200000Y-78875000D02*
X105200000Y-78125000D01*
X98350000Y-80375000D02*
X98350000Y-83325000D01*
X97300000Y-77825000D02*
X97300000Y-79075000D01*
X105210000Y-78115000D02*
X97590000Y-78115000D01*
X97590000Y-78115000D02*
X97590000Y-84085000D01*
X104450000Y-83325000D02*
X101400000Y-83325000D01*
X98350000Y-83325000D02*
X101400000Y-83325000D01*
X104450000Y-80375000D02*
X104450000Y-83325000D01*
X105200000Y-80375000D02*
X104450000Y-80375000D01*
X97600000Y-80375000D02*
X98350000Y-80375000D01*
X97600000Y-78875000D02*
X99400000Y-78875000D01*
X105200000Y-78125000D02*
X103400000Y-78125000D01*
X100900000Y-78125000D02*
X100900000Y-78875000D01*
X97590000Y-84085000D02*
X105210000Y-84085000D01*
X98550000Y-77825000D02*
X97300000Y-77825000D01*
X103400000Y-78875000D02*
X105200000Y-78875000D01*
X100900000Y-78875000D02*
X101900000Y-78875000D01*
X103400000Y-78125000D02*
X103400000Y-78875000D01*
X105210000Y-84085000D02*
X105210000Y-78115000D01*
X101900000Y-78875000D02*
X101900000Y-78125000D01*
X99400000Y-78125000D02*
X97600000Y-78125000D01*
%TO.C,C2*%
X161335000Y-96338748D02*
X161335000Y-96861252D01*
X159865000Y-96338748D02*
X159865000Y-96861252D01*
D14*
%TO.C,D11*%
X104760000Y-93567500D02*
X104760000Y-92837500D01*
X102480000Y-92837500D02*
X101840000Y-92837500D01*
X101840000Y-92837500D02*
X101840000Y-93567500D01*
X104760000Y-92837500D02*
X104120000Y-92837500D01*
D11*
X102450000Y-95987500D02*
G75*
G03*
X102450000Y-95987500I-100000J0D01*
G01*
D12*
%TO.C,J3*%
X141450000Y-78125000D02*
X139650000Y-78125000D01*
X139640000Y-78115000D02*
X139640000Y-84085000D01*
X145450000Y-78875000D02*
X147250000Y-78875000D01*
X142950000Y-78125000D02*
X142950000Y-78875000D01*
X147260000Y-84085000D02*
X147260000Y-78115000D01*
X145450000Y-78125000D02*
X145450000Y-78875000D01*
X143950000Y-78875000D02*
X143950000Y-78125000D01*
X139650000Y-78875000D02*
X141450000Y-78875000D01*
X140400000Y-83325000D02*
X143450000Y-83325000D01*
X139640000Y-84085000D02*
X147260000Y-84085000D01*
X140600000Y-77825000D02*
X139350000Y-77825000D01*
X147250000Y-80375000D02*
X146500000Y-80375000D01*
X142950000Y-78875000D02*
X143950000Y-78875000D01*
X146500000Y-80375000D02*
X146500000Y-83325000D01*
X139350000Y-77825000D02*
X139350000Y-79075000D01*
X139650000Y-80375000D02*
X140400000Y-80375000D01*
X147250000Y-78875000D02*
X147250000Y-78125000D01*
X140400000Y-80375000D02*
X140400000Y-83325000D01*
X143950000Y-78125000D02*
X142950000Y-78125000D01*
X139650000Y-78125000D02*
X139650000Y-78875000D01*
X147260000Y-78115000D02*
X139640000Y-78115000D01*
X147250000Y-78125000D02*
X145450000Y-78125000D01*
X146500000Y-83325000D02*
X143450000Y-83325000D01*
X141450000Y-78875000D02*
X141450000Y-78125000D01*
%TO.C,Q3*%
X122990000Y-86612500D02*
X122990000Y-85962500D01*
X126110000Y-86612500D02*
X126110000Y-87262500D01*
X126110000Y-86612500D02*
X126110000Y-85962500D01*
X122990000Y-86612500D02*
X122990000Y-88287500D01*
%TO.C,R3*%
X173372936Y-88335000D02*
X173827064Y-88335000D01*
X173372936Y-86865000D02*
X173827064Y-86865000D01*
%TO.C,G\u002A\u002A\u002A*%
G36*
X89876400Y-101945150D02*
G01*
X92645000Y-100349552D01*
X95413600Y-101945150D01*
X95413600Y-105244849D01*
X94024308Y-106045524D01*
X93684339Y-106241185D01*
X93374012Y-106419267D01*
X93103882Y-106573754D01*
X92884505Y-106698630D01*
X92726439Y-106787877D01*
X92640239Y-106835478D01*
X92627308Y-106841770D01*
X92583181Y-106816166D01*
X92461791Y-106745713D01*
X92273745Y-106636566D01*
X92029649Y-106494881D01*
X91740109Y-106326815D01*
X91415731Y-106138525D01*
X91248000Y-106041162D01*
X90022648Y-105329876D01*
X91078666Y-105329876D01*
X91117441Y-105349402D01*
X91235479Y-105364187D01*
X91410467Y-105371891D01*
X91485066Y-105372479D01*
X91908400Y-105371959D01*
X91922821Y-105350076D01*
X92645000Y-105350076D01*
X92691850Y-105360563D01*
X92816616Y-105368500D01*
X92995623Y-105372596D01*
X93064100Y-105372886D01*
X93483200Y-105372772D01*
X93965800Y-104629043D01*
X94130838Y-104374678D01*
X94282963Y-104140166D01*
X94410863Y-103942951D01*
X94503223Y-103800476D01*
X94542288Y-103740156D01*
X94636177Y-103595000D01*
X93774093Y-103595000D01*
X93209546Y-104461076D01*
X93039034Y-104723735D01*
X92889186Y-104956619D01*
X92768286Y-105146683D01*
X92684618Y-105280882D01*
X92646465Y-105346172D01*
X92645000Y-105350076D01*
X91922821Y-105350076D01*
X93051400Y-103637603D01*
X93299036Y-103261432D01*
X93529037Y-102911255D01*
X93735420Y-102596238D01*
X93912202Y-102325551D01*
X94053399Y-102108361D01*
X94153029Y-101953837D01*
X94205108Y-101871148D01*
X94211333Y-101860123D01*
X94172558Y-101840597D01*
X94054520Y-101825812D01*
X93879532Y-101818108D01*
X93804933Y-101817520D01*
X93381600Y-101818040D01*
X92238600Y-103552396D01*
X91990963Y-103928567D01*
X91760962Y-104278744D01*
X91554579Y-104593761D01*
X91377797Y-104864448D01*
X91236600Y-105081638D01*
X91136970Y-105236162D01*
X91084891Y-105318851D01*
X91078666Y-105329876D01*
X90022648Y-105329876D01*
X89876400Y-105244983D01*
X89876400Y-103595000D01*
X90653822Y-103595000D01*
X91515906Y-103595000D01*
X92080453Y-102728923D01*
X92250965Y-102466264D01*
X92400813Y-102233380D01*
X92521713Y-102043316D01*
X92605381Y-101909117D01*
X92643534Y-101843827D01*
X92645000Y-101839923D01*
X92598149Y-101829436D01*
X92473383Y-101821499D01*
X92294376Y-101817403D01*
X92225900Y-101817113D01*
X91806800Y-101817227D01*
X91324200Y-102560956D01*
X91159161Y-102815321D01*
X91007036Y-103049833D01*
X90879136Y-103247048D01*
X90786776Y-103389523D01*
X90747711Y-103449843D01*
X90653822Y-103595000D01*
X89876400Y-103595000D01*
X89876400Y-101945150D01*
G37*
D16*
X89876400Y-101945150D02*
X92645000Y-100349552D01*
X95413600Y-101945150D01*
X95413600Y-105244849D01*
X94024308Y-106045524D01*
X93684339Y-106241185D01*
X93374012Y-106419267D01*
X93103882Y-106573754D01*
X92884505Y-106698630D01*
X92726439Y-106787877D01*
X92640239Y-106835478D01*
X92627308Y-106841770D01*
X92583181Y-106816166D01*
X92461791Y-106745713D01*
X92273745Y-106636566D01*
X92029649Y-106494881D01*
X91740109Y-106326815D01*
X91415731Y-106138525D01*
X91248000Y-106041162D01*
X90022648Y-105329876D01*
X91078666Y-105329876D01*
X91117441Y-105349402D01*
X91235479Y-105364187D01*
X91410467Y-105371891D01*
X91485066Y-105372479D01*
X91908400Y-105371959D01*
X91922821Y-105350076D01*
X92645000Y-105350076D01*
X92691850Y-105360563D01*
X92816616Y-105368500D01*
X92995623Y-105372596D01*
X93064100Y-105372886D01*
X93483200Y-105372772D01*
X93965800Y-104629043D01*
X94130838Y-104374678D01*
X94282963Y-104140166D01*
X94410863Y-103942951D01*
X94503223Y-103800476D01*
X94542288Y-103740156D01*
X94636177Y-103595000D01*
X93774093Y-103595000D01*
X93209546Y-104461076D01*
X93039034Y-104723735D01*
X92889186Y-104956619D01*
X92768286Y-105146683D01*
X92684618Y-105280882D01*
X92646465Y-105346172D01*
X92645000Y-105350076D01*
X91922821Y-105350076D01*
X93051400Y-103637603D01*
X93299036Y-103261432D01*
X93529037Y-102911255D01*
X93735420Y-102596238D01*
X93912202Y-102325551D01*
X94053399Y-102108361D01*
X94153029Y-101953837D01*
X94205108Y-101871148D01*
X94211333Y-101860123D01*
X94172558Y-101840597D01*
X94054520Y-101825812D01*
X93879532Y-101818108D01*
X93804933Y-101817520D01*
X93381600Y-101818040D01*
X92238600Y-103552396D01*
X91990963Y-103928567D01*
X91760962Y-104278744D01*
X91554579Y-104593761D01*
X91377797Y-104864448D01*
X91236600Y-105081638D01*
X91136970Y-105236162D01*
X91084891Y-105318851D01*
X91078666Y-105329876D01*
X90022648Y-105329876D01*
X89876400Y-105244983D01*
X89876400Y-103595000D01*
X90653822Y-103595000D01*
X91515906Y-103595000D01*
X92080453Y-102728923D01*
X92250965Y-102466264D01*
X92400813Y-102233380D01*
X92521713Y-102043316D01*
X92605381Y-101909117D01*
X92643534Y-101843827D01*
X92645000Y-101839923D01*
X92598149Y-101829436D01*
X92473383Y-101821499D01*
X92294376Y-101817403D01*
X92225900Y-101817113D01*
X91806800Y-101817227D01*
X91324200Y-102560956D01*
X91159161Y-102815321D01*
X91007036Y-103049833D01*
X90879136Y-103247048D01*
X90786776Y-103389523D01*
X90747711Y-103449843D01*
X90653822Y-103595000D01*
X89876400Y-103595000D01*
X89876400Y-101945150D01*
D12*
%TO.C,F1*%
X170828733Y-95890000D02*
X171171267Y-95890000D01*
X170828733Y-96910000D02*
X171171267Y-96910000D01*
%TO.C,J4*%
X138860000Y-78115000D02*
X131240000Y-78115000D01*
X138860000Y-84085000D02*
X138860000Y-78115000D01*
X131250000Y-80375000D02*
X132000000Y-80375000D01*
X131240000Y-78115000D02*
X131240000Y-84085000D01*
X137050000Y-78875000D02*
X138850000Y-78875000D01*
X132000000Y-80375000D02*
X132000000Y-83325000D01*
X135550000Y-78875000D02*
X135550000Y-78125000D01*
X131240000Y-84085000D02*
X138860000Y-84085000D01*
X132200000Y-77825000D02*
X130950000Y-77825000D01*
X133050000Y-78125000D02*
X131250000Y-78125000D01*
X138850000Y-78125000D02*
X137050000Y-78125000D01*
X131250000Y-78125000D02*
X131250000Y-78875000D01*
X130950000Y-77825000D02*
X130950000Y-79075000D01*
X137050000Y-78125000D02*
X137050000Y-78875000D01*
X138100000Y-83325000D02*
X135050000Y-83325000D01*
X138100000Y-80375000D02*
X138100000Y-83325000D01*
X131250000Y-78875000D02*
X133050000Y-78875000D01*
X134550000Y-78875000D02*
X135550000Y-78875000D01*
X138850000Y-80375000D02*
X138100000Y-80375000D01*
X133050000Y-78875000D02*
X133050000Y-78125000D01*
X135550000Y-78125000D02*
X134550000Y-78125000D01*
X132000000Y-83325000D02*
X135050000Y-83325000D01*
X138850000Y-78875000D02*
X138850000Y-78125000D01*
X134550000Y-78125000D02*
X134550000Y-78875000D01*
%TO.C,C17*%
X157765000Y-100461252D02*
X157765000Y-99938748D01*
X159235000Y-100461252D02*
X159235000Y-99938748D01*
%TO.C,Q6*%
X100560000Y-86612500D02*
X100560000Y-87262500D01*
X97440000Y-86612500D02*
X97440000Y-88287500D01*
X97440000Y-86612500D02*
X97440000Y-85962500D01*
X100560000Y-86612500D02*
X100560000Y-85962500D01*
%TO.C,L2*%
X173590000Y-100641422D02*
X173590000Y-101158578D01*
X175010000Y-100641422D02*
X175010000Y-101158578D01*
%TO.C,U2*%
X177660000Y-103020000D02*
X177660000Y-103950000D01*
X177660000Y-106180000D02*
X176200000Y-106180000D01*
X177660000Y-106180000D02*
X177660000Y-105250000D01*
X177660000Y-103020000D02*
X174500000Y-103020000D01*
%TO.C,C5*%
X165735000Y-96338748D02*
X165735000Y-96861252D01*
X164265000Y-96338748D02*
X164265000Y-96861252D01*
%TO.C,J6*%
X92295000Y-94595000D02*
X93295000Y-94595000D01*
X95845000Y-96095000D02*
X95845000Y-99045000D01*
X90795000Y-94595000D02*
X90795000Y-93845000D01*
X94795000Y-94595000D02*
X96595000Y-94595000D01*
X88995000Y-94595000D02*
X90795000Y-94595000D01*
X96605000Y-93835000D02*
X88985000Y-93835000D01*
X96595000Y-96095000D02*
X95845000Y-96095000D01*
X96595000Y-93845000D02*
X94795000Y-93845000D01*
X89945000Y-93545000D02*
X88695000Y-93545000D01*
X93295000Y-93845000D02*
X92295000Y-93845000D01*
X89745000Y-99045000D02*
X92795000Y-99045000D01*
X94795000Y-93845000D02*
X94795000Y-94595000D01*
X88985000Y-93835000D02*
X88985000Y-99805000D01*
X95845000Y-99045000D02*
X92795000Y-99045000D01*
X96605000Y-99805000D02*
X96605000Y-93835000D01*
X88695000Y-93545000D02*
X88695000Y-94795000D01*
X93295000Y-94595000D02*
X93295000Y-93845000D01*
X88995000Y-96095000D02*
X89745000Y-96095000D01*
X89745000Y-96095000D02*
X89745000Y-99045000D01*
X88995000Y-93845000D02*
X88995000Y-94595000D01*
X92295000Y-93845000D02*
X92295000Y-94595000D01*
X96595000Y-94595000D02*
X96595000Y-93845000D01*
X88985000Y-99805000D02*
X96605000Y-99805000D01*
X90795000Y-93845000D02*
X88995000Y-93845000D01*
%TO.C,Q5*%
X105890000Y-86612500D02*
X105890000Y-88287500D01*
X109010000Y-86612500D02*
X109010000Y-85962500D01*
X109010000Y-86612500D02*
X109010000Y-87262500D01*
X105890000Y-86612500D02*
X105890000Y-85962500D01*
%TO.C,J1*%
X155740000Y-81994000D02*
X165860000Y-81994000D01*
X155500000Y-88455000D02*
X155500000Y-89195000D01*
X162266000Y-85534000D02*
X162231000Y-85569000D01*
X155740000Y-86895000D02*
X165860000Y-86895000D01*
X165860000Y-79034000D02*
X165860000Y-88955000D01*
X164575000Y-83226000D02*
X164528000Y-83272000D01*
X155740000Y-88395000D02*
X165860000Y-88395000D01*
X164370000Y-83020000D02*
X164335000Y-83056000D01*
X162073000Y-85318000D02*
X162026000Y-85364000D01*
X155500000Y-89195000D02*
X156000000Y-89195000D01*
X155740000Y-88955000D02*
X165860000Y-88955000D01*
X155740000Y-79034000D02*
X155740000Y-88955000D01*
X155740000Y-79034000D02*
X165860000Y-79034000D01*
X156765000Y-83611000D02*
G75*
G03*
X156764573Y-84978042I1534993J-684001D01*
G01*
X157616000Y-85830000D02*
G75*
G03*
X158328805Y-85975253I683999J1535001D01*
G01*
X158300000Y-85975000D02*
G75*
G03*
X158983318Y-85829756I0J1680000D01*
G01*
X159835001Y-84979000D02*
G75*
G03*
X159835427Y-83611958I-1535001J684000D01*
G01*
X158984000Y-82760000D02*
G75*
G03*
X157616958Y-82759573I-684001J-1534993D01*
G01*
X164980000Y-84295000D02*
G75*
G03*
X164980000Y-84295000I-1680000J0D01*
G01*
%TO.C,C13*%
X166765000Y-96561252D02*
X166765000Y-96038748D01*
X168235000Y-96561252D02*
X168235000Y-96038748D01*
%TO.C,J7*%
X121250000Y-80375000D02*
X121250000Y-83325000D01*
X115150000Y-83325000D02*
X118200000Y-83325000D01*
X116200000Y-78125000D02*
X114400000Y-78125000D01*
X114400000Y-78875000D02*
X116200000Y-78875000D01*
X122010000Y-84085000D02*
X122010000Y-78115000D01*
X115350000Y-77825000D02*
X114100000Y-77825000D01*
X122000000Y-80375000D02*
X121250000Y-80375000D01*
X115150000Y-80375000D02*
X115150000Y-83325000D01*
X114390000Y-84085000D02*
X122010000Y-84085000D01*
X118700000Y-78875000D02*
X118700000Y-78125000D01*
X116200000Y-78875000D02*
X116200000Y-78125000D01*
X121250000Y-83325000D02*
X118200000Y-83325000D01*
X114100000Y-77825000D02*
X114100000Y-79075000D01*
X117700000Y-78875000D02*
X118700000Y-78875000D01*
X114390000Y-78115000D02*
X114390000Y-84085000D01*
X114400000Y-80375000D02*
X115150000Y-80375000D01*
X120200000Y-78875000D02*
X122000000Y-78875000D01*
X122000000Y-78875000D02*
X122000000Y-78125000D01*
X114400000Y-78125000D02*
X114400000Y-78875000D01*
X122000000Y-78125000D02*
X120200000Y-78125000D01*
X118700000Y-78125000D02*
X117700000Y-78125000D01*
X122010000Y-78115000D02*
X114390000Y-78115000D01*
X117700000Y-78125000D02*
X117700000Y-78875000D01*
X120200000Y-78125000D02*
X120200000Y-78875000D01*
%TO.C,R7*%
X175565000Y-94272936D02*
X175565000Y-94727064D01*
X177035000Y-94272936D02*
X177035000Y-94727064D01*
%TO.C,C12*%
X190188748Y-96065000D02*
X190711252Y-96065000D01*
X190188748Y-97535000D02*
X190711252Y-97535000D01*
%TO.C,Q1*%
X143360000Y-86612500D02*
X143360000Y-85962500D01*
X140240000Y-86612500D02*
X140240000Y-88287500D01*
X143360000Y-86612500D02*
X143360000Y-87262500D01*
X140240000Y-86612500D02*
X140240000Y-85962500D01*
%TO.C,D10*%
X109550000Y-97300000D02*
X112850000Y-97300000D01*
X109550000Y-97300000D02*
X109550000Y-91900000D01*
X112850000Y-97300000D02*
X112850000Y-91900000D01*
%TO.C,L1*%
X162602064Y-98840000D02*
X161397936Y-98840000D01*
X162602064Y-101560000D02*
X161397936Y-101560000D01*
%TO.C,J10*%
X94795000Y-87275000D02*
X96595000Y-87275000D01*
X94795000Y-86525000D02*
X94795000Y-87275000D01*
X89745000Y-88775000D02*
X89745000Y-91725000D01*
X88995000Y-87275000D02*
X90795000Y-87275000D01*
X88995000Y-88775000D02*
X89745000Y-88775000D01*
X95845000Y-91725000D02*
X92795000Y-91725000D01*
X89745000Y-91725000D02*
X92795000Y-91725000D01*
X92295000Y-86525000D02*
X92295000Y-87275000D01*
X92295000Y-87275000D02*
X93295000Y-87275000D01*
X88985000Y-92485000D02*
X96605000Y-92485000D01*
X89945000Y-86225000D02*
X88695000Y-86225000D01*
X88985000Y-86515000D02*
X88985000Y-92485000D01*
X93295000Y-87275000D02*
X93295000Y-86525000D01*
X96595000Y-87275000D02*
X96595000Y-86525000D01*
X93295000Y-86525000D02*
X92295000Y-86525000D01*
X88995000Y-86525000D02*
X88995000Y-87275000D01*
X90795000Y-86525000D02*
X88995000Y-86525000D01*
X95845000Y-88775000D02*
X95845000Y-91725000D01*
X96605000Y-92485000D02*
X96605000Y-86515000D01*
X88695000Y-86225000D02*
X88695000Y-87475000D01*
X90795000Y-87275000D02*
X90795000Y-86525000D01*
X96595000Y-86525000D02*
X94795000Y-86525000D01*
X96605000Y-86515000D02*
X88985000Y-86515000D01*
X96595000Y-88775000D02*
X95845000Y-88775000D01*
%TO.C,C3*%
X162065000Y-96338748D02*
X162065000Y-96861252D01*
X163535000Y-96338748D02*
X163535000Y-96861252D01*
D14*
%TO.C,D4*%
X102840000Y-102550000D02*
X102840000Y-103280000D01*
X105760000Y-102550000D02*
X105120000Y-102550000D01*
X103480000Y-102550000D02*
X102840000Y-102550000D01*
X105760000Y-103280000D02*
X105760000Y-102550000D01*
D11*
X103450000Y-105700000D02*
G75*
G03*
X103450000Y-105700000I-100000J0D01*
G01*
D12*
%TO.C,C19*%
X170758349Y-98616000D02*
X170758349Y-101160000D01*
X169878349Y-98264000D02*
X169878349Y-101160000D01*
X172198349Y-99913000D02*
X172198349Y-104487000D01*
X172158349Y-99855000D02*
X172158349Y-104545000D01*
X170878349Y-103240000D02*
X170878349Y-105717000D01*
X168797349Y-98120000D02*
X168797349Y-106280000D01*
X169477349Y-98176000D02*
X169477349Y-106224000D01*
X169518349Y-98183000D02*
X169518349Y-101160000D01*
X172438349Y-100310000D02*
X172438349Y-104090000D01*
X171918349Y-99549000D02*
X171918349Y-104851000D01*
X171438349Y-103240000D02*
X171438349Y-105324000D01*
X170838349Y-103240000D02*
X170838349Y-105740000D01*
X168877349Y-98120000D02*
X168877349Y-106280000D01*
X170238349Y-98379000D02*
X170238349Y-101160000D01*
X171278349Y-103240000D02*
X171278349Y-105450000D01*
X170438349Y-103240000D02*
X170438349Y-105940000D01*
X169077349Y-98129000D02*
X169077349Y-106271000D01*
X171678349Y-99293000D02*
X171678349Y-105107000D01*
X169678349Y-103240000D02*
X169678349Y-106185000D01*
X171598349Y-99217000D02*
X171598349Y-105183000D01*
X171038349Y-103240000D02*
X171038349Y-105618000D01*
X170398349Y-98443000D02*
X170398349Y-101160000D01*
X170758349Y-103240000D02*
X170758349Y-105784000D01*
X171358349Y-99011000D02*
X171358349Y-101160000D01*
X169437349Y-98170000D02*
X169437349Y-106230000D01*
X169277349Y-98148000D02*
X169277349Y-106252000D01*
X172038349Y-99695000D02*
X172038349Y-104705000D01*
X169878349Y-103240000D02*
X169878349Y-106136000D01*
X171038349Y-98782000D02*
X171038349Y-101160000D01*
X170478349Y-103240000D02*
X170478349Y-105922000D01*
X169518349Y-103240000D02*
X169518349Y-106217000D01*
X170078349Y-98323000D02*
X170078349Y-101160000D01*
X169638349Y-103240000D02*
X169638349Y-106194000D01*
X169558349Y-98190000D02*
X169558349Y-101160000D01*
X172278349Y-100034000D02*
X172278349Y-104366000D01*
X170638349Y-103240000D02*
X170638349Y-105847000D01*
X170318349Y-103240000D02*
X170318349Y-105990000D01*
X170878349Y-98683000D02*
X170878349Y-101160000D01*
X170718349Y-98594000D02*
X170718349Y-101160000D01*
X169678349Y-98215000D02*
X169678349Y-101160000D01*
X171278349Y-98950000D02*
X171278349Y-101160000D01*
X171558349Y-103240000D02*
X171558349Y-105219000D01*
X169558349Y-103240000D02*
X169558349Y-106210000D01*
X170598349Y-103240000D02*
X170598349Y-105866000D01*
X172678349Y-100854000D02*
X172678349Y-103546000D01*
X169317349Y-98152000D02*
X169317349Y-106248000D01*
X169998349Y-98298000D02*
X169998349Y-101160000D01*
X172398349Y-100236000D02*
X172398349Y-104164000D01*
X171518349Y-103240000D02*
X171518349Y-105255000D01*
X169357349Y-98158000D02*
X169357349Y-106242000D01*
X169798349Y-103240000D02*
X169798349Y-106157000D01*
X171198349Y-103240000D02*
X171198349Y-105509000D01*
X171238349Y-103240000D02*
X171238349Y-105480000D01*
X168997349Y-98124000D02*
X168997349Y-106276000D01*
X171438349Y-99076000D02*
X171438349Y-101160000D01*
X170358349Y-103240000D02*
X170358349Y-105974000D01*
X164787651Y-99485000D02*
X164787651Y-100285000D01*
X171118349Y-98835000D02*
X171118349Y-101160000D01*
X172118349Y-99800000D02*
X172118349Y-104600000D01*
X170558349Y-103240000D02*
X170558349Y-105886000D01*
X171638349Y-99255000D02*
X171638349Y-105145000D01*
X170118349Y-98337000D02*
X170118349Y-101160000D01*
X170678349Y-98573000D02*
X170678349Y-101160000D01*
X171718349Y-99333000D02*
X171718349Y-105067000D01*
X170678349Y-103240000D02*
X170678349Y-105827000D01*
X169237349Y-98143000D02*
X169237349Y-106257000D01*
X171998349Y-99644000D02*
X171998349Y-104756000D01*
X169598349Y-98198000D02*
X169598349Y-101160000D01*
X169157349Y-98135000D02*
X169157349Y-106265000D01*
X170558349Y-98514000D02*
X170558349Y-101160000D01*
X170078349Y-103240000D02*
X170078349Y-106077000D01*
X170638349Y-98553000D02*
X170638349Y-101160000D01*
X170158349Y-103240000D02*
X170158349Y-106050000D01*
X170598349Y-98534000D02*
X170598349Y-101160000D01*
X172478349Y-100387000D02*
X172478349Y-104013000D01*
X170478349Y-98478000D02*
X170478349Y-101160000D01*
X170838349Y-98660000D02*
X170838349Y-101160000D01*
X169798349Y-98243000D02*
X169798349Y-101160000D01*
X168917349Y-98121000D02*
X168917349Y-106279000D01*
X169598349Y-103240000D02*
X169598349Y-106202000D01*
X171078349Y-103240000D02*
X171078349Y-105592000D01*
X170238349Y-103240000D02*
X170238349Y-106021000D01*
X169838349Y-98253000D02*
X169838349Y-101160000D01*
X169117349Y-98132000D02*
X169117349Y-106268000D01*
X170358349Y-98426000D02*
X170358349Y-101160000D01*
X171398349Y-99044000D02*
X171398349Y-101160000D01*
X172878349Y-101667000D02*
X172878349Y-102733000D01*
X170198349Y-98365000D02*
X170198349Y-101160000D01*
X169397349Y-98163000D02*
X169397349Y-106237000D01*
X172318349Y-100098000D02*
X172318349Y-104302000D01*
X169918349Y-103240000D02*
X169918349Y-106125000D01*
X170198349Y-103240000D02*
X170198349Y-106035000D01*
X171358349Y-103240000D02*
X171358349Y-105389000D01*
X170718349Y-103240000D02*
X170718349Y-105806000D01*
X169958349Y-103240000D02*
X169958349Y-106114000D01*
X171318349Y-103240000D02*
X171318349Y-105420000D01*
X170998349Y-98756000D02*
X170998349Y-101160000D01*
X170118349Y-103240000D02*
X170118349Y-106063000D01*
X170958349Y-98731000D02*
X170958349Y-101160000D01*
X170038349Y-98311000D02*
X170038349Y-101160000D01*
X172758349Y-101102000D02*
X172758349Y-103298000D01*
X168957349Y-98123000D02*
X168957349Y-106277000D01*
X170278349Y-98395000D02*
X170278349Y-101160000D01*
X171958349Y-99596000D02*
X171958349Y-104804000D01*
X171118349Y-103240000D02*
X171118349Y-105565000D01*
X170918349Y-98707000D02*
X170918349Y-101160000D01*
X169758349Y-103240000D02*
X169758349Y-106167000D01*
X170278349Y-103240000D02*
X170278349Y-106005000D01*
X169998349Y-103240000D02*
X169998349Y-106102000D01*
X169197349Y-98139000D02*
X169197349Y-106261000D01*
X171198349Y-98891000D02*
X171198349Y-101160000D01*
X172558349Y-100555000D02*
X172558349Y-103845000D01*
X172638349Y-100747000D02*
X172638349Y-103653000D01*
X169758349Y-98233000D02*
X169758349Y-101160000D01*
X168837349Y-98120000D02*
X168837349Y-106280000D01*
X169037349Y-98126000D02*
X169037349Y-106274000D01*
X170438349Y-98460000D02*
X170438349Y-101160000D01*
X169718349Y-103240000D02*
X169718349Y-106176000D01*
X169838349Y-103240000D02*
X169838349Y-106147000D01*
X172798349Y-101252000D02*
X172798349Y-103148000D01*
X170158349Y-98350000D02*
X170158349Y-101160000D01*
X172838349Y-101432000D02*
X172838349Y-102968000D01*
X171238349Y-98920000D02*
X171238349Y-101160000D01*
X171398349Y-103240000D02*
X171398349Y-105356000D01*
X169718349Y-98224000D02*
X169718349Y-101160000D01*
X170958349Y-103240000D02*
X170958349Y-105669000D01*
X172598349Y-100648000D02*
X172598349Y-103752000D01*
X170398349Y-103240000D02*
X170398349Y-105957000D01*
X170518349Y-98496000D02*
X170518349Y-101160000D01*
X171158349Y-98862000D02*
X171158349Y-101160000D01*
X171158349Y-103240000D02*
X171158349Y-105538000D01*
X170798349Y-98638000D02*
X170798349Y-101160000D01*
X171478349Y-103240000D02*
X171478349Y-105290000D01*
X172718349Y-100971000D02*
X172718349Y-103429000D01*
X164387651Y-99885000D02*
X165187651Y-99885000D01*
X171878349Y-99503000D02*
X171878349Y-104897000D01*
X170918349Y-103240000D02*
X170918349Y-105693000D01*
X171838349Y-99459000D02*
X171838349Y-104941000D01*
X172238349Y-99972000D02*
X172238349Y-104428000D01*
X171798349Y-99416000D02*
X171798349Y-104984000D01*
X169918349Y-98275000D02*
X169918349Y-101160000D01*
X171558349Y-99181000D02*
X171558349Y-101160000D01*
X172518349Y-100469000D02*
X172518349Y-103931000D01*
X172078349Y-99746000D02*
X172078349Y-104654000D01*
X170038349Y-103240000D02*
X170038349Y-106089000D01*
X171478349Y-99110000D02*
X171478349Y-101160000D01*
X172358349Y-100166000D02*
X172358349Y-104234000D01*
X170518349Y-103240000D02*
X170518349Y-105904000D01*
X169638349Y-98206000D02*
X169638349Y-101160000D01*
X171518349Y-99145000D02*
X171518349Y-101160000D01*
X171318349Y-98980000D02*
X171318349Y-101160000D01*
X171758349Y-99374000D02*
X171758349Y-105026000D01*
X170998349Y-103240000D02*
X170998349Y-105644000D01*
X171078349Y-98808000D02*
X171078349Y-101160000D01*
X170798349Y-103240000D02*
X170798349Y-105762000D01*
X169958349Y-98286000D02*
X169958349Y-101160000D01*
X170318349Y-98410000D02*
X170318349Y-101160000D01*
X172917349Y-102200000D02*
G75*
G03*
X172917349Y-102200000I-4120000J0D01*
G01*
%TO.C,D6*%
X133550000Y-97300000D02*
X136850000Y-97300000D01*
X136850000Y-97300000D02*
X136850000Y-91900000D01*
X133550000Y-97300000D02*
X133550000Y-91900000D01*
%TO.C,D2*%
X165145000Y-94245000D02*
X157845000Y-94245000D01*
X165145000Y-89945000D02*
X157845000Y-89945000D01*
X165145000Y-94245000D02*
X165145000Y-89945000D01*
%TO.C,Q4*%
X114390000Y-86612500D02*
X114390000Y-85962500D01*
X117510000Y-86612500D02*
X117510000Y-87262500D01*
X114390000Y-86612500D02*
X114390000Y-88287500D01*
X117510000Y-86612500D02*
X117510000Y-85962500D01*
%TO.C,D7*%
X130850000Y-97300000D02*
X130850000Y-91900000D01*
X127550000Y-97300000D02*
X127550000Y-91900000D01*
X127550000Y-97300000D02*
X130850000Y-97300000D01*
%TO.C,D3*%
X157200000Y-98550000D02*
X151800000Y-98550000D01*
X157200000Y-101850000D02*
X151800000Y-101850000D01*
X157200000Y-101850000D02*
X157200000Y-98550000D01*
%TO.C,R6*%
X175935000Y-91027064D02*
X175935000Y-90572936D01*
X174465000Y-91027064D02*
X174465000Y-90572936D01*
%TO.C,J2*%
X167985100Y-77812200D02*
X167985100Y-79548426D01*
X177814900Y-83576026D02*
X177814900Y-81513174D01*
X167985100Y-81513174D02*
X167985100Y-83576026D01*
X177814900Y-77812200D02*
X167985100Y-77812200D01*
X177814900Y-79548426D02*
X177814900Y-77812200D01*
%TO.C,Q2*%
X134860000Y-86612500D02*
X134860000Y-85962500D01*
X131740000Y-86612500D02*
X131740000Y-88287500D01*
X131740000Y-86612500D02*
X131740000Y-85962500D01*
X134860000Y-86612500D02*
X134860000Y-87262500D01*
%TD*%
M02*
