%TF.GenerationSoftware,KiCad,Pcbnew,(6.0.6)*%
%TF.CreationDate,2022-10-06T01:30:09-05:00*%
%TF.ProjectId,better-klipper-expander,62657474-6572-42d6-9b6c-69707065722d,V1*%
%TF.SameCoordinates,Original*%
%TF.FileFunction,Copper,L4,Bot*%
%TF.FilePolarity,Positive*%
%FSLAX46Y46*%
G04 Gerber Fmt 4.6, Leading zero omitted, Abs format (unit mm)*
G04 Created by KiCad (PCBNEW (6.0.6)) date 2022-10-06 01:30:09*
%MOMM*%
%LPD*%
G01*
G04 APERTURE LIST*
G04 Aperture macros list*
%AMRoundRect*
0 Rectangle with rounded corners*
0 $1 Rounding radius*
0 $2 $3 $4 $5 $6 $7 $8 $9 X,Y pos of 4 corners*
0 Add a 4 corners polygon primitive as box body*
4,1,4,$2,$3,$4,$5,$6,$7,$8,$9,$2,$3,0*
0 Add four circle primitives for the rounded corners*
1,1,$1+$1,$2,$3*
1,1,$1+$1,$4,$5*
1,1,$1+$1,$6,$7*
1,1,$1+$1,$8,$9*
0 Add four rect primitives between the rounded corners*
20,1,$1+$1,$2,$3,$4,$5,0*
20,1,$1+$1,$4,$5,$6,$7,0*
20,1,$1+$1,$6,$7,$8,$9,0*
20,1,$1+$1,$8,$9,$2,$3,0*%
G04 Aperture macros list end*
%TA.AperFunction,ComponentPad*%
%ADD10C,0.300000*%
%TD*%
%TA.AperFunction,ComponentPad*%
%ADD11R,1.337000X1.337000*%
%TD*%
%TA.AperFunction,ComponentPad*%
%ADD12C,1.337000*%
%TD*%
%TA.AperFunction,ComponentPad*%
%ADD13O,1.700000X1.700000*%
%TD*%
%TA.AperFunction,ComponentPad*%
%ADD14R,1.700000X1.700000*%
%TD*%
%TA.AperFunction,ComponentPad*%
%ADD15RoundRect,0.250000X-0.600000X-0.750000X0.600000X-0.750000X0.600000X0.750000X-0.600000X0.750000X0*%
%TD*%
%TA.AperFunction,ComponentPad*%
%ADD16O,1.700000X2.000000*%
%TD*%
%TA.AperFunction,ComponentPad*%
%ADD17R,2.600000X2.600000*%
%TD*%
%TA.AperFunction,ComponentPad*%
%ADD18C,2.600000*%
%TD*%
%TA.AperFunction,ComponentPad*%
%ADD19R,1.600000X1.600000*%
%TD*%
%TA.AperFunction,ComponentPad*%
%ADD20C,1.600000*%
%TD*%
%TA.AperFunction,ComponentPad*%
%ADD21C,0.660400*%
%TD*%
%TA.AperFunction,ViaPad*%
%ADD22C,0.500000*%
%TD*%
%TA.AperFunction,ViaPad*%
%ADD23C,0.800000*%
%TD*%
%TA.AperFunction,ViaPad*%
%ADD24C,1.000000*%
%TD*%
%TA.AperFunction,Conductor*%
%ADD25C,0.250000*%
%TD*%
%TA.AperFunction,Conductor*%
%ADD26C,0.300000*%
%TD*%
%TA.AperFunction,Conductor*%
%ADD27C,0.350000*%
%TD*%
%TA.AperFunction,Conductor*%
%ADD28C,0.200000*%
%TD*%
%TA.AperFunction,Conductor*%
%ADD29C,0.150000*%
%TD*%
G04 APERTURE END LIST*
D10*
%TO.P,U3,10*%
%TO.N,N/C*%
X171090000Y-93750000D03*
%TO.P,U3,11*%
X169790000Y-93750000D03*
%TO.P,U3,12*%
X171090000Y-92450000D03*
%TO.P,U3,13*%
X169790000Y-92450000D03*
%TO.P,U3,14*%
X171090000Y-91150000D03*
%TO.P,U3,15*%
X169790000Y-91150000D03*
%TO.P,U3,16*%
X171090000Y-89850000D03*
%TO.P,U3,17*%
X169790000Y-89850000D03*
%TD*%
D11*
%TO.P,F2,1,1*%
%TO.N,Net-(F2-Pad1)*%
X151800000Y-80250000D03*
D12*
%TO.P,F2,2,2*%
X151800000Y-83950000D03*
%TO.P,F2,3,3*%
%TO.N,VCC*%
X151800000Y-88250000D03*
%TO.P,F2,4,4*%
X151800000Y-91950000D03*
%TD*%
D13*
%TO.P,JP1,2,B*%
%TO.N,Net-(C4-Pad2)*%
X187265000Y-99800000D03*
D14*
%TO.P,JP1,1,A*%
%TO.N,GND*%
X184725000Y-99800000D03*
%TD*%
D13*
%TO.P,J11,4,Pin_4*%
%TO.N,+5V*%
X113860000Y-102300000D03*
%TO.P,J11,3,Pin_3*%
%TO.N,VCC*%
X116400000Y-102300000D03*
%TO.P,J11,2,Pin_2*%
%TO.N,VFAN*%
X113860000Y-99760000D03*
D14*
%TO.P,J11,1,Pin_1*%
X116400000Y-99760000D03*
%TD*%
D15*
%TO.P,J8,1,Pin_1*%
%TO.N,Net-(D9-Pad2)*%
X108550000Y-80575000D03*
D16*
%TO.P,J8,2,Pin_2*%
%TO.N,VFAN*%
X111050000Y-80575000D03*
%TD*%
D14*
%TO.P,JP2,1,A*%
%TO.N,Net-(J6-Pad1)*%
X99325000Y-98000000D03*
D13*
%TO.P,JP2,2,B*%
%TO.N,Net-(JP2-Pad2)*%
X101865000Y-98000000D03*
%TD*%
D15*
%TO.P,J5,1,Pin_1*%
%TO.N,Net-(D7-Pad2)*%
X125350000Y-80575000D03*
D16*
%TO.P,J5,2,Pin_2*%
%TO.N,VFAN*%
X127850000Y-80575000D03*
%TD*%
D15*
%TO.P,J9,1,Pin_1*%
%TO.N,Net-(D10-Pad2)*%
X100150000Y-80575000D03*
D16*
%TO.P,J9,2,Pin_2*%
%TO.N,VFAN*%
X102650000Y-80575000D03*
%TD*%
D15*
%TO.P,J3,1,Pin_1*%
%TO.N,Net-(D5-Pad2)*%
X142200000Y-80575000D03*
D16*
%TO.P,J3,2,Pin_2*%
%TO.N,VFAN*%
X144700000Y-80575000D03*
%TD*%
D15*
%TO.P,J4,1,Pin_1*%
%TO.N,Net-(D6-Pad2)*%
X133800000Y-80575000D03*
D16*
%TO.P,J4,2,Pin_2*%
%TO.N,VFAN*%
X136300000Y-80575000D03*
%TD*%
D15*
%TO.P,J6,1,Pin_1*%
%TO.N,Net-(J6-Pad1)*%
X91545000Y-96295000D03*
D16*
%TO.P,J6,2,Pin_2*%
%TO.N,GND*%
X94045000Y-96295000D03*
%TD*%
D17*
%TO.P,J1,1,Pin_1*%
%TO.N,Net-(F2-Pad1)*%
X158300000Y-84295000D03*
D18*
%TO.P,J1,2,Pin_2*%
%TO.N,GND*%
X163300000Y-84295000D03*
%TD*%
D15*
%TO.P,J7,1,Pin_1*%
%TO.N,Net-(D8-Pad2)*%
X116950000Y-80575000D03*
D16*
%TO.P,J7,2,Pin_2*%
%TO.N,VFAN*%
X119450000Y-80575000D03*
%TD*%
%TO.P,J10,2,Pin_2*%
%TO.N,GND*%
X94045000Y-88975000D03*
D15*
%TO.P,J10,1,Pin_1*%
%TO.N,Net-(J10-Pad1)*%
X91545000Y-88975000D03*
%TD*%
D19*
%TO.P,C19,1*%
%TO.N,+5V*%
X167047349Y-102200000D03*
D20*
%TO.P,C19,2*%
%TO.N,GND*%
X170547349Y-102200000D03*
%TD*%
D21*
%TO.P,J2,18*%
%TO.N,N/C*%
X170010001Y-84210801D03*
%TO.P,J2,17*%
X175789999Y-84210801D03*
%TD*%
D22*
%TO.N,+3.3V*%
X157600000Y-106474500D03*
D23*
%TO.N,GND*%
X163245000Y-92095000D03*
X165000000Y-97550000D03*
X158400000Y-99150000D03*
%TO.N,VCC*%
X125300000Y-99000000D03*
%TO.N,+5V*%
X129300000Y-103200000D03*
%TO.N,+3.3V*%
X179500000Y-99700000D03*
%TO.N,FAN2*%
X129362500Y-88600000D03*
%TO.N,FAN3*%
X120762500Y-88900000D03*
%TO.N,FAN0*%
X146612500Y-88762500D03*
%TO.N,FAN1*%
X138112500Y-88662500D03*
%TO.N,FAN4*%
X112262500Y-88900000D03*
%TO.N,FAN5*%
X103812500Y-88812500D03*
%TO.N,TH0*%
X109237500Y-101937500D03*
%TO.N,TH1*%
X108237500Y-92237500D03*
D22*
%TO.N,FAN2*%
X177300000Y-92200000D03*
%TO.N,FAN1*%
X177600000Y-91500000D03*
%TO.N,FAN0*%
X178200000Y-90900000D03*
%TO.N,FAN3*%
X177500000Y-92900000D03*
%TO.N,FAN4*%
X178000000Y-93400000D03*
%TO.N,FAN5*%
X178600000Y-93800000D03*
%TO.N,TH0*%
X187800000Y-92000000D03*
%TO.N,TH1*%
X187800000Y-92800000D03*
D23*
%TO.N,+3.3V*%
X186800000Y-86100000D03*
X190700000Y-87600000D03*
D22*
X187300000Y-91000000D03*
D23*
%TO.N,Net-(C10-Pad1)*%
X189500000Y-92000000D03*
D22*
X185300000Y-88400000D03*
D23*
%TO.N,+3.3V*%
X191700000Y-102800000D03*
%TO.N,GND*%
X191700000Y-105100000D03*
%TO.N,+5V*%
X160600000Y-101100000D03*
%TO.N,GND*%
X175200000Y-95400000D03*
%TO.N,Net-(C10-Pad1)*%
X187700000Y-97400000D03*
%TO.N,GND*%
X187300000Y-105400000D03*
X184100000Y-102900000D03*
D22*
%TO.N,Net-(C10-Pad1)*%
X183797382Y-97911054D03*
%TO.N,+3.3V*%
X183039671Y-98259623D03*
%TO.N,CLK*%
X181500000Y-88000000D03*
%TO.N,/D+*%
X183620878Y-88920878D03*
%TO.N,/D-*%
X184376516Y-88940488D03*
%TO.N,SD0*%
X181234314Y-88700000D03*
%TO.N,SD3*%
X182512000Y-88500961D03*
D23*
%TO.N,/D+*%
X174800000Y-88000000D03*
%TO.N,/D-*%
X178600000Y-87200000D03*
%TO.N,GND*%
X168875000Y-87600000D03*
X183500000Y-85500000D03*
%TO.N,SD0*%
X183500000Y-80600000D03*
%TO.N,CLK*%
X182200000Y-80600000D03*
%TO.N,SD3*%
X181000000Y-80600000D03*
%TO.N,VCC*%
X179700000Y-80600000D03*
D24*
%TO.N,VFAN*%
X143300000Y-95900000D03*
%TO.N,GND*%
X151800000Y-100200000D03*
D23*
X173800000Y-98300000D03*
X175700000Y-103650000D03*
X184017500Y-94605000D03*
X181917500Y-94605000D03*
X181917500Y-92605000D03*
X184017500Y-92605000D03*
X182917500Y-93600000D03*
%TO.N,VCC*%
X157900000Y-92100000D03*
%TO.N,Net-(D5-Pad2)*%
X141200000Y-91000000D03*
%TO.N,Net-(D6-Pad2)*%
X135200000Y-91000000D03*
%TO.N,Net-(D7-Pad2)*%
X129200000Y-91000000D03*
%TO.N,Net-(D8-Pad2)*%
X123200000Y-91000000D03*
%TO.N,Net-(D9-Pad2)*%
X117200000Y-91000000D03*
%TO.N,Net-(D10-Pad2)*%
X111200000Y-91000000D03*
%TO.N,GND*%
X142762500Y-87571351D03*
X134262500Y-87571351D03*
X125462500Y-87571351D03*
X116862500Y-87582905D03*
X108362500Y-87587500D03*
X99950000Y-87600000D03*
X191400000Y-94400000D03*
X102312600Y-94887400D03*
X103312600Y-104587400D03*
%TO.N,+3.3V*%
X104250000Y-94900000D03*
X105900000Y-100100000D03*
X105250000Y-104600000D03*
X178400000Y-104600000D03*
%TD*%
D25*
%TO.N,FAN4*%
X119600000Y-102400000D02*
X119600000Y-90800000D01*
D26*
%TO.N,+3.3V*%
X180549647Y-100749647D02*
X178400000Y-102899294D01*
X183039671Y-98259623D02*
X180549647Y-100749647D01*
D27*
X179500000Y-99700000D02*
X180549647Y-100749647D01*
D25*
%TO.N,FAN4*%
X113200000Y-88900000D02*
X112262500Y-88900000D01*
X119600000Y-90800000D02*
X118800000Y-90000000D01*
X121750000Y-104550000D02*
X119600000Y-102400000D01*
X118800000Y-90000000D02*
X114300000Y-90000000D01*
X171640812Y-104550000D02*
X121750000Y-104550000D01*
X178000000Y-98190812D02*
X171640812Y-104550000D01*
X114300000Y-90000000D02*
X113200000Y-88900000D01*
X178000000Y-93400000D02*
X178000000Y-98190812D01*
%TO.N,FAN3*%
X171477208Y-104077208D02*
X123977208Y-104077208D01*
X123977208Y-104077208D02*
X120800000Y-100900000D01*
X177400000Y-98154416D02*
X171477208Y-104077208D01*
X177400000Y-93000000D02*
X177400000Y-98154416D01*
X120800000Y-88937500D02*
X120762500Y-88900000D01*
X177500000Y-92900000D02*
X177400000Y-93000000D01*
X120800000Y-100900000D02*
X120800000Y-88937500D01*
%TO.N,FAN2*%
X130100000Y-88600000D02*
X129362500Y-88600000D01*
X131600000Y-101100000D02*
X131600000Y-90100000D01*
X131600000Y-90100000D02*
X130100000Y-88600000D01*
X171290812Y-103627208D02*
X134127208Y-103627208D01*
X176900000Y-92300000D02*
X176900000Y-98018020D01*
X134127208Y-103627208D02*
X131600000Y-101100000D01*
X177000000Y-92200000D02*
X176900000Y-92300000D01*
X176900000Y-98018020D02*
X171290812Y-103627208D01*
X177300000Y-92200000D02*
X177000000Y-92200000D01*
%TO.N,FAN1*%
X138100000Y-88675000D02*
X138112500Y-88662500D01*
X138100000Y-100900000D02*
X138100000Y-88675000D01*
%TO.N,FAN0*%
X146600000Y-88775000D02*
X146612500Y-88762500D01*
X146600000Y-100900000D02*
X146600000Y-88775000D01*
%TO.N,FAN5*%
X103812500Y-90012500D02*
X103812500Y-88812500D01*
X104200000Y-90400000D02*
X103812500Y-90012500D01*
X108000000Y-90400000D02*
X104200000Y-90400000D01*
X110450000Y-100250000D02*
X108962500Y-98762500D01*
X110450000Y-102150000D02*
X110450000Y-100250000D01*
X113300000Y-105000000D02*
X110450000Y-102150000D01*
X171827208Y-105000000D02*
X113300000Y-105000000D01*
X108962500Y-98762500D02*
X108962500Y-91362500D01*
X108962500Y-91362500D02*
X108000000Y-90400000D01*
X178600000Y-93800000D02*
X178600000Y-98227208D01*
X178600000Y-98227208D02*
X171827208Y-105000000D01*
%TO.N,FAN0*%
X148427208Y-102727208D02*
X146600000Y-100900000D01*
X163672792Y-102727208D02*
X148427208Y-102727208D01*
X165900000Y-100500000D02*
X163672792Y-102727208D01*
X174713299Y-94225000D02*
X168438299Y-100500000D01*
X175675000Y-94225000D02*
X174713299Y-94225000D01*
X176963604Y-90900000D02*
X175900000Y-91963604D01*
X175900000Y-94000000D02*
X175675000Y-94225000D01*
X168438299Y-100500000D02*
X165900000Y-100500000D01*
X178200000Y-90900000D02*
X176963604Y-90900000D01*
X175900000Y-91963604D02*
X175900000Y-94000000D01*
%TO.N,FAN1*%
X163922792Y-103177208D02*
X140377208Y-103177208D01*
X166100000Y-101000000D02*
X163922792Y-103177208D01*
X140377208Y-103177208D02*
X138100000Y-100900000D01*
X168600000Y-100974695D02*
X168600000Y-101000000D01*
X176400000Y-94200000D02*
X175925000Y-94675000D01*
X175925000Y-94675000D02*
X174899695Y-94675000D01*
X168600000Y-101000000D02*
X166100000Y-101000000D01*
X176400000Y-92100000D02*
X176400000Y-94200000D01*
X174899695Y-94675000D02*
X168600000Y-100974695D01*
X177600000Y-91500000D02*
X177000000Y-91500000D01*
X177000000Y-91500000D02*
X176400000Y-92100000D01*
%TO.N,TH1*%
X184600000Y-96500000D02*
X187800000Y-93300000D01*
X180963604Y-96500000D02*
X184600000Y-96500000D01*
X172013604Y-105450000D02*
X180963604Y-96500000D01*
X113050000Y-105450000D02*
X172013604Y-105450000D01*
X110000000Y-100900000D02*
X110000000Y-102400000D01*
X108237500Y-99137500D02*
X110000000Y-100900000D01*
X108237500Y-92237500D02*
X108237500Y-99137500D01*
X110000000Y-102400000D02*
X113050000Y-105450000D01*
%TO.N,TH0*%
X181100000Y-97000000D02*
X184765685Y-97000000D01*
X172200000Y-105900000D02*
X181100000Y-97000000D01*
X109237500Y-102437500D02*
X112700000Y-105900000D01*
X112700000Y-105900000D02*
X172200000Y-105900000D01*
X109237500Y-101937500D02*
X109237500Y-102437500D01*
X188100000Y-92000000D02*
X188350000Y-92250000D01*
X188350000Y-92250000D02*
X188350000Y-93315686D01*
X188350000Y-93407843D02*
X184765685Y-96992157D01*
D28*
X187800000Y-92000000D02*
X188100000Y-92000000D01*
%TO.N,TH1*%
X187800000Y-92800000D02*
X187800000Y-93300000D01*
D29*
%TO.N,Net-(C10-Pad1)*%
X189100000Y-92000000D02*
X189500000Y-92000000D01*
X185500000Y-88400000D02*
X189100000Y-92000000D01*
X185300000Y-88400000D02*
X185500000Y-88400000D01*
X183808436Y-97900000D02*
X183797382Y-97911054D01*
X187200000Y-97900000D02*
X183808436Y-97900000D01*
X187700000Y-97400000D02*
X187200000Y-97900000D01*
D26*
%TO.N,+3.3V*%
X178400000Y-102899294D02*
X178400000Y-104600000D01*
D28*
%TO.N,SD0*%
X182400000Y-79500000D02*
X183500000Y-80600000D01*
X178600000Y-86065686D02*
X178600000Y-80134315D01*
X181234314Y-88700000D02*
X178600000Y-86065686D01*
X178600000Y-80134315D02*
X179234314Y-79500000D01*
X179234314Y-79500000D02*
X182400000Y-79500000D01*
%TO.N,CLK*%
X179000000Y-80300000D02*
X179400000Y-79900000D01*
X179000000Y-85500000D02*
X179000000Y-80300000D01*
X181500000Y-88000000D02*
X179000000Y-85500000D01*
X179400000Y-79900000D02*
X181500000Y-79900000D01*
X181500000Y-79900000D02*
X182200000Y-80600000D01*
%TO.N,SD3*%
X182512000Y-87536750D02*
X181000000Y-86024750D01*
X181000000Y-86024750D02*
X181000000Y-80600000D01*
X182512000Y-88500961D02*
X182512000Y-87536750D01*
%TD*%
M02*
