%TF.GenerationSoftware,KiCad,Pcbnew,(6.0.9)*%
%TF.CreationDate,2022-12-19T22:17:36-06:00*%
%TF.ProjectId,better-klipper-expander,62657474-6572-42d6-9b6c-69707065722d,V1*%
%TF.SameCoordinates,Original*%
%TF.FileFunction,Legend,Bot*%
%TF.FilePolarity,Positive*%
%FSLAX46Y46*%
G04 Gerber Fmt 4.6, Leading zero omitted, Abs format (unit mm)*
G04 Created by KiCad (PCBNEW (6.0.9)) date 2022-12-19 22:17:36*
%MOMM*%
%LPD*%
G01*
G04 APERTURE LIST*
%ADD10C,0.125000*%
%ADD11C,0.150000*%
%TA.AperFunction,Profile*%
%ADD12C,0.050000*%
%TD*%
G04 APERTURE END LIST*
D10*
X148200000Y-99389285D02*
X148200000Y-99925000D01*
X148235714Y-100032142D01*
X148307142Y-100103571D01*
X148414285Y-100139285D01*
X148485714Y-100139285D01*
X147485714Y-100139285D02*
X147842857Y-100139285D01*
X147842857Y-99389285D01*
X146807142Y-100067857D02*
X146842857Y-100103571D01*
X146950000Y-100139285D01*
X147021428Y-100139285D01*
X147128571Y-100103571D01*
X147200000Y-100032142D01*
X147235714Y-99960714D01*
X147271428Y-99817857D01*
X147271428Y-99710714D01*
X147235714Y-99567857D01*
X147200000Y-99496428D01*
X147128571Y-99425000D01*
X147021428Y-99389285D01*
X146950000Y-99389285D01*
X146842857Y-99425000D01*
X146807142Y-99460714D01*
X146271428Y-99389285D02*
X146271428Y-99925000D01*
X146307142Y-100032142D01*
X146378571Y-100103571D01*
X146485714Y-100139285D01*
X146557142Y-100139285D01*
X145557142Y-100139285D02*
X145914285Y-100139285D01*
X145914285Y-99389285D01*
X144878571Y-100067857D02*
X144914285Y-100103571D01*
X145021428Y-100139285D01*
X145092857Y-100139285D01*
X145200000Y-100103571D01*
X145271428Y-100032142D01*
X145307142Y-99960714D01*
X145342857Y-99817857D01*
X145342857Y-99710714D01*
X145307142Y-99567857D01*
X145271428Y-99496428D01*
X145200000Y-99425000D01*
X145092857Y-99389285D01*
X145021428Y-99389285D01*
X144914285Y-99425000D01*
X144878571Y-99460714D01*
X144342857Y-99389285D02*
X144342857Y-99925000D01*
X144378571Y-100032142D01*
X144450000Y-100103571D01*
X144557142Y-100139285D01*
X144628571Y-100139285D01*
X143628571Y-100139285D02*
X143985714Y-100139285D01*
X143985714Y-99389285D01*
X142950000Y-100067857D02*
X142985714Y-100103571D01*
X143092857Y-100139285D01*
X143164285Y-100139285D01*
X143271428Y-100103571D01*
X143342857Y-100032142D01*
X143378571Y-99960714D01*
X143414285Y-99817857D01*
X143414285Y-99710714D01*
X143378571Y-99567857D01*
X143342857Y-99496428D01*
X143271428Y-99425000D01*
X143164285Y-99389285D01*
X143092857Y-99389285D01*
X142985714Y-99425000D01*
X142950000Y-99460714D01*
D11*
X162509523Y-96185714D02*
X162509523Y-96995238D01*
X162557142Y-97090476D01*
X162604761Y-97138095D01*
X162700000Y-97185714D01*
X162842857Y-97185714D01*
X162938095Y-97138095D01*
X162509523Y-96804761D02*
X162604761Y-96852380D01*
X162795238Y-96852380D01*
X162890476Y-96804761D01*
X162938095Y-96757142D01*
X162985714Y-96661904D01*
X162985714Y-96376190D01*
X162938095Y-96280952D01*
X162890476Y-96233333D01*
X162795238Y-96185714D01*
X162604761Y-96185714D01*
X162509523Y-96233333D01*
X162033333Y-96852380D02*
X162033333Y-96185714D01*
X162033333Y-95852380D02*
X162080952Y-95900000D01*
X162033333Y-95947619D01*
X161985714Y-95900000D01*
X162033333Y-95852380D01*
X162033333Y-95947619D01*
X161700000Y-96185714D02*
X161319047Y-96185714D01*
X161557142Y-95852380D02*
X161557142Y-96709523D01*
X161509523Y-96804761D01*
X161414285Y-96852380D01*
X161319047Y-96852380D01*
X160985714Y-96852380D02*
X160985714Y-95852380D01*
X160557142Y-96852380D02*
X160557142Y-96328571D01*
X160604761Y-96233333D01*
X160700000Y-96185714D01*
X160842857Y-96185714D01*
X160938095Y-96233333D01*
X160985714Y-96280952D01*
X159652380Y-96185714D02*
X159652380Y-96852380D01*
X160080952Y-96185714D02*
X160080952Y-96709523D01*
X160033333Y-96804761D01*
X159938095Y-96852380D01*
X159795238Y-96852380D01*
X159700000Y-96804761D01*
X159652380Y-96757142D01*
X159176190Y-96852380D02*
X159176190Y-95852380D01*
X159176190Y-96233333D02*
X159080952Y-96185714D01*
X158890476Y-96185714D01*
X158795238Y-96233333D01*
X158747619Y-96280952D01*
X158700000Y-96376190D01*
X158700000Y-96661904D01*
X158747619Y-96757142D01*
X158795238Y-96804761D01*
X158890476Y-96852380D01*
X159080952Y-96852380D01*
X159176190Y-96804761D01*
X158271428Y-96757142D02*
X158223809Y-96804761D01*
X158271428Y-96852380D01*
X158319047Y-96804761D01*
X158271428Y-96757142D01*
X158271428Y-96852380D01*
X157366666Y-96804761D02*
X157461904Y-96852380D01*
X157652380Y-96852380D01*
X157747619Y-96804761D01*
X157795238Y-96757142D01*
X157842857Y-96661904D01*
X157842857Y-96376190D01*
X157795238Y-96280952D01*
X157747619Y-96233333D01*
X157652380Y-96185714D01*
X157461904Y-96185714D01*
X157366666Y-96233333D01*
X156795238Y-96852380D02*
X156890476Y-96804761D01*
X156938095Y-96757142D01*
X156985714Y-96661904D01*
X156985714Y-96376190D01*
X156938095Y-96280952D01*
X156890476Y-96233333D01*
X156795238Y-96185714D01*
X156652380Y-96185714D01*
X156557142Y-96233333D01*
X156509523Y-96280952D01*
X156461904Y-96376190D01*
X156461904Y-96661904D01*
X156509523Y-96757142D01*
X156557142Y-96804761D01*
X156652380Y-96852380D01*
X156795238Y-96852380D01*
X156033333Y-96852380D02*
X156033333Y-96185714D01*
X156033333Y-96280952D02*
X155985714Y-96233333D01*
X155890476Y-96185714D01*
X155747619Y-96185714D01*
X155652380Y-96233333D01*
X155604761Y-96328571D01*
X155604761Y-96852380D01*
X155604761Y-96328571D02*
X155557142Y-96233333D01*
X155461904Y-96185714D01*
X155319047Y-96185714D01*
X155223809Y-96233333D01*
X155176190Y-96328571D01*
X155176190Y-96852380D01*
X153985714Y-95804761D02*
X154842857Y-97090476D01*
X153319047Y-96328571D02*
X153652380Y-96328571D01*
X153652380Y-96852380D02*
X153652380Y-95852380D01*
X153176190Y-95852380D01*
X152795238Y-96852380D02*
X152795238Y-96185714D01*
X152795238Y-95852380D02*
X152842857Y-95900000D01*
X152795238Y-95947619D01*
X152747619Y-95900000D01*
X152795238Y-95852380D01*
X152795238Y-95947619D01*
X152366666Y-96804761D02*
X152271428Y-96852380D01*
X152080952Y-96852380D01*
X151985714Y-96804761D01*
X151938095Y-96709523D01*
X151938095Y-96661904D01*
X151985714Y-96566666D01*
X152080952Y-96519047D01*
X152223809Y-96519047D01*
X152319047Y-96471428D01*
X152366666Y-96376190D01*
X152366666Y-96328571D01*
X152319047Y-96233333D01*
X152223809Y-96185714D01*
X152080952Y-96185714D01*
X151985714Y-96233333D01*
X151509523Y-96852380D02*
X151509523Y-95852380D01*
X151080952Y-96852380D02*
X151080952Y-96328571D01*
X151128571Y-96233333D01*
X151223809Y-96185714D01*
X151366666Y-96185714D01*
X151461904Y-96233333D01*
X151509523Y-96280952D01*
X150223809Y-96804761D02*
X150319047Y-96852380D01*
X150509523Y-96852380D01*
X150604761Y-96804761D01*
X150652380Y-96709523D01*
X150652380Y-96328571D01*
X150604761Y-96233333D01*
X150509523Y-96185714D01*
X150319047Y-96185714D01*
X150223809Y-96233333D01*
X150176190Y-96328571D01*
X150176190Y-96423809D01*
X150652380Y-96519047D01*
X149747619Y-96852380D02*
X149747619Y-96185714D01*
X149747619Y-95852380D02*
X149795238Y-95900000D01*
X149747619Y-95947619D01*
X149700000Y-95900000D01*
X149747619Y-95852380D01*
X149747619Y-95947619D01*
X149366666Y-96185714D02*
X149128571Y-96852380D01*
X148890476Y-96185714D02*
X149128571Y-96852380D01*
X149223809Y-97090476D01*
X149271428Y-97138095D01*
X149366666Y-97185714D01*
X148604761Y-96185714D02*
X148366666Y-96852380D01*
X148128571Y-96185714D02*
X148366666Y-96852380D01*
X148461904Y-97090476D01*
X148509523Y-97138095D01*
X148604761Y-97185714D01*
X147033333Y-95804761D02*
X147890476Y-97090476D01*
X146700000Y-96852380D02*
X146700000Y-95852380D01*
X146700000Y-96233333D02*
X146604761Y-96185714D01*
X146414285Y-96185714D01*
X146319047Y-96233333D01*
X146271428Y-96280952D01*
X146223809Y-96376190D01*
X146223809Y-96661904D01*
X146271428Y-96757142D01*
X146319047Y-96804761D01*
X146414285Y-96852380D01*
X146604761Y-96852380D01*
X146700000Y-96804761D01*
X145414285Y-96804761D02*
X145509523Y-96852380D01*
X145700000Y-96852380D01*
X145795238Y-96804761D01*
X145842857Y-96709523D01*
X145842857Y-96328571D01*
X145795238Y-96233333D01*
X145700000Y-96185714D01*
X145509523Y-96185714D01*
X145414285Y-96233333D01*
X145366666Y-96328571D01*
X145366666Y-96423809D01*
X145842857Y-96519047D01*
X145080952Y-96185714D02*
X144700000Y-96185714D01*
X144938095Y-95852380D02*
X144938095Y-96709523D01*
X144890476Y-96804761D01*
X144795238Y-96852380D01*
X144700000Y-96852380D01*
X144509523Y-96185714D02*
X144128571Y-96185714D01*
X144366666Y-95852380D02*
X144366666Y-96709523D01*
X144319047Y-96804761D01*
X144223809Y-96852380D01*
X144128571Y-96852380D01*
X143414285Y-96804761D02*
X143509523Y-96852380D01*
X143700000Y-96852380D01*
X143795238Y-96804761D01*
X143842857Y-96709523D01*
X143842857Y-96328571D01*
X143795238Y-96233333D01*
X143700000Y-96185714D01*
X143509523Y-96185714D01*
X143414285Y-96233333D01*
X143366666Y-96328571D01*
X143366666Y-96423809D01*
X143842857Y-96519047D01*
X142938095Y-96852380D02*
X142938095Y-96185714D01*
X142938095Y-96376190D02*
X142890476Y-96280952D01*
X142842857Y-96233333D01*
X142747619Y-96185714D01*
X142652380Y-96185714D01*
X142319047Y-96471428D02*
X141557142Y-96471428D01*
X141080952Y-96852380D02*
X141080952Y-95852380D01*
X140985714Y-96471428D02*
X140700000Y-96852380D01*
X140700000Y-96185714D02*
X141080952Y-96566666D01*
X140128571Y-96852380D02*
X140223809Y-96804761D01*
X140271428Y-96709523D01*
X140271428Y-95852380D01*
X139747619Y-96852380D02*
X139747619Y-96185714D01*
X139747619Y-95852380D02*
X139795238Y-95900000D01*
X139747619Y-95947619D01*
X139700000Y-95900000D01*
X139747619Y-95852380D01*
X139747619Y-95947619D01*
X139271428Y-96185714D02*
X139271428Y-97185714D01*
X139271428Y-96233333D02*
X139176190Y-96185714D01*
X138985714Y-96185714D01*
X138890476Y-96233333D01*
X138842857Y-96280952D01*
X138795238Y-96376190D01*
X138795238Y-96661904D01*
X138842857Y-96757142D01*
X138890476Y-96804761D01*
X138985714Y-96852380D01*
X139176190Y-96852380D01*
X139271428Y-96804761D01*
X138366666Y-96185714D02*
X138366666Y-97185714D01*
X138366666Y-96233333D02*
X138271428Y-96185714D01*
X138080952Y-96185714D01*
X137985714Y-96233333D01*
X137938095Y-96280952D01*
X137890476Y-96376190D01*
X137890476Y-96661904D01*
X137938095Y-96757142D01*
X137985714Y-96804761D01*
X138080952Y-96852380D01*
X138271428Y-96852380D01*
X138366666Y-96804761D01*
X137080952Y-96804761D02*
X137176190Y-96852380D01*
X137366666Y-96852380D01*
X137461904Y-96804761D01*
X137509523Y-96709523D01*
X137509523Y-96328571D01*
X137461904Y-96233333D01*
X137366666Y-96185714D01*
X137176190Y-96185714D01*
X137080952Y-96233333D01*
X137033333Y-96328571D01*
X137033333Y-96423809D01*
X137509523Y-96519047D01*
X136604761Y-96852380D02*
X136604761Y-96185714D01*
X136604761Y-96376190D02*
X136557142Y-96280952D01*
X136509523Y-96233333D01*
X136414285Y-96185714D01*
X136319047Y-96185714D01*
X135985714Y-96471428D02*
X135223809Y-96471428D01*
X134366666Y-96804761D02*
X134461904Y-96852380D01*
X134652380Y-96852380D01*
X134747619Y-96804761D01*
X134795238Y-96709523D01*
X134795238Y-96328571D01*
X134747619Y-96233333D01*
X134652380Y-96185714D01*
X134461904Y-96185714D01*
X134366666Y-96233333D01*
X134319047Y-96328571D01*
X134319047Y-96423809D01*
X134795238Y-96519047D01*
X133985714Y-96852380D02*
X133461904Y-96185714D01*
X133985714Y-96185714D02*
X133461904Y-96852380D01*
X133080952Y-96185714D02*
X133080952Y-97185714D01*
X133080952Y-96233333D02*
X132985714Y-96185714D01*
X132795238Y-96185714D01*
X132700000Y-96233333D01*
X132652380Y-96280952D01*
X132604761Y-96376190D01*
X132604761Y-96661904D01*
X132652380Y-96757142D01*
X132700000Y-96804761D01*
X132795238Y-96852380D01*
X132985714Y-96852380D01*
X133080952Y-96804761D01*
X131747619Y-96852380D02*
X131747619Y-96328571D01*
X131795238Y-96233333D01*
X131890476Y-96185714D01*
X132080952Y-96185714D01*
X132176190Y-96233333D01*
X131747619Y-96804761D02*
X131842857Y-96852380D01*
X132080952Y-96852380D01*
X132176190Y-96804761D01*
X132223809Y-96709523D01*
X132223809Y-96614285D01*
X132176190Y-96519047D01*
X132080952Y-96471428D01*
X131842857Y-96471428D01*
X131747619Y-96423809D01*
X131271428Y-96185714D02*
X131271428Y-96852380D01*
X131271428Y-96280952D02*
X131223809Y-96233333D01*
X131128571Y-96185714D01*
X130985714Y-96185714D01*
X130890476Y-96233333D01*
X130842857Y-96328571D01*
X130842857Y-96852380D01*
X129938095Y-96852380D02*
X129938095Y-95852380D01*
X129938095Y-96804761D02*
X130033333Y-96852380D01*
X130223809Y-96852380D01*
X130319047Y-96804761D01*
X130366666Y-96757142D01*
X130414285Y-96661904D01*
X130414285Y-96376190D01*
X130366666Y-96280952D01*
X130319047Y-96233333D01*
X130223809Y-96185714D01*
X130033333Y-96185714D01*
X129938095Y-96233333D01*
X129080952Y-96804761D02*
X129176190Y-96852380D01*
X129366666Y-96852380D01*
X129461904Y-96804761D01*
X129509523Y-96709523D01*
X129509523Y-96328571D01*
X129461904Y-96233333D01*
X129366666Y-96185714D01*
X129176190Y-96185714D01*
X129080952Y-96233333D01*
X129033333Y-96328571D01*
X129033333Y-96423809D01*
X129509523Y-96519047D01*
X128604761Y-96852380D02*
X128604761Y-96185714D01*
X128604761Y-96376190D02*
X128557142Y-96280952D01*
X128509523Y-96233333D01*
X128414285Y-96185714D01*
X128319047Y-96185714D01*
D12*
X88045000Y-77495000D02*
X88045000Y-107495000D01*
X193045000Y-77500000D02*
X88045000Y-77495000D01*
X88045000Y-107495000D02*
X193045000Y-107495000D01*
X193045000Y-107495000D02*
X193045000Y-77495000D01*
M02*
