%TF.GenerationSoftware,KiCad,Pcbnew,(6.0.6)*%
%TF.CreationDate,2022-10-06T01:30:09-05:00*%
%TF.ProjectId,better-klipper-expander,62657474-6572-42d6-9b6c-69707065722d,V1*%
%TF.SameCoordinates,Original*%
%TF.FileFunction,Paste,Top*%
%TF.FilePolarity,Positive*%
%FSLAX46Y46*%
G04 Gerber Fmt 4.6, Leading zero omitted, Abs format (unit mm)*
G04 Created by KiCad (PCBNEW (6.0.6)) date 2022-10-06 01:30:09*
%MOMM*%
%LPD*%
G01*
G04 APERTURE LIST*
G04 Aperture macros list*
%AMRoundRect*
0 Rectangle with rounded corners*
0 $1 Rounding radius*
0 $2 $3 $4 $5 $6 $7 $8 $9 X,Y pos of 4 corners*
0 Add a 4 corners polygon primitive as box body*
4,1,4,$2,$3,$4,$5,$6,$7,$8,$9,$2,$3,0*
0 Add four circle primitives for the rounded corners*
1,1,$1+$1,$2,$3*
1,1,$1+$1,$4,$5*
1,1,$1+$1,$6,$7*
1,1,$1+$1,$8,$9*
0 Add four rect primitives between the rounded corners*
20,1,$1+$1,$2,$3,$4,$5,0*
20,1,$1+$1,$4,$5,$6,$7,0*
20,1,$1+$1,$6,$7,$8,$9,0*
20,1,$1+$1,$8,$9,$2,$3,0*%
G04 Aperture macros list end*
%ADD10C,0.010000*%
%ADD11RoundRect,0.006000X0.769000X0.294000X-0.769000X0.294000X-0.769000X-0.294000X0.769000X-0.294000X0*%
%ADD12RoundRect,0.042000X0.258000X-0.943000X0.258000X0.943000X-0.258000X0.943000X-0.258000X-0.943000X0*%
%ADD13R,2.500000X1.800000*%
%ADD14R,2.100000X1.800000*%
%ADD15RoundRect,0.250000X-0.262500X-0.450000X0.262500X-0.450000X0.262500X0.450000X-0.262500X0.450000X0*%
%ADD16RoundRect,0.250000X0.262500X0.450000X-0.262500X0.450000X-0.262500X-0.450000X0.262500X-0.450000X0*%
%ADD17RoundRect,0.250000X0.475000X-0.250000X0.475000X0.250000X-0.475000X0.250000X-0.475000X-0.250000X0*%
%ADD18RoundRect,0.250000X-0.250000X-0.475000X0.250000X-0.475000X0.250000X0.475000X-0.250000X0.475000X0*%
%ADD19RoundRect,0.250000X-0.475000X0.250000X-0.475000X-0.250000X0.475000X-0.250000X0.475000X0.250000X0*%
%ADD20RoundRect,0.250000X0.250000X0.475000X-0.250000X0.475000X-0.250000X-0.475000X0.250000X-0.475000X0*%
%ADD21RoundRect,0.250000X-0.450000X0.262500X-0.450000X-0.262500X0.450000X-0.262500X0.450000X0.262500X0*%
%ADD22R,1.800000X2.500000*%
%ADD23RoundRect,0.249999X-0.395001X-0.395001X0.395001X-0.395001X0.395001X0.395001X-0.395001X0.395001X0*%
%ADD24RoundRect,0.050000X-0.387500X-0.050000X0.387500X-0.050000X0.387500X0.050000X-0.387500X0.050000X0*%
%ADD25RoundRect,0.050000X-0.050000X-0.387500X0.050000X-0.387500X0.050000X0.387500X-0.050000X0.387500X0*%
%ADD26R,1.000000X1.400000*%
%ADD27RoundRect,0.150000X0.150000X-0.587500X0.150000X0.587500X-0.150000X0.587500X-0.150000X-0.587500X0*%
%ADD28RoundRect,0.237500X-0.287500X-0.237500X0.287500X-0.237500X0.287500X0.237500X-0.287500X0.237500X0*%
%ADD29RoundRect,0.243750X-0.456250X0.243750X-0.456250X-0.243750X0.456250X-0.243750X0.456250X0.243750X0*%
%ADD30R,1.900000X0.800000*%
%ADD31RoundRect,0.250000X0.375000X1.075000X-0.375000X1.075000X-0.375000X-1.075000X0.375000X-1.075000X0*%
%ADD32R,3.500000X2.300000*%
%ADD33RoundRect,0.250000X0.450000X-0.262500X0.450000X0.262500X-0.450000X0.262500X-0.450000X-0.262500X0*%
%ADD34R,0.304800X1.143000*%
%ADD35R,0.584200X1.143000*%
%ADD36O,0.990600X2.108200*%
%ADD37O,0.990600X1.803400*%
G04 APERTURE END LIST*
%TO.C,U3*%
G36*
X171795000Y-93500000D02*
G01*
X169085000Y-93500000D01*
X169085000Y-90100000D01*
X171795000Y-90100000D01*
X171795000Y-93500000D01*
G37*
D10*
X171795000Y-93500000D02*
X169085000Y-93500000D01*
X169085000Y-90100000D01*
X171795000Y-90100000D01*
X171795000Y-93500000D01*
%TD*%
D11*
%TO.C,U3*%
X173140000Y-93705000D03*
X173140000Y-92435000D03*
X173140000Y-91165000D03*
X173140000Y-89895000D03*
X167740000Y-89895000D03*
X167740000Y-91165000D03*
X167740000Y-92435000D03*
X167740000Y-93705000D03*
%TD*%
D12*
%TO.C,U1*%
X179695000Y-84920000D03*
X180965000Y-84920000D03*
X182235000Y-84920000D03*
X183505000Y-84920000D03*
X183505000Y-79970000D03*
X182235000Y-79970000D03*
X180965000Y-79970000D03*
X179695000Y-79970000D03*
%TD*%
D13*
%TO.C,D12*%
X125300000Y-101100000D03*
X129300000Y-101100000D03*
%TD*%
D14*
%TO.C,Y1*%
X184150000Y-105450000D03*
X187250000Y-105450000D03*
X187250000Y-102950000D03*
X184150000Y-102950000D03*
%TD*%
D15*
%TO.C,R5*%
X188887500Y-87300000D03*
X190712500Y-87300000D03*
%TD*%
D16*
%TO.C,R2*%
X189687500Y-102800000D03*
X191512500Y-102800000D03*
%TD*%
%TO.C,R1*%
X170700000Y-87600000D03*
X168875000Y-87600000D03*
%TD*%
D17*
%TO.C,C21*%
X162950000Y-103450000D03*
X162950000Y-105350000D03*
%TD*%
%TO.C,C20*%
X160275000Y-105350000D03*
X160275000Y-103450000D03*
%TD*%
%TO.C,C18*%
X157600000Y-105350000D03*
X157600000Y-103450000D03*
%TD*%
D18*
%TO.C,C16*%
X188850000Y-89600000D03*
X190750000Y-89600000D03*
%TD*%
D19*
%TO.C,C14*%
X186500000Y-86050000D03*
X186500000Y-87950000D03*
%TD*%
D20*
%TO.C,C8*%
X176250000Y-101600000D03*
X178150000Y-101600000D03*
%TD*%
D17*
%TO.C,C7*%
X181100000Y-105550000D03*
X181100000Y-103650000D03*
%TD*%
D20*
%TO.C,C6*%
X176250000Y-99200000D03*
X178150000Y-99200000D03*
%TD*%
%TO.C,C4*%
X189650000Y-105100000D03*
X191550000Y-105100000D03*
%TD*%
D15*
%TO.C,R21*%
X110437500Y-86300000D03*
X112262500Y-86300000D03*
%TD*%
%TO.C,R19*%
X118937500Y-86300000D03*
X120762500Y-86300000D03*
%TD*%
%TO.C,R13*%
X127537500Y-86300000D03*
X129362500Y-86300000D03*
%TD*%
%TO.C,R11*%
X136287500Y-86300000D03*
X138112500Y-86300000D03*
%TD*%
%TO.C,R9*%
X144787500Y-86300000D03*
X146612500Y-86300000D03*
%TD*%
%TO.C,R23*%
X101987500Y-86300000D03*
X103812500Y-86300000D03*
%TD*%
%TO.C,R10*%
X136287500Y-88762500D03*
X138112500Y-88762500D03*
%TD*%
%TO.C,R20*%
X110437500Y-88762500D03*
X112262500Y-88762500D03*
%TD*%
%TO.C,R18*%
X118937500Y-88762500D03*
X120762500Y-88762500D03*
%TD*%
%TO.C,R26*%
X98487500Y-94787500D03*
X100312500Y-94787500D03*
%TD*%
%TO.C,R22*%
X101987500Y-88762500D03*
X103812500Y-88762500D03*
%TD*%
%TO.C,R12*%
X127537500Y-88762500D03*
X129362500Y-88762500D03*
%TD*%
%TO.C,R8*%
X144787500Y-88762500D03*
X146612500Y-88762500D03*
%TD*%
D16*
%TO.C,R25*%
X100312500Y-92087500D03*
X98487500Y-92087500D03*
%TD*%
%TO.C,R24*%
X108112500Y-92087500D03*
X106287500Y-92087500D03*
%TD*%
D21*
%TO.C,R17*%
X104700000Y-98287500D03*
X104700000Y-100112500D03*
%TD*%
D15*
%TO.C,R16*%
X99487500Y-104600000D03*
X101312500Y-104600000D03*
%TD*%
D16*
%TO.C,R15*%
X101312500Y-101900000D03*
X99487500Y-101900000D03*
%TD*%
%TO.C,R14*%
X109112500Y-101950000D03*
X107287500Y-101950000D03*
%TD*%
D20*
%TO.C,C23*%
X108150000Y-94787500D03*
X106250000Y-94787500D03*
%TD*%
%TO.C,C22*%
X109150000Y-104600000D03*
X107250000Y-104600000D03*
%TD*%
D13*
%TO.C,D1*%
X155800000Y-96500000D03*
X151800000Y-96500000D03*
%TD*%
D19*
%TO.C,C1*%
X158400000Y-95650000D03*
X158400000Y-97550000D03*
%TD*%
D22*
%TO.C,D8*%
X123200000Y-95900000D03*
X123200000Y-91900000D03*
%TD*%
D18*
%TO.C,C11*%
X191400000Y-94400000D03*
X189500000Y-94400000D03*
%TD*%
D23*
%TO.C,U4*%
X183762500Y-94400000D03*
X183762500Y-92800000D03*
X182162500Y-92800000D03*
X182162500Y-94400000D03*
D24*
X179525000Y-91000000D03*
X179525000Y-91400000D03*
X179525000Y-91800000D03*
X179525000Y-92200000D03*
X179525000Y-92600000D03*
X179525000Y-93000000D03*
X179525000Y-93400000D03*
X179525000Y-93800000D03*
X179525000Y-94200000D03*
X179525000Y-94600000D03*
X179525000Y-95000000D03*
X179525000Y-95400000D03*
X179525000Y-95800000D03*
X179525000Y-96200000D03*
D25*
X180362500Y-97037500D03*
X180762500Y-97037500D03*
X181162500Y-97037500D03*
X181562500Y-97037500D03*
X181962500Y-97037500D03*
X182362500Y-97037500D03*
X182762500Y-97037500D03*
X183162500Y-97037500D03*
X183562500Y-97037500D03*
X183962500Y-97037500D03*
X184362500Y-97037500D03*
X184762500Y-97037500D03*
X185162500Y-97037500D03*
X185562500Y-97037500D03*
D24*
X186400000Y-96200000D03*
X186400000Y-95800000D03*
X186400000Y-95400000D03*
X186400000Y-95000000D03*
X186400000Y-94600000D03*
X186400000Y-94200000D03*
X186400000Y-93800000D03*
X186400000Y-93400000D03*
X186400000Y-93000000D03*
X186400000Y-92600000D03*
X186400000Y-92200000D03*
X186400000Y-91800000D03*
X186400000Y-91400000D03*
X186400000Y-91000000D03*
D25*
X185562500Y-90162500D03*
X185162500Y-90162500D03*
X184762500Y-90162500D03*
X184362500Y-90162500D03*
X183962500Y-90162500D03*
X183562500Y-90162500D03*
X183162500Y-90162500D03*
X182762500Y-90162500D03*
X182362500Y-90162500D03*
X181962500Y-90162500D03*
X181562500Y-90162500D03*
X181162500Y-90162500D03*
X180762500Y-90162500D03*
X180362500Y-90162500D03*
%TD*%
D22*
%TO.C,D9*%
X117200000Y-95900000D03*
X117200000Y-91900000D03*
%TD*%
D18*
%TO.C,C10*%
X189500000Y-92000000D03*
X191400000Y-92000000D03*
%TD*%
D15*
%TO.C,R4*%
X176487500Y-87600000D03*
X178312500Y-87600000D03*
%TD*%
D19*
%TO.C,C9*%
X173800000Y-98250000D03*
X173800000Y-96350000D03*
%TD*%
D22*
%TO.C,D5*%
X141200000Y-95900000D03*
X141200000Y-91900000D03*
%TD*%
D19*
%TO.C,C2*%
X160600000Y-95650000D03*
X160600000Y-97550000D03*
%TD*%
D26*
%TO.C,D11*%
X102350000Y-94587500D03*
X104250000Y-94587500D03*
X103300000Y-92387500D03*
%TD*%
D27*
%TO.C,Q3*%
X123600000Y-87550000D03*
X125500000Y-87550000D03*
X124550000Y-85675000D03*
%TD*%
D15*
%TO.C,R3*%
X172687500Y-87600000D03*
X174512500Y-87600000D03*
%TD*%
D28*
%TO.C,F1*%
X170125000Y-96400000D03*
X171875000Y-96400000D03*
%TD*%
D17*
%TO.C,C17*%
X158500000Y-101150000D03*
X158500000Y-99250000D03*
%TD*%
D27*
%TO.C,Q6*%
X98050000Y-87550000D03*
X99950000Y-87550000D03*
X99000000Y-85675000D03*
%TD*%
D29*
%TO.C,L2*%
X174300000Y-99962500D03*
X174300000Y-101837500D03*
%TD*%
D30*
%TO.C,U2*%
X175400000Y-103650000D03*
X175400000Y-105550000D03*
X178400000Y-104600000D03*
%TD*%
D19*
%TO.C,C5*%
X165000000Y-95650000D03*
X165000000Y-97550000D03*
%TD*%
D27*
%TO.C,Q5*%
X106500000Y-87550000D03*
X108400000Y-87550000D03*
X107450000Y-85675000D03*
%TD*%
D17*
%TO.C,C13*%
X167500000Y-97250000D03*
X167500000Y-95350000D03*
%TD*%
D21*
%TO.C,R7*%
X176300000Y-95412500D03*
X176300000Y-93587500D03*
%TD*%
D18*
%TO.C,C12*%
X189500000Y-96800000D03*
X191400000Y-96800000D03*
%TD*%
D27*
%TO.C,Q1*%
X140850000Y-87550000D03*
X142750000Y-87550000D03*
X141800000Y-85675000D03*
%TD*%
D22*
%TO.C,D10*%
X111200000Y-95900000D03*
X111200000Y-91900000D03*
%TD*%
D31*
%TO.C,L1*%
X163400000Y-100200000D03*
X160600000Y-100200000D03*
%TD*%
D19*
%TO.C,C3*%
X162800000Y-95650000D03*
X162800000Y-97550000D03*
%TD*%
D26*
%TO.C,D4*%
X103350000Y-104300000D03*
X105250000Y-104300000D03*
X104300000Y-102100000D03*
%TD*%
D22*
%TO.C,D6*%
X135200000Y-95900000D03*
X135200000Y-91900000D03*
%TD*%
D32*
%TO.C,D2*%
X163245000Y-92095000D03*
X157845000Y-92095000D03*
%TD*%
D27*
%TO.C,Q4*%
X115000000Y-87550000D03*
X116900000Y-87550000D03*
X115950000Y-85675000D03*
%TD*%
D22*
%TO.C,D7*%
X129200000Y-95900000D03*
X129200000Y-91900000D03*
%TD*%
D13*
%TO.C,D3*%
X155800000Y-100200000D03*
X151800000Y-100200000D03*
%TD*%
D33*
%TO.C,R6*%
X175200000Y-91712500D03*
X175200000Y-89887500D03*
%TD*%
D34*
%TO.C,J2*%
X174649999Y-85285800D03*
X173650001Y-85285800D03*
X172149999Y-85285800D03*
X171150001Y-85285800D03*
D35*
X170499999Y-85285800D03*
X169700000Y-85285800D03*
D34*
X171650000Y-85285800D03*
X172650000Y-85285800D03*
X173150000Y-85285800D03*
X174150000Y-85285800D03*
D35*
X175300001Y-85285800D03*
X176100000Y-85285800D03*
D36*
X168579998Y-84710800D03*
X177220002Y-84710800D03*
D37*
X168579998Y-80530800D03*
X177220002Y-80530800D03*
%TD*%
D27*
%TO.C,Q2*%
X132350000Y-87550000D03*
X134250000Y-87550000D03*
X133300000Y-85675000D03*
%TD*%
M02*
