%TF.GenerationSoftware,KiCad,Pcbnew,(6.0.6)*%
%TF.CreationDate,2022-10-10T18:06:17-05:00*%
%TF.ProjectId,better-klipper-expander,62657474-6572-42d6-9b6c-69707065722d,V1*%
%TF.SameCoordinates,Original*%
%TF.FileFunction,Legend,Top*%
%TF.FilePolarity,Positive*%
%FSLAX46Y46*%
G04 Gerber Fmt 4.6, Leading zero omitted, Abs format (unit mm)*
G04 Created by KiCad (PCBNEW (6.0.6)) date 2022-10-10 18:06:17*
%MOMM*%
%LPD*%
G01*
G04 APERTURE LIST*
%ADD10C,0.120000*%
%TA.AperFunction,Profile*%
%ADD11C,0.050000*%
%TD*%
%ADD12C,0.250000*%
%ADD13C,0.200000*%
%ADD14C,0.450000*%
%ADD15C,0.150000*%
%ADD16C,0.254000*%
%ADD17C,0.127000*%
%ADD18C,0.100000*%
%ADD19C,0.010000*%
G04 APERTURE END LIST*
D10*
X192300000Y-81495000D02*
G75*
G03*
X192300000Y-81495000I-3250000J0D01*
G01*
X95295000Y-81495000D02*
G75*
G03*
X95295000Y-81495000I-3250000J0D01*
G01*
D11*
X88045000Y-77495000D02*
X88045000Y-107495000D01*
X193045000Y-77500000D02*
X88045000Y-77495000D01*
X88045000Y-107495000D02*
X193045000Y-107495000D01*
X193045000Y-107495000D02*
X193045000Y-77495000D01*
D12*
X134314285Y-84828571D02*
X133980952Y-84828571D01*
X133980952Y-85352380D02*
X133980952Y-84352380D01*
X134457142Y-84352380D01*
X134790476Y-85066666D02*
X135266666Y-85066666D01*
X134695238Y-85352380D02*
X135028571Y-84352380D01*
X135361904Y-85352380D01*
X135695238Y-85352380D02*
X135695238Y-84352380D01*
X136266666Y-85352380D01*
X136266666Y-84352380D01*
X137266666Y-85352380D02*
X136695238Y-85352380D01*
X136980952Y-85352380D02*
X136980952Y-84352380D01*
X136885714Y-84495238D01*
X136790476Y-84590476D01*
X136695238Y-84638095D01*
X100014285Y-84828571D02*
X99680952Y-84828571D01*
X99680952Y-85352380D02*
X99680952Y-84352380D01*
X100157142Y-84352380D01*
X100490476Y-85066666D02*
X100966666Y-85066666D01*
X100395238Y-85352380D02*
X100728571Y-84352380D01*
X101061904Y-85352380D01*
X101395238Y-85352380D02*
X101395238Y-84352380D01*
X101966666Y-85352380D01*
X101966666Y-84352380D01*
X102919047Y-84352380D02*
X102442857Y-84352380D01*
X102395238Y-84828571D01*
X102442857Y-84780952D01*
X102538095Y-84733333D01*
X102776190Y-84733333D01*
X102871428Y-84780952D01*
X102919047Y-84828571D01*
X102966666Y-84923809D01*
X102966666Y-85161904D01*
X102919047Y-85257142D01*
X102871428Y-85304761D01*
X102776190Y-85352380D01*
X102538095Y-85352380D01*
X102442857Y-85304761D01*
X102395238Y-85257142D01*
X125514285Y-84828571D02*
X125180952Y-84828571D01*
X125180952Y-85352380D02*
X125180952Y-84352380D01*
X125657142Y-84352380D01*
X125990476Y-85066666D02*
X126466666Y-85066666D01*
X125895238Y-85352380D02*
X126228571Y-84352380D01*
X126561904Y-85352380D01*
X126895238Y-85352380D02*
X126895238Y-84352380D01*
X127466666Y-85352380D01*
X127466666Y-84352380D01*
X127895238Y-84447619D02*
X127942857Y-84400000D01*
X128038095Y-84352380D01*
X128276190Y-84352380D01*
X128371428Y-84400000D01*
X128419047Y-84447619D01*
X128466666Y-84542857D01*
X128466666Y-84638095D01*
X128419047Y-84780952D01*
X127847619Y-85352380D01*
X128466666Y-85352380D01*
X108414285Y-84828571D02*
X108080952Y-84828571D01*
X108080952Y-85352380D02*
X108080952Y-84352380D01*
X108557142Y-84352380D01*
X108890476Y-85066666D02*
X109366666Y-85066666D01*
X108795238Y-85352380D02*
X109128571Y-84352380D01*
X109461904Y-85352380D01*
X109795238Y-85352380D02*
X109795238Y-84352380D01*
X110366666Y-85352380D01*
X110366666Y-84352380D01*
X111271428Y-84685714D02*
X111271428Y-85352380D01*
X111033333Y-84304761D02*
X110795238Y-85019047D01*
X111414285Y-85019047D01*
D13*
X91766428Y-92761904D02*
X92223571Y-92761904D01*
X91995000Y-93561904D02*
X91995000Y-92761904D01*
X92490238Y-93561904D02*
X92490238Y-92761904D01*
X92490238Y-93142857D02*
X92947380Y-93142857D01*
X92947380Y-93561904D02*
X92947380Y-92761904D01*
X93480714Y-92761904D02*
X93556904Y-92761904D01*
X93633095Y-92800000D01*
X93671190Y-92838095D01*
X93709285Y-92914285D01*
X93747380Y-93066666D01*
X93747380Y-93257142D01*
X93709285Y-93409523D01*
X93671190Y-93485714D01*
X93633095Y-93523809D01*
X93556904Y-93561904D01*
X93480714Y-93561904D01*
X93404523Y-93523809D01*
X93366428Y-93485714D01*
X93328333Y-93409523D01*
X93290238Y-93257142D01*
X93290238Y-93066666D01*
X93328333Y-92914285D01*
X93366428Y-92838095D01*
X93404523Y-92800000D01*
X93480714Y-92761904D01*
D12*
X116914285Y-84828571D02*
X116580952Y-84828571D01*
X116580952Y-85352380D02*
X116580952Y-84352380D01*
X117057142Y-84352380D01*
X117390476Y-85066666D02*
X117866666Y-85066666D01*
X117295238Y-85352380D02*
X117628571Y-84352380D01*
X117961904Y-85352380D01*
X118295238Y-85352380D02*
X118295238Y-84352380D01*
X118866666Y-85352380D01*
X118866666Y-84352380D01*
X119247619Y-84352380D02*
X119866666Y-84352380D01*
X119533333Y-84733333D01*
X119676190Y-84733333D01*
X119771428Y-84780952D01*
X119819047Y-84828571D01*
X119866666Y-84923809D01*
X119866666Y-85161904D01*
X119819047Y-85257142D01*
X119771428Y-85304761D01*
X119676190Y-85352380D01*
X119390476Y-85352380D01*
X119295238Y-85304761D01*
X119247619Y-85257142D01*
X152522619Y-106752380D02*
X152522619Y-105752380D01*
X153094047Y-106752380D01*
X153094047Y-105752380D01*
X153951190Y-106704761D02*
X153855952Y-106752380D01*
X153665476Y-106752380D01*
X153570238Y-106704761D01*
X153522619Y-106609523D01*
X153522619Y-106228571D01*
X153570238Y-106133333D01*
X153665476Y-106085714D01*
X153855952Y-106085714D01*
X153951190Y-106133333D01*
X153998809Y-106228571D01*
X153998809Y-106323809D01*
X153522619Y-106419047D01*
X154570238Y-106752380D02*
X154475000Y-106704761D01*
X154427380Y-106657142D01*
X154379761Y-106561904D01*
X154379761Y-106276190D01*
X154427380Y-106180952D01*
X154475000Y-106133333D01*
X154570238Y-106085714D01*
X154713095Y-106085714D01*
X154808333Y-106133333D01*
X154855952Y-106180952D01*
X154903571Y-106276190D01*
X154903571Y-106561904D01*
X154855952Y-106657142D01*
X154808333Y-106704761D01*
X154713095Y-106752380D01*
X154570238Y-106752380D01*
X155332142Y-106085714D02*
X155332142Y-107085714D01*
X155332142Y-106133333D02*
X155427380Y-106085714D01*
X155617857Y-106085714D01*
X155713095Y-106133333D01*
X155760714Y-106180952D01*
X155808333Y-106276190D01*
X155808333Y-106561904D01*
X155760714Y-106657142D01*
X155713095Y-106704761D01*
X155617857Y-106752380D01*
X155427380Y-106752380D01*
X155332142Y-106704761D01*
X156236904Y-106752380D02*
X156236904Y-106085714D01*
X156236904Y-105752380D02*
X156189285Y-105800000D01*
X156236904Y-105847619D01*
X156284523Y-105800000D01*
X156236904Y-105752380D01*
X156236904Y-105847619D01*
X156617857Y-106752380D02*
X157141666Y-106085714D01*
X156617857Y-106085714D02*
X157141666Y-106752380D01*
X157903571Y-106704761D02*
X157808333Y-106752380D01*
X157617857Y-106752380D01*
X157522619Y-106704761D01*
X157475000Y-106609523D01*
X157475000Y-106228571D01*
X157522619Y-106133333D01*
X157617857Y-106085714D01*
X157808333Y-106085714D01*
X157903571Y-106133333D01*
X157951190Y-106228571D01*
X157951190Y-106323809D01*
X157475000Y-106419047D01*
X158522619Y-106752380D02*
X158427380Y-106704761D01*
X158379761Y-106609523D01*
X158379761Y-105752380D01*
D13*
X91766428Y-85461904D02*
X92223571Y-85461904D01*
X91995000Y-86261904D02*
X91995000Y-85461904D01*
X92490238Y-86261904D02*
X92490238Y-85461904D01*
X92490238Y-85842857D02*
X92947380Y-85842857D01*
X92947380Y-86261904D02*
X92947380Y-85461904D01*
X93747380Y-86261904D02*
X93290238Y-86261904D01*
X93518809Y-86261904D02*
X93518809Y-85461904D01*
X93442619Y-85576190D01*
X93366428Y-85652380D01*
X93290238Y-85690476D01*
X98861904Y-100461904D02*
X98861904Y-99661904D01*
X99166666Y-99661904D01*
X99242857Y-99700000D01*
X99280952Y-99738095D01*
X99319047Y-99814285D01*
X99319047Y-99928571D01*
X99280952Y-100004761D01*
X99242857Y-100042857D01*
X99166666Y-100080952D01*
X98861904Y-100080952D01*
X99547619Y-99661904D02*
X100004761Y-99661904D01*
X99776190Y-100461904D02*
X99776190Y-99661904D01*
X100690476Y-100461904D02*
X100233333Y-100461904D01*
X100461904Y-100461904D02*
X100461904Y-99661904D01*
X100385714Y-99776190D01*
X100309523Y-99852380D01*
X100233333Y-99890476D01*
X101185714Y-99661904D02*
X101261904Y-99661904D01*
X101338095Y-99700000D01*
X101376190Y-99738095D01*
X101414285Y-99814285D01*
X101452380Y-99966666D01*
X101452380Y-100157142D01*
X101414285Y-100309523D01*
X101376190Y-100385714D01*
X101338095Y-100423809D01*
X101261904Y-100461904D01*
X101185714Y-100461904D01*
X101109523Y-100423809D01*
X101071428Y-100385714D01*
X101033333Y-100309523D01*
X100995238Y-100157142D01*
X100995238Y-99966666D01*
X101033333Y-99814285D01*
X101071428Y-99738095D01*
X101109523Y-99700000D01*
X101185714Y-99661904D01*
X101947619Y-99661904D02*
X102023809Y-99661904D01*
X102100000Y-99700000D01*
X102138095Y-99738095D01*
X102176190Y-99814285D01*
X102214285Y-99966666D01*
X102214285Y-100157142D01*
X102176190Y-100309523D01*
X102138095Y-100385714D01*
X102100000Y-100423809D01*
X102023809Y-100461904D01*
X101947619Y-100461904D01*
X101871428Y-100423809D01*
X101833333Y-100385714D01*
X101795238Y-100309523D01*
X101757142Y-100157142D01*
X101757142Y-99966666D01*
X101795238Y-99814285D01*
X101833333Y-99738095D01*
X101871428Y-99700000D01*
X101947619Y-99661904D01*
X102709523Y-99661904D02*
X102785714Y-99661904D01*
X102861904Y-99700000D01*
X102900000Y-99738095D01*
X102938095Y-99814285D01*
X102976190Y-99966666D01*
X102976190Y-100157142D01*
X102938095Y-100309523D01*
X102900000Y-100385714D01*
X102861904Y-100423809D01*
X102785714Y-100461904D01*
X102709523Y-100461904D01*
X102633333Y-100423809D01*
X102595238Y-100385714D01*
X102557142Y-100309523D01*
X102519047Y-100157142D01*
X102519047Y-99966666D01*
X102557142Y-99814285D01*
X102595238Y-99738095D01*
X102633333Y-99700000D01*
X102709523Y-99661904D01*
D14*
X121704761Y-101447142D02*
X121990476Y-101542380D01*
X122085714Y-101637619D01*
X122180952Y-101828095D01*
X122180952Y-102113809D01*
X122085714Y-102304285D01*
X121990476Y-102399523D01*
X121800000Y-102494761D01*
X121038095Y-102494761D01*
X121038095Y-100494761D01*
X121704761Y-100494761D01*
X121895238Y-100590000D01*
X121990476Y-100685238D01*
X122085714Y-100875714D01*
X122085714Y-101066190D01*
X121990476Y-101256666D01*
X121895238Y-101351904D01*
X121704761Y-101447142D01*
X121038095Y-101447142D01*
X123800000Y-102399523D02*
X123609523Y-102494761D01*
X123228571Y-102494761D01*
X123038095Y-102399523D01*
X122942857Y-102209047D01*
X122942857Y-101447142D01*
X123038095Y-101256666D01*
X123228571Y-101161428D01*
X123609523Y-101161428D01*
X123800000Y-101256666D01*
X123895238Y-101447142D01*
X123895238Y-101637619D01*
X122942857Y-101828095D01*
X124466666Y-101161428D02*
X125228571Y-101161428D01*
X124752380Y-100494761D02*
X124752380Y-102209047D01*
X124847619Y-102399523D01*
X125038095Y-102494761D01*
X125228571Y-102494761D01*
X125609523Y-101161428D02*
X126371428Y-101161428D01*
X125895238Y-100494761D02*
X125895238Y-102209047D01*
X125990476Y-102399523D01*
X126180952Y-102494761D01*
X126371428Y-102494761D01*
X127800000Y-102399523D02*
X127609523Y-102494761D01*
X127228571Y-102494761D01*
X127038095Y-102399523D01*
X126942857Y-102209047D01*
X126942857Y-101447142D01*
X127038095Y-101256666D01*
X127228571Y-101161428D01*
X127609523Y-101161428D01*
X127800000Y-101256666D01*
X127895238Y-101447142D01*
X127895238Y-101637619D01*
X126942857Y-101828095D01*
X128752380Y-102494761D02*
X128752380Y-101161428D01*
X128752380Y-101542380D02*
X128847619Y-101351904D01*
X128942857Y-101256666D01*
X129133333Y-101161428D01*
X129323809Y-101161428D01*
X110847619Y-105714761D02*
X110847619Y-103714761D01*
X111990476Y-105714761D02*
X111133333Y-104571904D01*
X111990476Y-103714761D02*
X110847619Y-104857619D01*
X113133333Y-105714761D02*
X112942857Y-105619523D01*
X112847619Y-105429047D01*
X112847619Y-103714761D01*
X113895238Y-105714761D02*
X113895238Y-104381428D01*
X113895238Y-103714761D02*
X113800000Y-103810000D01*
X113895238Y-103905238D01*
X113990476Y-103810000D01*
X113895238Y-103714761D01*
X113895238Y-103905238D01*
X114847619Y-104381428D02*
X114847619Y-106381428D01*
X114847619Y-104476666D02*
X115038095Y-104381428D01*
X115419047Y-104381428D01*
X115609523Y-104476666D01*
X115704761Y-104571904D01*
X115800000Y-104762380D01*
X115800000Y-105333809D01*
X115704761Y-105524285D01*
X115609523Y-105619523D01*
X115419047Y-105714761D01*
X115038095Y-105714761D01*
X114847619Y-105619523D01*
X116657142Y-104381428D02*
X116657142Y-106381428D01*
X116657142Y-104476666D02*
X116847619Y-104381428D01*
X117228571Y-104381428D01*
X117419047Y-104476666D01*
X117514285Y-104571904D01*
X117609523Y-104762380D01*
X117609523Y-105333809D01*
X117514285Y-105524285D01*
X117419047Y-105619523D01*
X117228571Y-105714761D01*
X116847619Y-105714761D01*
X116657142Y-105619523D01*
X119228571Y-105619523D02*
X119038095Y-105714761D01*
X118657142Y-105714761D01*
X118466666Y-105619523D01*
X118371428Y-105429047D01*
X118371428Y-104667142D01*
X118466666Y-104476666D01*
X118657142Y-104381428D01*
X119038095Y-104381428D01*
X119228571Y-104476666D01*
X119323809Y-104667142D01*
X119323809Y-104857619D01*
X118371428Y-105048095D01*
X120180952Y-105714761D02*
X120180952Y-104381428D01*
X120180952Y-104762380D02*
X120276190Y-104571904D01*
X120371428Y-104476666D01*
X120561904Y-104381428D01*
X120752380Y-104381428D01*
X122942857Y-104667142D02*
X123609523Y-104667142D01*
X123895238Y-105714761D02*
X122942857Y-105714761D01*
X122942857Y-103714761D01*
X123895238Y-103714761D01*
X124561904Y-105714761D02*
X125609523Y-104381428D01*
X124561904Y-104381428D02*
X125609523Y-105714761D01*
X126371428Y-104381428D02*
X126371428Y-106381428D01*
X126371428Y-104476666D02*
X126561904Y-104381428D01*
X126942857Y-104381428D01*
X127133333Y-104476666D01*
X127228571Y-104571904D01*
X127323809Y-104762380D01*
X127323809Y-105333809D01*
X127228571Y-105524285D01*
X127133333Y-105619523D01*
X126942857Y-105714761D01*
X126561904Y-105714761D01*
X126371428Y-105619523D01*
X129038095Y-105714761D02*
X129038095Y-104667142D01*
X128942857Y-104476666D01*
X128752380Y-104381428D01*
X128371428Y-104381428D01*
X128180952Y-104476666D01*
X129038095Y-105619523D02*
X128847619Y-105714761D01*
X128371428Y-105714761D01*
X128180952Y-105619523D01*
X128085714Y-105429047D01*
X128085714Y-105238571D01*
X128180952Y-105048095D01*
X128371428Y-104952857D01*
X128847619Y-104952857D01*
X129038095Y-104857619D01*
X129990476Y-104381428D02*
X129990476Y-105714761D01*
X129990476Y-104571904D02*
X130085714Y-104476666D01*
X130276190Y-104381428D01*
X130561904Y-104381428D01*
X130752380Y-104476666D01*
X130847619Y-104667142D01*
X130847619Y-105714761D01*
X132657142Y-105714761D02*
X132657142Y-103714761D01*
X132657142Y-105619523D02*
X132466666Y-105714761D01*
X132085714Y-105714761D01*
X131895238Y-105619523D01*
X131800000Y-105524285D01*
X131704761Y-105333809D01*
X131704761Y-104762380D01*
X131800000Y-104571904D01*
X131895238Y-104476666D01*
X132085714Y-104381428D01*
X132466666Y-104381428D01*
X132657142Y-104476666D01*
X134371428Y-105619523D02*
X134180952Y-105714761D01*
X133800000Y-105714761D01*
X133609523Y-105619523D01*
X133514285Y-105429047D01*
X133514285Y-104667142D01*
X133609523Y-104476666D01*
X133800000Y-104381428D01*
X134180952Y-104381428D01*
X134371428Y-104476666D01*
X134466666Y-104667142D01*
X134466666Y-104857619D01*
X133514285Y-105048095D01*
X135323809Y-105714761D02*
X135323809Y-104381428D01*
X135323809Y-104762380D02*
X135419047Y-104571904D01*
X135514285Y-104476666D01*
X135704761Y-104381428D01*
X135895238Y-104381428D01*
X137800000Y-103714761D02*
X138466666Y-105714761D01*
X139133333Y-103714761D01*
X140847619Y-105714761D02*
X139704761Y-105714761D01*
X140276190Y-105714761D02*
X140276190Y-103714761D01*
X140085714Y-104000476D01*
X139895238Y-104190952D01*
X139704761Y-104286190D01*
D12*
X157464047Y-78187857D02*
X158454523Y-78187857D01*
X157959285Y-78683095D02*
X157959285Y-77692619D01*
X163035476Y-78187857D02*
X164025952Y-78187857D01*
X142814285Y-84828571D02*
X142480952Y-84828571D01*
X142480952Y-85352380D02*
X142480952Y-84352380D01*
X142957142Y-84352380D01*
X143290476Y-85066666D02*
X143766666Y-85066666D01*
X143195238Y-85352380D02*
X143528571Y-84352380D01*
X143861904Y-85352380D01*
X144195238Y-85352380D02*
X144195238Y-84352380D01*
X144766666Y-85352380D01*
X144766666Y-84352380D01*
X145433333Y-84352380D02*
X145528571Y-84352380D01*
X145623809Y-84400000D01*
X145671428Y-84447619D01*
X145719047Y-84542857D01*
X145766666Y-84733333D01*
X145766666Y-84971428D01*
X145719047Y-85161904D01*
X145671428Y-85257142D01*
X145623809Y-85304761D01*
X145528571Y-85352380D01*
X145433333Y-85352380D01*
X145338095Y-85304761D01*
X145290476Y-85257142D01*
X145242857Y-85161904D01*
X145195238Y-84971428D01*
X145195238Y-84733333D01*
X145242857Y-84542857D01*
X145290476Y-84447619D01*
X145338095Y-84400000D01*
X145433333Y-84352380D01*
D15*
%TO.C,U5*%
X161020595Y-106387380D02*
X161020595Y-107196904D01*
X161068214Y-107292142D01*
X161115833Y-107339761D01*
X161211071Y-107387380D01*
X161401547Y-107387380D01*
X161496785Y-107339761D01*
X161544404Y-107292142D01*
X161592023Y-107196904D01*
X161592023Y-106387380D01*
X162544404Y-106387380D02*
X162068214Y-106387380D01*
X162020595Y-106863571D01*
X162068214Y-106815952D01*
X162163452Y-106768333D01*
X162401547Y-106768333D01*
X162496785Y-106815952D01*
X162544404Y-106863571D01*
X162592023Y-106958809D01*
X162592023Y-107196904D01*
X162544404Y-107292142D01*
X162496785Y-107339761D01*
X162401547Y-107387380D01*
X162163452Y-107387380D01*
X162068214Y-107339761D01*
X162020595Y-107292142D01*
%TO.C,U3*%
X169753095Y-94887380D02*
X169753095Y-95696904D01*
X169800714Y-95792142D01*
X169848333Y-95839761D01*
X169943571Y-95887380D01*
X170134047Y-95887380D01*
X170229285Y-95839761D01*
X170276904Y-95792142D01*
X170324523Y-95696904D01*
X170324523Y-94887380D01*
X170705476Y-94887380D02*
X171324523Y-94887380D01*
X170991190Y-95268333D01*
X171134047Y-95268333D01*
X171229285Y-95315952D01*
X171276904Y-95363571D01*
X171324523Y-95458809D01*
X171324523Y-95696904D01*
X171276904Y-95792142D01*
X171229285Y-95839761D01*
X171134047Y-95887380D01*
X170848333Y-95887380D01*
X170753095Y-95839761D01*
X170705476Y-95792142D01*
%TO.C,U1*%
X177730380Y-83951904D02*
X178539904Y-83951904D01*
X178635142Y-83904285D01*
X178682761Y-83856666D01*
X178730380Y-83761428D01*
X178730380Y-83570952D01*
X178682761Y-83475714D01*
X178635142Y-83428095D01*
X178539904Y-83380476D01*
X177730380Y-83380476D01*
X178730380Y-82380476D02*
X178730380Y-82951904D01*
X178730380Y-82666190D02*
X177730380Y-82666190D01*
X177873238Y-82761428D01*
X177968476Y-82856666D01*
X178016095Y-82951904D01*
D16*
%TO.C,F2*%
X151709285Y-86523333D02*
X151709285Y-86946666D01*
X152374523Y-86946666D02*
X151104523Y-86946666D01*
X151104523Y-86341904D01*
X151225476Y-85918571D02*
X151165000Y-85858095D01*
X151104523Y-85737142D01*
X151104523Y-85434761D01*
X151165000Y-85313809D01*
X151225476Y-85253333D01*
X151346428Y-85192857D01*
X151467380Y-85192857D01*
X151648809Y-85253333D01*
X152374523Y-85979047D01*
X152374523Y-85192857D01*
D13*
%TO.C,U5*%
X164757500Y-105250000D02*
G75*
G03*
X164757500Y-105250000I-100000J0D01*
G01*
D17*
X161357500Y-105860000D02*
X162957500Y-105860000D01*
X162957500Y-102740000D02*
X161357500Y-102740000D01*
D13*
%TO.C,U3*%
X174610000Y-93705000D02*
G75*
G03*
X174610000Y-93705000I-100000J0D01*
G01*
D17*
X172390000Y-89275000D02*
X168490000Y-89275000D01*
X172390000Y-94325000D02*
X168490000Y-94325000D01*
D13*
%TO.C,U1*%
X179225000Y-86890000D02*
G75*
G03*
X179225000Y-86890000I-100000J0D01*
G01*
D17*
X179075000Y-84395000D02*
X179075000Y-80495000D01*
X184125000Y-84395000D02*
X184125000Y-80495000D01*
D13*
%TO.C,F2*%
X154200000Y-78700000D02*
X154200000Y-93500000D01*
X154200000Y-93500000D02*
X149400000Y-93500000D01*
X149400000Y-93500000D02*
X149400000Y-78700000D01*
X149400000Y-78700000D02*
X154200000Y-78700000D01*
D18*
X151800000Y-78250000D02*
X151800000Y-78250000D01*
X151800000Y-78150000D02*
X151800000Y-78150000D01*
X151800000Y-78250000D02*
G75*
G03*
X151800000Y-78150000I0J50000D01*
G01*
X151800000Y-78150000D02*
G75*
G03*
X151800000Y-78250000I0J-50000D01*
G01*
D10*
%TO.C,J13*%
X116830000Y-97695000D02*
X116830000Y-102895000D01*
X111630000Y-100295000D02*
X111630000Y-102895000D01*
X111630000Y-102895000D02*
X116830000Y-102895000D01*
X114230000Y-100295000D02*
X114230000Y-97695000D01*
X111630000Y-100295000D02*
X114230000Y-100295000D01*
X111630000Y-97695000D02*
X112960000Y-97695000D01*
X111630000Y-99025000D02*
X111630000Y-97695000D01*
X114230000Y-97695000D02*
X116830000Y-97695000D01*
%TO.C,R8*%
X145472936Y-89497500D02*
X145927064Y-89497500D01*
X145472936Y-88027500D02*
X145927064Y-88027500D01*
%TO.C,J8*%
X107800000Y-78875000D02*
X107800000Y-78125000D01*
X107800000Y-78125000D02*
X106000000Y-78125000D01*
X106000000Y-80375000D02*
X106750000Y-80375000D01*
X106750000Y-83325000D02*
X109800000Y-83325000D01*
X112850000Y-80375000D02*
X112850000Y-83325000D01*
X113610000Y-78115000D02*
X105990000Y-78115000D01*
X113600000Y-78875000D02*
X113600000Y-78125000D01*
X106000000Y-78875000D02*
X107800000Y-78875000D01*
X111800000Y-78875000D02*
X113600000Y-78875000D01*
X110300000Y-78875000D02*
X110300000Y-78125000D01*
X113610000Y-84085000D02*
X113610000Y-78115000D01*
X110300000Y-78125000D02*
X109300000Y-78125000D01*
X106000000Y-78125000D02*
X106000000Y-78875000D01*
X106750000Y-80375000D02*
X106750000Y-83325000D01*
X112850000Y-83325000D02*
X109800000Y-83325000D01*
X109300000Y-78875000D02*
X110300000Y-78875000D01*
X105990000Y-78115000D02*
X105990000Y-84085000D01*
X113600000Y-80375000D02*
X112850000Y-80375000D01*
X106950000Y-77825000D02*
X105700000Y-77825000D01*
X109300000Y-78125000D02*
X109300000Y-78875000D01*
X105990000Y-84085000D02*
X113610000Y-84085000D01*
X113600000Y-78125000D02*
X111800000Y-78125000D01*
X105700000Y-77825000D02*
X105700000Y-79075000D01*
X111800000Y-78125000D02*
X111800000Y-78875000D01*
%TO.C,D1*%
X157200000Y-98150000D02*
X157200000Y-94850000D01*
X157200000Y-98150000D02*
X151800000Y-98150000D01*
X157200000Y-94850000D02*
X151800000Y-94850000D01*
%TO.C,C1*%
X159135000Y-96338748D02*
X159135000Y-96861252D01*
X157665000Y-96338748D02*
X157665000Y-96861252D01*
%TO.C,D8*%
X121550000Y-97300000D02*
X121550000Y-91900000D01*
X121550000Y-97300000D02*
X124850000Y-97300000D01*
X124850000Y-97300000D02*
X124850000Y-91900000D01*
%TO.C,R12*%
X128222936Y-88027500D02*
X128677064Y-88027500D01*
X128222936Y-89497500D02*
X128677064Y-89497500D01*
%TO.C,R25*%
X99627064Y-92822500D02*
X99172936Y-92822500D01*
X99627064Y-91352500D02*
X99172936Y-91352500D01*
%TO.C,C23*%
X107461252Y-94052500D02*
X106938748Y-94052500D01*
X107461252Y-95522500D02*
X106938748Y-95522500D01*
%TO.C,C11*%
X190188748Y-95135000D02*
X190711252Y-95135000D01*
X190188748Y-93665000D02*
X190711252Y-93665000D01*
%TO.C,C18*%
X180161252Y-99535000D02*
X179638748Y-99535000D01*
X180161252Y-98065000D02*
X179638748Y-98065000D01*
%TO.C,U4*%
X180002500Y-97210000D02*
X179352500Y-97210000D01*
X180002500Y-89990000D02*
X179352500Y-89990000D01*
X185922500Y-97210000D02*
X186572500Y-97210000D01*
X186572500Y-97210000D02*
X186572500Y-96560000D01*
X179352500Y-97210000D02*
X179352500Y-96560000D01*
X186572500Y-89990000D02*
X186572500Y-90640000D01*
X185922500Y-89990000D02*
X186572500Y-89990000D01*
%TO.C,R14*%
X108239564Y-102685000D02*
X107785436Y-102685000D01*
X108239564Y-101215000D02*
X107785436Y-101215000D01*
%TO.C,JP2*%
X100595000Y-99330000D02*
X103195000Y-99330000D01*
X100595000Y-96670000D02*
X103195000Y-96670000D01*
X103195000Y-99330000D02*
X103195000Y-96670000D01*
X100595000Y-99330000D02*
X100595000Y-96670000D01*
X97995000Y-99330000D02*
X97995000Y-98000000D01*
X99325000Y-99330000D02*
X97995000Y-99330000D01*
%TO.C,D9*%
X115550000Y-97300000D02*
X115550000Y-91900000D01*
X118850000Y-97300000D02*
X118850000Y-91900000D01*
X115550000Y-97300000D02*
X118850000Y-97300000D01*
%TO.C,R13*%
X128222936Y-87035000D02*
X128677064Y-87035000D01*
X128222936Y-85565000D02*
X128677064Y-85565000D01*
%TO.C,J5*%
X127100000Y-78125000D02*
X126100000Y-78125000D01*
X123550000Y-80375000D02*
X123550000Y-83325000D01*
X128600000Y-78125000D02*
X128600000Y-78875000D01*
X123550000Y-83325000D02*
X126600000Y-83325000D01*
X130410000Y-84085000D02*
X130410000Y-78115000D01*
X122800000Y-78125000D02*
X122800000Y-78875000D01*
X122800000Y-78875000D02*
X124600000Y-78875000D01*
X123750000Y-77825000D02*
X122500000Y-77825000D01*
X129650000Y-80375000D02*
X129650000Y-83325000D01*
X130400000Y-78125000D02*
X128600000Y-78125000D01*
X124600000Y-78125000D02*
X122800000Y-78125000D01*
X122500000Y-77825000D02*
X122500000Y-79075000D01*
X129650000Y-83325000D02*
X126600000Y-83325000D01*
X122800000Y-80375000D02*
X123550000Y-80375000D01*
X122790000Y-84085000D02*
X130410000Y-84085000D01*
X124600000Y-78875000D02*
X124600000Y-78125000D01*
X127100000Y-78875000D02*
X127100000Y-78125000D01*
X130410000Y-78115000D02*
X122790000Y-78115000D01*
X126100000Y-78125000D02*
X126100000Y-78875000D01*
X128600000Y-78875000D02*
X130400000Y-78875000D01*
X122790000Y-78115000D02*
X122790000Y-84085000D01*
X130400000Y-78875000D02*
X130400000Y-78125000D01*
X130400000Y-80375000D02*
X129650000Y-80375000D01*
X126100000Y-78875000D02*
X127100000Y-78875000D01*
%TO.C,C10*%
X190188748Y-92735000D02*
X190711252Y-92735000D01*
X190188748Y-91265000D02*
X190711252Y-91265000D01*
%TO.C,R4*%
X177172936Y-88335000D02*
X177627064Y-88335000D01*
X177172936Y-86865000D02*
X177627064Y-86865000D01*
%TO.C,R11*%
X136972936Y-85565000D02*
X137427064Y-85565000D01*
X136972936Y-87035000D02*
X137427064Y-87035000D01*
%TO.C,C9*%
X173138748Y-97535000D02*
X173661252Y-97535000D01*
X173138748Y-96065000D02*
X173661252Y-96065000D01*
%TO.C,D5*%
X139550000Y-97300000D02*
X139550000Y-91900000D01*
X142850000Y-97300000D02*
X142850000Y-91900000D01*
X139550000Y-97300000D02*
X142850000Y-97300000D01*
%TO.C,J9*%
X99400000Y-78875000D02*
X99400000Y-78125000D01*
X97600000Y-78125000D02*
X97600000Y-78875000D01*
X101900000Y-78125000D02*
X100900000Y-78125000D01*
X105200000Y-78875000D02*
X105200000Y-78125000D01*
X98350000Y-80375000D02*
X98350000Y-83325000D01*
X97300000Y-77825000D02*
X97300000Y-79075000D01*
X105210000Y-78115000D02*
X97590000Y-78115000D01*
X97590000Y-78115000D02*
X97590000Y-84085000D01*
X104450000Y-83325000D02*
X101400000Y-83325000D01*
X98350000Y-83325000D02*
X101400000Y-83325000D01*
X104450000Y-80375000D02*
X104450000Y-83325000D01*
X105200000Y-80375000D02*
X104450000Y-80375000D01*
X97600000Y-80375000D02*
X98350000Y-80375000D01*
X97600000Y-78875000D02*
X99400000Y-78875000D01*
X105200000Y-78125000D02*
X103400000Y-78125000D01*
X100900000Y-78125000D02*
X100900000Y-78875000D01*
X97590000Y-84085000D02*
X105210000Y-84085000D01*
X98550000Y-77825000D02*
X97300000Y-77825000D01*
X103400000Y-78875000D02*
X105200000Y-78875000D01*
X100900000Y-78875000D02*
X101900000Y-78875000D01*
X103400000Y-78125000D02*
X103400000Y-78875000D01*
X105210000Y-84085000D02*
X105210000Y-78115000D01*
X101900000Y-78875000D02*
X101900000Y-78125000D01*
X99400000Y-78125000D02*
X97600000Y-78125000D01*
%TO.C,R22*%
X102672936Y-89497500D02*
X103127064Y-89497500D01*
X102672936Y-88027500D02*
X103127064Y-88027500D01*
%TO.C,R17*%
X103965000Y-98972936D02*
X103965000Y-99427064D01*
X105435000Y-98972936D02*
X105435000Y-99427064D01*
%TO.C,C2*%
X161335000Y-96338748D02*
X161335000Y-96861252D01*
X159865000Y-96338748D02*
X159865000Y-96861252D01*
%TO.C,C16*%
X189538748Y-88865000D02*
X190061252Y-88865000D01*
X189538748Y-90335000D02*
X190061252Y-90335000D01*
D17*
%TO.C,D11*%
X104760000Y-93567500D02*
X104760000Y-92837500D01*
X102480000Y-92837500D02*
X101840000Y-92837500D01*
X101840000Y-92837500D02*
X101840000Y-93567500D01*
X104760000Y-92837500D02*
X104120000Y-92837500D01*
D13*
X102450000Y-95987500D02*
G75*
G03*
X102450000Y-95987500I-100000J0D01*
G01*
D10*
%TO.C,C20*%
X180161252Y-100065000D02*
X179638748Y-100065000D01*
X180161252Y-101535000D02*
X179638748Y-101535000D01*
%TO.C,R24*%
X107427064Y-91352500D02*
X106972936Y-91352500D01*
X107427064Y-92822500D02*
X106972936Y-92822500D01*
%TO.C,R26*%
X99172936Y-94052500D02*
X99627064Y-94052500D01*
X99172936Y-95522500D02*
X99627064Y-95522500D01*
%TO.C,J3*%
X141450000Y-78125000D02*
X139650000Y-78125000D01*
X139640000Y-78115000D02*
X139640000Y-84085000D01*
X145450000Y-78875000D02*
X147250000Y-78875000D01*
X142950000Y-78125000D02*
X142950000Y-78875000D01*
X147260000Y-84085000D02*
X147260000Y-78115000D01*
X145450000Y-78125000D02*
X145450000Y-78875000D01*
X143950000Y-78875000D02*
X143950000Y-78125000D01*
X139650000Y-78875000D02*
X141450000Y-78875000D01*
X140400000Y-83325000D02*
X143450000Y-83325000D01*
X139640000Y-84085000D02*
X147260000Y-84085000D01*
X140600000Y-77825000D02*
X139350000Y-77825000D01*
X147250000Y-80375000D02*
X146500000Y-80375000D01*
X142950000Y-78875000D02*
X143950000Y-78875000D01*
X146500000Y-80375000D02*
X146500000Y-83325000D01*
X139350000Y-77825000D02*
X139350000Y-79075000D01*
X139650000Y-80375000D02*
X140400000Y-80375000D01*
X147250000Y-78875000D02*
X147250000Y-78125000D01*
X140400000Y-80375000D02*
X140400000Y-83325000D01*
X143950000Y-78125000D02*
X142950000Y-78125000D01*
X139650000Y-78125000D02*
X139650000Y-78875000D01*
X147260000Y-78115000D02*
X139640000Y-78115000D01*
X147250000Y-78125000D02*
X145450000Y-78125000D01*
X146500000Y-83325000D02*
X143450000Y-83325000D01*
X141450000Y-78875000D02*
X141450000Y-78125000D01*
%TO.C,R18*%
X119622936Y-88027500D02*
X120077064Y-88027500D01*
X119622936Y-89497500D02*
X120077064Y-89497500D01*
%TO.C,Q3*%
X122990000Y-86612500D02*
X122990000Y-85962500D01*
X126110000Y-86612500D02*
X126110000Y-87262500D01*
X126110000Y-86612500D02*
X126110000Y-85962500D01*
X122990000Y-86612500D02*
X122990000Y-88287500D01*
%TO.C,R3*%
X173372936Y-88335000D02*
X173827064Y-88335000D01*
X173372936Y-86865000D02*
X173827064Y-86865000D01*
%TO.C,Y1*%
X183100000Y-105950000D02*
X187300000Y-105950000D01*
X183100000Y-102450000D02*
X183100000Y-105950000D01*
%TO.C,F3*%
X145441422Y-101110000D02*
X145958578Y-101110000D01*
X145441422Y-99690000D02*
X145958578Y-99690000D01*
%TO.C,G\u002A\u002A\u002A*%
G36*
X90531400Y-101950150D02*
G01*
X93300000Y-100354552D01*
X96068600Y-101950150D01*
X96068600Y-105249849D01*
X94679308Y-106050524D01*
X94339339Y-106246185D01*
X94029012Y-106424267D01*
X93758882Y-106578754D01*
X93539505Y-106703630D01*
X93381439Y-106792877D01*
X93295239Y-106840478D01*
X93282308Y-106846770D01*
X93238181Y-106821166D01*
X93116791Y-106750713D01*
X92928745Y-106641566D01*
X92684649Y-106499881D01*
X92395109Y-106331815D01*
X92070731Y-106143525D01*
X91903000Y-106046162D01*
X90677648Y-105334876D01*
X91733666Y-105334876D01*
X91772441Y-105354402D01*
X91890479Y-105369187D01*
X92065467Y-105376891D01*
X92140066Y-105377479D01*
X92563400Y-105376959D01*
X92577821Y-105355076D01*
X93300000Y-105355076D01*
X93346850Y-105365563D01*
X93471616Y-105373500D01*
X93650623Y-105377596D01*
X93719100Y-105377886D01*
X94138200Y-105377772D01*
X94620800Y-104634043D01*
X94785838Y-104379678D01*
X94937963Y-104145166D01*
X95065863Y-103947951D01*
X95158223Y-103805476D01*
X95197288Y-103745156D01*
X95291177Y-103600000D01*
X94429093Y-103600000D01*
X93864546Y-104466076D01*
X93694034Y-104728735D01*
X93544186Y-104961619D01*
X93423286Y-105151683D01*
X93339618Y-105285882D01*
X93301465Y-105351172D01*
X93300000Y-105355076D01*
X92577821Y-105355076D01*
X93706400Y-103642603D01*
X93954036Y-103266432D01*
X94184037Y-102916255D01*
X94390420Y-102601238D01*
X94567202Y-102330551D01*
X94708399Y-102113361D01*
X94808029Y-101958837D01*
X94860108Y-101876148D01*
X94866333Y-101865123D01*
X94827558Y-101845597D01*
X94709520Y-101830812D01*
X94534532Y-101823108D01*
X94459933Y-101822520D01*
X94036600Y-101823040D01*
X92893600Y-103557396D01*
X92645963Y-103933567D01*
X92415962Y-104283744D01*
X92209579Y-104598761D01*
X92032797Y-104869448D01*
X91891600Y-105086638D01*
X91791970Y-105241162D01*
X91739891Y-105323851D01*
X91733666Y-105334876D01*
X90677648Y-105334876D01*
X90531400Y-105249983D01*
X90531400Y-103600000D01*
X91308822Y-103600000D01*
X92170906Y-103600000D01*
X92735453Y-102733923D01*
X92905965Y-102471264D01*
X93055813Y-102238380D01*
X93176713Y-102048316D01*
X93260381Y-101914117D01*
X93298534Y-101848827D01*
X93300000Y-101844923D01*
X93253149Y-101834436D01*
X93128383Y-101826499D01*
X92949376Y-101822403D01*
X92880900Y-101822113D01*
X92461800Y-101822227D01*
X91979200Y-102565956D01*
X91814161Y-102820321D01*
X91662036Y-103054833D01*
X91534136Y-103252048D01*
X91441776Y-103394523D01*
X91402711Y-103454843D01*
X91308822Y-103600000D01*
X90531400Y-103600000D01*
X90531400Y-101950150D01*
G37*
D19*
X90531400Y-101950150D02*
X93300000Y-100354552D01*
X96068600Y-101950150D01*
X96068600Y-105249849D01*
X94679308Y-106050524D01*
X94339339Y-106246185D01*
X94029012Y-106424267D01*
X93758882Y-106578754D01*
X93539505Y-106703630D01*
X93381439Y-106792877D01*
X93295239Y-106840478D01*
X93282308Y-106846770D01*
X93238181Y-106821166D01*
X93116791Y-106750713D01*
X92928745Y-106641566D01*
X92684649Y-106499881D01*
X92395109Y-106331815D01*
X92070731Y-106143525D01*
X91903000Y-106046162D01*
X90677648Y-105334876D01*
X91733666Y-105334876D01*
X91772441Y-105354402D01*
X91890479Y-105369187D01*
X92065467Y-105376891D01*
X92140066Y-105377479D01*
X92563400Y-105376959D01*
X92577821Y-105355076D01*
X93300000Y-105355076D01*
X93346850Y-105365563D01*
X93471616Y-105373500D01*
X93650623Y-105377596D01*
X93719100Y-105377886D01*
X94138200Y-105377772D01*
X94620800Y-104634043D01*
X94785838Y-104379678D01*
X94937963Y-104145166D01*
X95065863Y-103947951D01*
X95158223Y-103805476D01*
X95197288Y-103745156D01*
X95291177Y-103600000D01*
X94429093Y-103600000D01*
X93864546Y-104466076D01*
X93694034Y-104728735D01*
X93544186Y-104961619D01*
X93423286Y-105151683D01*
X93339618Y-105285882D01*
X93301465Y-105351172D01*
X93300000Y-105355076D01*
X92577821Y-105355076D01*
X93706400Y-103642603D01*
X93954036Y-103266432D01*
X94184037Y-102916255D01*
X94390420Y-102601238D01*
X94567202Y-102330551D01*
X94708399Y-102113361D01*
X94808029Y-101958837D01*
X94860108Y-101876148D01*
X94866333Y-101865123D01*
X94827558Y-101845597D01*
X94709520Y-101830812D01*
X94534532Y-101823108D01*
X94459933Y-101822520D01*
X94036600Y-101823040D01*
X92893600Y-103557396D01*
X92645963Y-103933567D01*
X92415962Y-104283744D01*
X92209579Y-104598761D01*
X92032797Y-104869448D01*
X91891600Y-105086638D01*
X91791970Y-105241162D01*
X91739891Y-105323851D01*
X91733666Y-105334876D01*
X90677648Y-105334876D01*
X90531400Y-105249983D01*
X90531400Y-103600000D01*
X91308822Y-103600000D01*
X92170906Y-103600000D01*
X92735453Y-102733923D01*
X92905965Y-102471264D01*
X93055813Y-102238380D01*
X93176713Y-102048316D01*
X93260381Y-101914117D01*
X93298534Y-101848827D01*
X93300000Y-101844923D01*
X93253149Y-101834436D01*
X93128383Y-101826499D01*
X92949376Y-101822403D01*
X92880900Y-101822113D01*
X92461800Y-101822227D01*
X91979200Y-102565956D01*
X91814161Y-102820321D01*
X91662036Y-103054833D01*
X91534136Y-103252048D01*
X91441776Y-103394523D01*
X91402711Y-103454843D01*
X91308822Y-103600000D01*
X90531400Y-103600000D01*
X90531400Y-101950150D01*
D10*
%TO.C,R16*%
X99985436Y-103865000D02*
X100439564Y-103865000D01*
X99985436Y-105335000D02*
X100439564Y-105335000D01*
%TO.C,F1*%
X170390000Y-96771267D02*
X170390000Y-96428733D01*
X171410000Y-96771267D02*
X171410000Y-96428733D01*
%TO.C,R2*%
X190339564Y-103535000D02*
X189885436Y-103535000D01*
X190339564Y-102065000D02*
X189885436Y-102065000D01*
%TO.C,J4*%
X138860000Y-78115000D02*
X131240000Y-78115000D01*
X138860000Y-84085000D02*
X138860000Y-78115000D01*
X131250000Y-80375000D02*
X132000000Y-80375000D01*
X131240000Y-78115000D02*
X131240000Y-84085000D01*
X137050000Y-78875000D02*
X138850000Y-78875000D01*
X132000000Y-80375000D02*
X132000000Y-83325000D01*
X135550000Y-78875000D02*
X135550000Y-78125000D01*
X131240000Y-84085000D02*
X138860000Y-84085000D01*
X132200000Y-77825000D02*
X130950000Y-77825000D01*
X133050000Y-78125000D02*
X131250000Y-78125000D01*
X138850000Y-78125000D02*
X137050000Y-78125000D01*
X131250000Y-78125000D02*
X131250000Y-78875000D01*
X130950000Y-77825000D02*
X130950000Y-79075000D01*
X137050000Y-78125000D02*
X137050000Y-78875000D01*
X138100000Y-83325000D02*
X135050000Y-83325000D01*
X138100000Y-80375000D02*
X138100000Y-83325000D01*
X131250000Y-78875000D02*
X133050000Y-78875000D01*
X134550000Y-78875000D02*
X135550000Y-78875000D01*
X138850000Y-80375000D02*
X138100000Y-80375000D01*
X133050000Y-78875000D02*
X133050000Y-78125000D01*
X135550000Y-78125000D02*
X134550000Y-78125000D01*
X132000000Y-83325000D02*
X135050000Y-83325000D01*
X138850000Y-78875000D02*
X138850000Y-78125000D01*
X134550000Y-78125000D02*
X134550000Y-78875000D01*
%TO.C,R20*%
X111122936Y-89497500D02*
X111577064Y-89497500D01*
X111122936Y-88027500D02*
X111577064Y-88027500D01*
%TO.C,C21*%
X183238748Y-99065000D02*
X183761252Y-99065000D01*
X183238748Y-100535000D02*
X183761252Y-100535000D01*
%TO.C,C6*%
X177535000Y-98861252D02*
X177535000Y-98338748D01*
X176065000Y-98861252D02*
X176065000Y-98338748D01*
%TO.C,C17*%
X157765000Y-100461252D02*
X157765000Y-99938748D01*
X159235000Y-100461252D02*
X159235000Y-99938748D01*
%TO.C,Q6*%
X100560000Y-86612500D02*
X100560000Y-87262500D01*
X97440000Y-86612500D02*
X97440000Y-88287500D01*
X97440000Y-86612500D02*
X97440000Y-85962500D01*
X100560000Y-86612500D02*
X100560000Y-85962500D01*
%TO.C,L2*%
X173841422Y-99510000D02*
X174358578Y-99510000D01*
X173841422Y-98090000D02*
X174358578Y-98090000D01*
%TO.C,C4*%
X190373752Y-104365000D02*
X189851248Y-104365000D01*
X190373752Y-105835000D02*
X189851248Y-105835000D01*
%TO.C,U2*%
X176900000Y-103040000D02*
X175225000Y-103040000D01*
X176900000Y-103040000D02*
X177550000Y-103040000D01*
X176900000Y-106160000D02*
X177550000Y-106160000D01*
X176900000Y-106160000D02*
X176250000Y-106160000D01*
%TO.C,C5*%
X165735000Y-96338748D02*
X165735000Y-96861252D01*
X164265000Y-96338748D02*
X164265000Y-96861252D01*
%TO.C,C14*%
X185965000Y-87038748D02*
X185965000Y-87561252D01*
X187435000Y-87038748D02*
X187435000Y-87561252D01*
%TO.C,J6*%
X92295000Y-94595000D02*
X93295000Y-94595000D01*
X95845000Y-96095000D02*
X95845000Y-99045000D01*
X90795000Y-94595000D02*
X90795000Y-93845000D01*
X94795000Y-94595000D02*
X96595000Y-94595000D01*
X88995000Y-94595000D02*
X90795000Y-94595000D01*
X96605000Y-93835000D02*
X88985000Y-93835000D01*
X96595000Y-96095000D02*
X95845000Y-96095000D01*
X96595000Y-93845000D02*
X94795000Y-93845000D01*
X89945000Y-93545000D02*
X88695000Y-93545000D01*
X93295000Y-93845000D02*
X92295000Y-93845000D01*
X89745000Y-99045000D02*
X92795000Y-99045000D01*
X94795000Y-93845000D02*
X94795000Y-94595000D01*
X88985000Y-93835000D02*
X88985000Y-99805000D01*
X95845000Y-99045000D02*
X92795000Y-99045000D01*
X96605000Y-99805000D02*
X96605000Y-93835000D01*
X88695000Y-93545000D02*
X88695000Y-94795000D01*
X93295000Y-94595000D02*
X93295000Y-93845000D01*
X88995000Y-96095000D02*
X89745000Y-96095000D01*
X89745000Y-96095000D02*
X89745000Y-99045000D01*
X88995000Y-93845000D02*
X88995000Y-94595000D01*
X92295000Y-93845000D02*
X92295000Y-94595000D01*
X96595000Y-94595000D02*
X96595000Y-93845000D01*
X88985000Y-99805000D02*
X96605000Y-99805000D01*
X90795000Y-93845000D02*
X88995000Y-93845000D01*
%TO.C,Q5*%
X105890000Y-86612500D02*
X105890000Y-88287500D01*
X109010000Y-86612500D02*
X109010000Y-85962500D01*
X109010000Y-86612500D02*
X109010000Y-87262500D01*
X105890000Y-86612500D02*
X105890000Y-85962500D01*
%TO.C,J1*%
X155740000Y-81994000D02*
X165860000Y-81994000D01*
X155500000Y-88455000D02*
X155500000Y-89195000D01*
X162266000Y-85534000D02*
X162231000Y-85569000D01*
X155740000Y-86895000D02*
X165860000Y-86895000D01*
X165860000Y-79034000D02*
X165860000Y-88955000D01*
X164575000Y-83226000D02*
X164528000Y-83272000D01*
X155740000Y-88395000D02*
X165860000Y-88395000D01*
X164370000Y-83020000D02*
X164335000Y-83056000D01*
X162073000Y-85318000D02*
X162026000Y-85364000D01*
X155500000Y-89195000D02*
X156000000Y-89195000D01*
X155740000Y-88955000D02*
X165860000Y-88955000D01*
X155740000Y-79034000D02*
X155740000Y-88955000D01*
X155740000Y-79034000D02*
X165860000Y-79034000D01*
X156765000Y-83611000D02*
G75*
G03*
X156764573Y-84978042I1534993J-684001D01*
G01*
X157616000Y-85830000D02*
G75*
G03*
X158328805Y-85975253I683999J1535001D01*
G01*
X158300000Y-85975000D02*
G75*
G03*
X158983318Y-85829756I0J1680000D01*
G01*
X159835001Y-84979000D02*
G75*
G03*
X159835427Y-83611958I-1535001J684000D01*
G01*
X158984000Y-82760000D02*
G75*
G03*
X157616958Y-82759573I-684001J-1534993D01*
G01*
X164980000Y-84295000D02*
G75*
G03*
X164980000Y-84295000I-1680000J0D01*
G01*
%TO.C,J11*%
X137795000Y-97695000D02*
X137795000Y-102895000D01*
X132595000Y-100295000D02*
X132595000Y-102895000D01*
X132595000Y-102895000D02*
X137795000Y-102895000D01*
X135195000Y-100295000D02*
X135195000Y-97695000D01*
X132595000Y-100295000D02*
X135195000Y-100295000D01*
X132595000Y-97695000D02*
X133925000Y-97695000D01*
X132595000Y-99025000D02*
X132595000Y-97695000D01*
X135195000Y-97695000D02*
X137795000Y-97695000D01*
%TO.C,C13*%
X166765000Y-96561252D02*
X166765000Y-96038748D01*
X168235000Y-96561252D02*
X168235000Y-96038748D01*
%TO.C,R5*%
X189572936Y-86565000D02*
X190027064Y-86565000D01*
X189572936Y-88035000D02*
X190027064Y-88035000D01*
%TO.C,J7*%
X121250000Y-80375000D02*
X121250000Y-83325000D01*
X115150000Y-83325000D02*
X118200000Y-83325000D01*
X116200000Y-78125000D02*
X114400000Y-78125000D01*
X114400000Y-78875000D02*
X116200000Y-78875000D01*
X122010000Y-84085000D02*
X122010000Y-78115000D01*
X115350000Y-77825000D02*
X114100000Y-77825000D01*
X122000000Y-80375000D02*
X121250000Y-80375000D01*
X115150000Y-80375000D02*
X115150000Y-83325000D01*
X114390000Y-84085000D02*
X122010000Y-84085000D01*
X118700000Y-78875000D02*
X118700000Y-78125000D01*
X116200000Y-78875000D02*
X116200000Y-78125000D01*
X121250000Y-83325000D02*
X118200000Y-83325000D01*
X114100000Y-77825000D02*
X114100000Y-79075000D01*
X117700000Y-78875000D02*
X118700000Y-78875000D01*
X114390000Y-78115000D02*
X114390000Y-84085000D01*
X114400000Y-80375000D02*
X115150000Y-80375000D01*
X120200000Y-78875000D02*
X122000000Y-78875000D01*
X122000000Y-78875000D02*
X122000000Y-78125000D01*
X114400000Y-78125000D02*
X114400000Y-78875000D01*
X122000000Y-78125000D02*
X120200000Y-78125000D01*
X118700000Y-78125000D02*
X117700000Y-78125000D01*
X122010000Y-78115000D02*
X114390000Y-78115000D01*
X117700000Y-78125000D02*
X117700000Y-78875000D01*
X120200000Y-78125000D02*
X120200000Y-78875000D01*
%TO.C,R7*%
X176835000Y-94172936D02*
X176835000Y-94627064D01*
X175365000Y-94172936D02*
X175365000Y-94627064D01*
%TO.C,R10*%
X136972936Y-88027500D02*
X137427064Y-88027500D01*
X136972936Y-89497500D02*
X137427064Y-89497500D01*
%TO.C,C12*%
X190188748Y-96065000D02*
X190711252Y-96065000D01*
X190188748Y-97535000D02*
X190711252Y-97535000D01*
%TO.C,J12*%
X159330000Y-102870000D02*
X159330000Y-104200000D01*
X156730000Y-105530000D02*
X151590000Y-105530000D01*
X156730000Y-102870000D02*
X156730000Y-105530000D01*
X158000000Y-102870000D02*
X159330000Y-102870000D01*
X156730000Y-102870000D02*
X151590000Y-102870000D01*
X151590000Y-102870000D02*
X151590000Y-105530000D01*
%TO.C,R15*%
X100439564Y-102635000D02*
X99985436Y-102635000D01*
X100439564Y-101165000D02*
X99985436Y-101165000D01*
%TO.C,C7*%
X181535000Y-104861252D02*
X181535000Y-104338748D01*
X180065000Y-104861252D02*
X180065000Y-104338748D01*
%TO.C,Q1*%
X143360000Y-86612500D02*
X143360000Y-85962500D01*
X140240000Y-86612500D02*
X140240000Y-88287500D01*
X143360000Y-86612500D02*
X143360000Y-87262500D01*
X140240000Y-86612500D02*
X140240000Y-85962500D01*
%TO.C,D10*%
X109550000Y-97300000D02*
X112850000Y-97300000D01*
X109550000Y-97300000D02*
X109550000Y-91900000D01*
X112850000Y-97300000D02*
X112850000Y-91900000D01*
%TO.C,L1*%
X162602064Y-98840000D02*
X161397936Y-98840000D01*
X162602064Y-101560000D02*
X161397936Y-101560000D01*
%TO.C,R23*%
X102672936Y-85565000D02*
X103127064Y-85565000D01*
X102672936Y-87035000D02*
X103127064Y-87035000D01*
%TO.C,C8*%
X176361252Y-100765000D02*
X175838748Y-100765000D01*
X176361252Y-102235000D02*
X175838748Y-102235000D01*
%TO.C,J10*%
X96595000Y-88775000D02*
X95845000Y-88775000D01*
X96605000Y-86515000D02*
X88985000Y-86515000D01*
X96595000Y-86525000D02*
X94795000Y-86525000D01*
X90795000Y-87275000D02*
X90795000Y-86525000D01*
X88695000Y-86225000D02*
X88695000Y-87475000D01*
X96605000Y-92485000D02*
X96605000Y-86515000D01*
X95845000Y-88775000D02*
X95845000Y-91725000D01*
X90795000Y-86525000D02*
X88995000Y-86525000D01*
X88995000Y-86525000D02*
X88995000Y-87275000D01*
X93295000Y-86525000D02*
X92295000Y-86525000D01*
X96595000Y-87275000D02*
X96595000Y-86525000D01*
X93295000Y-87275000D02*
X93295000Y-86525000D01*
X88985000Y-86515000D02*
X88985000Y-92485000D01*
X89945000Y-86225000D02*
X88695000Y-86225000D01*
X88985000Y-92485000D02*
X96605000Y-92485000D01*
X92295000Y-87275000D02*
X93295000Y-87275000D01*
X92295000Y-86525000D02*
X92295000Y-87275000D01*
X89745000Y-91725000D02*
X92795000Y-91725000D01*
X95845000Y-91725000D02*
X92795000Y-91725000D01*
X88995000Y-88775000D02*
X89745000Y-88775000D01*
X88995000Y-87275000D02*
X90795000Y-87275000D01*
X89745000Y-88775000D02*
X89745000Y-91725000D01*
X94795000Y-86525000D02*
X94795000Y-87275000D01*
X94795000Y-87275000D02*
X96595000Y-87275000D01*
%TO.C,C3*%
X162065000Y-96338748D02*
X162065000Y-96861252D01*
X163535000Y-96338748D02*
X163535000Y-96861252D01*
%TO.C,JP1*%
X188695000Y-101030000D02*
X191295000Y-101030000D01*
X187425000Y-101030000D02*
X186095000Y-101030000D01*
X188695000Y-101030000D02*
X188695000Y-98370000D01*
X186095000Y-101030000D02*
X186095000Y-99700000D01*
X191295000Y-101030000D02*
X191295000Y-98370000D01*
X188695000Y-98370000D02*
X191295000Y-98370000D01*
%TO.C,C22*%
X108273752Y-105335000D02*
X107751248Y-105335000D01*
X108273752Y-103865000D02*
X107751248Y-103865000D01*
D17*
%TO.C,D4*%
X102652500Y-102550000D02*
X102652500Y-103280000D01*
X105572500Y-102550000D02*
X104932500Y-102550000D01*
X103292500Y-102550000D02*
X102652500Y-102550000D01*
X105572500Y-103280000D02*
X105572500Y-102550000D01*
D13*
X103262500Y-105700000D02*
G75*
G03*
X103262500Y-105700000I-100000J0D01*
G01*
D10*
%TO.C,C19*%
X170758349Y-98616000D02*
X170758349Y-101160000D01*
X169878349Y-98264000D02*
X169878349Y-101160000D01*
X172198349Y-99913000D02*
X172198349Y-104487000D01*
X172158349Y-99855000D02*
X172158349Y-104545000D01*
X170878349Y-103240000D02*
X170878349Y-105717000D01*
X168797349Y-98120000D02*
X168797349Y-106280000D01*
X169477349Y-98176000D02*
X169477349Y-106224000D01*
X169518349Y-98183000D02*
X169518349Y-101160000D01*
X172438349Y-100310000D02*
X172438349Y-104090000D01*
X171918349Y-99549000D02*
X171918349Y-104851000D01*
X171438349Y-103240000D02*
X171438349Y-105324000D01*
X170838349Y-103240000D02*
X170838349Y-105740000D01*
X168877349Y-98120000D02*
X168877349Y-106280000D01*
X170238349Y-98379000D02*
X170238349Y-101160000D01*
X171278349Y-103240000D02*
X171278349Y-105450000D01*
X170438349Y-103240000D02*
X170438349Y-105940000D01*
X169077349Y-98129000D02*
X169077349Y-106271000D01*
X171678349Y-99293000D02*
X171678349Y-105107000D01*
X169678349Y-103240000D02*
X169678349Y-106185000D01*
X171598349Y-99217000D02*
X171598349Y-105183000D01*
X171038349Y-103240000D02*
X171038349Y-105618000D01*
X170398349Y-98443000D02*
X170398349Y-101160000D01*
X170758349Y-103240000D02*
X170758349Y-105784000D01*
X171358349Y-99011000D02*
X171358349Y-101160000D01*
X169437349Y-98170000D02*
X169437349Y-106230000D01*
X169277349Y-98148000D02*
X169277349Y-106252000D01*
X172038349Y-99695000D02*
X172038349Y-104705000D01*
X169878349Y-103240000D02*
X169878349Y-106136000D01*
X171038349Y-98782000D02*
X171038349Y-101160000D01*
X170478349Y-103240000D02*
X170478349Y-105922000D01*
X169518349Y-103240000D02*
X169518349Y-106217000D01*
X170078349Y-98323000D02*
X170078349Y-101160000D01*
X169638349Y-103240000D02*
X169638349Y-106194000D01*
X169558349Y-98190000D02*
X169558349Y-101160000D01*
X172278349Y-100034000D02*
X172278349Y-104366000D01*
X170638349Y-103240000D02*
X170638349Y-105847000D01*
X170318349Y-103240000D02*
X170318349Y-105990000D01*
X170878349Y-98683000D02*
X170878349Y-101160000D01*
X170718349Y-98594000D02*
X170718349Y-101160000D01*
X169678349Y-98215000D02*
X169678349Y-101160000D01*
X171278349Y-98950000D02*
X171278349Y-101160000D01*
X171558349Y-103240000D02*
X171558349Y-105219000D01*
X169558349Y-103240000D02*
X169558349Y-106210000D01*
X170598349Y-103240000D02*
X170598349Y-105866000D01*
X172678349Y-100854000D02*
X172678349Y-103546000D01*
X169317349Y-98152000D02*
X169317349Y-106248000D01*
X169998349Y-98298000D02*
X169998349Y-101160000D01*
X172398349Y-100236000D02*
X172398349Y-104164000D01*
X171518349Y-103240000D02*
X171518349Y-105255000D01*
X169357349Y-98158000D02*
X169357349Y-106242000D01*
X169798349Y-103240000D02*
X169798349Y-106157000D01*
X171198349Y-103240000D02*
X171198349Y-105509000D01*
X171238349Y-103240000D02*
X171238349Y-105480000D01*
X168997349Y-98124000D02*
X168997349Y-106276000D01*
X171438349Y-99076000D02*
X171438349Y-101160000D01*
X170358349Y-103240000D02*
X170358349Y-105974000D01*
X164787651Y-99485000D02*
X164787651Y-100285000D01*
X171118349Y-98835000D02*
X171118349Y-101160000D01*
X172118349Y-99800000D02*
X172118349Y-104600000D01*
X170558349Y-103240000D02*
X170558349Y-105886000D01*
X171638349Y-99255000D02*
X171638349Y-105145000D01*
X170118349Y-98337000D02*
X170118349Y-101160000D01*
X170678349Y-98573000D02*
X170678349Y-101160000D01*
X171718349Y-99333000D02*
X171718349Y-105067000D01*
X170678349Y-103240000D02*
X170678349Y-105827000D01*
X169237349Y-98143000D02*
X169237349Y-106257000D01*
X171998349Y-99644000D02*
X171998349Y-104756000D01*
X169598349Y-98198000D02*
X169598349Y-101160000D01*
X169157349Y-98135000D02*
X169157349Y-106265000D01*
X170558349Y-98514000D02*
X170558349Y-101160000D01*
X170078349Y-103240000D02*
X170078349Y-106077000D01*
X170638349Y-98553000D02*
X170638349Y-101160000D01*
X170158349Y-103240000D02*
X170158349Y-106050000D01*
X170598349Y-98534000D02*
X170598349Y-101160000D01*
X172478349Y-100387000D02*
X172478349Y-104013000D01*
X170478349Y-98478000D02*
X170478349Y-101160000D01*
X170838349Y-98660000D02*
X170838349Y-101160000D01*
X169798349Y-98243000D02*
X169798349Y-101160000D01*
X168917349Y-98121000D02*
X168917349Y-106279000D01*
X169598349Y-103240000D02*
X169598349Y-106202000D01*
X171078349Y-103240000D02*
X171078349Y-105592000D01*
X170238349Y-103240000D02*
X170238349Y-106021000D01*
X169838349Y-98253000D02*
X169838349Y-101160000D01*
X169117349Y-98132000D02*
X169117349Y-106268000D01*
X170358349Y-98426000D02*
X170358349Y-101160000D01*
X171398349Y-99044000D02*
X171398349Y-101160000D01*
X172878349Y-101667000D02*
X172878349Y-102733000D01*
X170198349Y-98365000D02*
X170198349Y-101160000D01*
X169397349Y-98163000D02*
X169397349Y-106237000D01*
X172318349Y-100098000D02*
X172318349Y-104302000D01*
X169918349Y-103240000D02*
X169918349Y-106125000D01*
X170198349Y-103240000D02*
X170198349Y-106035000D01*
X171358349Y-103240000D02*
X171358349Y-105389000D01*
X170718349Y-103240000D02*
X170718349Y-105806000D01*
X169958349Y-103240000D02*
X169958349Y-106114000D01*
X171318349Y-103240000D02*
X171318349Y-105420000D01*
X170998349Y-98756000D02*
X170998349Y-101160000D01*
X170118349Y-103240000D02*
X170118349Y-106063000D01*
X170958349Y-98731000D02*
X170958349Y-101160000D01*
X170038349Y-98311000D02*
X170038349Y-101160000D01*
X172758349Y-101102000D02*
X172758349Y-103298000D01*
X168957349Y-98123000D02*
X168957349Y-106277000D01*
X170278349Y-98395000D02*
X170278349Y-101160000D01*
X171958349Y-99596000D02*
X171958349Y-104804000D01*
X171118349Y-103240000D02*
X171118349Y-105565000D01*
X170918349Y-98707000D02*
X170918349Y-101160000D01*
X169758349Y-103240000D02*
X169758349Y-106167000D01*
X170278349Y-103240000D02*
X170278349Y-106005000D01*
X169998349Y-103240000D02*
X169998349Y-106102000D01*
X169197349Y-98139000D02*
X169197349Y-106261000D01*
X171198349Y-98891000D02*
X171198349Y-101160000D01*
X172558349Y-100555000D02*
X172558349Y-103845000D01*
X172638349Y-100747000D02*
X172638349Y-103653000D01*
X169758349Y-98233000D02*
X169758349Y-101160000D01*
X168837349Y-98120000D02*
X168837349Y-106280000D01*
X169037349Y-98126000D02*
X169037349Y-106274000D01*
X170438349Y-98460000D02*
X170438349Y-101160000D01*
X169718349Y-103240000D02*
X169718349Y-106176000D01*
X169838349Y-103240000D02*
X169838349Y-106147000D01*
X172798349Y-101252000D02*
X172798349Y-103148000D01*
X170158349Y-98350000D02*
X170158349Y-101160000D01*
X172838349Y-101432000D02*
X172838349Y-102968000D01*
X171238349Y-98920000D02*
X171238349Y-101160000D01*
X171398349Y-103240000D02*
X171398349Y-105356000D01*
X169718349Y-98224000D02*
X169718349Y-101160000D01*
X170958349Y-103240000D02*
X170958349Y-105669000D01*
X172598349Y-100648000D02*
X172598349Y-103752000D01*
X170398349Y-103240000D02*
X170398349Y-105957000D01*
X170518349Y-98496000D02*
X170518349Y-101160000D01*
X171158349Y-98862000D02*
X171158349Y-101160000D01*
X171158349Y-103240000D02*
X171158349Y-105538000D01*
X170798349Y-98638000D02*
X170798349Y-101160000D01*
X171478349Y-103240000D02*
X171478349Y-105290000D01*
X172718349Y-100971000D02*
X172718349Y-103429000D01*
X164387651Y-99885000D02*
X165187651Y-99885000D01*
X171878349Y-99503000D02*
X171878349Y-104897000D01*
X170918349Y-103240000D02*
X170918349Y-105693000D01*
X171838349Y-99459000D02*
X171838349Y-104941000D01*
X172238349Y-99972000D02*
X172238349Y-104428000D01*
X171798349Y-99416000D02*
X171798349Y-104984000D01*
X169918349Y-98275000D02*
X169918349Y-101160000D01*
X171558349Y-99181000D02*
X171558349Y-101160000D01*
X172518349Y-100469000D02*
X172518349Y-103931000D01*
X172078349Y-99746000D02*
X172078349Y-104654000D01*
X170038349Y-103240000D02*
X170038349Y-106089000D01*
X171478349Y-99110000D02*
X171478349Y-101160000D01*
X172358349Y-100166000D02*
X172358349Y-104234000D01*
X170518349Y-103240000D02*
X170518349Y-105904000D01*
X169638349Y-98206000D02*
X169638349Y-101160000D01*
X171518349Y-99145000D02*
X171518349Y-101160000D01*
X171318349Y-98980000D02*
X171318349Y-101160000D01*
X171758349Y-99374000D02*
X171758349Y-105026000D01*
X170998349Y-103240000D02*
X170998349Y-105644000D01*
X171078349Y-98808000D02*
X171078349Y-101160000D01*
X170798349Y-103240000D02*
X170798349Y-105762000D01*
X169958349Y-98286000D02*
X169958349Y-101160000D01*
X170318349Y-98410000D02*
X170318349Y-101160000D01*
X172917349Y-102200000D02*
G75*
G03*
X172917349Y-102200000I-4120000J0D01*
G01*
%TO.C,D6*%
X133550000Y-97300000D02*
X133550000Y-91900000D01*
X136850000Y-97300000D02*
X136850000Y-91900000D01*
X133550000Y-97300000D02*
X136850000Y-97300000D01*
%TO.C,D2*%
X165145000Y-94245000D02*
X157845000Y-94245000D01*
X165145000Y-94245000D02*
X165145000Y-89945000D01*
X165145000Y-89945000D02*
X157845000Y-89945000D01*
%TO.C,Q4*%
X114390000Y-86612500D02*
X114390000Y-85962500D01*
X117510000Y-86612500D02*
X117510000Y-87262500D01*
X114390000Y-86612500D02*
X114390000Y-88287500D01*
X117510000Y-86612500D02*
X117510000Y-85962500D01*
%TO.C,R19*%
X119622936Y-87035000D02*
X120077064Y-87035000D01*
X119622936Y-85565000D02*
X120077064Y-85565000D01*
%TO.C,D7*%
X130850000Y-97300000D02*
X130850000Y-91900000D01*
X127550000Y-97300000D02*
X127550000Y-91900000D01*
X127550000Y-97300000D02*
X130850000Y-97300000D01*
%TO.C,D3*%
X157200000Y-98550000D02*
X151800000Y-98550000D01*
X157200000Y-101850000D02*
X151800000Y-101850000D01*
X157200000Y-101850000D02*
X157200000Y-98550000D01*
%TO.C,R9*%
X145472936Y-87035000D02*
X145927064Y-87035000D01*
X145472936Y-85565000D02*
X145927064Y-85565000D01*
%TO.C,R6*%
X175935000Y-91027064D02*
X175935000Y-90572936D01*
X174465000Y-91027064D02*
X174465000Y-90572936D01*
%TO.C,J2*%
X167985100Y-77812200D02*
X167985100Y-79548426D01*
X177814900Y-83576026D02*
X177814900Y-81513174D01*
X167985100Y-81513174D02*
X167985100Y-83576026D01*
X177814900Y-77812200D02*
X167985100Y-77812200D01*
X177814900Y-79548426D02*
X177814900Y-77812200D01*
%TO.C,R21*%
X111122936Y-85565000D02*
X111577064Y-85565000D01*
X111122936Y-87035000D02*
X111577064Y-87035000D01*
%TO.C,Q2*%
X134860000Y-86612500D02*
X134860000Y-85962500D01*
X131740000Y-86612500D02*
X131740000Y-88287500D01*
X131740000Y-86612500D02*
X131740000Y-85962500D01*
X134860000Y-86612500D02*
X134860000Y-87262500D01*
%TD*%
M02*
