%TF.GenerationSoftware,KiCad,Pcbnew,(6.0.10)*%
%TF.CreationDate,2022-12-24T21:30:53-06:00*%
%TF.ProjectId,better-klipper-expander,62657474-6572-42d6-9b6c-69707065722d,V1*%
%TF.SameCoordinates,Original*%
%TF.FileFunction,Legend,Top*%
%TF.FilePolarity,Positive*%
%FSLAX46Y46*%
G04 Gerber Fmt 4.6, Leading zero omitted, Abs format (unit mm)*
G04 Created by KiCad (PCBNEW (6.0.10)) date 2022-12-24 21:30:53*
%MOMM*%
%LPD*%
G01*
G04 APERTURE LIST*
%ADD10C,0.120000*%
%TA.AperFunction,Profile*%
%ADD11C,0.050000*%
%TD*%
%ADD12C,0.250000*%
%ADD13C,0.200000*%
%ADD14C,0.450000*%
%ADD15C,0.127000*%
%ADD16C,0.010000*%
%ADD17C,0.100000*%
G04 APERTURE END LIST*
D10*
X192300000Y-81495000D02*
G75*
G03*
X192300000Y-81495000I-3250000J0D01*
G01*
X95295000Y-81495000D02*
G75*
G03*
X95295000Y-81495000I-3250000J0D01*
G01*
D11*
X88045000Y-77495000D02*
X88045000Y-107495000D01*
X193045000Y-77500000D02*
X88045000Y-77495000D01*
X88045000Y-107495000D02*
X193045000Y-107495000D01*
X193045000Y-107495000D02*
X193045000Y-77495000D01*
D12*
X134314285Y-84828571D02*
X133980952Y-84828571D01*
X133980952Y-85352380D02*
X133980952Y-84352380D01*
X134457142Y-84352380D01*
X134790476Y-85066666D02*
X135266666Y-85066666D01*
X134695238Y-85352380D02*
X135028571Y-84352380D01*
X135361904Y-85352380D01*
X135695238Y-85352380D02*
X135695238Y-84352380D01*
X136266666Y-85352380D01*
X136266666Y-84352380D01*
X137266666Y-85352380D02*
X136695238Y-85352380D01*
X136980952Y-85352380D02*
X136980952Y-84352380D01*
X136885714Y-84495238D01*
X136790476Y-84590476D01*
X136695238Y-84638095D01*
X100014285Y-84828571D02*
X99680952Y-84828571D01*
X99680952Y-85352380D02*
X99680952Y-84352380D01*
X100157142Y-84352380D01*
X100490476Y-85066666D02*
X100966666Y-85066666D01*
X100395238Y-85352380D02*
X100728571Y-84352380D01*
X101061904Y-85352380D01*
X101395238Y-85352380D02*
X101395238Y-84352380D01*
X101966666Y-85352380D01*
X101966666Y-84352380D01*
X102919047Y-84352380D02*
X102442857Y-84352380D01*
X102395238Y-84828571D01*
X102442857Y-84780952D01*
X102538095Y-84733333D01*
X102776190Y-84733333D01*
X102871428Y-84780952D01*
X102919047Y-84828571D01*
X102966666Y-84923809D01*
X102966666Y-85161904D01*
X102919047Y-85257142D01*
X102871428Y-85304761D01*
X102776190Y-85352380D01*
X102538095Y-85352380D01*
X102442857Y-85304761D01*
X102395238Y-85257142D01*
X125514285Y-84828571D02*
X125180952Y-84828571D01*
X125180952Y-85352380D02*
X125180952Y-84352380D01*
X125657142Y-84352380D01*
X125990476Y-85066666D02*
X126466666Y-85066666D01*
X125895238Y-85352380D02*
X126228571Y-84352380D01*
X126561904Y-85352380D01*
X126895238Y-85352380D02*
X126895238Y-84352380D01*
X127466666Y-85352380D01*
X127466666Y-84352380D01*
X127895238Y-84447619D02*
X127942857Y-84400000D01*
X128038095Y-84352380D01*
X128276190Y-84352380D01*
X128371428Y-84400000D01*
X128419047Y-84447619D01*
X128466666Y-84542857D01*
X128466666Y-84638095D01*
X128419047Y-84780952D01*
X127847619Y-85352380D01*
X128466666Y-85352380D01*
X108414285Y-84828571D02*
X108080952Y-84828571D01*
X108080952Y-85352380D02*
X108080952Y-84352380D01*
X108557142Y-84352380D01*
X108890476Y-85066666D02*
X109366666Y-85066666D01*
X108795238Y-85352380D02*
X109128571Y-84352380D01*
X109461904Y-85352380D01*
X109795238Y-85352380D02*
X109795238Y-84352380D01*
X110366666Y-85352380D01*
X110366666Y-84352380D01*
X111271428Y-84685714D02*
X111271428Y-85352380D01*
X111033333Y-84304761D02*
X110795238Y-85019047D01*
X111414285Y-85019047D01*
D13*
X91766428Y-92761904D02*
X92223571Y-92761904D01*
X91995000Y-93561904D02*
X91995000Y-92761904D01*
X92490238Y-93561904D02*
X92490238Y-92761904D01*
X92490238Y-93142857D02*
X92947380Y-93142857D01*
X92947380Y-93561904D02*
X92947380Y-92761904D01*
X93480714Y-92761904D02*
X93556904Y-92761904D01*
X93633095Y-92800000D01*
X93671190Y-92838095D01*
X93709285Y-92914285D01*
X93747380Y-93066666D01*
X93747380Y-93257142D01*
X93709285Y-93409523D01*
X93671190Y-93485714D01*
X93633095Y-93523809D01*
X93556904Y-93561904D01*
X93480714Y-93561904D01*
X93404523Y-93523809D01*
X93366428Y-93485714D01*
X93328333Y-93409523D01*
X93290238Y-93257142D01*
X93290238Y-93066666D01*
X93328333Y-92914285D01*
X93366428Y-92838095D01*
X93404523Y-92800000D01*
X93480714Y-92761904D01*
D12*
X116914285Y-84828571D02*
X116580952Y-84828571D01*
X116580952Y-85352380D02*
X116580952Y-84352380D01*
X117057142Y-84352380D01*
X117390476Y-85066666D02*
X117866666Y-85066666D01*
X117295238Y-85352380D02*
X117628571Y-84352380D01*
X117961904Y-85352380D01*
X118295238Y-85352380D02*
X118295238Y-84352380D01*
X118866666Y-85352380D01*
X118866666Y-84352380D01*
X119247619Y-84352380D02*
X119866666Y-84352380D01*
X119533333Y-84733333D01*
X119676190Y-84733333D01*
X119771428Y-84780952D01*
X119819047Y-84828571D01*
X119866666Y-84923809D01*
X119866666Y-85161904D01*
X119819047Y-85257142D01*
X119771428Y-85304761D01*
X119676190Y-85352380D01*
X119390476Y-85352380D01*
X119295238Y-85304761D01*
X119247619Y-85257142D01*
X152522619Y-106752380D02*
X152522619Y-105752380D01*
X153094047Y-106752380D01*
X153094047Y-105752380D01*
X153951190Y-106704761D02*
X153855952Y-106752380D01*
X153665476Y-106752380D01*
X153570238Y-106704761D01*
X153522619Y-106609523D01*
X153522619Y-106228571D01*
X153570238Y-106133333D01*
X153665476Y-106085714D01*
X153855952Y-106085714D01*
X153951190Y-106133333D01*
X153998809Y-106228571D01*
X153998809Y-106323809D01*
X153522619Y-106419047D01*
X154570238Y-106752380D02*
X154475000Y-106704761D01*
X154427380Y-106657142D01*
X154379761Y-106561904D01*
X154379761Y-106276190D01*
X154427380Y-106180952D01*
X154475000Y-106133333D01*
X154570238Y-106085714D01*
X154713095Y-106085714D01*
X154808333Y-106133333D01*
X154855952Y-106180952D01*
X154903571Y-106276190D01*
X154903571Y-106561904D01*
X154855952Y-106657142D01*
X154808333Y-106704761D01*
X154713095Y-106752380D01*
X154570238Y-106752380D01*
X155332142Y-106085714D02*
X155332142Y-107085714D01*
X155332142Y-106133333D02*
X155427380Y-106085714D01*
X155617857Y-106085714D01*
X155713095Y-106133333D01*
X155760714Y-106180952D01*
X155808333Y-106276190D01*
X155808333Y-106561904D01*
X155760714Y-106657142D01*
X155713095Y-106704761D01*
X155617857Y-106752380D01*
X155427380Y-106752380D01*
X155332142Y-106704761D01*
X156236904Y-106752380D02*
X156236904Y-106085714D01*
X156236904Y-105752380D02*
X156189285Y-105800000D01*
X156236904Y-105847619D01*
X156284523Y-105800000D01*
X156236904Y-105752380D01*
X156236904Y-105847619D01*
X156617857Y-106752380D02*
X157141666Y-106085714D01*
X156617857Y-106085714D02*
X157141666Y-106752380D01*
X157903571Y-106704761D02*
X157808333Y-106752380D01*
X157617857Y-106752380D01*
X157522619Y-106704761D01*
X157475000Y-106609523D01*
X157475000Y-106228571D01*
X157522619Y-106133333D01*
X157617857Y-106085714D01*
X157808333Y-106085714D01*
X157903571Y-106133333D01*
X157951190Y-106228571D01*
X157951190Y-106323809D01*
X157475000Y-106419047D01*
X158522619Y-106752380D02*
X158427380Y-106704761D01*
X158379761Y-106609523D01*
X158379761Y-105752380D01*
D13*
X91766428Y-85461904D02*
X92223571Y-85461904D01*
X91995000Y-86261904D02*
X91995000Y-85461904D01*
X92490238Y-86261904D02*
X92490238Y-85461904D01*
X92490238Y-85842857D02*
X92947380Y-85842857D01*
X92947380Y-86261904D02*
X92947380Y-85461904D01*
X93747380Y-86261904D02*
X93290238Y-86261904D01*
X93518809Y-86261904D02*
X93518809Y-85461904D01*
X93442619Y-85576190D01*
X93366428Y-85652380D01*
X93290238Y-85690476D01*
X98861904Y-100461904D02*
X98861904Y-99661904D01*
X99166666Y-99661904D01*
X99242857Y-99700000D01*
X99280952Y-99738095D01*
X99319047Y-99814285D01*
X99319047Y-99928571D01*
X99280952Y-100004761D01*
X99242857Y-100042857D01*
X99166666Y-100080952D01*
X98861904Y-100080952D01*
X99547619Y-99661904D02*
X100004761Y-99661904D01*
X99776190Y-100461904D02*
X99776190Y-99661904D01*
X100690476Y-100461904D02*
X100233333Y-100461904D01*
X100461904Y-100461904D02*
X100461904Y-99661904D01*
X100385714Y-99776190D01*
X100309523Y-99852380D01*
X100233333Y-99890476D01*
X101185714Y-99661904D02*
X101261904Y-99661904D01*
X101338095Y-99700000D01*
X101376190Y-99738095D01*
X101414285Y-99814285D01*
X101452380Y-99966666D01*
X101452380Y-100157142D01*
X101414285Y-100309523D01*
X101376190Y-100385714D01*
X101338095Y-100423809D01*
X101261904Y-100461904D01*
X101185714Y-100461904D01*
X101109523Y-100423809D01*
X101071428Y-100385714D01*
X101033333Y-100309523D01*
X100995238Y-100157142D01*
X100995238Y-99966666D01*
X101033333Y-99814285D01*
X101071428Y-99738095D01*
X101109523Y-99700000D01*
X101185714Y-99661904D01*
X101947619Y-99661904D02*
X102023809Y-99661904D01*
X102100000Y-99700000D01*
X102138095Y-99738095D01*
X102176190Y-99814285D01*
X102214285Y-99966666D01*
X102214285Y-100157142D01*
X102176190Y-100309523D01*
X102138095Y-100385714D01*
X102100000Y-100423809D01*
X102023809Y-100461904D01*
X101947619Y-100461904D01*
X101871428Y-100423809D01*
X101833333Y-100385714D01*
X101795238Y-100309523D01*
X101757142Y-100157142D01*
X101757142Y-99966666D01*
X101795238Y-99814285D01*
X101833333Y-99738095D01*
X101871428Y-99700000D01*
X101947619Y-99661904D01*
X102709523Y-99661904D02*
X102785714Y-99661904D01*
X102861904Y-99700000D01*
X102900000Y-99738095D01*
X102938095Y-99814285D01*
X102976190Y-99966666D01*
X102976190Y-100157142D01*
X102938095Y-100309523D01*
X102900000Y-100385714D01*
X102861904Y-100423809D01*
X102785714Y-100461904D01*
X102709523Y-100461904D01*
X102633333Y-100423809D01*
X102595238Y-100385714D01*
X102557142Y-100309523D01*
X102519047Y-100157142D01*
X102519047Y-99966666D01*
X102557142Y-99814285D01*
X102595238Y-99738095D01*
X102633333Y-99700000D01*
X102709523Y-99661904D01*
D14*
X121704761Y-101447142D02*
X121990476Y-101542380D01*
X122085714Y-101637619D01*
X122180952Y-101828095D01*
X122180952Y-102113809D01*
X122085714Y-102304285D01*
X121990476Y-102399523D01*
X121800000Y-102494761D01*
X121038095Y-102494761D01*
X121038095Y-100494761D01*
X121704761Y-100494761D01*
X121895238Y-100590000D01*
X121990476Y-100685238D01*
X122085714Y-100875714D01*
X122085714Y-101066190D01*
X121990476Y-101256666D01*
X121895238Y-101351904D01*
X121704761Y-101447142D01*
X121038095Y-101447142D01*
X123800000Y-102399523D02*
X123609523Y-102494761D01*
X123228571Y-102494761D01*
X123038095Y-102399523D01*
X122942857Y-102209047D01*
X122942857Y-101447142D01*
X123038095Y-101256666D01*
X123228571Y-101161428D01*
X123609523Y-101161428D01*
X123800000Y-101256666D01*
X123895238Y-101447142D01*
X123895238Y-101637619D01*
X122942857Y-101828095D01*
X124466666Y-101161428D02*
X125228571Y-101161428D01*
X124752380Y-100494761D02*
X124752380Y-102209047D01*
X124847619Y-102399523D01*
X125038095Y-102494761D01*
X125228571Y-102494761D01*
X125609523Y-101161428D02*
X126371428Y-101161428D01*
X125895238Y-100494761D02*
X125895238Y-102209047D01*
X125990476Y-102399523D01*
X126180952Y-102494761D01*
X126371428Y-102494761D01*
X127800000Y-102399523D02*
X127609523Y-102494761D01*
X127228571Y-102494761D01*
X127038095Y-102399523D01*
X126942857Y-102209047D01*
X126942857Y-101447142D01*
X127038095Y-101256666D01*
X127228571Y-101161428D01*
X127609523Y-101161428D01*
X127800000Y-101256666D01*
X127895238Y-101447142D01*
X127895238Y-101637619D01*
X126942857Y-101828095D01*
X128752380Y-102494761D02*
X128752380Y-101161428D01*
X128752380Y-101542380D02*
X128847619Y-101351904D01*
X128942857Y-101256666D01*
X129133333Y-101161428D01*
X129323809Y-101161428D01*
X110847619Y-105714761D02*
X110847619Y-103714761D01*
X111990476Y-105714761D02*
X111133333Y-104571904D01*
X111990476Y-103714761D02*
X110847619Y-104857619D01*
X113133333Y-105714761D02*
X112942857Y-105619523D01*
X112847619Y-105429047D01*
X112847619Y-103714761D01*
X113895238Y-105714761D02*
X113895238Y-104381428D01*
X113895238Y-103714761D02*
X113800000Y-103810000D01*
X113895238Y-103905238D01*
X113990476Y-103810000D01*
X113895238Y-103714761D01*
X113895238Y-103905238D01*
X114847619Y-104381428D02*
X114847619Y-106381428D01*
X114847619Y-104476666D02*
X115038095Y-104381428D01*
X115419047Y-104381428D01*
X115609523Y-104476666D01*
X115704761Y-104571904D01*
X115800000Y-104762380D01*
X115800000Y-105333809D01*
X115704761Y-105524285D01*
X115609523Y-105619523D01*
X115419047Y-105714761D01*
X115038095Y-105714761D01*
X114847619Y-105619523D01*
X116657142Y-104381428D02*
X116657142Y-106381428D01*
X116657142Y-104476666D02*
X116847619Y-104381428D01*
X117228571Y-104381428D01*
X117419047Y-104476666D01*
X117514285Y-104571904D01*
X117609523Y-104762380D01*
X117609523Y-105333809D01*
X117514285Y-105524285D01*
X117419047Y-105619523D01*
X117228571Y-105714761D01*
X116847619Y-105714761D01*
X116657142Y-105619523D01*
X119228571Y-105619523D02*
X119038095Y-105714761D01*
X118657142Y-105714761D01*
X118466666Y-105619523D01*
X118371428Y-105429047D01*
X118371428Y-104667142D01*
X118466666Y-104476666D01*
X118657142Y-104381428D01*
X119038095Y-104381428D01*
X119228571Y-104476666D01*
X119323809Y-104667142D01*
X119323809Y-104857619D01*
X118371428Y-105048095D01*
X120180952Y-105714761D02*
X120180952Y-104381428D01*
X120180952Y-104762380D02*
X120276190Y-104571904D01*
X120371428Y-104476666D01*
X120561904Y-104381428D01*
X120752380Y-104381428D01*
X122942857Y-104667142D02*
X123609523Y-104667142D01*
X123895238Y-105714761D02*
X122942857Y-105714761D01*
X122942857Y-103714761D01*
X123895238Y-103714761D01*
X124561904Y-105714761D02*
X125609523Y-104381428D01*
X124561904Y-104381428D02*
X125609523Y-105714761D01*
X126371428Y-104381428D02*
X126371428Y-106381428D01*
X126371428Y-104476666D02*
X126561904Y-104381428D01*
X126942857Y-104381428D01*
X127133333Y-104476666D01*
X127228571Y-104571904D01*
X127323809Y-104762380D01*
X127323809Y-105333809D01*
X127228571Y-105524285D01*
X127133333Y-105619523D01*
X126942857Y-105714761D01*
X126561904Y-105714761D01*
X126371428Y-105619523D01*
X129038095Y-105714761D02*
X129038095Y-104667142D01*
X128942857Y-104476666D01*
X128752380Y-104381428D01*
X128371428Y-104381428D01*
X128180952Y-104476666D01*
X129038095Y-105619523D02*
X128847619Y-105714761D01*
X128371428Y-105714761D01*
X128180952Y-105619523D01*
X128085714Y-105429047D01*
X128085714Y-105238571D01*
X128180952Y-105048095D01*
X128371428Y-104952857D01*
X128847619Y-104952857D01*
X129038095Y-104857619D01*
X129990476Y-104381428D02*
X129990476Y-105714761D01*
X129990476Y-104571904D02*
X130085714Y-104476666D01*
X130276190Y-104381428D01*
X130561904Y-104381428D01*
X130752380Y-104476666D01*
X130847619Y-104667142D01*
X130847619Y-105714761D01*
X132657142Y-105714761D02*
X132657142Y-103714761D01*
X132657142Y-105619523D02*
X132466666Y-105714761D01*
X132085714Y-105714761D01*
X131895238Y-105619523D01*
X131800000Y-105524285D01*
X131704761Y-105333809D01*
X131704761Y-104762380D01*
X131800000Y-104571904D01*
X131895238Y-104476666D01*
X132085714Y-104381428D01*
X132466666Y-104381428D01*
X132657142Y-104476666D01*
X134371428Y-105619523D02*
X134180952Y-105714761D01*
X133800000Y-105714761D01*
X133609523Y-105619523D01*
X133514285Y-105429047D01*
X133514285Y-104667142D01*
X133609523Y-104476666D01*
X133800000Y-104381428D01*
X134180952Y-104381428D01*
X134371428Y-104476666D01*
X134466666Y-104667142D01*
X134466666Y-104857619D01*
X133514285Y-105048095D01*
X135323809Y-105714761D02*
X135323809Y-104381428D01*
X135323809Y-104762380D02*
X135419047Y-104571904D01*
X135514285Y-104476666D01*
X135704761Y-104381428D01*
X135895238Y-104381428D01*
X137800000Y-103714761D02*
X138466666Y-105714761D01*
X139133333Y-103714761D01*
X140847619Y-105714761D02*
X139704761Y-105714761D01*
X140276190Y-105714761D02*
X140276190Y-103714761D01*
X140085714Y-104000476D01*
X139895238Y-104190952D01*
X139704761Y-104286190D01*
D12*
X157464047Y-78187857D02*
X158454523Y-78187857D01*
X157959285Y-78683095D02*
X157959285Y-77692619D01*
X163035476Y-78187857D02*
X164025952Y-78187857D01*
X142814285Y-84828571D02*
X142480952Y-84828571D01*
X142480952Y-85352380D02*
X142480952Y-84352380D01*
X142957142Y-84352380D01*
X143290476Y-85066666D02*
X143766666Y-85066666D01*
X143195238Y-85352380D02*
X143528571Y-84352380D01*
X143861904Y-85352380D01*
X144195238Y-85352380D02*
X144195238Y-84352380D01*
X144766666Y-85352380D01*
X144766666Y-84352380D01*
X145433333Y-84352380D02*
X145528571Y-84352380D01*
X145623809Y-84400000D01*
X145671428Y-84447619D01*
X145719047Y-84542857D01*
X145766666Y-84733333D01*
X145766666Y-84971428D01*
X145719047Y-85161904D01*
X145671428Y-85257142D01*
X145623809Y-85304761D01*
X145528571Y-85352380D01*
X145433333Y-85352380D01*
X145338095Y-85304761D01*
X145290476Y-85257142D01*
X145242857Y-85161904D01*
X145195238Y-84971428D01*
X145195238Y-84733333D01*
X145242857Y-84542857D01*
X145290476Y-84447619D01*
X145338095Y-84400000D01*
X145433333Y-84352380D01*
X185830952Y-101678571D02*
X185973809Y-101726190D01*
X186021428Y-101773809D01*
X186069047Y-101869047D01*
X186069047Y-102011904D01*
X186021428Y-102107142D01*
X185973809Y-102154761D01*
X185878571Y-102202380D01*
X185497619Y-102202380D01*
X185497619Y-101202380D01*
X185830952Y-101202380D01*
X185926190Y-101250000D01*
X185973809Y-101297619D01*
X186021428Y-101392857D01*
X186021428Y-101488095D01*
X185973809Y-101583333D01*
X185926190Y-101630952D01*
X185830952Y-101678571D01*
X185497619Y-101678571D01*
X186640476Y-102202380D02*
X186545238Y-102154761D01*
X186497619Y-102107142D01*
X186450000Y-102011904D01*
X186450000Y-101726190D01*
X186497619Y-101630952D01*
X186545238Y-101583333D01*
X186640476Y-101535714D01*
X186783333Y-101535714D01*
X186878571Y-101583333D01*
X186926190Y-101630952D01*
X186973809Y-101726190D01*
X186973809Y-102011904D01*
X186926190Y-102107142D01*
X186878571Y-102154761D01*
X186783333Y-102202380D01*
X186640476Y-102202380D01*
X187545238Y-102202380D02*
X187450000Y-102154761D01*
X187402380Y-102107142D01*
X187354761Y-102011904D01*
X187354761Y-101726190D01*
X187402380Y-101630952D01*
X187450000Y-101583333D01*
X187545238Y-101535714D01*
X187688095Y-101535714D01*
X187783333Y-101583333D01*
X187830952Y-101630952D01*
X187878571Y-101726190D01*
X187878571Y-102011904D01*
X187830952Y-102107142D01*
X187783333Y-102154761D01*
X187688095Y-102202380D01*
X187545238Y-102202380D01*
X188164285Y-101535714D02*
X188545238Y-101535714D01*
X188307142Y-101202380D02*
X188307142Y-102059523D01*
X188354761Y-102154761D01*
X188450000Y-102202380D01*
X188545238Y-102202380D01*
D15*
%TO.C,D11*%
X104760000Y-92837500D02*
X104120000Y-92837500D01*
X102480000Y-92837500D02*
X101840000Y-92837500D01*
X101840000Y-92837500D02*
X101840000Y-93567500D01*
X104760000Y-93567500D02*
X104760000Y-92837500D01*
D13*
X102450000Y-95987500D02*
G75*
G03*
X102450000Y-95987500I-100000J0D01*
G01*
D15*
%TO.C,D4*%
X105572500Y-102550000D02*
X104932500Y-102550000D01*
X103292500Y-102550000D02*
X102652500Y-102550000D01*
X102652500Y-102550000D02*
X102652500Y-103280000D01*
X105572500Y-103280000D02*
X105572500Y-102550000D01*
D13*
X103262500Y-105700000D02*
G75*
G03*
X103262500Y-105700000I-100000J0D01*
G01*
D10*
%TO.C,R8*%
X145472936Y-89497500D02*
X145927064Y-89497500D01*
X145472936Y-88027500D02*
X145927064Y-88027500D01*
%TO.C,J8*%
X107800000Y-78875000D02*
X107800000Y-78125000D01*
X107800000Y-78125000D02*
X106000000Y-78125000D01*
X106000000Y-80375000D02*
X106750000Y-80375000D01*
X106750000Y-83325000D02*
X109800000Y-83325000D01*
X112850000Y-80375000D02*
X112850000Y-83325000D01*
X113610000Y-78115000D02*
X105990000Y-78115000D01*
X113600000Y-78875000D02*
X113600000Y-78125000D01*
X106000000Y-78875000D02*
X107800000Y-78875000D01*
X111800000Y-78875000D02*
X113600000Y-78875000D01*
X110300000Y-78875000D02*
X110300000Y-78125000D01*
X113610000Y-84085000D02*
X113610000Y-78115000D01*
X110300000Y-78125000D02*
X109300000Y-78125000D01*
X106000000Y-78125000D02*
X106000000Y-78875000D01*
X106750000Y-80375000D02*
X106750000Y-83325000D01*
X112850000Y-83325000D02*
X109800000Y-83325000D01*
X109300000Y-78875000D02*
X110300000Y-78875000D01*
X105990000Y-78115000D02*
X105990000Y-84085000D01*
X113600000Y-80375000D02*
X112850000Y-80375000D01*
X106950000Y-77825000D02*
X105700000Y-77825000D01*
X109300000Y-78125000D02*
X109300000Y-78875000D01*
X105990000Y-84085000D02*
X113610000Y-84085000D01*
X113600000Y-78125000D02*
X111800000Y-78125000D01*
X105700000Y-77825000D02*
X105700000Y-79075000D01*
X111800000Y-78125000D02*
X111800000Y-78875000D01*
%TO.C,D1*%
X157200000Y-98150000D02*
X157200000Y-94850000D01*
X157200000Y-98150000D02*
X151800000Y-98150000D01*
X157200000Y-94850000D02*
X151800000Y-94850000D01*
%TO.C,C1*%
X159135000Y-96338748D02*
X159135000Y-96861252D01*
X157665000Y-96338748D02*
X157665000Y-96861252D01*
%TO.C,D8*%
X121550000Y-97300000D02*
X121550000Y-91900000D01*
X121550000Y-97300000D02*
X124850000Y-97300000D01*
X124850000Y-97300000D02*
X124850000Y-91900000D01*
%TO.C,R12*%
X128222936Y-88027500D02*
X128677064Y-88027500D01*
X128222936Y-89497500D02*
X128677064Y-89497500D01*
%TO.C,R25*%
X99627064Y-92822500D02*
X99172936Y-92822500D01*
X99627064Y-91352500D02*
X99172936Y-91352500D01*
%TO.C,C23*%
X107461252Y-94052500D02*
X106938748Y-94052500D01*
X107461252Y-95522500D02*
X106938748Y-95522500D01*
%TO.C,C11*%
X190188748Y-95135000D02*
X190711252Y-95135000D01*
X190188748Y-93665000D02*
X190711252Y-93665000D01*
%TO.C,C18*%
X180161252Y-99535000D02*
X179638748Y-99535000D01*
X180161252Y-98065000D02*
X179638748Y-98065000D01*
%TO.C,U4*%
X185922500Y-89990000D02*
X186572500Y-89990000D01*
X186572500Y-89990000D02*
X186572500Y-90640000D01*
X179352500Y-97210000D02*
X179352500Y-96560000D01*
X186572500Y-97210000D02*
X186572500Y-96560000D01*
X185922500Y-97210000D02*
X186572500Y-97210000D01*
X180002500Y-89990000D02*
X179352500Y-89990000D01*
X180002500Y-97210000D02*
X179352500Y-97210000D01*
%TO.C,R14*%
X108239564Y-102685000D02*
X107785436Y-102685000D01*
X108239564Y-101215000D02*
X107785436Y-101215000D01*
%TO.C,JP2*%
X100595000Y-99330000D02*
X103195000Y-99330000D01*
X100595000Y-96670000D02*
X103195000Y-96670000D01*
X103195000Y-99330000D02*
X103195000Y-96670000D01*
X100595000Y-99330000D02*
X100595000Y-96670000D01*
X97995000Y-99330000D02*
X97995000Y-98000000D01*
X99325000Y-99330000D02*
X97995000Y-99330000D01*
%TO.C,D9*%
X115550000Y-97300000D02*
X115550000Y-91900000D01*
X118850000Y-97300000D02*
X118850000Y-91900000D01*
X115550000Y-97300000D02*
X118850000Y-97300000D01*
%TO.C,R13*%
X128222936Y-87035000D02*
X128677064Y-87035000D01*
X128222936Y-85565000D02*
X128677064Y-85565000D01*
%TO.C,J5*%
X127100000Y-78125000D02*
X126100000Y-78125000D01*
X123550000Y-80375000D02*
X123550000Y-83325000D01*
X128600000Y-78125000D02*
X128600000Y-78875000D01*
X123550000Y-83325000D02*
X126600000Y-83325000D01*
X130410000Y-84085000D02*
X130410000Y-78115000D01*
X122800000Y-78125000D02*
X122800000Y-78875000D01*
X122800000Y-78875000D02*
X124600000Y-78875000D01*
X123750000Y-77825000D02*
X122500000Y-77825000D01*
X129650000Y-80375000D02*
X129650000Y-83325000D01*
X130400000Y-78125000D02*
X128600000Y-78125000D01*
X124600000Y-78125000D02*
X122800000Y-78125000D01*
X122500000Y-77825000D02*
X122500000Y-79075000D01*
X129650000Y-83325000D02*
X126600000Y-83325000D01*
X122800000Y-80375000D02*
X123550000Y-80375000D01*
X122790000Y-84085000D02*
X130410000Y-84085000D01*
X124600000Y-78875000D02*
X124600000Y-78125000D01*
X127100000Y-78875000D02*
X127100000Y-78125000D01*
X130410000Y-78115000D02*
X122790000Y-78115000D01*
X126100000Y-78125000D02*
X126100000Y-78875000D01*
X128600000Y-78875000D02*
X130400000Y-78875000D01*
X122790000Y-78115000D02*
X122790000Y-84085000D01*
X130400000Y-78875000D02*
X130400000Y-78125000D01*
X130400000Y-80375000D02*
X129650000Y-80375000D01*
X126100000Y-78875000D02*
X127100000Y-78875000D01*
%TO.C,C10*%
X190188748Y-92735000D02*
X190711252Y-92735000D01*
X190188748Y-91265000D02*
X190711252Y-91265000D01*
%TO.C,R4*%
X177172936Y-88335000D02*
X177627064Y-88335000D01*
X177172936Y-86865000D02*
X177627064Y-86865000D01*
%TO.C,R11*%
X136972936Y-85565000D02*
X137427064Y-85565000D01*
X136972936Y-87035000D02*
X137427064Y-87035000D01*
%TO.C,C9*%
X173138748Y-97535000D02*
X173661252Y-97535000D01*
X173138748Y-96065000D02*
X173661252Y-96065000D01*
%TO.C,D5*%
X139550000Y-97300000D02*
X139550000Y-91900000D01*
X142850000Y-97300000D02*
X142850000Y-91900000D01*
X139550000Y-97300000D02*
X142850000Y-97300000D01*
%TO.C,J9*%
X99400000Y-78875000D02*
X99400000Y-78125000D01*
X97600000Y-78125000D02*
X97600000Y-78875000D01*
X101900000Y-78125000D02*
X100900000Y-78125000D01*
X105200000Y-78875000D02*
X105200000Y-78125000D01*
X98350000Y-80375000D02*
X98350000Y-83325000D01*
X97300000Y-77825000D02*
X97300000Y-79075000D01*
X105210000Y-78115000D02*
X97590000Y-78115000D01*
X97590000Y-78115000D02*
X97590000Y-84085000D01*
X104450000Y-83325000D02*
X101400000Y-83325000D01*
X98350000Y-83325000D02*
X101400000Y-83325000D01*
X104450000Y-80375000D02*
X104450000Y-83325000D01*
X105200000Y-80375000D02*
X104450000Y-80375000D01*
X97600000Y-80375000D02*
X98350000Y-80375000D01*
X97600000Y-78875000D02*
X99400000Y-78875000D01*
X105200000Y-78125000D02*
X103400000Y-78125000D01*
X100900000Y-78125000D02*
X100900000Y-78875000D01*
X97590000Y-84085000D02*
X105210000Y-84085000D01*
X98550000Y-77825000D02*
X97300000Y-77825000D01*
X103400000Y-78875000D02*
X105200000Y-78875000D01*
X100900000Y-78875000D02*
X101900000Y-78875000D01*
X103400000Y-78125000D02*
X103400000Y-78875000D01*
X105210000Y-84085000D02*
X105210000Y-78115000D01*
X101900000Y-78875000D02*
X101900000Y-78125000D01*
X99400000Y-78125000D02*
X97600000Y-78125000D01*
%TO.C,R22*%
X102672936Y-89497500D02*
X103127064Y-89497500D01*
X102672936Y-88027500D02*
X103127064Y-88027500D01*
%TO.C,R17*%
X103965000Y-98972936D02*
X103965000Y-99427064D01*
X105435000Y-98972936D02*
X105435000Y-99427064D01*
%TO.C,C2*%
X161335000Y-96338748D02*
X161335000Y-96861252D01*
X159865000Y-96338748D02*
X159865000Y-96861252D01*
%TO.C,C16*%
X189538748Y-88865000D02*
X190061252Y-88865000D01*
X189538748Y-90335000D02*
X190061252Y-90335000D01*
%TO.C,C20*%
X180161252Y-100065000D02*
X179638748Y-100065000D01*
X180161252Y-101535000D02*
X179638748Y-101535000D01*
%TO.C,R24*%
X107427064Y-91352500D02*
X106972936Y-91352500D01*
X107427064Y-92822500D02*
X106972936Y-92822500D01*
%TO.C,R26*%
X99172936Y-94052500D02*
X99627064Y-94052500D01*
X99172936Y-95522500D02*
X99627064Y-95522500D01*
%TO.C,J3*%
X141450000Y-78125000D02*
X139650000Y-78125000D01*
X139640000Y-78115000D02*
X139640000Y-84085000D01*
X145450000Y-78875000D02*
X147250000Y-78875000D01*
X142950000Y-78125000D02*
X142950000Y-78875000D01*
X147260000Y-84085000D02*
X147260000Y-78115000D01*
X145450000Y-78125000D02*
X145450000Y-78875000D01*
X143950000Y-78875000D02*
X143950000Y-78125000D01*
X139650000Y-78875000D02*
X141450000Y-78875000D01*
X140400000Y-83325000D02*
X143450000Y-83325000D01*
X139640000Y-84085000D02*
X147260000Y-84085000D01*
X140600000Y-77825000D02*
X139350000Y-77825000D01*
X147250000Y-80375000D02*
X146500000Y-80375000D01*
X142950000Y-78875000D02*
X143950000Y-78875000D01*
X146500000Y-80375000D02*
X146500000Y-83325000D01*
X139350000Y-77825000D02*
X139350000Y-79075000D01*
X139650000Y-80375000D02*
X140400000Y-80375000D01*
X147250000Y-78875000D02*
X147250000Y-78125000D01*
X140400000Y-80375000D02*
X140400000Y-83325000D01*
X143950000Y-78125000D02*
X142950000Y-78125000D01*
X139650000Y-78125000D02*
X139650000Y-78875000D01*
X147260000Y-78115000D02*
X139640000Y-78115000D01*
X147250000Y-78125000D02*
X145450000Y-78125000D01*
X146500000Y-83325000D02*
X143450000Y-83325000D01*
X141450000Y-78875000D02*
X141450000Y-78125000D01*
%TO.C,R18*%
X119622936Y-88027500D02*
X120077064Y-88027500D01*
X119622936Y-89497500D02*
X120077064Y-89497500D01*
%TO.C,J13*%
X114230000Y-97695000D02*
X116830000Y-97695000D01*
X111630000Y-97695000D02*
X112960000Y-97695000D01*
X111630000Y-99025000D02*
X111630000Y-97695000D01*
X111630000Y-100295000D02*
X114230000Y-100295000D01*
X111630000Y-102895000D02*
X116830000Y-102895000D01*
X116830000Y-97695000D02*
X116830000Y-102895000D01*
X114230000Y-100295000D02*
X114230000Y-97695000D01*
X111630000Y-100295000D02*
X111630000Y-102895000D01*
%TO.C,Q3*%
X122990000Y-86612500D02*
X122990000Y-85962500D01*
X126110000Y-86612500D02*
X126110000Y-87262500D01*
X126110000Y-86612500D02*
X126110000Y-85962500D01*
X122990000Y-86612500D02*
X122990000Y-88287500D01*
%TO.C,R3*%
X173372936Y-88335000D02*
X173827064Y-88335000D01*
X173372936Y-86865000D02*
X173827064Y-86865000D01*
%TO.C,Y1*%
X183100000Y-102450000D02*
X183100000Y-105950000D01*
X183100000Y-105950000D02*
X187300000Y-105950000D01*
%TO.C,F3*%
X145441422Y-100310000D02*
X145958578Y-100310000D01*
X145441422Y-98890000D02*
X145958578Y-98890000D01*
%TO.C,G\u002A\u002A\u002A*%
G36*
X90531400Y-101950150D02*
G01*
X93300000Y-100354552D01*
X96068600Y-101950150D01*
X96068600Y-105249849D01*
X94679308Y-106050524D01*
X94339339Y-106246185D01*
X94029012Y-106424267D01*
X93758882Y-106578754D01*
X93539505Y-106703630D01*
X93381439Y-106792877D01*
X93295239Y-106840478D01*
X93282308Y-106846770D01*
X93238181Y-106821166D01*
X93116791Y-106750713D01*
X92928745Y-106641566D01*
X92684649Y-106499881D01*
X92395109Y-106331815D01*
X92070731Y-106143525D01*
X91903000Y-106046162D01*
X90677648Y-105334876D01*
X91733666Y-105334876D01*
X91772441Y-105354402D01*
X91890479Y-105369187D01*
X92065467Y-105376891D01*
X92140066Y-105377479D01*
X92563400Y-105376959D01*
X92577821Y-105355076D01*
X93300000Y-105355076D01*
X93346850Y-105365563D01*
X93471616Y-105373500D01*
X93650623Y-105377596D01*
X93719100Y-105377886D01*
X94138200Y-105377772D01*
X94620800Y-104634043D01*
X94785838Y-104379678D01*
X94937963Y-104145166D01*
X95065863Y-103947951D01*
X95158223Y-103805476D01*
X95197288Y-103745156D01*
X95291177Y-103600000D01*
X94429093Y-103600000D01*
X93864546Y-104466076D01*
X93694034Y-104728735D01*
X93544186Y-104961619D01*
X93423286Y-105151683D01*
X93339618Y-105285882D01*
X93301465Y-105351172D01*
X93300000Y-105355076D01*
X92577821Y-105355076D01*
X93706400Y-103642603D01*
X93954036Y-103266432D01*
X94184037Y-102916255D01*
X94390420Y-102601238D01*
X94567202Y-102330551D01*
X94708399Y-102113361D01*
X94808029Y-101958837D01*
X94860108Y-101876148D01*
X94866333Y-101865123D01*
X94827558Y-101845597D01*
X94709520Y-101830812D01*
X94534532Y-101823108D01*
X94459933Y-101822520D01*
X94036600Y-101823040D01*
X92893600Y-103557396D01*
X92645963Y-103933567D01*
X92415962Y-104283744D01*
X92209579Y-104598761D01*
X92032797Y-104869448D01*
X91891600Y-105086638D01*
X91791970Y-105241162D01*
X91739891Y-105323851D01*
X91733666Y-105334876D01*
X90677648Y-105334876D01*
X90531400Y-105249983D01*
X90531400Y-103600000D01*
X91308822Y-103600000D01*
X92170906Y-103600000D01*
X92735453Y-102733923D01*
X92905965Y-102471264D01*
X93055813Y-102238380D01*
X93176713Y-102048316D01*
X93260381Y-101914117D01*
X93298534Y-101848827D01*
X93300000Y-101844923D01*
X93253149Y-101834436D01*
X93128383Y-101826499D01*
X92949376Y-101822403D01*
X92880900Y-101822113D01*
X92461800Y-101822227D01*
X91979200Y-102565956D01*
X91814161Y-102820321D01*
X91662036Y-103054833D01*
X91534136Y-103252048D01*
X91441776Y-103394523D01*
X91402711Y-103454843D01*
X91308822Y-103600000D01*
X90531400Y-103600000D01*
X90531400Y-101950150D01*
G37*
D16*
X90531400Y-101950150D02*
X93300000Y-100354552D01*
X96068600Y-101950150D01*
X96068600Y-105249849D01*
X94679308Y-106050524D01*
X94339339Y-106246185D01*
X94029012Y-106424267D01*
X93758882Y-106578754D01*
X93539505Y-106703630D01*
X93381439Y-106792877D01*
X93295239Y-106840478D01*
X93282308Y-106846770D01*
X93238181Y-106821166D01*
X93116791Y-106750713D01*
X92928745Y-106641566D01*
X92684649Y-106499881D01*
X92395109Y-106331815D01*
X92070731Y-106143525D01*
X91903000Y-106046162D01*
X90677648Y-105334876D01*
X91733666Y-105334876D01*
X91772441Y-105354402D01*
X91890479Y-105369187D01*
X92065467Y-105376891D01*
X92140066Y-105377479D01*
X92563400Y-105376959D01*
X92577821Y-105355076D01*
X93300000Y-105355076D01*
X93346850Y-105365563D01*
X93471616Y-105373500D01*
X93650623Y-105377596D01*
X93719100Y-105377886D01*
X94138200Y-105377772D01*
X94620800Y-104634043D01*
X94785838Y-104379678D01*
X94937963Y-104145166D01*
X95065863Y-103947951D01*
X95158223Y-103805476D01*
X95197288Y-103745156D01*
X95291177Y-103600000D01*
X94429093Y-103600000D01*
X93864546Y-104466076D01*
X93694034Y-104728735D01*
X93544186Y-104961619D01*
X93423286Y-105151683D01*
X93339618Y-105285882D01*
X93301465Y-105351172D01*
X93300000Y-105355076D01*
X92577821Y-105355076D01*
X93706400Y-103642603D01*
X93954036Y-103266432D01*
X94184037Y-102916255D01*
X94390420Y-102601238D01*
X94567202Y-102330551D01*
X94708399Y-102113361D01*
X94808029Y-101958837D01*
X94860108Y-101876148D01*
X94866333Y-101865123D01*
X94827558Y-101845597D01*
X94709520Y-101830812D01*
X94534532Y-101823108D01*
X94459933Y-101822520D01*
X94036600Y-101823040D01*
X92893600Y-103557396D01*
X92645963Y-103933567D01*
X92415962Y-104283744D01*
X92209579Y-104598761D01*
X92032797Y-104869448D01*
X91891600Y-105086638D01*
X91791970Y-105241162D01*
X91739891Y-105323851D01*
X91733666Y-105334876D01*
X90677648Y-105334876D01*
X90531400Y-105249983D01*
X90531400Y-103600000D01*
X91308822Y-103600000D01*
X92170906Y-103600000D01*
X92735453Y-102733923D01*
X92905965Y-102471264D01*
X93055813Y-102238380D01*
X93176713Y-102048316D01*
X93260381Y-101914117D01*
X93298534Y-101848827D01*
X93300000Y-101844923D01*
X93253149Y-101834436D01*
X93128383Y-101826499D01*
X92949376Y-101822403D01*
X92880900Y-101822113D01*
X92461800Y-101822227D01*
X91979200Y-102565956D01*
X91814161Y-102820321D01*
X91662036Y-103054833D01*
X91534136Y-103252048D01*
X91441776Y-103394523D01*
X91402711Y-103454843D01*
X91308822Y-103600000D01*
X90531400Y-103600000D01*
X90531400Y-101950150D01*
D10*
%TO.C,R16*%
X99985436Y-103865000D02*
X100439564Y-103865000D01*
X99985436Y-105335000D02*
X100439564Y-105335000D01*
%TO.C,F1*%
X170390000Y-96771267D02*
X170390000Y-96428733D01*
X171410000Y-96771267D02*
X171410000Y-96428733D01*
%TO.C,R2*%
X190339564Y-103535000D02*
X189885436Y-103535000D01*
X190339564Y-102065000D02*
X189885436Y-102065000D01*
%TO.C,J4*%
X138860000Y-78115000D02*
X131240000Y-78115000D01*
X138860000Y-84085000D02*
X138860000Y-78115000D01*
X131250000Y-80375000D02*
X132000000Y-80375000D01*
X131240000Y-78115000D02*
X131240000Y-84085000D01*
X137050000Y-78875000D02*
X138850000Y-78875000D01*
X132000000Y-80375000D02*
X132000000Y-83325000D01*
X135550000Y-78875000D02*
X135550000Y-78125000D01*
X131240000Y-84085000D02*
X138860000Y-84085000D01*
X132200000Y-77825000D02*
X130950000Y-77825000D01*
X133050000Y-78125000D02*
X131250000Y-78125000D01*
X138850000Y-78125000D02*
X137050000Y-78125000D01*
X131250000Y-78125000D02*
X131250000Y-78875000D01*
X130950000Y-77825000D02*
X130950000Y-79075000D01*
X137050000Y-78125000D02*
X137050000Y-78875000D01*
X138100000Y-83325000D02*
X135050000Y-83325000D01*
X138100000Y-80375000D02*
X138100000Y-83325000D01*
X131250000Y-78875000D02*
X133050000Y-78875000D01*
X134550000Y-78875000D02*
X135550000Y-78875000D01*
X138850000Y-80375000D02*
X138100000Y-80375000D01*
X133050000Y-78875000D02*
X133050000Y-78125000D01*
X135550000Y-78125000D02*
X134550000Y-78125000D01*
X132000000Y-83325000D02*
X135050000Y-83325000D01*
X138850000Y-78875000D02*
X138850000Y-78125000D01*
X134550000Y-78125000D02*
X134550000Y-78875000D01*
%TO.C,R20*%
X111122936Y-89497500D02*
X111577064Y-89497500D01*
X111122936Y-88027500D02*
X111577064Y-88027500D01*
%TO.C,C21*%
X183238748Y-99065000D02*
X183761252Y-99065000D01*
X183238748Y-100535000D02*
X183761252Y-100535000D01*
%TO.C,C6*%
X177535000Y-98861252D02*
X177535000Y-98338748D01*
X176065000Y-98861252D02*
X176065000Y-98338748D01*
%TO.C,C15*%
X185535000Y-85938748D02*
X185535000Y-86461252D01*
X184065000Y-85938748D02*
X184065000Y-86461252D01*
%TO.C,C17*%
X157765000Y-100461252D02*
X157765000Y-99938748D01*
X159235000Y-100461252D02*
X159235000Y-99938748D01*
%TO.C,Q6*%
X100560000Y-86612500D02*
X100560000Y-87262500D01*
X97440000Y-86612500D02*
X97440000Y-88287500D01*
X97440000Y-86612500D02*
X97440000Y-85962500D01*
X100560000Y-86612500D02*
X100560000Y-85962500D01*
%TO.C,L2*%
X173841422Y-99510000D02*
X174358578Y-99510000D01*
X173841422Y-98090000D02*
X174358578Y-98090000D01*
%TO.C,C4*%
X190373752Y-104365000D02*
X189851248Y-104365000D01*
X190373752Y-105835000D02*
X189851248Y-105835000D01*
%TO.C,U2*%
X176900000Y-106160000D02*
X176250000Y-106160000D01*
X176900000Y-106160000D02*
X177550000Y-106160000D01*
X176900000Y-103040000D02*
X177550000Y-103040000D01*
X176900000Y-103040000D02*
X175225000Y-103040000D01*
%TO.C,C5*%
X165735000Y-96338748D02*
X165735000Y-96861252D01*
X164265000Y-96338748D02*
X164265000Y-96861252D01*
%TO.C,C14*%
X186165000Y-87038748D02*
X186165000Y-87561252D01*
X187635000Y-87038748D02*
X187635000Y-87561252D01*
%TO.C,J6*%
X92295000Y-94595000D02*
X93295000Y-94595000D01*
X95845000Y-96095000D02*
X95845000Y-99045000D01*
X90795000Y-94595000D02*
X90795000Y-93845000D01*
X94795000Y-94595000D02*
X96595000Y-94595000D01*
X88995000Y-94595000D02*
X90795000Y-94595000D01*
X96605000Y-93835000D02*
X88985000Y-93835000D01*
X96595000Y-96095000D02*
X95845000Y-96095000D01*
X96595000Y-93845000D02*
X94795000Y-93845000D01*
X89945000Y-93545000D02*
X88695000Y-93545000D01*
X93295000Y-93845000D02*
X92295000Y-93845000D01*
X89745000Y-99045000D02*
X92795000Y-99045000D01*
X94795000Y-93845000D02*
X94795000Y-94595000D01*
X88985000Y-93835000D02*
X88985000Y-99805000D01*
X95845000Y-99045000D02*
X92795000Y-99045000D01*
X96605000Y-99805000D02*
X96605000Y-93835000D01*
X88695000Y-93545000D02*
X88695000Y-94795000D01*
X93295000Y-94595000D02*
X93295000Y-93845000D01*
X88995000Y-96095000D02*
X89745000Y-96095000D01*
X89745000Y-96095000D02*
X89745000Y-99045000D01*
X88995000Y-93845000D02*
X88995000Y-94595000D01*
X92295000Y-93845000D02*
X92295000Y-94595000D01*
X96595000Y-94595000D02*
X96595000Y-93845000D01*
X88985000Y-99805000D02*
X96605000Y-99805000D01*
X90795000Y-93845000D02*
X88995000Y-93845000D01*
%TO.C,Q5*%
X105890000Y-86612500D02*
X105890000Y-88287500D01*
X109010000Y-86612500D02*
X109010000Y-85962500D01*
X109010000Y-86612500D02*
X109010000Y-87262500D01*
X105890000Y-86612500D02*
X105890000Y-85962500D01*
%TO.C,G\u002A\u002A\u002A*%
G36*
X145988659Y-100932766D02*
G01*
X146009214Y-101035256D01*
X146030867Y-101144761D01*
X146041017Y-101196769D01*
X146065734Y-101324336D01*
X146251240Y-101396948D01*
X146436745Y-101469560D01*
X146660983Y-101316417D01*
X146885221Y-101163273D01*
X147069958Y-101348011D01*
X147254696Y-101532748D01*
X147142478Y-101698401D01*
X147086353Y-101781324D01*
X147035611Y-101856422D01*
X146998964Y-101910797D01*
X146991796Y-101921475D01*
X146974187Y-101951321D01*
X146968027Y-101980255D01*
X146975149Y-102019150D01*
X146997385Y-102078874D01*
X147031916Y-102159614D01*
X147070311Y-102243288D01*
X147104847Y-102310383D01*
X147129855Y-102350169D01*
X147135603Y-102355847D01*
X147167409Y-102365949D01*
X147233488Y-102380984D01*
X147323211Y-102398674D01*
X147396781Y-102411826D01*
X147632856Y-102452291D01*
X147632856Y-102983076D01*
X147399777Y-103024734D01*
X147300228Y-103043867D01*
X147216636Y-103062425D01*
X147159713Y-103077887D01*
X147141478Y-103085514D01*
X147122428Y-103114234D01*
X147092889Y-103174804D01*
X147057982Y-103256356D01*
X147042270Y-103296016D01*
X146968280Y-103487398D01*
X147111793Y-103694836D01*
X147255305Y-103902274D01*
X146883973Y-104273606D01*
X146677165Y-104133388D01*
X146470357Y-103993171D01*
X146369921Y-104041966D01*
X146310500Y-104068261D01*
X146270331Y-104081209D01*
X146261234Y-104080788D01*
X146250401Y-104057631D01*
X146225085Y-103998995D01*
X146188074Y-103911473D01*
X146142153Y-103801661D01*
X146090109Y-103676151D01*
X146084061Y-103661504D01*
X145915139Y-103252193D01*
X146053678Y-103115756D01*
X146155877Y-102998790D01*
X146217710Y-102885524D01*
X146242623Y-102767446D01*
X146237850Y-102660569D01*
X146196111Y-102506033D01*
X146119478Y-102377400D01*
X146012504Y-102278682D01*
X145879742Y-102213893D01*
X145725746Y-102187045D01*
X145700000Y-102186538D01*
X145542664Y-102207187D01*
X145406131Y-102266342D01*
X145294873Y-102360064D01*
X145213362Y-102484413D01*
X145166072Y-102635450D01*
X145162195Y-102660250D01*
X145159226Y-102788724D01*
X145190261Y-102905273D01*
X145258759Y-103018457D01*
X145346322Y-103115756D01*
X145484862Y-103252193D01*
X145315940Y-103661504D01*
X145263387Y-103788352D01*
X145216647Y-103900237D01*
X145178506Y-103990565D01*
X145151752Y-104052741D01*
X145139169Y-104080171D01*
X145138767Y-104080788D01*
X145115533Y-104077504D01*
X145065256Y-104058137D01*
X145028386Y-104041144D01*
X144926257Y-103991525D01*
X144729654Y-104127813D01*
X144647368Y-104183988D01*
X144579189Y-104228910D01*
X144533512Y-104257144D01*
X144519081Y-104264100D01*
X144498410Y-104248922D01*
X144452947Y-104207740D01*
X144389684Y-104147078D01*
X144325049Y-104082976D01*
X144144988Y-103901852D01*
X144431720Y-103487398D01*
X144357731Y-103296016D01*
X144322086Y-103208682D01*
X144289558Y-103137558D01*
X144265270Y-103093510D01*
X144258523Y-103085514D01*
X144226622Y-103073716D01*
X144160559Y-103057058D01*
X144071046Y-103038063D01*
X144000224Y-103024734D01*
X143767145Y-102983076D01*
X143767145Y-102452291D01*
X144003220Y-102411826D01*
X144103414Y-102393636D01*
X144187649Y-102376454D01*
X144245294Y-102362558D01*
X144264398Y-102355847D01*
X144284389Y-102329022D01*
X144316028Y-102270876D01*
X144353645Y-102192141D01*
X144368084Y-102159614D01*
X144405520Y-102071783D01*
X144426190Y-102014585D01*
X144431927Y-101977150D01*
X144424563Y-101948607D01*
X144408204Y-101921475D01*
X144377731Y-101876195D01*
X144330446Y-101806171D01*
X144275064Y-101724303D01*
X144257523Y-101698401D01*
X144145305Y-101532748D01*
X144514780Y-101163273D01*
X144739018Y-101316417D01*
X144963255Y-101469560D01*
X145334267Y-101324336D01*
X145357767Y-101208139D01*
X145375418Y-101119818D01*
X145396168Y-101014518D01*
X145409882Y-100944136D01*
X145438496Y-100796329D01*
X145961017Y-100796329D01*
X145988659Y-100932766D01*
G37*
G36*
X147278742Y-105544534D02*
G01*
X147361706Y-105498577D01*
X147447435Y-105492936D01*
X147525505Y-105524406D01*
X147585492Y-105589778D01*
X147609106Y-105646194D01*
X147626917Y-105715725D01*
X147627939Y-105757655D01*
X147604930Y-105778965D01*
X147550645Y-105786635D01*
X147462310Y-105787645D01*
X147366713Y-105790268D01*
X147312517Y-105800015D01*
X147295846Y-105819704D01*
X147312828Y-105852152D01*
X147337243Y-105878603D01*
X147396817Y-105918312D01*
X147461173Y-105916280D01*
X147500567Y-105899123D01*
X147546093Y-105886743D01*
X147581487Y-105908447D01*
X147599838Y-105933895D01*
X147587526Y-105954694D01*
X147545854Y-105978885D01*
X147442676Y-106011195D01*
X147340369Y-105998995D01*
X147321379Y-105992032D01*
X147262098Y-105945703D01*
X147222692Y-105870620D01*
X147204372Y-105779502D01*
X147208351Y-105685069D01*
X147211438Y-105675519D01*
X147302294Y-105675519D01*
X147306276Y-105690658D01*
X147340174Y-105696020D01*
X147402688Y-105696687D01*
X147477421Y-105692551D01*
X147513499Y-105679038D01*
X147519159Y-105665362D01*
X147501487Y-105617033D01*
X147457696Y-105591804D01*
X147401624Y-105591053D01*
X147347107Y-105616161D01*
X147320021Y-105645524D01*
X147302294Y-105675519D01*
X147211438Y-105675519D01*
X147235840Y-105600040D01*
X147278742Y-105544534D01*
G37*
G36*
X146833775Y-104676184D02*
G01*
X146846745Y-104689634D01*
X146854482Y-104721454D01*
X146858325Y-104779338D01*
X146859611Y-104870982D01*
X146859714Y-104934915D01*
X146859180Y-105047422D01*
X146856727Y-105122117D01*
X146851077Y-105166663D01*
X146840953Y-105188722D01*
X146825079Y-105195957D01*
X146816130Y-105196419D01*
X146775805Y-105184667D01*
X146763879Y-105170418D01*
X146746121Y-105155791D01*
X146706630Y-105170418D01*
X146645397Y-105192666D01*
X146583446Y-105185994D01*
X146548533Y-105173521D01*
X146504149Y-105145898D01*
X146474791Y-105100254D01*
X146457912Y-105028670D01*
X146450969Y-104923227D01*
X146450403Y-104868191D01*
X146451237Y-104773777D01*
X146455119Y-104715971D01*
X146464117Y-104685913D01*
X146480299Y-104674741D01*
X146495882Y-104673411D01*
X146519694Y-104677668D01*
X146533381Y-104696895D01*
X146539684Y-104740775D01*
X146541343Y-104818992D01*
X146541361Y-104834082D01*
X146545584Y-104946843D01*
X146560269Y-105021281D01*
X146588446Y-105063937D01*
X146633142Y-105081355D01*
X146656421Y-105082721D01*
X146706859Y-105071915D01*
X146740670Y-105035648D01*
X146760321Y-104968148D01*
X146768277Y-104863643D01*
X146768756Y-104819737D01*
X146770202Y-104740232D01*
X146776630Y-104696075D01*
X146791178Y-104677173D01*
X146814235Y-104673411D01*
X146833775Y-104676184D01*
G37*
G36*
X146351709Y-105765887D02*
G01*
X146420932Y-105723338D01*
X146515570Y-105702119D01*
X146585064Y-105693318D01*
X146619447Y-105680648D01*
X146629056Y-105658617D01*
X146627822Y-105642516D01*
X146617881Y-105613886D01*
X146590784Y-105599458D01*
X146534662Y-105594632D01*
X146503577Y-105594360D01*
X146417494Y-105590217D01*
X146372833Y-105576528D01*
X146366182Y-105551397D01*
X146381729Y-105526691D01*
X146428659Y-105500435D01*
X146500308Y-105490519D01*
X146579203Y-105496304D01*
X146647871Y-105517151D01*
X146677798Y-105537511D01*
X146699553Y-105565322D01*
X146713143Y-105602811D01*
X146720378Y-105660387D01*
X146723067Y-105748456D01*
X146723277Y-105799015D01*
X146722590Y-105899419D01*
X146719346Y-105962786D01*
X146711768Y-105997554D01*
X146698081Y-106012159D01*
X146677798Y-106015040D01*
X146640853Y-106005186D01*
X146632319Y-105991501D01*
X146618399Y-105979576D01*
X146588335Y-105991501D01*
X146502199Y-106014091D01*
X146418037Y-105994430D01*
X146369781Y-105959225D01*
X146322803Y-105889705D01*
X146320804Y-105862685D01*
X146413379Y-105862685D01*
X146427664Y-105889973D01*
X146475127Y-105917071D01*
X146538902Y-105922386D01*
X146594888Y-105904989D01*
X146605032Y-105896795D01*
X146629061Y-105851170D01*
X146632319Y-105828576D01*
X146622437Y-105801066D01*
X146585475Y-105789285D01*
X146544145Y-105787645D01*
X146469786Y-105797849D01*
X146424072Y-105824729D01*
X146413379Y-105862685D01*
X146320804Y-105862685D01*
X146317890Y-105823300D01*
X146351709Y-105765887D01*
G37*
G36*
X147588961Y-104678744D02*
G01*
X147663448Y-104704040D01*
X147678151Y-104714168D01*
X147711134Y-104745999D01*
X147709519Y-104768528D01*
X147693822Y-104783692D01*
X147657687Y-104801071D01*
X147615444Y-104785143D01*
X147613005Y-104783635D01*
X147548436Y-104764403D01*
X147489215Y-104781699D01*
X147442687Y-104826615D01*
X147416200Y-104890244D01*
X147417098Y-104963678D01*
X147431363Y-105003883D01*
X147481899Y-105067124D01*
X147547705Y-105089611D01*
X147616528Y-105072005D01*
X147668488Y-105054566D01*
X147698968Y-105066971D01*
X147721322Y-105100655D01*
X147707809Y-105129672D01*
X147656725Y-105161726D01*
X147570948Y-105191865D01*
X147490682Y-105185016D01*
X147462310Y-105174922D01*
X147391425Y-105124115D01*
X147344005Y-105046932D01*
X147320920Y-104955141D01*
X147323040Y-104860511D01*
X147351237Y-104774810D01*
X147406380Y-104709806D01*
X147426941Y-104696824D01*
X147502539Y-104675815D01*
X147588961Y-104678744D01*
G37*
G36*
X144844498Y-105501358D02*
G01*
X144858640Y-105519319D01*
X144865351Y-105535140D01*
X144885927Y-105519319D01*
X144925461Y-105501188D01*
X144984571Y-105492527D01*
X145041053Y-105494893D01*
X145070075Y-105506392D01*
X145072424Y-105535328D01*
X145062047Y-105562582D01*
X145030207Y-105592390D01*
X144976300Y-105591741D01*
X144926077Y-105589464D01*
X144891795Y-105610378D01*
X144870242Y-105660545D01*
X144858205Y-105746029D01*
X144853994Y-105822585D01*
X144848496Y-105917520D01*
X144839458Y-105975092D01*
X144825068Y-106003387D01*
X144812052Y-106009895D01*
X144771618Y-106007031D01*
X144760888Y-106000667D01*
X144754392Y-105972677D01*
X144749172Y-105909277D01*
X144745839Y-105820528D01*
X144744942Y-105738376D01*
X144744942Y-105492032D01*
X144801791Y-105492032D01*
X144844498Y-105501358D01*
G37*
G36*
X145962263Y-104784737D02*
G01*
X146015902Y-104718596D01*
X146085786Y-104681295D01*
X146162651Y-104673049D01*
X146237233Y-104694074D01*
X146300269Y-104744586D01*
X146342494Y-104824800D01*
X146352120Y-104869765D01*
X146351765Y-104986827D01*
X146320381Y-105082294D01*
X146263235Y-105150956D01*
X146185598Y-105187604D01*
X146092738Y-105187032D01*
X146045767Y-105172597D01*
X145993285Y-105129323D01*
X145954296Y-105054391D01*
X145933757Y-104960814D01*
X145933935Y-104922408D01*
X146041441Y-104922408D01*
X146046616Y-105006354D01*
X146064457Y-105056603D01*
X146099487Y-105084203D01*
X146109311Y-105088106D01*
X146165332Y-105088189D01*
X146209351Y-105049183D01*
X146236271Y-104976950D01*
X146241381Y-104936214D01*
X146237395Y-104842890D01*
X146209729Y-104786635D01*
X146156919Y-104764836D01*
X146145184Y-104764369D01*
X146087187Y-104778413D01*
X146053735Y-104823811D01*
X146041615Y-104905457D01*
X146041441Y-104922408D01*
X145933935Y-104922408D01*
X145934134Y-104879502D01*
X145962263Y-104784737D01*
G37*
G36*
X144301822Y-105734035D02*
G01*
X144398086Y-105705337D01*
X144426359Y-105701848D01*
X144504584Y-105687225D01*
X144538556Y-105662538D01*
X144528412Y-105627625D01*
X144506054Y-105605627D01*
X144452377Y-105587727D01*
X144383642Y-105591317D01*
X144311921Y-105594836D01*
X144270773Y-105575523D01*
X144268600Y-105573050D01*
X144260184Y-105540927D01*
X144286640Y-105515833D01*
X144337743Y-105498914D01*
X144403267Y-105491316D01*
X144472987Y-105494185D01*
X144536678Y-105508666D01*
X144584115Y-105535905D01*
X144585766Y-105537511D01*
X144607521Y-105565322D01*
X144621111Y-105602811D01*
X144628346Y-105660387D01*
X144631035Y-105748456D01*
X144631245Y-105799015D01*
X144630558Y-105899419D01*
X144627314Y-105962786D01*
X144619736Y-105997554D01*
X144606048Y-106012159D01*
X144585766Y-106015040D01*
X144548820Y-106005186D01*
X144540287Y-105991501D01*
X144526367Y-105979576D01*
X144496303Y-105991501D01*
X144412184Y-106013165D01*
X144324352Y-105998740D01*
X144301522Y-105987868D01*
X144245999Y-105944178D01*
X144224163Y-105886582D01*
X144222282Y-105853703D01*
X144231420Y-105822044D01*
X144321004Y-105822044D01*
X144321852Y-105868040D01*
X144354069Y-105902586D01*
X144404158Y-105921680D01*
X144458622Y-105921319D01*
X144503966Y-105897499D01*
X144516747Y-105880098D01*
X144537413Y-105828632D01*
X144526365Y-105800227D01*
X144478410Y-105788843D01*
X144437246Y-105787645D01*
X144361125Y-105794535D01*
X144324043Y-105816081D01*
X144321004Y-105822044D01*
X144231420Y-105822044D01*
X144242364Y-105784128D01*
X144301822Y-105734035D01*
G37*
G36*
X147833155Y-104732165D02*
G01*
X147906808Y-104684686D01*
X147977003Y-104673411D01*
X148072101Y-104692154D01*
X148139372Y-104745454D01*
X148174464Y-104828915D01*
X148178604Y-104877032D01*
X148178604Y-104969024D01*
X148019427Y-104969024D01*
X147927512Y-104971957D01*
X147877141Y-104982714D01*
X147864643Y-105004231D01*
X147886347Y-105039447D01*
X147905730Y-105059982D01*
X147965304Y-105099691D01*
X148029660Y-105097659D01*
X148069054Y-105080502D01*
X148114550Y-105068264D01*
X148151403Y-105091254D01*
X148170081Y-105115889D01*
X148160041Y-105134609D01*
X148114714Y-105157177D01*
X148104001Y-105161692D01*
X148018565Y-105190133D01*
X147951042Y-105191740D01*
X147883439Y-105167211D01*
X147816689Y-105109433D01*
X147779067Y-105017867D01*
X147769628Y-104919605D01*
X147779187Y-104856951D01*
X147860251Y-104856951D01*
X147880705Y-104868997D01*
X147933002Y-104876642D01*
X147973948Y-104878066D01*
X148038825Y-104875751D01*
X148079990Y-104869831D01*
X148087646Y-104865201D01*
X148068407Y-104814069D01*
X148023507Y-104774705D01*
X147986142Y-104764369D01*
X147931101Y-104778636D01*
X147883224Y-104812641D01*
X147860456Y-104853186D01*
X147860251Y-104856951D01*
X147779187Y-104856951D01*
X147786024Y-104812138D01*
X147833155Y-104732165D01*
G37*
G36*
X146942138Y-105501886D02*
G01*
X146950672Y-105515572D01*
X146964592Y-105527496D01*
X146994656Y-105515572D01*
X147053547Y-105496435D01*
X147114964Y-105493806D01*
X147159603Y-105507662D01*
X147167313Y-105515768D01*
X147168289Y-105551717D01*
X147140304Y-105583295D01*
X147098736Y-105596001D01*
X147084757Y-105593613D01*
X147032071Y-105593247D01*
X146997010Y-105605270D01*
X146974144Y-105622457D01*
X146960267Y-105650731D01*
X146953213Y-105700253D01*
X146950813Y-105781181D01*
X146950672Y-105822555D01*
X146949819Y-105916303D01*
X146945856Y-105973495D01*
X146936679Y-106003038D01*
X146920182Y-106013843D01*
X146905193Y-106015040D01*
X146885652Y-106012267D01*
X146872683Y-105998817D01*
X146864946Y-105966997D01*
X146861103Y-105909112D01*
X146859817Y-105817469D01*
X146859714Y-105753536D01*
X146860196Y-105641178D01*
X146862535Y-105566602D01*
X146868069Y-105522114D01*
X146878136Y-105500019D01*
X146894074Y-105492623D01*
X146905193Y-105492032D01*
X146942138Y-105501886D01*
G37*
G36*
X145654503Y-105497730D02*
G01*
X145675337Y-105519680D01*
X145695938Y-105565170D01*
X145719719Y-105641486D01*
X145745695Y-105738777D01*
X145763803Y-105794292D01*
X145780640Y-105822294D01*
X145786768Y-105822505D01*
X145800757Y-105794473D01*
X145822662Y-105735362D01*
X145847818Y-105657795D01*
X145848564Y-105655348D01*
X145883494Y-105558913D01*
X145916527Y-105507831D01*
X145948769Y-105502076D01*
X145981327Y-105541623D01*
X146015306Y-105626444D01*
X146023091Y-105651208D01*
X146048314Y-105728753D01*
X146070939Y-105788754D01*
X146085763Y-105817745D01*
X146099482Y-105806738D01*
X146119836Y-105760720D01*
X146142929Y-105688923D01*
X146148163Y-105669939D01*
X146174035Y-105581712D01*
X146196469Y-105529194D01*
X146220329Y-105503379D01*
X146241993Y-105496135D01*
X146280456Y-105497551D01*
X146290778Y-105507505D01*
X146284141Y-105535598D01*
X146266507Y-105597347D01*
X146240710Y-105683086D01*
X146215328Y-105764906D01*
X146180013Y-105872910D01*
X146152742Y-105943784D01*
X146130090Y-105984406D01*
X146108631Y-106001654D01*
X146096428Y-106003670D01*
X146071115Y-105994658D01*
X146047271Y-105962586D01*
X146020654Y-105899904D01*
X145994227Y-105821754D01*
X145935926Y-105639839D01*
X145879835Y-105821571D01*
X145842640Y-105927683D01*
X145809892Y-105991148D01*
X145786731Y-106010430D01*
X145748715Y-106007221D01*
X145738713Y-105999245D01*
X145727800Y-105970988D01*
X145707655Y-105910795D01*
X145681740Y-105829865D01*
X145653522Y-105739394D01*
X145626463Y-105650580D01*
X145604028Y-105574623D01*
X145589680Y-105522719D01*
X145586303Y-105506566D01*
X145605336Y-105494588D01*
X145630018Y-105492032D01*
X145654503Y-105497730D01*
G37*
G36*
X143778514Y-104673411D02*
G01*
X143821222Y-104682737D01*
X143835363Y-104700698D01*
X143842075Y-104716518D01*
X143862650Y-104700698D01*
X143914085Y-104676986D01*
X143983867Y-104675842D01*
X144051849Y-104695621D01*
X144085497Y-104718890D01*
X144110086Y-104751960D01*
X144124085Y-104797868D01*
X144130105Y-104868920D01*
X144130976Y-104933264D01*
X144129658Y-105021612D01*
X144123284Y-105077246D01*
X144108222Y-105112909D01*
X144080841Y-105141347D01*
X144068949Y-105150950D01*
X144008303Y-105184239D01*
X143942566Y-105185080D01*
X143875157Y-105162801D01*
X143856116Y-105158748D01*
X143844323Y-105171355D01*
X143838076Y-105208476D01*
X143835672Y-105277963D01*
X143835363Y-105346340D01*
X143836686Y-105443271D01*
X143841250Y-105500454D01*
X143849951Y-105523558D01*
X143862650Y-105519319D01*
X143914085Y-105495608D01*
X143983867Y-105494464D01*
X144051849Y-105514242D01*
X144085497Y-105537511D01*
X144107253Y-105565322D01*
X144120843Y-105602811D01*
X144128077Y-105660387D01*
X144130766Y-105748456D01*
X144130976Y-105799015D01*
X144130289Y-105899419D01*
X144127045Y-105962786D01*
X144119467Y-105997554D01*
X144105780Y-106012159D01*
X144085497Y-106015040D01*
X144062756Y-106011211D01*
X144049166Y-105993600D01*
X144042410Y-105953021D01*
X144040170Y-105880287D01*
X144040018Y-105834748D01*
X144034182Y-105716004D01*
X144015589Y-105637240D01*
X143982610Y-105594341D01*
X143940413Y-105582990D01*
X143892290Y-105594139D01*
X143859834Y-105631601D01*
X143840267Y-105701398D01*
X143830810Y-105809549D01*
X143830355Y-105821508D01*
X143825095Y-105916672D01*
X143816285Y-105974493D01*
X143802136Y-106003072D01*
X143788775Y-106009895D01*
X143748342Y-106007031D01*
X143737611Y-106000667D01*
X143733530Y-105974675D01*
X143729834Y-105909059D01*
X143726663Y-105809675D01*
X143724157Y-105682377D01*
X143722454Y-105533019D01*
X143721693Y-105367457D01*
X143721666Y-105329066D01*
X143721666Y-104922408D01*
X143835711Y-104922408D01*
X143840887Y-105006354D01*
X143858727Y-105056603D01*
X143893757Y-105084203D01*
X143903581Y-105088106D01*
X143958811Y-105087386D01*
X144003914Y-105049073D01*
X144031414Y-104980973D01*
X144035598Y-104950233D01*
X144031084Y-104855374D01*
X144002750Y-104792172D01*
X143952846Y-104765071D01*
X143941438Y-104764369D01*
X143882550Y-104777957D01*
X143848555Y-104822197D01*
X143835969Y-104902298D01*
X143835711Y-104922408D01*
X143721666Y-104922408D01*
X143721666Y-104673411D01*
X143778514Y-104673411D01*
G37*
G36*
X145108774Y-105751886D02*
G01*
X145111058Y-105658285D01*
X145119650Y-105597705D01*
X145137161Y-105557837D01*
X145154253Y-105537511D01*
X145222088Y-105499271D01*
X145303928Y-105496032D01*
X145360403Y-105515572D01*
X145385430Y-105525419D01*
X145398579Y-105514604D01*
X145403633Y-105474327D01*
X145404387Y-105413244D01*
X145405841Y-105341330D01*
X145413544Y-105303782D01*
X145432507Y-105289504D01*
X145461236Y-105287377D01*
X145518085Y-105287377D01*
X145518085Y-105640552D01*
X145517425Y-105778039D01*
X145515042Y-105876496D01*
X145510332Y-105942357D01*
X145502692Y-105982058D01*
X145491516Y-106002034D01*
X145483686Y-106006928D01*
X145437344Y-106006287D01*
X145421152Y-105997655D01*
X145377864Y-105986903D01*
X145347538Y-105993513D01*
X145271820Y-106011787D01*
X145206813Y-105993907D01*
X145168689Y-105967911D01*
X145137656Y-105939626D01*
X145119677Y-105907265D01*
X145111243Y-105858174D01*
X145109256Y-105793195D01*
X145198164Y-105793195D01*
X145220418Y-105856794D01*
X145250270Y-105888684D01*
X145291221Y-105915991D01*
X145317021Y-105920879D01*
X145350585Y-105905816D01*
X145360403Y-105900543D01*
X145387622Y-105875747D01*
X145400977Y-105830815D01*
X145404387Y-105757284D01*
X145396285Y-105662502D01*
X145370404Y-105606127D01*
X145324388Y-105583778D01*
X145310506Y-105582990D01*
X145257384Y-105602685D01*
X145219231Y-105653026D01*
X145198629Y-105720900D01*
X145198164Y-105793195D01*
X145109256Y-105793195D01*
X145108843Y-105779696D01*
X145108774Y-105751886D01*
G37*
G36*
X147072968Y-104682737D02*
G01*
X147087109Y-104700698D01*
X147093821Y-104716518D01*
X147114396Y-104700698D01*
X147153931Y-104682567D01*
X147213040Y-104673905D01*
X147269522Y-104676271D01*
X147298544Y-104687770D01*
X147300893Y-104716707D01*
X147290516Y-104743961D01*
X147258677Y-104773769D01*
X147204769Y-104773120D01*
X147154567Y-104770838D01*
X147120294Y-104791727D01*
X147098740Y-104841849D01*
X147086697Y-104927268D01*
X147082463Y-105004211D01*
X147078126Y-105094667D01*
X147071438Y-105149283D01*
X147059432Y-105177696D01*
X147039144Y-105189540D01*
X147024575Y-105192315D01*
X147002695Y-105193848D01*
X146988156Y-105186047D01*
X146979458Y-105161410D01*
X146975102Y-105112438D01*
X146973586Y-105031630D01*
X146973411Y-104936496D01*
X146973411Y-104673411D01*
X147030260Y-104673411D01*
X147072968Y-104682737D01*
G37*
G36*
X144275439Y-104736806D02*
G01*
X144343541Y-104688487D01*
X144429173Y-104674134D01*
X144519009Y-104693588D01*
X144587143Y-104748237D01*
X144625610Y-104829917D01*
X144631245Y-104881167D01*
X144631245Y-104969024D01*
X144472068Y-104969024D01*
X144374264Y-104974313D01*
X144320513Y-104990316D01*
X144310623Y-105017239D01*
X144344398Y-105055286D01*
X144372036Y-105074946D01*
X144423226Y-105099871D01*
X144473372Y-105096619D01*
X144502074Y-105086939D01*
X144557474Y-105071820D01*
X144592322Y-105081109D01*
X144603654Y-105090865D01*
X144617315Y-105113966D01*
X144599968Y-105135257D01*
X144555452Y-105158984D01*
X144468239Y-105189949D01*
X144392635Y-105189266D01*
X144343749Y-105173871D01*
X144274618Y-105122561D01*
X144233494Y-105037598D01*
X144221934Y-104939730D01*
X144231104Y-104856951D01*
X144312892Y-104856951D01*
X144333346Y-104868997D01*
X144385643Y-104876642D01*
X144426589Y-104878066D01*
X144491451Y-104874267D01*
X144532617Y-104864555D01*
X144540287Y-104856951D01*
X144521676Y-104818095D01*
X144478663Y-104782061D01*
X144430474Y-104764507D01*
X144426589Y-104764369D01*
X144378871Y-104779523D01*
X144334619Y-104814548D01*
X144313062Y-104853788D01*
X144312892Y-104856951D01*
X144231104Y-104856951D01*
X144235175Y-104820206D01*
X144275439Y-104736806D01*
G37*
G36*
X145753645Y-104683954D02*
G01*
X145802808Y-104705059D01*
X145831817Y-104734198D01*
X145823533Y-104763301D01*
X145815507Y-104773558D01*
X145782167Y-104797097D01*
X145755317Y-104785837D01*
X145713328Y-104770788D01*
X145652656Y-104768291D01*
X145650322Y-104768502D01*
X145596178Y-104780701D01*
X145575997Y-104808026D01*
X145574933Y-104821217D01*
X145583266Y-104850676D01*
X145615540Y-104867979D01*
X145680365Y-104878825D01*
X145752218Y-104892553D01*
X145808806Y-104912809D01*
X145822487Y-104921403D01*
X145852104Y-104971909D01*
X145857384Y-105040297D01*
X145838978Y-105106451D01*
X145815463Y-105137973D01*
X145747892Y-105173422D01*
X145658669Y-105187588D01*
X145567241Y-105178665D01*
X145526499Y-105164853D01*
X145461077Y-105128134D01*
X145438697Y-105095203D01*
X145457416Y-105063157D01*
X145458079Y-105062602D01*
X145493592Y-105050488D01*
X145547020Y-105066737D01*
X145560023Y-105072994D01*
X145644588Y-105099670D01*
X145713339Y-105090353D01*
X145754527Y-105053650D01*
X145762548Y-105011644D01*
X145729897Y-104982803D01*
X145660159Y-104969825D01*
X145642526Y-104969372D01*
X145574095Y-104957192D01*
X145523144Y-104933625D01*
X145482089Y-104880337D01*
X145471214Y-104811314D01*
X145490519Y-104744845D01*
X145523144Y-104708809D01*
X145588729Y-104682924D01*
X145672659Y-104674543D01*
X145753645Y-104683954D01*
G37*
G36*
X143269987Y-104731659D02*
G01*
X143334279Y-104687196D01*
X143426052Y-104673411D01*
X143519506Y-104687816D01*
X143583186Y-104732968D01*
X143619461Y-104811772D01*
X143630708Y-104924261D01*
X143628109Y-105006098D01*
X143616676Y-105059468D01*
X143590951Y-105101256D01*
X143564238Y-105129950D01*
X143488491Y-105183802D01*
X143426052Y-105196419D01*
X143347656Y-105176126D01*
X143287866Y-105129950D01*
X143250034Y-105086675D01*
X143230012Y-105042706D01*
X143222343Y-104981156D01*
X143221397Y-104924261D01*
X143222112Y-104917291D01*
X143313516Y-104917291D01*
X143315717Y-104989687D01*
X143331782Y-105044923D01*
X143339642Y-105055434D01*
X143390031Y-105079982D01*
X143451440Y-105079388D01*
X143502599Y-105055664D01*
X143516210Y-105038737D01*
X143540242Y-104963725D01*
X143537421Y-104890981D01*
X143513362Y-104828478D01*
X143473681Y-104784186D01*
X143423993Y-104766075D01*
X143369914Y-104782116D01*
X143348088Y-104800102D01*
X143324524Y-104847506D01*
X143313516Y-104917291D01*
X143222112Y-104917291D01*
X143233149Y-104809712D01*
X143269987Y-104731659D01*
G37*
G36*
X144821782Y-104681467D02*
G01*
X144835900Y-104696950D01*
X144849820Y-104708875D01*
X144879884Y-104696950D01*
X144961353Y-104674600D01*
X145040788Y-104688525D01*
X145086034Y-104718890D01*
X145107790Y-104746701D01*
X145121380Y-104784190D01*
X145128614Y-104841765D01*
X145131304Y-104929835D01*
X145131513Y-104980394D01*
X145130827Y-105080797D01*
X145127582Y-105144165D01*
X145120005Y-105178933D01*
X145106317Y-105193537D01*
X145086034Y-105196419D01*
X145063944Y-105192830D01*
X145050440Y-105176142D01*
X145043438Y-105137473D01*
X145040854Y-105067940D01*
X145040555Y-105002646D01*
X145039805Y-104908264D01*
X145035729Y-104849061D01*
X145025590Y-104814740D01*
X145006651Y-104795004D01*
X144981941Y-104782166D01*
X144926255Y-104764748D01*
X144887203Y-104774758D01*
X144861823Y-104816762D01*
X144847153Y-104895325D01*
X144840700Y-104999851D01*
X144836393Y-105095602D01*
X144829920Y-105154449D01*
X144819215Y-105184965D01*
X144802210Y-105195725D01*
X144793326Y-105196419D01*
X144750446Y-105188839D01*
X144737362Y-105181259D01*
X144731189Y-105153607D01*
X144726227Y-105090502D01*
X144723057Y-105001966D01*
X144722203Y-104919755D01*
X144722203Y-104673411D01*
X144779051Y-104673411D01*
X144821782Y-104681467D01*
G37*
%TO.C,J1*%
X155740000Y-81994000D02*
X165860000Y-81994000D01*
X155500000Y-88455000D02*
X155500000Y-89195000D01*
X162266000Y-85534000D02*
X162231000Y-85569000D01*
X155740000Y-86895000D02*
X165860000Y-86895000D01*
X165860000Y-79034000D02*
X165860000Y-88955000D01*
X164575000Y-83226000D02*
X164528000Y-83272000D01*
X155740000Y-88395000D02*
X165860000Y-88395000D01*
X164370000Y-83020000D02*
X164335000Y-83056000D01*
X162073000Y-85318000D02*
X162026000Y-85364000D01*
X155500000Y-89195000D02*
X156000000Y-89195000D01*
X155740000Y-88955000D02*
X165860000Y-88955000D01*
X155740000Y-79034000D02*
X155740000Y-88955000D01*
X155740000Y-79034000D02*
X165860000Y-79034000D01*
X156765000Y-83611000D02*
G75*
G03*
X156764573Y-84978042I1534993J-684001D01*
G01*
X157616000Y-85830000D02*
G75*
G03*
X158328805Y-85975253I683999J1535001D01*
G01*
X158300000Y-85975000D02*
G75*
G03*
X158983318Y-85829756I0J1680000D01*
G01*
X159835001Y-84979000D02*
G75*
G03*
X159835427Y-83611958I-1535001J684000D01*
G01*
X158984000Y-82760000D02*
G75*
G03*
X157616958Y-82759573I-684001J-1534993D01*
G01*
X164980000Y-84295000D02*
G75*
G03*
X164980000Y-84295000I-1680000J0D01*
G01*
%TO.C,J11*%
X137795000Y-97695000D02*
X137795000Y-102895000D01*
X132595000Y-100295000D02*
X132595000Y-102895000D01*
X132595000Y-102895000D02*
X137795000Y-102895000D01*
X135195000Y-100295000D02*
X135195000Y-97695000D01*
X132595000Y-100295000D02*
X135195000Y-100295000D01*
X132595000Y-97695000D02*
X133925000Y-97695000D01*
X132595000Y-99025000D02*
X132595000Y-97695000D01*
X135195000Y-97695000D02*
X137795000Y-97695000D01*
%TO.C,C13*%
X166765000Y-96561252D02*
X166765000Y-96038748D01*
X168235000Y-96561252D02*
X168235000Y-96038748D01*
%TO.C,R5*%
X189572936Y-86565000D02*
X190027064Y-86565000D01*
X189572936Y-88035000D02*
X190027064Y-88035000D01*
%TO.C,J7*%
X121250000Y-80375000D02*
X121250000Y-83325000D01*
X115150000Y-83325000D02*
X118200000Y-83325000D01*
X116200000Y-78125000D02*
X114400000Y-78125000D01*
X114400000Y-78875000D02*
X116200000Y-78875000D01*
X122010000Y-84085000D02*
X122010000Y-78115000D01*
X115350000Y-77825000D02*
X114100000Y-77825000D01*
X122000000Y-80375000D02*
X121250000Y-80375000D01*
X115150000Y-80375000D02*
X115150000Y-83325000D01*
X114390000Y-84085000D02*
X122010000Y-84085000D01*
X118700000Y-78875000D02*
X118700000Y-78125000D01*
X116200000Y-78875000D02*
X116200000Y-78125000D01*
X121250000Y-83325000D02*
X118200000Y-83325000D01*
X114100000Y-77825000D02*
X114100000Y-79075000D01*
X117700000Y-78875000D02*
X118700000Y-78875000D01*
X114390000Y-78115000D02*
X114390000Y-84085000D01*
X114400000Y-80375000D02*
X115150000Y-80375000D01*
X120200000Y-78875000D02*
X122000000Y-78875000D01*
X122000000Y-78875000D02*
X122000000Y-78125000D01*
X114400000Y-78125000D02*
X114400000Y-78875000D01*
X122000000Y-78125000D02*
X120200000Y-78125000D01*
X118700000Y-78125000D02*
X117700000Y-78125000D01*
X122010000Y-78115000D02*
X114390000Y-78115000D01*
X117700000Y-78125000D02*
X117700000Y-78875000D01*
X120200000Y-78125000D02*
X120200000Y-78875000D01*
D15*
%TO.C,U3*%
X172390000Y-94325000D02*
X168490000Y-94325000D01*
X172390000Y-89275000D02*
X168490000Y-89275000D01*
D13*
X174610000Y-93705000D02*
G75*
G03*
X174610000Y-93705000I-100000J0D01*
G01*
D10*
%TO.C,R7*%
X176835000Y-94172936D02*
X176835000Y-94627064D01*
X175365000Y-94172936D02*
X175365000Y-94627064D01*
%TO.C,R10*%
X136972936Y-88027500D02*
X137427064Y-88027500D01*
X136972936Y-89497500D02*
X137427064Y-89497500D01*
%TO.C,C12*%
X190188748Y-96065000D02*
X190711252Y-96065000D01*
X190188748Y-97535000D02*
X190711252Y-97535000D01*
%TO.C,J12*%
X159330000Y-102870000D02*
X159330000Y-104200000D01*
X156730000Y-105530000D02*
X151590000Y-105530000D01*
X156730000Y-102870000D02*
X156730000Y-105530000D01*
X158000000Y-102870000D02*
X159330000Y-102870000D01*
X156730000Y-102870000D02*
X151590000Y-102870000D01*
X151590000Y-102870000D02*
X151590000Y-105530000D01*
%TO.C,R15*%
X100439564Y-102635000D02*
X99985436Y-102635000D01*
X100439564Y-101165000D02*
X99985436Y-101165000D01*
%TO.C,C7*%
X180290000Y-104740580D02*
X180290000Y-104459420D01*
X181310000Y-104740580D02*
X181310000Y-104459420D01*
%TO.C,Q1*%
X143360000Y-86612500D02*
X143360000Y-85962500D01*
X140240000Y-86612500D02*
X140240000Y-88287500D01*
X143360000Y-86612500D02*
X143360000Y-87262500D01*
X140240000Y-86612500D02*
X140240000Y-85962500D01*
%TO.C,D10*%
X109550000Y-97300000D02*
X112850000Y-97300000D01*
X109550000Y-97300000D02*
X109550000Y-91900000D01*
X112850000Y-97300000D02*
X112850000Y-91900000D01*
%TO.C,L1*%
X162602064Y-98840000D02*
X161397936Y-98840000D01*
X162602064Y-101560000D02*
X161397936Y-101560000D01*
%TO.C,R23*%
X102672936Y-85565000D02*
X103127064Y-85565000D01*
X102672936Y-87035000D02*
X103127064Y-87035000D01*
%TO.C,C8*%
X176240580Y-102010000D02*
X175959420Y-102010000D01*
X176240580Y-100990000D02*
X175959420Y-100990000D01*
%TO.C,J10*%
X96595000Y-88775000D02*
X95845000Y-88775000D01*
X96605000Y-86515000D02*
X88985000Y-86515000D01*
X96595000Y-86525000D02*
X94795000Y-86525000D01*
X90795000Y-87275000D02*
X90795000Y-86525000D01*
X88695000Y-86225000D02*
X88695000Y-87475000D01*
X96605000Y-92485000D02*
X96605000Y-86515000D01*
X95845000Y-88775000D02*
X95845000Y-91725000D01*
X90795000Y-86525000D02*
X88995000Y-86525000D01*
X88995000Y-86525000D02*
X88995000Y-87275000D01*
X93295000Y-86525000D02*
X92295000Y-86525000D01*
X96595000Y-87275000D02*
X96595000Y-86525000D01*
X93295000Y-87275000D02*
X93295000Y-86525000D01*
X88985000Y-86515000D02*
X88985000Y-92485000D01*
X89945000Y-86225000D02*
X88695000Y-86225000D01*
X88985000Y-92485000D02*
X96605000Y-92485000D01*
X92295000Y-87275000D02*
X93295000Y-87275000D01*
X92295000Y-86525000D02*
X92295000Y-87275000D01*
X89745000Y-91725000D02*
X92795000Y-91725000D01*
X95845000Y-91725000D02*
X92795000Y-91725000D01*
X88995000Y-88775000D02*
X89745000Y-88775000D01*
X88995000Y-87275000D02*
X90795000Y-87275000D01*
X89745000Y-88775000D02*
X89745000Y-91725000D01*
X94795000Y-86525000D02*
X94795000Y-87275000D01*
X94795000Y-87275000D02*
X96595000Y-87275000D01*
%TO.C,C3*%
X162065000Y-96338748D02*
X162065000Y-96861252D01*
X163535000Y-96338748D02*
X163535000Y-96861252D01*
%TO.C,JP1*%
X188695000Y-101030000D02*
X191295000Y-101030000D01*
X187425000Y-101030000D02*
X186095000Y-101030000D01*
X188695000Y-101030000D02*
X188695000Y-98370000D01*
X186095000Y-101030000D02*
X186095000Y-99700000D01*
X191295000Y-101030000D02*
X191295000Y-98370000D01*
X188695000Y-98370000D02*
X191295000Y-98370000D01*
D15*
%TO.C,U5*%
X162957500Y-102740000D02*
X161357500Y-102740000D01*
X161357500Y-105860000D02*
X162957500Y-105860000D01*
D13*
X164757500Y-105250000D02*
G75*
G03*
X164757500Y-105250000I-100000J0D01*
G01*
D10*
%TO.C,C22*%
X108273752Y-105335000D02*
X107751248Y-105335000D01*
X108273752Y-103865000D02*
X107751248Y-103865000D01*
%TO.C,C19*%
X170758349Y-98616000D02*
X170758349Y-101160000D01*
X169878349Y-98264000D02*
X169878349Y-101160000D01*
X172198349Y-99913000D02*
X172198349Y-104487000D01*
X172158349Y-99855000D02*
X172158349Y-104545000D01*
X170878349Y-103240000D02*
X170878349Y-105717000D01*
X168797349Y-98120000D02*
X168797349Y-106280000D01*
X169477349Y-98176000D02*
X169477349Y-106224000D01*
X169518349Y-98183000D02*
X169518349Y-101160000D01*
X172438349Y-100310000D02*
X172438349Y-104090000D01*
X171918349Y-99549000D02*
X171918349Y-104851000D01*
X171438349Y-103240000D02*
X171438349Y-105324000D01*
X170838349Y-103240000D02*
X170838349Y-105740000D01*
X168877349Y-98120000D02*
X168877349Y-106280000D01*
X170238349Y-98379000D02*
X170238349Y-101160000D01*
X171278349Y-103240000D02*
X171278349Y-105450000D01*
X170438349Y-103240000D02*
X170438349Y-105940000D01*
X169077349Y-98129000D02*
X169077349Y-106271000D01*
X171678349Y-99293000D02*
X171678349Y-105107000D01*
X169678349Y-103240000D02*
X169678349Y-106185000D01*
X171598349Y-99217000D02*
X171598349Y-105183000D01*
X171038349Y-103240000D02*
X171038349Y-105618000D01*
X170398349Y-98443000D02*
X170398349Y-101160000D01*
X170758349Y-103240000D02*
X170758349Y-105784000D01*
X171358349Y-99011000D02*
X171358349Y-101160000D01*
X169437349Y-98170000D02*
X169437349Y-106230000D01*
X169277349Y-98148000D02*
X169277349Y-106252000D01*
X172038349Y-99695000D02*
X172038349Y-104705000D01*
X169878349Y-103240000D02*
X169878349Y-106136000D01*
X171038349Y-98782000D02*
X171038349Y-101160000D01*
X170478349Y-103240000D02*
X170478349Y-105922000D01*
X169518349Y-103240000D02*
X169518349Y-106217000D01*
X170078349Y-98323000D02*
X170078349Y-101160000D01*
X169638349Y-103240000D02*
X169638349Y-106194000D01*
X169558349Y-98190000D02*
X169558349Y-101160000D01*
X172278349Y-100034000D02*
X172278349Y-104366000D01*
X170638349Y-103240000D02*
X170638349Y-105847000D01*
X170318349Y-103240000D02*
X170318349Y-105990000D01*
X170878349Y-98683000D02*
X170878349Y-101160000D01*
X170718349Y-98594000D02*
X170718349Y-101160000D01*
X169678349Y-98215000D02*
X169678349Y-101160000D01*
X171278349Y-98950000D02*
X171278349Y-101160000D01*
X171558349Y-103240000D02*
X171558349Y-105219000D01*
X169558349Y-103240000D02*
X169558349Y-106210000D01*
X170598349Y-103240000D02*
X170598349Y-105866000D01*
X172678349Y-100854000D02*
X172678349Y-103546000D01*
X169317349Y-98152000D02*
X169317349Y-106248000D01*
X169998349Y-98298000D02*
X169998349Y-101160000D01*
X172398349Y-100236000D02*
X172398349Y-104164000D01*
X171518349Y-103240000D02*
X171518349Y-105255000D01*
X169357349Y-98158000D02*
X169357349Y-106242000D01*
X169798349Y-103240000D02*
X169798349Y-106157000D01*
X171198349Y-103240000D02*
X171198349Y-105509000D01*
X171238349Y-103240000D02*
X171238349Y-105480000D01*
X168997349Y-98124000D02*
X168997349Y-106276000D01*
X171438349Y-99076000D02*
X171438349Y-101160000D01*
X170358349Y-103240000D02*
X170358349Y-105974000D01*
X164787651Y-99485000D02*
X164787651Y-100285000D01*
X171118349Y-98835000D02*
X171118349Y-101160000D01*
X172118349Y-99800000D02*
X172118349Y-104600000D01*
X170558349Y-103240000D02*
X170558349Y-105886000D01*
X171638349Y-99255000D02*
X171638349Y-105145000D01*
X170118349Y-98337000D02*
X170118349Y-101160000D01*
X170678349Y-98573000D02*
X170678349Y-101160000D01*
X171718349Y-99333000D02*
X171718349Y-105067000D01*
X170678349Y-103240000D02*
X170678349Y-105827000D01*
X169237349Y-98143000D02*
X169237349Y-106257000D01*
X171998349Y-99644000D02*
X171998349Y-104756000D01*
X169598349Y-98198000D02*
X169598349Y-101160000D01*
X169157349Y-98135000D02*
X169157349Y-106265000D01*
X170558349Y-98514000D02*
X170558349Y-101160000D01*
X170078349Y-103240000D02*
X170078349Y-106077000D01*
X170638349Y-98553000D02*
X170638349Y-101160000D01*
X170158349Y-103240000D02*
X170158349Y-106050000D01*
X170598349Y-98534000D02*
X170598349Y-101160000D01*
X172478349Y-100387000D02*
X172478349Y-104013000D01*
X170478349Y-98478000D02*
X170478349Y-101160000D01*
X170838349Y-98660000D02*
X170838349Y-101160000D01*
X169798349Y-98243000D02*
X169798349Y-101160000D01*
X168917349Y-98121000D02*
X168917349Y-106279000D01*
X169598349Y-103240000D02*
X169598349Y-106202000D01*
X171078349Y-103240000D02*
X171078349Y-105592000D01*
X170238349Y-103240000D02*
X170238349Y-106021000D01*
X169838349Y-98253000D02*
X169838349Y-101160000D01*
X169117349Y-98132000D02*
X169117349Y-106268000D01*
X170358349Y-98426000D02*
X170358349Y-101160000D01*
X171398349Y-99044000D02*
X171398349Y-101160000D01*
X172878349Y-101667000D02*
X172878349Y-102733000D01*
X170198349Y-98365000D02*
X170198349Y-101160000D01*
X169397349Y-98163000D02*
X169397349Y-106237000D01*
X172318349Y-100098000D02*
X172318349Y-104302000D01*
X169918349Y-103240000D02*
X169918349Y-106125000D01*
X170198349Y-103240000D02*
X170198349Y-106035000D01*
X171358349Y-103240000D02*
X171358349Y-105389000D01*
X170718349Y-103240000D02*
X170718349Y-105806000D01*
X169958349Y-103240000D02*
X169958349Y-106114000D01*
X171318349Y-103240000D02*
X171318349Y-105420000D01*
X170998349Y-98756000D02*
X170998349Y-101160000D01*
X170118349Y-103240000D02*
X170118349Y-106063000D01*
X170958349Y-98731000D02*
X170958349Y-101160000D01*
X170038349Y-98311000D02*
X170038349Y-101160000D01*
X172758349Y-101102000D02*
X172758349Y-103298000D01*
X168957349Y-98123000D02*
X168957349Y-106277000D01*
X170278349Y-98395000D02*
X170278349Y-101160000D01*
X171958349Y-99596000D02*
X171958349Y-104804000D01*
X171118349Y-103240000D02*
X171118349Y-105565000D01*
X170918349Y-98707000D02*
X170918349Y-101160000D01*
X169758349Y-103240000D02*
X169758349Y-106167000D01*
X170278349Y-103240000D02*
X170278349Y-106005000D01*
X169998349Y-103240000D02*
X169998349Y-106102000D01*
X169197349Y-98139000D02*
X169197349Y-106261000D01*
X171198349Y-98891000D02*
X171198349Y-101160000D01*
X172558349Y-100555000D02*
X172558349Y-103845000D01*
X172638349Y-100747000D02*
X172638349Y-103653000D01*
X169758349Y-98233000D02*
X169758349Y-101160000D01*
X168837349Y-98120000D02*
X168837349Y-106280000D01*
X169037349Y-98126000D02*
X169037349Y-106274000D01*
X170438349Y-98460000D02*
X170438349Y-101160000D01*
X169718349Y-103240000D02*
X169718349Y-106176000D01*
X169838349Y-103240000D02*
X169838349Y-106147000D01*
X172798349Y-101252000D02*
X172798349Y-103148000D01*
X170158349Y-98350000D02*
X170158349Y-101160000D01*
X172838349Y-101432000D02*
X172838349Y-102968000D01*
X171238349Y-98920000D02*
X171238349Y-101160000D01*
X171398349Y-103240000D02*
X171398349Y-105356000D01*
X169718349Y-98224000D02*
X169718349Y-101160000D01*
X170958349Y-103240000D02*
X170958349Y-105669000D01*
X172598349Y-100648000D02*
X172598349Y-103752000D01*
X170398349Y-103240000D02*
X170398349Y-105957000D01*
X170518349Y-98496000D02*
X170518349Y-101160000D01*
X171158349Y-98862000D02*
X171158349Y-101160000D01*
X171158349Y-103240000D02*
X171158349Y-105538000D01*
X170798349Y-98638000D02*
X170798349Y-101160000D01*
X171478349Y-103240000D02*
X171478349Y-105290000D01*
X172718349Y-100971000D02*
X172718349Y-103429000D01*
X164387651Y-99885000D02*
X165187651Y-99885000D01*
X171878349Y-99503000D02*
X171878349Y-104897000D01*
X170918349Y-103240000D02*
X170918349Y-105693000D01*
X171838349Y-99459000D02*
X171838349Y-104941000D01*
X172238349Y-99972000D02*
X172238349Y-104428000D01*
X171798349Y-99416000D02*
X171798349Y-104984000D01*
X169918349Y-98275000D02*
X169918349Y-101160000D01*
X171558349Y-99181000D02*
X171558349Y-101160000D01*
X172518349Y-100469000D02*
X172518349Y-103931000D01*
X172078349Y-99746000D02*
X172078349Y-104654000D01*
X170038349Y-103240000D02*
X170038349Y-106089000D01*
X171478349Y-99110000D02*
X171478349Y-101160000D01*
X172358349Y-100166000D02*
X172358349Y-104234000D01*
X170518349Y-103240000D02*
X170518349Y-105904000D01*
X169638349Y-98206000D02*
X169638349Y-101160000D01*
X171518349Y-99145000D02*
X171518349Y-101160000D01*
X171318349Y-98980000D02*
X171318349Y-101160000D01*
X171758349Y-99374000D02*
X171758349Y-105026000D01*
X170998349Y-103240000D02*
X170998349Y-105644000D01*
X171078349Y-98808000D02*
X171078349Y-101160000D01*
X170798349Y-103240000D02*
X170798349Y-105762000D01*
X169958349Y-98286000D02*
X169958349Y-101160000D01*
X170318349Y-98410000D02*
X170318349Y-101160000D01*
X172917349Y-102200000D02*
G75*
G03*
X172917349Y-102200000I-4120000J0D01*
G01*
%TO.C,D6*%
X133550000Y-97300000D02*
X136850000Y-97300000D01*
X136850000Y-97300000D02*
X136850000Y-91900000D01*
X133550000Y-97300000D02*
X133550000Y-91900000D01*
%TO.C,D2*%
X165145000Y-94245000D02*
X157845000Y-94245000D01*
X165145000Y-94245000D02*
X165145000Y-89945000D01*
X165145000Y-89945000D02*
X157845000Y-89945000D01*
%TO.C,Q4*%
X114390000Y-86612500D02*
X114390000Y-85962500D01*
X117510000Y-86612500D02*
X117510000Y-87262500D01*
X114390000Y-86612500D02*
X114390000Y-88287500D01*
X117510000Y-86612500D02*
X117510000Y-85962500D01*
%TO.C,R19*%
X119622936Y-87035000D02*
X120077064Y-87035000D01*
X119622936Y-85565000D02*
X120077064Y-85565000D01*
%TO.C,D7*%
X130850000Y-97300000D02*
X130850000Y-91900000D01*
X127550000Y-97300000D02*
X127550000Y-91900000D01*
X127550000Y-97300000D02*
X130850000Y-97300000D01*
%TO.C,D3*%
X157200000Y-98550000D02*
X151800000Y-98550000D01*
X157200000Y-101850000D02*
X151800000Y-101850000D01*
X157200000Y-101850000D02*
X157200000Y-98550000D01*
%TO.C,R9*%
X145472936Y-87035000D02*
X145927064Y-87035000D01*
X145472936Y-85565000D02*
X145927064Y-85565000D01*
%TO.C,R6*%
X175935000Y-91027064D02*
X175935000Y-90572936D01*
X174465000Y-91027064D02*
X174465000Y-90572936D01*
%TO.C,J2*%
X177814900Y-79548426D02*
X177814900Y-77812200D01*
X177814900Y-77812200D02*
X167985100Y-77812200D01*
X167985100Y-81513174D02*
X167985100Y-83576026D01*
X177814900Y-83576026D02*
X177814900Y-81513174D01*
X167985100Y-77812200D02*
X167985100Y-79548426D01*
D17*
%TO.C,F2*%
X151800000Y-78250000D02*
X151800000Y-78250000D01*
D13*
X149400000Y-78700000D02*
X154200000Y-78700000D01*
X154200000Y-78700000D02*
X154200000Y-93500000D01*
X149400000Y-93500000D02*
X149400000Y-78700000D01*
X154200000Y-93500000D02*
X149400000Y-93500000D01*
D17*
X151800000Y-78150000D02*
X151800000Y-78150000D01*
X151800000Y-78250000D02*
G75*
G03*
X151800000Y-78150000I0J50000D01*
G01*
X151800000Y-78150000D02*
G75*
G03*
X151800000Y-78250000I0J-50000D01*
G01*
D10*
%TO.C,R21*%
X111122936Y-85565000D02*
X111577064Y-85565000D01*
X111122936Y-87035000D02*
X111577064Y-87035000D01*
%TO.C,Q2*%
X134860000Y-86612500D02*
X134860000Y-85962500D01*
X131740000Y-86612500D02*
X131740000Y-88287500D01*
X131740000Y-86612500D02*
X131740000Y-85962500D01*
X134860000Y-86612500D02*
X134860000Y-87262500D01*
%TD*%
M02*
