%TF.GenerationSoftware,KiCad,Pcbnew,(6.0.6)*%
%TF.CreationDate,2022-10-10T20:15:19-05:00*%
%TF.ProjectId,better-klipper-expander,62657474-6572-42d6-9b6c-69707065722d,V1*%
%TF.SameCoordinates,Original*%
%TF.FileFunction,Copper,L4,Bot*%
%TF.FilePolarity,Positive*%
%FSLAX46Y46*%
G04 Gerber Fmt 4.6, Leading zero omitted, Abs format (unit mm)*
G04 Created by KiCad (PCBNEW (6.0.6)) date 2022-10-10 20:15:19*
%MOMM*%
%LPD*%
G01*
G04 APERTURE LIST*
G04 Aperture macros list*
%AMRoundRect*
0 Rectangle with rounded corners*
0 $1 Rounding radius*
0 $2 $3 $4 $5 $6 $7 $8 $9 X,Y pos of 4 corners*
0 Add a 4 corners polygon primitive as box body*
4,1,4,$2,$3,$4,$5,$6,$7,$8,$9,$2,$3,0*
0 Add four circle primitives for the rounded corners*
1,1,$1+$1,$2,$3*
1,1,$1+$1,$4,$5*
1,1,$1+$1,$6,$7*
1,1,$1+$1,$8,$9*
0 Add four rect primitives between the rounded corners*
20,1,$1+$1,$2,$3,$4,$5,0*
20,1,$1+$1,$4,$5,$6,$7,0*
20,1,$1+$1,$6,$7,$8,$9,0*
20,1,$1+$1,$8,$9,$2,$3,0*%
G04 Aperture macros list end*
%TA.AperFunction,Profile*%
%ADD10C,0.050000*%
%TD*%
%TA.AperFunction,ComponentPad*%
%ADD11RoundRect,0.250000X-0.600000X-0.750000X0.600000X-0.750000X0.600000X0.750000X-0.600000X0.750000X0*%
%TD*%
%TA.AperFunction,ComponentPad*%
%ADD12O,1.700000X2.000000*%
%TD*%
%TA.AperFunction,ComponentPad*%
%ADD13R,1.700000X1.700000*%
%TD*%
%TA.AperFunction,ComponentPad*%
%ADD14O,1.700000X1.700000*%
%TD*%
%TA.AperFunction,ComponentPad*%
%ADD15R,2.600000X2.600000*%
%TD*%
%TA.AperFunction,ComponentPad*%
%ADD16C,2.600000*%
%TD*%
%TA.AperFunction,ComponentPad*%
%ADD17C,0.300000*%
%TD*%
%TA.AperFunction,ComponentPad*%
%ADD18R,1.600000X1.600000*%
%TD*%
%TA.AperFunction,ComponentPad*%
%ADD19C,1.600000*%
%TD*%
%TA.AperFunction,ComponentPad*%
%ADD20C,0.660400*%
%TD*%
%TA.AperFunction,ComponentPad*%
%ADD21R,1.337000X1.337000*%
%TD*%
%TA.AperFunction,ComponentPad*%
%ADD22C,1.337000*%
%TD*%
%TA.AperFunction,ViaPad*%
%ADD23C,0.800000*%
%TD*%
%TA.AperFunction,ViaPad*%
%ADD24C,0.600000*%
%TD*%
%TA.AperFunction,ViaPad*%
%ADD25C,1.000000*%
%TD*%
%TA.AperFunction,ViaPad*%
%ADD26C,0.500000*%
%TD*%
%TA.AperFunction,ViaPad*%
%ADD27C,1.500000*%
%TD*%
%TA.AperFunction,Conductor*%
%ADD28C,0.200000*%
%TD*%
%TA.AperFunction,Conductor*%
%ADD29C,0.150000*%
%TD*%
%TA.AperFunction,Conductor*%
%ADD30C,0.250000*%
%TD*%
G04 APERTURE END LIST*
D10*
X88045000Y-77495000D02*
X88045000Y-107495000D01*
X193045000Y-77500000D02*
X88045000Y-77495000D01*
X88045000Y-107495000D02*
X193045000Y-107495000D01*
X193045000Y-107495000D02*
X193045000Y-77495000D01*
D11*
%TO.P,J8,1,Pin_1*%
%TO.N,Net-(D9-Pad2)*%
X108550000Y-80575000D03*
D12*
%TO.P,J8,2,Pin_2*%
%TO.N,VFAN*%
X111050000Y-80575000D03*
%TD*%
D13*
%TO.P,JP2,1,A*%
%TO.N,Net-(J6-Pad1)*%
X99325000Y-98000000D03*
D14*
%TO.P,JP2,2,B*%
%TO.N,Net-(JP2-Pad2)*%
X101865000Y-98000000D03*
%TD*%
D11*
%TO.P,J5,1,Pin_1*%
%TO.N,Net-(D7-Pad2)*%
X125350000Y-80575000D03*
D12*
%TO.P,J5,2,Pin_2*%
%TO.N,VFAN*%
X127850000Y-80575000D03*
%TD*%
D11*
%TO.P,J9,1,Pin_1*%
%TO.N,Net-(D10-Pad1)*%
X100150000Y-80575000D03*
D12*
%TO.P,J9,2,Pin_2*%
%TO.N,GND*%
X102650000Y-80575000D03*
%TD*%
D11*
%TO.P,J3,1,Pin_1*%
%TO.N,Net-(D5-Pad2)*%
X142200000Y-80575000D03*
D12*
%TO.P,J3,2,Pin_2*%
%TO.N,VFAN*%
X144700000Y-80575000D03*
%TD*%
D13*
%TO.P,J13,1,Pin_1*%
%TO.N,VFAN*%
X112960000Y-99025000D03*
D14*
%TO.P,J13,2,Pin_2*%
X115500000Y-99025000D03*
%TO.P,J13,3,Pin_3*%
%TO.N,Net-(J13-Pad3)*%
X112960000Y-101565000D03*
%TO.P,J13,4,Pin_4*%
%TO.N,VCC*%
X115500000Y-101565000D03*
%TD*%
D11*
%TO.P,J4,1,Pin_1*%
%TO.N,Net-(D6-Pad2)*%
X133800000Y-80575000D03*
D12*
%TO.P,J4,2,Pin_2*%
%TO.N,VFAN*%
X136300000Y-80575000D03*
%TD*%
D11*
%TO.P,J6,1,Pin_1*%
%TO.N,Net-(J6-Pad1)*%
X91545000Y-96295000D03*
D12*
%TO.P,J6,2,Pin_2*%
%TO.N,GND*%
X94045000Y-96295000D03*
%TD*%
D15*
%TO.P,J1,1,Pin_1*%
%TO.N,Net-(F2-Pad1)*%
X158300000Y-84295000D03*
D16*
%TO.P,J1,2,Pin_2*%
%TO.N,GND*%
X163300000Y-84295000D03*
%TD*%
D13*
%TO.P,J11,1,Pin_1*%
%TO.N,VFAN*%
X133925000Y-99025000D03*
D14*
%TO.P,J11,2,Pin_2*%
X136465000Y-99025000D03*
%TO.P,J11,3,Pin_3*%
%TO.N,Net-(J13-Pad3)*%
X133925000Y-101565000D03*
%TO.P,J11,4,Pin_4*%
%TO.N,VCC*%
X136465000Y-101565000D03*
%TD*%
D11*
%TO.P,J7,1,Pin_1*%
%TO.N,Net-(D8-Pad2)*%
X116950000Y-80575000D03*
D12*
%TO.P,J7,2,Pin_2*%
%TO.N,VFAN*%
X119450000Y-80575000D03*
%TD*%
D17*
%TO.P,U3,10*%
%TO.N,N/C*%
X171090000Y-93750000D03*
%TO.P,U3,11*%
X169790000Y-93750000D03*
%TO.P,U3,12*%
X171090000Y-92450000D03*
%TO.P,U3,13*%
X169790000Y-92450000D03*
%TO.P,U3,14*%
X171090000Y-91150000D03*
%TO.P,U3,15*%
X169790000Y-91150000D03*
%TO.P,U3,16*%
X171090000Y-89850000D03*
%TO.P,U3,17*%
X169790000Y-89850000D03*
%TD*%
D13*
%TO.P,J12,1,Pin_1*%
%TO.N,+5V*%
X158000000Y-104200000D03*
D14*
%TO.P,J12,2,Pin_2*%
%TO.N,NEO_DATA*%
X155460000Y-104200000D03*
%TO.P,J12,3,Pin_3*%
%TO.N,GND*%
X152920000Y-104200000D03*
%TD*%
D11*
%TO.P,J10,1,Pin_1*%
%TO.N,Net-(J10-Pad1)*%
X91545000Y-88975000D03*
D12*
%TO.P,J10,2,Pin_2*%
%TO.N,GND*%
X94045000Y-88975000D03*
%TD*%
D13*
%TO.P,JP1,1,A*%
%TO.N,GND*%
X187425000Y-99700000D03*
D14*
%TO.P,JP1,2,B*%
%TO.N,Net-(C4-Pad2)*%
X189965000Y-99700000D03*
%TD*%
D18*
%TO.P,C19,1*%
%TO.N,+5V*%
X167047349Y-102200000D03*
D19*
%TO.P,C19,2*%
%TO.N,GND*%
X170547349Y-102200000D03*
%TD*%
D20*
%TO.P,J2,17*%
%TO.N,N/C*%
X175789999Y-84210801D03*
%TO.P,J2,18*%
X170010001Y-84210801D03*
%TD*%
D21*
%TO.P,F2,1,1*%
%TO.N,Net-(F2-Pad1)*%
X151800000Y-80250000D03*
D22*
%TO.P,F2,2,2*%
X151800000Y-83950000D03*
%TO.P,F2,3,3*%
%TO.N,VCC*%
X151800000Y-88250000D03*
%TO.P,F2,4,4*%
X151800000Y-91950000D03*
%TD*%
D23*
%TO.N,GND*%
X181917500Y-94605000D03*
X186400000Y-105200000D03*
X191400000Y-94400000D03*
X184017500Y-92605000D03*
X176650000Y-103650000D03*
D24*
X163400000Y-104300000D03*
D23*
X184017500Y-94605000D03*
X103125100Y-104587400D03*
X191100000Y-105100000D03*
X108362500Y-87587500D03*
X181917500Y-92605000D03*
X116862500Y-87582905D03*
X142762500Y-87571351D03*
X182917500Y-93600000D03*
X163245000Y-92095000D03*
X172600000Y-83300000D03*
D24*
X176100000Y-96400000D03*
X178900000Y-101100000D03*
D23*
X183500000Y-85500000D03*
X165000000Y-97550000D03*
D25*
X151800000Y-100200000D03*
X111200000Y-91800000D03*
D23*
X134262500Y-87571351D03*
X102000000Y-86300000D03*
X158500000Y-99200000D03*
X125462500Y-87571351D03*
X184000000Y-103200000D03*
X102312600Y-94887400D03*
%TO.N,+3.3V*%
X180850000Y-98800000D03*
X105062500Y-104600000D03*
X190700000Y-87400000D03*
X104250000Y-94900000D03*
D24*
X180900000Y-102000000D03*
D23*
X105900000Y-100100000D03*
D26*
X180700000Y-94200000D03*
X183400000Y-91400000D03*
D23*
X191100000Y-102800000D03*
X108000000Y-106300000D03*
X178400000Y-104600000D03*
D26*
X187300000Y-91000000D03*
X185200000Y-94600000D03*
D23*
X186700000Y-86400000D03*
%TO.N,+5V*%
X160600000Y-100200000D03*
X146700000Y-100400000D03*
%TO.N,VCC*%
X157900000Y-92100000D03*
X179700000Y-80600000D03*
D24*
%TO.N,XIN*%
X182200000Y-105400000D03*
D26*
X182200000Y-98100000D03*
%TO.N,SD0*%
X181371850Y-88653165D03*
D23*
X183500000Y-80600000D03*
D26*
%TO.N,CLK*%
X181800000Y-88100000D03*
D23*
X182200000Y-80600000D03*
%TO.N,SD3*%
X181000000Y-80600000D03*
D26*
X182512000Y-88500961D03*
D25*
%TO.N,Net-(D6-Pad2)*%
X135200000Y-91000000D03*
%TO.N,Net-(D7-Pad2)*%
X129200000Y-91000000D03*
%TO.N,Net-(D8-Pad2)*%
X123200000Y-91000000D03*
%TO.N,Net-(D9-Pad2)*%
X117200000Y-91000000D03*
%TO.N,Net-(D10-Pad1)*%
X111200000Y-96000000D03*
D23*
%TO.N,Net-(C10-Pad1)*%
X189500000Y-92000000D03*
D26*
X185400000Y-88875500D03*
X183797382Y-97911054D03*
D23*
X187700000Y-97400000D03*
D25*
%TO.N,Net-(D5-Pad2)*%
X141200000Y-91000000D03*
D23*
%TO.N,FAN0*%
X146612500Y-88762500D03*
D26*
X178200000Y-90900000D03*
%TO.N,FAN1*%
X177600000Y-91500000D03*
D23*
X138112500Y-88662500D03*
D26*
%TO.N,FAN2*%
X177300000Y-92200000D03*
D23*
X129362500Y-88600000D03*
%TO.N,FAN3*%
X120762500Y-88900000D03*
D26*
X177500000Y-92900000D03*
D23*
%TO.N,FAN4*%
X112262500Y-88900000D03*
D26*
X178000000Y-93400000D03*
%TO.N,FAN5*%
X178600000Y-93800000D03*
D23*
X103812500Y-88812500D03*
%TO.N,TH0*%
X109050000Y-101937500D03*
D26*
X188000000Y-92000000D03*
%TO.N,TH1*%
X188025500Y-92800000D03*
D23*
X108237500Y-92100000D03*
D27*
%TO.N,VFAN*%
X123200000Y-96000000D03*
X141200000Y-95900000D03*
D25*
X99950000Y-87550000D03*
D26*
%TO.N,D+*%
X183620878Y-88920878D03*
D23*
X174800000Y-88000000D03*
%TO.N,D-*%
X178600000Y-87200000D03*
D26*
X184376516Y-88940488D03*
%TO.N,XOUT*%
X182900000Y-98100000D03*
D24*
X186400000Y-103300000D03*
D26*
%TO.N,GPIO24*%
X187400000Y-93500000D03*
X164550569Y-104349431D03*
D23*
%TO.N,Net-(J13-Pad3)*%
X144800000Y-100400000D03*
%TD*%
D28*
%TO.N,SD0*%
X178600000Y-80134315D02*
X179234314Y-79500000D01*
X178600000Y-86065686D02*
X178600000Y-80134315D01*
X181187479Y-88653165D02*
X178600000Y-86065686D01*
X182400000Y-79500000D02*
X183500000Y-80600000D01*
X181371850Y-88653165D02*
X181187479Y-88653165D01*
X179234314Y-79500000D02*
X182400000Y-79500000D01*
%TO.N,CLK*%
X179000000Y-80300000D02*
X179400000Y-79900000D01*
X179000000Y-85500000D02*
X179000000Y-80300000D01*
X181600000Y-88100000D02*
X179000000Y-85500000D01*
X181500000Y-79900000D02*
X182200000Y-80600000D01*
X181800000Y-88100000D02*
X181600000Y-88100000D01*
X179400000Y-79900000D02*
X181500000Y-79900000D01*
%TO.N,SD3*%
X182512000Y-87536750D02*
X181000000Y-86024750D01*
X181000000Y-86024750D02*
X181000000Y-80600000D01*
X182512000Y-88500961D02*
X182512000Y-87536750D01*
D29*
%TO.N,Net-(C10-Pad1)*%
X187200000Y-97900000D02*
X183808436Y-97900000D01*
X183808436Y-97900000D02*
X183797382Y-97911054D01*
X185400000Y-88875500D02*
X185975500Y-88875500D01*
X185975500Y-88875500D02*
X189100000Y-92000000D01*
X187700000Y-97400000D02*
X187200000Y-97900000D01*
X189100000Y-92000000D02*
X189500000Y-92000000D01*
D30*
%TO.N,FAN0*%
X165850000Y-100550000D02*
X165100000Y-101300000D01*
X146600000Y-97400000D02*
X146600000Y-88775000D01*
X165100000Y-101300000D02*
X150500000Y-101300000D01*
X175950000Y-93513604D02*
X168913604Y-100550000D01*
X150500000Y-101300000D02*
X146600000Y-97400000D01*
X178200000Y-90900000D02*
X177000000Y-90900000D01*
X177000000Y-90900000D02*
X175950000Y-91950000D01*
X168913604Y-100550000D02*
X165850000Y-100550000D01*
X175950000Y-91950000D02*
X175950000Y-93513604D01*
X146600000Y-88775000D02*
X146612500Y-88762500D01*
%TO.N,FAN1*%
X169100000Y-101000000D02*
X166100000Y-101000000D01*
X165350000Y-101750000D02*
X143350000Y-101750000D01*
X166100000Y-101000000D02*
X165350000Y-101750000D01*
X177100000Y-91500000D02*
X176400000Y-92200000D01*
X143350000Y-101750000D02*
X138112500Y-96512500D01*
X177600000Y-91500000D02*
X177100000Y-91500000D01*
X176400000Y-93700000D02*
X169100000Y-101000000D01*
X176400000Y-92200000D02*
X176400000Y-93700000D01*
X138112500Y-96512500D02*
X138112500Y-88662500D01*
%TO.N,FAN2*%
X176900000Y-98400000D02*
X174675000Y-100625000D01*
X137662500Y-95662500D02*
X130600000Y-88600000D01*
X130600000Y-88600000D02*
X129362500Y-88600000D01*
X174675000Y-100625000D02*
X174667715Y-100625000D01*
X164486396Y-102200000D02*
X143163604Y-102200000D01*
X137662500Y-96698896D02*
X137662500Y-95662500D01*
X177300000Y-92200000D02*
X176900000Y-92600000D01*
X174667715Y-100625000D02*
X171792715Y-103500000D01*
X165786396Y-103500000D02*
X164486396Y-102200000D01*
X171792715Y-103500000D02*
X165786396Y-103500000D01*
X143163604Y-102200000D02*
X137662500Y-96698896D01*
X176900000Y-92600000D02*
X176900000Y-98400000D01*
%TO.N,FAN3*%
X177400000Y-98554416D02*
X174879416Y-101075000D01*
X165600000Y-103950000D02*
X164300000Y-102650000D01*
X174854111Y-101075000D02*
X171979111Y-103950000D01*
X174879416Y-101075000D02*
X174854111Y-101075000D01*
X164300000Y-102650000D02*
X127150000Y-102650000D01*
X171979111Y-103950000D02*
X165600000Y-103950000D01*
X177500000Y-92900000D02*
X177400000Y-93000000D01*
X120762500Y-96262500D02*
X120762500Y-88900000D01*
X127150000Y-102650000D02*
X120762500Y-96262500D01*
X177400000Y-93000000D02*
X177400000Y-98554416D01*
%TO.N,FAN4*%
X125700000Y-103100000D02*
X112262500Y-89662500D01*
X164113604Y-103100000D02*
X125700000Y-103100000D01*
X172190812Y-104400000D02*
X165413604Y-104400000D01*
X175065812Y-101525000D02*
X175040507Y-101525000D01*
X178000000Y-93400000D02*
X178000000Y-98590812D01*
X173825000Y-102765812D02*
X172190812Y-104400000D01*
X165413604Y-104400000D02*
X164113604Y-103100000D01*
X173825000Y-102740507D02*
X173825000Y-102765812D01*
X178000000Y-98590812D02*
X175065812Y-101525000D01*
X175040507Y-101525000D02*
X173825000Y-102740507D01*
X112262500Y-89662500D02*
X112262500Y-88900000D01*
%TO.N,FAN5*%
X175252208Y-101975000D02*
X175226903Y-101975000D01*
X110450000Y-100250000D02*
X108962500Y-98762500D01*
X108962500Y-98762500D02*
X108962500Y-91362500D01*
X174275000Y-102952208D02*
X171627208Y-105600000D01*
X178600000Y-93800000D02*
X178600000Y-98627208D01*
X108962500Y-91362500D02*
X108300000Y-90700000D01*
X110450000Y-102150000D02*
X110450000Y-100250000D01*
X175226903Y-101975000D02*
X174275000Y-102926903D01*
X103812500Y-89712500D02*
X103812500Y-88812500D01*
X178600000Y-98627208D02*
X175252208Y-101975000D01*
X108300000Y-90700000D02*
X104800000Y-90700000D01*
X174275000Y-102926903D02*
X174275000Y-102952208D01*
X171627208Y-105600000D02*
X113900000Y-105600000D01*
X113900000Y-105600000D02*
X110450000Y-102150000D01*
X104800000Y-90700000D02*
X103812500Y-89712500D01*
%TO.N,TH0*%
X172000000Y-106500000D02*
X175175000Y-103325000D01*
X175175000Y-103325000D02*
X175175000Y-103299695D01*
X109237500Y-102437500D02*
X113300000Y-106500000D01*
X113300000Y-106500000D02*
X172000000Y-106500000D01*
X188600000Y-92200000D02*
X188600000Y-95000000D01*
X188400000Y-92000000D02*
X188600000Y-92200000D01*
X175599695Y-102875000D02*
X175625000Y-102875000D01*
X175175000Y-103299695D02*
X175599695Y-102875000D01*
X175625000Y-102875000D02*
X181300000Y-97200000D01*
X109237500Y-101937500D02*
X109237500Y-102437500D01*
X181300000Y-97200000D02*
X186400000Y-97200000D01*
X188000000Y-92000000D02*
X188400000Y-92000000D01*
X188600000Y-95000000D02*
X186400000Y-97200000D01*
%TO.N,TH1*%
X186213604Y-96750000D02*
X181113604Y-96750000D01*
X188025500Y-94938104D02*
X186213604Y-96750000D01*
X108237500Y-99137500D02*
X108237500Y-92100000D01*
X110000000Y-102400000D02*
X110000000Y-100900000D01*
X188025500Y-92800000D02*
X188025500Y-94938104D01*
X174725000Y-103113299D02*
X174725000Y-103138604D01*
X110000000Y-100900000D02*
X108237500Y-99137500D01*
X171813604Y-106050000D02*
X113650000Y-106050000D01*
X113650000Y-106050000D02*
X110000000Y-102400000D01*
X174725000Y-103138604D02*
X171813604Y-106050000D01*
X181113604Y-96750000D02*
X175438604Y-102425000D01*
X175438604Y-102425000D02*
X175413299Y-102425000D01*
X175413299Y-102425000D02*
X174725000Y-103113299D01*
%TD*%
M02*
