M48
; DRILL file {KiCad (6.0.6)} date Thu Oct  6 01:30:12 2022
; FORMAT={-:-/ absolute / metric / decimal}
; #@! TF.CreationDate,2022-10-06T01:30:12-05:00
; #@! TF.GenerationSoftware,Kicad,Pcbnew,(6.0.6)
; #@! TF.FileFunction,Plated,1,4,PTH
FMAT,2
METRIC
; #@! TA.AperFunction,Plated,PTH,ComponentDrill
T1C0.200
; #@! TA.AperFunction,Plated,PTH,ViaDrill
T2C0.250
; #@! TA.AperFunction,Plated,PTH,ViaDrill
T3C0.400
; #@! TA.AperFunction,Plated,PTH,ViaDrill
T4C0.500
; #@! TA.AperFunction,Plated,PTH,ComponentDrill
T5C0.660
; #@! TA.AperFunction,Plated,PTH,ComponentDrill
T6C0.780
; #@! TA.AperFunction,Plated,PTH,ComponentDrill
T7C0.800
; #@! TA.AperFunction,Plated,PTH,ComponentDrill
T8C1.000
; #@! TA.AperFunction,Plated,PTH,ComponentDrill
T9C1.300
%
G90
G05
T1
X169.79Y-89.85
X169.79Y-91.15
X169.79Y-92.45
X169.79Y-93.75
X171.09Y-89.85
X171.09Y-91.15
X171.09Y-92.45
X171.09Y-93.75
T2
X157.6Y-106.474
X177.3Y-92.2
X177.5Y-92.9
X177.6Y-91.5
X178.0Y-93.4
X178.2Y-90.9
X178.6Y-93.8
X181.234Y-88.7
X181.5Y-88.0
X182.512Y-88.501
X183.04Y-98.26
X183.621Y-88.921
X183.797Y-97.911
X184.377Y-88.94
X185.3Y-88.4
X187.3Y-91.0
X187.8Y-92.0
X187.8Y-92.8
T3
X99.95Y-87.6
X102.313Y-94.887
X103.313Y-104.587
X103.812Y-88.812
X104.25Y-94.9
X105.25Y-104.6
X105.9Y-100.1
X108.237Y-92.237
X108.362Y-87.587
X109.237Y-101.938
X111.2Y-91.0
X112.262Y-88.9
X116.862Y-87.583
X117.2Y-91.0
X120.762Y-88.9
X123.2Y-91.0
X125.3Y-99.0
X125.462Y-87.571
X129.2Y-91.0
X129.3Y-103.2
X129.362Y-88.6
X134.262Y-87.571
X135.2Y-91.0
X138.112Y-88.662
X141.2Y-91.0
X142.762Y-87.571
X146.612Y-88.763
X157.9Y-92.1
X158.4Y-99.15
X160.6Y-101.1
X163.245Y-92.095
X165.0Y-97.55
X168.875Y-87.6
X173.8Y-98.3
X174.8Y-88.0
X175.2Y-95.4
X175.7Y-103.65
X178.4Y-104.6
X178.6Y-87.2
X179.5Y-99.7
X179.7Y-80.6
X181.0Y-80.6
X181.917Y-92.605
X181.917Y-94.605
X182.2Y-80.6
X182.917Y-93.6
X183.5Y-80.6
X183.5Y-85.5
X184.017Y-92.605
X184.017Y-94.605
X184.1Y-102.9
X186.8Y-86.1
X187.3Y-105.4
X187.7Y-97.4
X189.5Y-92.0
X190.7Y-87.6
X191.4Y-94.4
X191.7Y-102.8
X191.7Y-105.1
T4
X143.3Y-95.9
X151.8Y-100.2
T5
X170.01Y-84.211
X175.79Y-84.211
T6
X151.8Y-80.25
X151.8Y-83.95
X151.8Y-88.25
X151.8Y-91.95
T7
X167.047Y-102.2
X170.547Y-102.2
T8
X91.545Y-88.975
X91.545Y-96.295
X94.045Y-88.975
X94.045Y-96.295
X99.325Y-98.0
X100.15Y-80.575
X101.865Y-98.0
X102.65Y-80.575
X108.55Y-80.575
X111.05Y-80.575
X113.86Y-99.76
X113.86Y-102.3
X116.4Y-99.76
X116.4Y-102.3
X116.95Y-80.575
X119.45Y-80.575
X125.35Y-80.575
X127.85Y-80.575
X133.8Y-80.575
X136.3Y-80.575
X142.2Y-80.575
X144.7Y-80.575
X184.725Y-99.8
X187.265Y-99.8
T9
X158.3Y-84.295
X163.3Y-84.295
T0
M30
