%TF.GenerationSoftware,KiCad,Pcbnew,(6.0.10)*%
%TF.CreationDate,2022-12-24T21:30:56-06:00*%
%TF.ProjectId,better-klipper-expander,62657474-6572-42d6-9b6c-69707065722d,V1*%
%TF.SameCoordinates,Original*%
%TF.FileFunction,Drillmap*%
%TF.FilePolarity,Positive*%
%FSLAX45Y45*%
G04 Gerber Fmt 4.5, Leading zero omitted, Abs format (unit mm)*
G04 Created by KiCad (PCBNEW (6.0.10)) date 2022-12-24 21:30:56*
%MOMM*%
%LPD*%
G01*
G04 APERTURE LIST*
%ADD10C,0.050000*%
%ADD11C,0.200000*%
%ADD12C,0.020000*%
%ADD13C,0.025000*%
%ADD14C,0.030000*%
%ADD15C,0.040000*%
%ADD16C,0.066040*%
%ADD17C,0.075000*%
%ADD18C,0.078000*%
%ADD19C,0.080000*%
%ADD20C,0.100000*%
%ADD21C,0.130000*%
G04 APERTURE END LIST*
D10*
X8804500Y-7749500D02*
X8804500Y-10749500D01*
X19304500Y-7750000D02*
X8804500Y-7749500D01*
X8804500Y-10749500D02*
X19304500Y-10749500D01*
X19304500Y-10749500D02*
X19304500Y-7749500D01*
D11*
D12*
X16969000Y-8975000D02*
X16989000Y-8995000D01*
X16989000Y-8975000D02*
X16969000Y-8995000D01*
X16969000Y-9105000D02*
X16989000Y-9125000D01*
X16989000Y-9105000D02*
X16969000Y-9125000D01*
X16969000Y-9235000D02*
X16989000Y-9255000D01*
X16989000Y-9235000D02*
X16969000Y-9255000D01*
X16969000Y-9365000D02*
X16989000Y-9385000D01*
X16989000Y-9365000D02*
X16969000Y-9385000D01*
X17099000Y-8975000D02*
X17119000Y-8995000D01*
X17119000Y-8975000D02*
X17099000Y-8995000D01*
X17099000Y-9105000D02*
X17119000Y-9125000D01*
X17119000Y-9105000D02*
X17099000Y-9125000D01*
X17099000Y-9235000D02*
X17119000Y-9255000D01*
X17119000Y-9235000D02*
X17099000Y-9255000D01*
X17099000Y-9365000D02*
X17119000Y-9385000D01*
X17119000Y-9365000D02*
X17099000Y-9385000D01*
D13*
X16467557Y-10434943D02*
G75*
G03*
X16467557Y-10434943I-12500J0D01*
G01*
X17742500Y-9220000D02*
G75*
G03*
X17742500Y-9220000I-12500J0D01*
G01*
X17762500Y-9290000D02*
G75*
G03*
X17762500Y-9290000I-12500J0D01*
G01*
X17772500Y-9150000D02*
G75*
G03*
X17772500Y-9150000I-12500J0D01*
G01*
X17812500Y-9340000D02*
G75*
G03*
X17812500Y-9340000I-12500J0D01*
G01*
X17832500Y-9090000D02*
G75*
G03*
X17832500Y-9090000I-12500J0D01*
G01*
X17872500Y-9380000D02*
G75*
G03*
X17872500Y-9380000I-12500J0D01*
G01*
X18082500Y-9420000D02*
G75*
G03*
X18082500Y-9420000I-12500J0D01*
G01*
X18232500Y-9810000D02*
G75*
G03*
X18232500Y-9810000I-12500J0D01*
G01*
X18302500Y-9810000D02*
G75*
G03*
X18302500Y-9810000I-12500J0D01*
G01*
X18352500Y-9140000D02*
G75*
G03*
X18352500Y-9140000I-12500J0D01*
G01*
X18374588Y-8892088D02*
G75*
G03*
X18374588Y-8892088I-12500J0D01*
G01*
X18392238Y-9791105D02*
G75*
G03*
X18392238Y-9791105I-12500J0D01*
G01*
X18450152Y-8894049D02*
G75*
G03*
X18450152Y-8894049I-12500J0D01*
G01*
X18532410Y-8889218D02*
G75*
G03*
X18532410Y-8889218I-12500J0D01*
G01*
X18532500Y-9460000D02*
G75*
G03*
X18532500Y-9460000I-12500J0D01*
G01*
X18752500Y-9350000D02*
G75*
G03*
X18752500Y-9350000I-12500J0D01*
G01*
X18772500Y-9070000D02*
G75*
G03*
X18772500Y-9070000I-12500J0D01*
G01*
X18792500Y-9200000D02*
G75*
G03*
X18792500Y-9200000I-12500J0D01*
G01*
X18792500Y-9280000D02*
G75*
G03*
X18792500Y-9280000I-12500J0D01*
G01*
D14*
X16340000Y-10415000D02*
X16340000Y-10445000D01*
X16325000Y-10430000D02*
X16355000Y-10430000D01*
X17610000Y-9625000D02*
X17610000Y-9655000D01*
X17595000Y-9640000D02*
X17625000Y-9640000D01*
X17890000Y-10095000D02*
X17890000Y-10125000D01*
X17875000Y-10110000D02*
X17905000Y-10110000D01*
X17960000Y-8554950D02*
X17960000Y-8584950D01*
X17945000Y-8569950D02*
X17975000Y-8569950D01*
X18090000Y-10185000D02*
X18090000Y-10215000D01*
X18075000Y-10200000D02*
X18105000Y-10200000D01*
X18220000Y-10525000D02*
X18220000Y-10555000D01*
X18205000Y-10540000D02*
X18235000Y-10540000D01*
X18640000Y-10315000D02*
X18640000Y-10345000D01*
X18625000Y-10330000D02*
X18655000Y-10330000D01*
D15*
X10214142Y-8644142D02*
X10214142Y-8615858D01*
X10185858Y-8615858D01*
X10185858Y-8644142D01*
X10214142Y-8644142D01*
X10245402Y-9502882D02*
X10245402Y-9474598D01*
X10217118Y-9474598D01*
X10217118Y-9502882D01*
X10245402Y-9502882D01*
X10326652Y-10472882D02*
X10326652Y-10444598D01*
X10298368Y-10444598D01*
X10298368Y-10472882D01*
X10326652Y-10472882D01*
X10395392Y-8895392D02*
X10395392Y-8867108D01*
X10367108Y-8867108D01*
X10367108Y-8895392D01*
X10395392Y-8895392D01*
X10439142Y-9504142D02*
X10439142Y-9475858D01*
X10410858Y-9475858D01*
X10410858Y-9504142D01*
X10439142Y-9504142D01*
X10520392Y-10474142D02*
X10520392Y-10445858D01*
X10492108Y-10445858D01*
X10492108Y-10474142D01*
X10520392Y-10474142D01*
X10604142Y-10024142D02*
X10604142Y-9995858D01*
X10575858Y-9995858D01*
X10575858Y-10024142D01*
X10604142Y-10024142D01*
X10814142Y-10644142D02*
X10814142Y-10615858D01*
X10785858Y-10615858D01*
X10785858Y-10644142D01*
X10814142Y-10644142D01*
X10837892Y-9224142D02*
X10837892Y-9195858D01*
X10809608Y-9195858D01*
X10809608Y-9224142D01*
X10837892Y-9224142D01*
X10850392Y-8772892D02*
X10850392Y-8744608D01*
X10822108Y-8744608D01*
X10822108Y-8772892D01*
X10850392Y-8772892D01*
X10919142Y-10207892D02*
X10919142Y-10179608D01*
X10890858Y-10179608D01*
X10890858Y-10207892D01*
X10919142Y-10207892D01*
X11240392Y-8904142D02*
X11240392Y-8875858D01*
X11212108Y-8875858D01*
X11212108Y-8904142D01*
X11240392Y-8904142D01*
X11700392Y-8772433D02*
X11700392Y-8744148D01*
X11672108Y-8744148D01*
X11672108Y-8772433D01*
X11700392Y-8772433D01*
X12090392Y-8904142D02*
X12090392Y-8875858D01*
X12062108Y-8875858D01*
X12062108Y-8904142D01*
X12090392Y-8904142D01*
X12560392Y-8771277D02*
X12560392Y-8742993D01*
X12532108Y-8742993D01*
X12532108Y-8771277D01*
X12560392Y-8771277D01*
X12950392Y-8874142D02*
X12950392Y-8845858D01*
X12922108Y-8845858D01*
X12922108Y-8874142D01*
X12950392Y-8874142D01*
X13440392Y-8771277D02*
X13440392Y-8742993D01*
X13412108Y-8742993D01*
X13412108Y-8771277D01*
X13440392Y-8771277D01*
X13825392Y-8880392D02*
X13825392Y-8852108D01*
X13797108Y-8852108D01*
X13797108Y-8880392D01*
X13825392Y-8880392D01*
X14290392Y-8771277D02*
X14290392Y-8742993D01*
X14262108Y-8742993D01*
X14262108Y-8771277D01*
X14290392Y-8771277D01*
X14490392Y-9974142D02*
X14490392Y-9945858D01*
X14462108Y-9945858D01*
X14462108Y-9974142D01*
X14490392Y-9974142D01*
X14675392Y-8890392D02*
X14675392Y-8862108D01*
X14647108Y-8862108D01*
X14647108Y-8890392D01*
X14675392Y-8890392D01*
X14677892Y-9974142D02*
X14677892Y-9945858D01*
X14649608Y-9945858D01*
X14649608Y-9974142D01*
X14677892Y-9974142D01*
X15864142Y-9934142D02*
X15864142Y-9905858D01*
X15835858Y-9905858D01*
X15835858Y-9934142D01*
X15864142Y-9934142D01*
X16074142Y-10034142D02*
X16074142Y-10005858D01*
X16045858Y-10005858D01*
X16045858Y-10034142D01*
X16074142Y-10034142D01*
X16338642Y-9223642D02*
X16338642Y-9195358D01*
X16310358Y-9195358D01*
X16310358Y-9223642D01*
X16338642Y-9223642D01*
X16514142Y-9769142D02*
X16514142Y-9740858D01*
X16485858Y-9740858D01*
X16485858Y-9769142D01*
X16514142Y-9769142D01*
X17274142Y-8344142D02*
X17274142Y-8315858D01*
X17245858Y-8315858D01*
X17245858Y-8344142D01*
X17274142Y-8344142D01*
X17494142Y-8814142D02*
X17494142Y-8785858D01*
X17465858Y-8785858D01*
X17465858Y-8814142D01*
X17494142Y-8814142D01*
X17679142Y-10379142D02*
X17679142Y-10350858D01*
X17650858Y-10350858D01*
X17650858Y-10379142D01*
X17679142Y-10379142D01*
X17854142Y-10474142D02*
X17854142Y-10445858D01*
X17825858Y-10445858D01*
X17825858Y-10474142D01*
X17854142Y-10474142D01*
X17874142Y-8734142D02*
X17874142Y-8705858D01*
X17845858Y-8705858D01*
X17845858Y-8734142D01*
X17874142Y-8734142D01*
X18099142Y-9894142D02*
X18099142Y-9865858D01*
X18070858Y-9865858D01*
X18070858Y-9894142D01*
X18099142Y-9894142D01*
X18205892Y-9274642D02*
X18205892Y-9246358D01*
X18177608Y-9246358D01*
X18177608Y-9274642D01*
X18205892Y-9274642D01*
X18205892Y-9474642D02*
X18205892Y-9446358D01*
X18177608Y-9446358D01*
X18177608Y-9474642D01*
X18205892Y-9474642D01*
X18305892Y-9374142D02*
X18305892Y-9345858D01*
X18277608Y-9345858D01*
X18277608Y-9374142D01*
X18305892Y-9374142D01*
X18414142Y-10334142D02*
X18414142Y-10305858D01*
X18385858Y-10305858D01*
X18385858Y-10334142D01*
X18414142Y-10334142D01*
X18415892Y-9274642D02*
X18415892Y-9246358D01*
X18387608Y-9246358D01*
X18387608Y-9274642D01*
X18415892Y-9274642D01*
X18415892Y-9474642D02*
X18415892Y-9446358D01*
X18387608Y-9446358D01*
X18387608Y-9474642D01*
X18415892Y-9474642D01*
X18654142Y-10534142D02*
X18654142Y-10505858D01*
X18625858Y-10505858D01*
X18625858Y-10534142D01*
X18654142Y-10534142D01*
X18704142Y-8649142D02*
X18704142Y-8620858D01*
X18675858Y-8620858D01*
X18675858Y-8649142D01*
X18704142Y-8649142D01*
X18784142Y-9754142D02*
X18784142Y-9725858D01*
X18755858Y-9725858D01*
X18755858Y-9754142D01*
X18784142Y-9754142D01*
X18964142Y-9214142D02*
X18964142Y-9185858D01*
X18935858Y-9185858D01*
X18935858Y-9214142D01*
X18964142Y-9214142D01*
X19084142Y-8754142D02*
X19084142Y-8725858D01*
X19055858Y-8725858D01*
X19055858Y-8754142D01*
X19084142Y-8754142D01*
X19124142Y-10294142D02*
X19124142Y-10265858D01*
X19095858Y-10265858D01*
X19095858Y-10294142D01*
X19124142Y-10294142D01*
X19124142Y-10524142D02*
X19124142Y-10495858D01*
X19095858Y-10495858D01*
X19095858Y-10524142D01*
X19124142Y-10524142D01*
X19154142Y-9454142D02*
X19154142Y-9425858D01*
X19125858Y-9425858D01*
X19125858Y-9454142D01*
X19154142Y-9454142D01*
D10*
X9995000Y-8780000D02*
X10020000Y-8755000D01*
X9995000Y-8730000D01*
X9970000Y-8755000D01*
X9995000Y-8780000D01*
X11120000Y-9205000D02*
X11145000Y-9180000D01*
X11120000Y-9155000D01*
X11095000Y-9180000D01*
X11120000Y-9205000D01*
X11120000Y-9615000D02*
X11145000Y-9590000D01*
X11120000Y-9565000D01*
X11095000Y-9590000D01*
X11120000Y-9615000D01*
X11720000Y-9125000D02*
X11745000Y-9100000D01*
X11720000Y-9075000D01*
X11695000Y-9100000D01*
X11720000Y-9125000D01*
X12320000Y-9125000D02*
X12345000Y-9100000D01*
X12320000Y-9075000D01*
X12295000Y-9100000D01*
X12320000Y-9125000D01*
X12920000Y-9125000D02*
X12945000Y-9100000D01*
X12920000Y-9075000D01*
X12895000Y-9100000D01*
X12920000Y-9125000D01*
X13520000Y-9125000D02*
X13545000Y-9100000D01*
X13520000Y-9075000D01*
X13495000Y-9100000D01*
X13520000Y-9125000D01*
X14120000Y-9125000D02*
X14145000Y-9100000D01*
X14120000Y-9075000D01*
X14095000Y-9100000D01*
X14120000Y-9125000D01*
X15180000Y-10045000D02*
X15205000Y-10020000D01*
X15180000Y-9995000D01*
X15155000Y-10020000D01*
X15180000Y-10045000D01*
D16*
X16967980Y-8388060D02*
X17034020Y-8454100D01*
X17034020Y-8388060D02*
X16967980Y-8454100D01*
X17034020Y-8421080D02*
G75*
G03*
X17034020Y-8421080I-33020J0D01*
G01*
X17545980Y-8388060D02*
X17612020Y-8454100D01*
X17612020Y-8388060D02*
X17545980Y-8454100D01*
X17612020Y-8421080D02*
G75*
G03*
X17612020Y-8421080I-33020J0D01*
G01*
D17*
X12282500Y-9562500D02*
X12357500Y-9637500D01*
X12357500Y-9562500D02*
X12282500Y-9637500D01*
X12320000Y-9562500D02*
X12320000Y-9637500D01*
X12282500Y-9600000D02*
X12357500Y-9600000D01*
X14082500Y-9552500D02*
X14157500Y-9627500D01*
X14157500Y-9552500D02*
X14082500Y-9627500D01*
X14120000Y-9552500D02*
X14120000Y-9627500D01*
X14082500Y-9590000D02*
X14157500Y-9590000D01*
D18*
X15141000Y-7986000D02*
X15219000Y-8064000D01*
X15219000Y-7986000D02*
X15141000Y-8064000D01*
X15207577Y-8052577D02*
X15207577Y-7997423D01*
X15152423Y-7997423D01*
X15152423Y-8052577D01*
X15207577Y-8052577D01*
X15141000Y-8356000D02*
X15219000Y-8434000D01*
X15219000Y-8356000D02*
X15141000Y-8434000D01*
X15207577Y-8422577D02*
X15207577Y-8367423D01*
X15152423Y-8367423D01*
X15152423Y-8422577D01*
X15207577Y-8422577D01*
X15141000Y-8786000D02*
X15219000Y-8864000D01*
X15219000Y-8786000D02*
X15141000Y-8864000D01*
X15207577Y-8852577D02*
X15207577Y-8797423D01*
X15152423Y-8797423D01*
X15152423Y-8852577D01*
X15207577Y-8852577D01*
X15141000Y-9156000D02*
X15219000Y-9234000D01*
X15219000Y-9156000D02*
X15141000Y-9234000D01*
X15207577Y-9222577D02*
X15207577Y-9167423D01*
X15152423Y-9167423D01*
X15152423Y-9222577D01*
X15207577Y-9222577D01*
D19*
X16664735Y-10180000D02*
X16744735Y-10260000D01*
X16744735Y-10180000D02*
X16664735Y-10260000D01*
X16704735Y-10260000D02*
X16744735Y-10220000D01*
X16704735Y-10180000D01*
X16664735Y-10220000D01*
X16704735Y-10260000D01*
X17014735Y-10180000D02*
X17094735Y-10260000D01*
X17094735Y-10180000D02*
X17014735Y-10260000D01*
X17054735Y-10260000D02*
X17094735Y-10220000D01*
X17054735Y-10180000D01*
X17014735Y-10220000D01*
X17054735Y-10260000D01*
D20*
X9154500Y-8847500D02*
X9154500Y-8947500D01*
X9104500Y-8897500D02*
X9204500Y-8897500D01*
X9204500Y-8897500D02*
G75*
G03*
X9204500Y-8897500I-50000J0D01*
G01*
X9154500Y-9579500D02*
X9154500Y-9679500D01*
X9104500Y-9629500D02*
X9204500Y-9629500D01*
X9204500Y-9629500D02*
G75*
G03*
X9204500Y-9629500I-50000J0D01*
G01*
X9404500Y-8847500D02*
X9404500Y-8947500D01*
X9354500Y-8897500D02*
X9454500Y-8897500D01*
X9454500Y-8897500D02*
G75*
G03*
X9454500Y-8897500I-50000J0D01*
G01*
X9404500Y-9579500D02*
X9404500Y-9679500D01*
X9354500Y-9629500D02*
X9454500Y-9629500D01*
X9454500Y-9629500D02*
G75*
G03*
X9454500Y-9629500I-50000J0D01*
G01*
X9932500Y-9750000D02*
X9932500Y-9850000D01*
X9882500Y-9800000D02*
X9982500Y-9800000D01*
X9982500Y-9800000D02*
G75*
G03*
X9982500Y-9800000I-50000J0D01*
G01*
X10015000Y-8007500D02*
X10015000Y-8107500D01*
X9965000Y-8057500D02*
X10065000Y-8057500D01*
X10065000Y-8057500D02*
G75*
G03*
X10065000Y-8057500I-50000J0D01*
G01*
X10186500Y-9750000D02*
X10186500Y-9850000D01*
X10136500Y-9800000D02*
X10236500Y-9800000D01*
X10236500Y-9800000D02*
G75*
G03*
X10236500Y-9800000I-50000J0D01*
G01*
X10265000Y-8007500D02*
X10265000Y-8107500D01*
X10215000Y-8057500D02*
X10315000Y-8057500D01*
X10315000Y-8057500D02*
G75*
G03*
X10315000Y-8057500I-50000J0D01*
G01*
X10855000Y-8007500D02*
X10855000Y-8107500D01*
X10805000Y-8057500D02*
X10905000Y-8057500D01*
X10905000Y-8057500D02*
G75*
G03*
X10905000Y-8057500I-50000J0D01*
G01*
X11105000Y-8007500D02*
X11105000Y-8107500D01*
X11055000Y-8057500D02*
X11155000Y-8057500D01*
X11155000Y-8057500D02*
G75*
G03*
X11155000Y-8057500I-50000J0D01*
G01*
X11296000Y-9852500D02*
X11296000Y-9952500D01*
X11246000Y-9902500D02*
X11346000Y-9902500D01*
X11346000Y-9902500D02*
G75*
G03*
X11346000Y-9902500I-50000J0D01*
G01*
X11296000Y-10106500D02*
X11296000Y-10206500D01*
X11246000Y-10156500D02*
X11346000Y-10156500D01*
X11346000Y-10156500D02*
G75*
G03*
X11346000Y-10156500I-50000J0D01*
G01*
X11550000Y-9852500D02*
X11550000Y-9952500D01*
X11500000Y-9902500D02*
X11600000Y-9902500D01*
X11600000Y-9902500D02*
G75*
G03*
X11600000Y-9902500I-50000J0D01*
G01*
X11550000Y-10106500D02*
X11550000Y-10206500D01*
X11500000Y-10156500D02*
X11600000Y-10156500D01*
X11600000Y-10156500D02*
G75*
G03*
X11600000Y-10156500I-50000J0D01*
G01*
X11695000Y-8007500D02*
X11695000Y-8107500D01*
X11645000Y-8057500D02*
X11745000Y-8057500D01*
X11745000Y-8057500D02*
G75*
G03*
X11745000Y-8057500I-50000J0D01*
G01*
X11945000Y-8007500D02*
X11945000Y-8107500D01*
X11895000Y-8057500D02*
X11995000Y-8057500D01*
X11995000Y-8057500D02*
G75*
G03*
X11995000Y-8057500I-50000J0D01*
G01*
X12535000Y-8007500D02*
X12535000Y-8107500D01*
X12485000Y-8057500D02*
X12585000Y-8057500D01*
X12585000Y-8057500D02*
G75*
G03*
X12585000Y-8057500I-50000J0D01*
G01*
X12785000Y-8007500D02*
X12785000Y-8107500D01*
X12735000Y-8057500D02*
X12835000Y-8057500D01*
X12835000Y-8057500D02*
G75*
G03*
X12835000Y-8057500I-50000J0D01*
G01*
X13380000Y-8007500D02*
X13380000Y-8107500D01*
X13330000Y-8057500D02*
X13430000Y-8057500D01*
X13430000Y-8057500D02*
G75*
G03*
X13430000Y-8057500I-50000J0D01*
G01*
X13392500Y-9852500D02*
X13392500Y-9952500D01*
X13342500Y-9902500D02*
X13442500Y-9902500D01*
X13442500Y-9902500D02*
G75*
G03*
X13442500Y-9902500I-50000J0D01*
G01*
X13392500Y-10106500D02*
X13392500Y-10206500D01*
X13342500Y-10156500D02*
X13442500Y-10156500D01*
X13442500Y-10156500D02*
G75*
G03*
X13442500Y-10156500I-50000J0D01*
G01*
X13630000Y-8007500D02*
X13630000Y-8107500D01*
X13580000Y-8057500D02*
X13680000Y-8057500D01*
X13680000Y-8057500D02*
G75*
G03*
X13680000Y-8057500I-50000J0D01*
G01*
X13646500Y-9852500D02*
X13646500Y-9952500D01*
X13596500Y-9902500D02*
X13696500Y-9902500D01*
X13696500Y-9902500D02*
G75*
G03*
X13696500Y-9902500I-50000J0D01*
G01*
X13646500Y-10106500D02*
X13646500Y-10206500D01*
X13596500Y-10156500D02*
X13696500Y-10156500D01*
X13696500Y-10156500D02*
G75*
G03*
X13696500Y-10156500I-50000J0D01*
G01*
X14220000Y-8007500D02*
X14220000Y-8107500D01*
X14170000Y-8057500D02*
X14270000Y-8057500D01*
X14270000Y-8057500D02*
G75*
G03*
X14270000Y-8057500I-50000J0D01*
G01*
X14470000Y-8007500D02*
X14470000Y-8107500D01*
X14420000Y-8057500D02*
X14520000Y-8057500D01*
X14520000Y-8057500D02*
G75*
G03*
X14520000Y-8057500I-50000J0D01*
G01*
X15292000Y-10370000D02*
X15292000Y-10470000D01*
X15242000Y-10420000D02*
X15342000Y-10420000D01*
X15342000Y-10420000D02*
G75*
G03*
X15342000Y-10420000I-50000J0D01*
G01*
X15546000Y-10370000D02*
X15546000Y-10470000D01*
X15496000Y-10420000D02*
X15596000Y-10420000D01*
X15596000Y-10420000D02*
G75*
G03*
X15596000Y-10420000I-50000J0D01*
G01*
X15800000Y-10370000D02*
X15800000Y-10470000D01*
X15750000Y-10420000D02*
X15850000Y-10420000D01*
X15850000Y-10420000D02*
G75*
G03*
X15850000Y-10420000I-50000J0D01*
G01*
X18742500Y-9920000D02*
X18742500Y-10020000D01*
X18692500Y-9970000D02*
X18792500Y-9970000D01*
X18792500Y-9970000D02*
G75*
G03*
X18792500Y-9970000I-50000J0D01*
G01*
X18996500Y-9920000D02*
X18996500Y-10020000D01*
X18946500Y-9970000D02*
X19046500Y-9970000D01*
X19046500Y-9970000D02*
G75*
G03*
X19046500Y-9970000I-50000J0D01*
G01*
D21*
X15875962Y-8475462D02*
X15875962Y-8383538D01*
X15784038Y-8383538D01*
X15784038Y-8475462D01*
X15875962Y-8475462D01*
X15895000Y-8429500D02*
G75*
G03*
X15895000Y-8429500I-65000J0D01*
G01*
X16375962Y-8475462D02*
X16375962Y-8383538D01*
X16284038Y-8383538D01*
X16284038Y-8475462D01*
X16375962Y-8475462D01*
X16395000Y-8429500D02*
G75*
G03*
X16395000Y-8429500I-65000J0D01*
G01*
D11*
X9059619Y-11062476D02*
X9059619Y-10862476D01*
X9107238Y-10862476D01*
X9135810Y-10872000D01*
X9154857Y-10891048D01*
X9164381Y-10910095D01*
X9173905Y-10948190D01*
X9173905Y-10976762D01*
X9164381Y-11014857D01*
X9154857Y-11033905D01*
X9135810Y-11052952D01*
X9107238Y-11062476D01*
X9059619Y-11062476D01*
X9259619Y-11062476D02*
X9259619Y-10929143D01*
X9259619Y-10967238D02*
X9269143Y-10948190D01*
X9278667Y-10938667D01*
X9297714Y-10929143D01*
X9316762Y-10929143D01*
X9383429Y-11062476D02*
X9383429Y-10929143D01*
X9383429Y-10862476D02*
X9373905Y-10872000D01*
X9383429Y-10881524D01*
X9392952Y-10872000D01*
X9383429Y-10862476D01*
X9383429Y-10881524D01*
X9507238Y-11062476D02*
X9488190Y-11052952D01*
X9478667Y-11033905D01*
X9478667Y-10862476D01*
X9612000Y-11062476D02*
X9592952Y-11052952D01*
X9583429Y-11033905D01*
X9583429Y-10862476D01*
X9840571Y-11062476D02*
X9840571Y-10862476D01*
X9907238Y-11005333D01*
X9973905Y-10862476D01*
X9973905Y-11062476D01*
X10154857Y-11062476D02*
X10154857Y-10957714D01*
X10145333Y-10938667D01*
X10126286Y-10929143D01*
X10088190Y-10929143D01*
X10069143Y-10938667D01*
X10154857Y-11052952D02*
X10135810Y-11062476D01*
X10088190Y-11062476D01*
X10069143Y-11052952D01*
X10059619Y-11033905D01*
X10059619Y-11014857D01*
X10069143Y-10995810D01*
X10088190Y-10986286D01*
X10135810Y-10986286D01*
X10154857Y-10976762D01*
X10250095Y-10929143D02*
X10250095Y-11129143D01*
X10250095Y-10938667D02*
X10269143Y-10929143D01*
X10307238Y-10929143D01*
X10326286Y-10938667D01*
X10335810Y-10948190D01*
X10345333Y-10967238D01*
X10345333Y-11024381D01*
X10335810Y-11043429D01*
X10326286Y-11052952D01*
X10307238Y-11062476D01*
X10269143Y-11062476D01*
X10250095Y-11052952D01*
X10431048Y-11043429D02*
X10440571Y-11052952D01*
X10431048Y-11062476D01*
X10421524Y-11052952D01*
X10431048Y-11043429D01*
X10431048Y-11062476D01*
X10431048Y-10938667D02*
X10440571Y-10948190D01*
X10431048Y-10957714D01*
X10421524Y-10948190D01*
X10431048Y-10938667D01*
X10431048Y-10957714D01*
D12*
X8782000Y-11382000D02*
X8802000Y-11402000D01*
X8802000Y-11382000D02*
X8782000Y-11402000D01*
D11*
X9097714Y-11282476D02*
X9116762Y-11282476D01*
X9135810Y-11292000D01*
X9145333Y-11301524D01*
X9154857Y-11320571D01*
X9164381Y-11358667D01*
X9164381Y-11406286D01*
X9154857Y-11444381D01*
X9145333Y-11463428D01*
X9135810Y-11472952D01*
X9116762Y-11482476D01*
X9097714Y-11482476D01*
X9078667Y-11472952D01*
X9069143Y-11463428D01*
X9059619Y-11444381D01*
X9050095Y-11406286D01*
X9050095Y-11358667D01*
X9059619Y-11320571D01*
X9069143Y-11301524D01*
X9078667Y-11292000D01*
X9097714Y-11282476D01*
X9250095Y-11463428D02*
X9259619Y-11472952D01*
X9250095Y-11482476D01*
X9240571Y-11472952D01*
X9250095Y-11463428D01*
X9250095Y-11482476D01*
X9335810Y-11301524D02*
X9345333Y-11292000D01*
X9364381Y-11282476D01*
X9412000Y-11282476D01*
X9431048Y-11292000D01*
X9440571Y-11301524D01*
X9450095Y-11320571D01*
X9450095Y-11339619D01*
X9440571Y-11368190D01*
X9326286Y-11482476D01*
X9450095Y-11482476D01*
X9573905Y-11282476D02*
X9592952Y-11282476D01*
X9612000Y-11292000D01*
X9621524Y-11301524D01*
X9631048Y-11320571D01*
X9640571Y-11358667D01*
X9640571Y-11406286D01*
X9631048Y-11444381D01*
X9621524Y-11463428D01*
X9612000Y-11472952D01*
X9592952Y-11482476D01*
X9573905Y-11482476D01*
X9554857Y-11472952D01*
X9545333Y-11463428D01*
X9535810Y-11444381D01*
X9526286Y-11406286D01*
X9526286Y-11358667D01*
X9535810Y-11320571D01*
X9545333Y-11301524D01*
X9554857Y-11292000D01*
X9573905Y-11282476D01*
X9764381Y-11282476D02*
X9783429Y-11282476D01*
X9802476Y-11292000D01*
X9812000Y-11301524D01*
X9821524Y-11320571D01*
X9831048Y-11358667D01*
X9831048Y-11406286D01*
X9821524Y-11444381D01*
X9812000Y-11463428D01*
X9802476Y-11472952D01*
X9783429Y-11482476D01*
X9764381Y-11482476D01*
X9745333Y-11472952D01*
X9735810Y-11463428D01*
X9726286Y-11444381D01*
X9716762Y-11406286D01*
X9716762Y-11358667D01*
X9726286Y-11320571D01*
X9735810Y-11301524D01*
X9745333Y-11292000D01*
X9764381Y-11282476D01*
X9916762Y-11482476D02*
X9916762Y-11349143D01*
X9916762Y-11368190D02*
X9926286Y-11358667D01*
X9945333Y-11349143D01*
X9973905Y-11349143D01*
X9992952Y-11358667D01*
X10002476Y-11377714D01*
X10002476Y-11482476D01*
X10002476Y-11377714D02*
X10012000Y-11358667D01*
X10031048Y-11349143D01*
X10059619Y-11349143D01*
X10078667Y-11358667D01*
X10088190Y-11377714D01*
X10088190Y-11482476D01*
X10183429Y-11482476D02*
X10183429Y-11349143D01*
X10183429Y-11368190D02*
X10192952Y-11358667D01*
X10212000Y-11349143D01*
X10240571Y-11349143D01*
X10259619Y-11358667D01*
X10269143Y-11377714D01*
X10269143Y-11482476D01*
X10269143Y-11377714D02*
X10278667Y-11358667D01*
X10297714Y-11349143D01*
X10326286Y-11349143D01*
X10345333Y-11358667D01*
X10354857Y-11377714D01*
X10354857Y-11482476D01*
X10745333Y-11272952D02*
X10573905Y-11530095D01*
X11002476Y-11282476D02*
X11021524Y-11282476D01*
X11040571Y-11292000D01*
X11050095Y-11301524D01*
X11059619Y-11320571D01*
X11069143Y-11358667D01*
X11069143Y-11406286D01*
X11059619Y-11444381D01*
X11050095Y-11463428D01*
X11040571Y-11472952D01*
X11021524Y-11482476D01*
X11002476Y-11482476D01*
X10983429Y-11472952D01*
X10973905Y-11463428D01*
X10964381Y-11444381D01*
X10954857Y-11406286D01*
X10954857Y-11358667D01*
X10964381Y-11320571D01*
X10973905Y-11301524D01*
X10983429Y-11292000D01*
X11002476Y-11282476D01*
X11154857Y-11463428D02*
X11164381Y-11472952D01*
X11154857Y-11482476D01*
X11145333Y-11472952D01*
X11154857Y-11463428D01*
X11154857Y-11482476D01*
X11288190Y-11282476D02*
X11307238Y-11282476D01*
X11326286Y-11292000D01*
X11335809Y-11301524D01*
X11345333Y-11320571D01*
X11354857Y-11358667D01*
X11354857Y-11406286D01*
X11345333Y-11444381D01*
X11335809Y-11463428D01*
X11326286Y-11472952D01*
X11307238Y-11482476D01*
X11288190Y-11482476D01*
X11269143Y-11472952D01*
X11259619Y-11463428D01*
X11250095Y-11444381D01*
X11240571Y-11406286D01*
X11240571Y-11358667D01*
X11250095Y-11320571D01*
X11259619Y-11301524D01*
X11269143Y-11292000D01*
X11288190Y-11282476D01*
X11478667Y-11282476D02*
X11497714Y-11282476D01*
X11516762Y-11292000D01*
X11526286Y-11301524D01*
X11535809Y-11320571D01*
X11545333Y-11358667D01*
X11545333Y-11406286D01*
X11535809Y-11444381D01*
X11526286Y-11463428D01*
X11516762Y-11472952D01*
X11497714Y-11482476D01*
X11478667Y-11482476D01*
X11459619Y-11472952D01*
X11450095Y-11463428D01*
X11440571Y-11444381D01*
X11431048Y-11406286D01*
X11431048Y-11358667D01*
X11440571Y-11320571D01*
X11450095Y-11301524D01*
X11459619Y-11292000D01*
X11478667Y-11282476D01*
X11612000Y-11282476D02*
X11745333Y-11282476D01*
X11659619Y-11482476D01*
X11831048Y-11482476D02*
X11869143Y-11482476D01*
X11888190Y-11472952D01*
X11897714Y-11463428D01*
X11916762Y-11434857D01*
X11926286Y-11396762D01*
X11926286Y-11320571D01*
X11916762Y-11301524D01*
X11907238Y-11292000D01*
X11888190Y-11282476D01*
X11850095Y-11282476D01*
X11831048Y-11292000D01*
X11821524Y-11301524D01*
X11812000Y-11320571D01*
X11812000Y-11368190D01*
X11821524Y-11387238D01*
X11831048Y-11396762D01*
X11850095Y-11406286D01*
X11888190Y-11406286D01*
X11907238Y-11396762D01*
X11916762Y-11387238D01*
X11926286Y-11368190D01*
X12002476Y-11282476D02*
X12002476Y-11320571D01*
X12078667Y-11282476D02*
X12078667Y-11320571D01*
X12373905Y-11558667D02*
X12364381Y-11549143D01*
X12345333Y-11520571D01*
X12335809Y-11501524D01*
X12326286Y-11472952D01*
X12316762Y-11425333D01*
X12316762Y-11387238D01*
X12326286Y-11339619D01*
X12335809Y-11311048D01*
X12345333Y-11292000D01*
X12364381Y-11263428D01*
X12373905Y-11253905D01*
X12478667Y-11368190D02*
X12459619Y-11358667D01*
X12450095Y-11349143D01*
X12440571Y-11330095D01*
X12440571Y-11320571D01*
X12450095Y-11301524D01*
X12459619Y-11292000D01*
X12478667Y-11282476D01*
X12516762Y-11282476D01*
X12535809Y-11292000D01*
X12545333Y-11301524D01*
X12554857Y-11320571D01*
X12554857Y-11330095D01*
X12545333Y-11349143D01*
X12535809Y-11358667D01*
X12516762Y-11368190D01*
X12478667Y-11368190D01*
X12459619Y-11377714D01*
X12450095Y-11387238D01*
X12440571Y-11406286D01*
X12440571Y-11444381D01*
X12450095Y-11463428D01*
X12459619Y-11472952D01*
X12478667Y-11482476D01*
X12516762Y-11482476D01*
X12535809Y-11472952D01*
X12545333Y-11463428D01*
X12554857Y-11444381D01*
X12554857Y-11406286D01*
X12545333Y-11387238D01*
X12535809Y-11377714D01*
X12516762Y-11368190D01*
X12792952Y-11482476D02*
X12792952Y-11282476D01*
X12878667Y-11482476D02*
X12878667Y-11377714D01*
X12869143Y-11358667D01*
X12850095Y-11349143D01*
X12821524Y-11349143D01*
X12802476Y-11358667D01*
X12792952Y-11368190D01*
X13002476Y-11482476D02*
X12983428Y-11472952D01*
X12973905Y-11463428D01*
X12964381Y-11444381D01*
X12964381Y-11387238D01*
X12973905Y-11368190D01*
X12983428Y-11358667D01*
X13002476Y-11349143D01*
X13031048Y-11349143D01*
X13050095Y-11358667D01*
X13059619Y-11368190D01*
X13069143Y-11387238D01*
X13069143Y-11444381D01*
X13059619Y-11463428D01*
X13050095Y-11472952D01*
X13031048Y-11482476D01*
X13002476Y-11482476D01*
X13183428Y-11482476D02*
X13164381Y-11472952D01*
X13154857Y-11453905D01*
X13154857Y-11282476D01*
X13335809Y-11472952D02*
X13316762Y-11482476D01*
X13278667Y-11482476D01*
X13259619Y-11472952D01*
X13250095Y-11453905D01*
X13250095Y-11377714D01*
X13259619Y-11358667D01*
X13278667Y-11349143D01*
X13316762Y-11349143D01*
X13335809Y-11358667D01*
X13345333Y-11377714D01*
X13345333Y-11396762D01*
X13250095Y-11415809D01*
X13421524Y-11472952D02*
X13440571Y-11482476D01*
X13478667Y-11482476D01*
X13497714Y-11472952D01*
X13507238Y-11453905D01*
X13507238Y-11444381D01*
X13497714Y-11425333D01*
X13478667Y-11415809D01*
X13450095Y-11415809D01*
X13431048Y-11406286D01*
X13421524Y-11387238D01*
X13421524Y-11377714D01*
X13431048Y-11358667D01*
X13450095Y-11349143D01*
X13478667Y-11349143D01*
X13497714Y-11358667D01*
X13573905Y-11558667D02*
X13583428Y-11549143D01*
X13602476Y-11520571D01*
X13612000Y-11501524D01*
X13621524Y-11472952D01*
X13631048Y-11425333D01*
X13631048Y-11387238D01*
X13621524Y-11339619D01*
X13612000Y-11311048D01*
X13602476Y-11292000D01*
X13583428Y-11263428D01*
X13573905Y-11253905D01*
D13*
X8802000Y-11656000D02*
G75*
G03*
X8802000Y-11656000I-12500J0D01*
G01*
D11*
X9097714Y-11546476D02*
X9116762Y-11546476D01*
X9135810Y-11556000D01*
X9145333Y-11565524D01*
X9154857Y-11584571D01*
X9164381Y-11622667D01*
X9164381Y-11670286D01*
X9154857Y-11708381D01*
X9145333Y-11727428D01*
X9135810Y-11736952D01*
X9116762Y-11746476D01*
X9097714Y-11746476D01*
X9078667Y-11736952D01*
X9069143Y-11727428D01*
X9059619Y-11708381D01*
X9050095Y-11670286D01*
X9050095Y-11622667D01*
X9059619Y-11584571D01*
X9069143Y-11565524D01*
X9078667Y-11556000D01*
X9097714Y-11546476D01*
X9250095Y-11727428D02*
X9259619Y-11736952D01*
X9250095Y-11746476D01*
X9240571Y-11736952D01*
X9250095Y-11727428D01*
X9250095Y-11746476D01*
X9335810Y-11565524D02*
X9345333Y-11556000D01*
X9364381Y-11546476D01*
X9412000Y-11546476D01*
X9431048Y-11556000D01*
X9440571Y-11565524D01*
X9450095Y-11584571D01*
X9450095Y-11603619D01*
X9440571Y-11632190D01*
X9326286Y-11746476D01*
X9450095Y-11746476D01*
X9631048Y-11546476D02*
X9535810Y-11546476D01*
X9526286Y-11641714D01*
X9535810Y-11632190D01*
X9554857Y-11622667D01*
X9602476Y-11622667D01*
X9621524Y-11632190D01*
X9631048Y-11641714D01*
X9640571Y-11660762D01*
X9640571Y-11708381D01*
X9631048Y-11727428D01*
X9621524Y-11736952D01*
X9602476Y-11746476D01*
X9554857Y-11746476D01*
X9535810Y-11736952D01*
X9526286Y-11727428D01*
X9764381Y-11546476D02*
X9783429Y-11546476D01*
X9802476Y-11556000D01*
X9812000Y-11565524D01*
X9821524Y-11584571D01*
X9831048Y-11622667D01*
X9831048Y-11670286D01*
X9821524Y-11708381D01*
X9812000Y-11727428D01*
X9802476Y-11736952D01*
X9783429Y-11746476D01*
X9764381Y-11746476D01*
X9745333Y-11736952D01*
X9735810Y-11727428D01*
X9726286Y-11708381D01*
X9716762Y-11670286D01*
X9716762Y-11622667D01*
X9726286Y-11584571D01*
X9735810Y-11565524D01*
X9745333Y-11556000D01*
X9764381Y-11546476D01*
X9916762Y-11746476D02*
X9916762Y-11613143D01*
X9916762Y-11632190D02*
X9926286Y-11622667D01*
X9945333Y-11613143D01*
X9973905Y-11613143D01*
X9992952Y-11622667D01*
X10002476Y-11641714D01*
X10002476Y-11746476D01*
X10002476Y-11641714D02*
X10012000Y-11622667D01*
X10031048Y-11613143D01*
X10059619Y-11613143D01*
X10078667Y-11622667D01*
X10088190Y-11641714D01*
X10088190Y-11746476D01*
X10183429Y-11746476D02*
X10183429Y-11613143D01*
X10183429Y-11632190D02*
X10192952Y-11622667D01*
X10212000Y-11613143D01*
X10240571Y-11613143D01*
X10259619Y-11622667D01*
X10269143Y-11641714D01*
X10269143Y-11746476D01*
X10269143Y-11641714D02*
X10278667Y-11622667D01*
X10297714Y-11613143D01*
X10326286Y-11613143D01*
X10345333Y-11622667D01*
X10354857Y-11641714D01*
X10354857Y-11746476D01*
X10745333Y-11536952D02*
X10573905Y-11794095D01*
X11002476Y-11546476D02*
X11021524Y-11546476D01*
X11040571Y-11556000D01*
X11050095Y-11565524D01*
X11059619Y-11584571D01*
X11069143Y-11622667D01*
X11069143Y-11670286D01*
X11059619Y-11708381D01*
X11050095Y-11727428D01*
X11040571Y-11736952D01*
X11021524Y-11746476D01*
X11002476Y-11746476D01*
X10983429Y-11736952D01*
X10973905Y-11727428D01*
X10964381Y-11708381D01*
X10954857Y-11670286D01*
X10954857Y-11622667D01*
X10964381Y-11584571D01*
X10973905Y-11565524D01*
X10983429Y-11556000D01*
X11002476Y-11546476D01*
X11154857Y-11727428D02*
X11164381Y-11736952D01*
X11154857Y-11746476D01*
X11145333Y-11736952D01*
X11154857Y-11727428D01*
X11154857Y-11746476D01*
X11288190Y-11546476D02*
X11307238Y-11546476D01*
X11326286Y-11556000D01*
X11335809Y-11565524D01*
X11345333Y-11584571D01*
X11354857Y-11622667D01*
X11354857Y-11670286D01*
X11345333Y-11708381D01*
X11335809Y-11727428D01*
X11326286Y-11736952D01*
X11307238Y-11746476D01*
X11288190Y-11746476D01*
X11269143Y-11736952D01*
X11259619Y-11727428D01*
X11250095Y-11708381D01*
X11240571Y-11670286D01*
X11240571Y-11622667D01*
X11250095Y-11584571D01*
X11259619Y-11565524D01*
X11269143Y-11556000D01*
X11288190Y-11546476D01*
X11478667Y-11546476D02*
X11497714Y-11546476D01*
X11516762Y-11556000D01*
X11526286Y-11565524D01*
X11535809Y-11584571D01*
X11545333Y-11622667D01*
X11545333Y-11670286D01*
X11535809Y-11708381D01*
X11526286Y-11727428D01*
X11516762Y-11736952D01*
X11497714Y-11746476D01*
X11478667Y-11746476D01*
X11459619Y-11736952D01*
X11450095Y-11727428D01*
X11440571Y-11708381D01*
X11431048Y-11670286D01*
X11431048Y-11622667D01*
X11440571Y-11584571D01*
X11450095Y-11565524D01*
X11459619Y-11556000D01*
X11478667Y-11546476D01*
X11640571Y-11746476D02*
X11678667Y-11746476D01*
X11697714Y-11736952D01*
X11707238Y-11727428D01*
X11726286Y-11698857D01*
X11735809Y-11660762D01*
X11735809Y-11584571D01*
X11726286Y-11565524D01*
X11716762Y-11556000D01*
X11697714Y-11546476D01*
X11659619Y-11546476D01*
X11640571Y-11556000D01*
X11631048Y-11565524D01*
X11621524Y-11584571D01*
X11621524Y-11632190D01*
X11631048Y-11651238D01*
X11640571Y-11660762D01*
X11659619Y-11670286D01*
X11697714Y-11670286D01*
X11716762Y-11660762D01*
X11726286Y-11651238D01*
X11735809Y-11632190D01*
X11850095Y-11632190D02*
X11831048Y-11622667D01*
X11821524Y-11613143D01*
X11812000Y-11594095D01*
X11812000Y-11584571D01*
X11821524Y-11565524D01*
X11831048Y-11556000D01*
X11850095Y-11546476D01*
X11888190Y-11546476D01*
X11907238Y-11556000D01*
X11916762Y-11565524D01*
X11926286Y-11584571D01*
X11926286Y-11594095D01*
X11916762Y-11613143D01*
X11907238Y-11622667D01*
X11888190Y-11632190D01*
X11850095Y-11632190D01*
X11831048Y-11641714D01*
X11821524Y-11651238D01*
X11812000Y-11670286D01*
X11812000Y-11708381D01*
X11821524Y-11727428D01*
X11831048Y-11736952D01*
X11850095Y-11746476D01*
X11888190Y-11746476D01*
X11907238Y-11736952D01*
X11916762Y-11727428D01*
X11926286Y-11708381D01*
X11926286Y-11670286D01*
X11916762Y-11651238D01*
X11907238Y-11641714D01*
X11888190Y-11632190D01*
X12002476Y-11546476D02*
X12002476Y-11584571D01*
X12078667Y-11546476D02*
X12078667Y-11584571D01*
X12373905Y-11822667D02*
X12364381Y-11813143D01*
X12345333Y-11784571D01*
X12335809Y-11765524D01*
X12326286Y-11736952D01*
X12316762Y-11689333D01*
X12316762Y-11651238D01*
X12326286Y-11603619D01*
X12335809Y-11575048D01*
X12345333Y-11556000D01*
X12364381Y-11527428D01*
X12373905Y-11517905D01*
X12440571Y-11565524D02*
X12450095Y-11556000D01*
X12469143Y-11546476D01*
X12516762Y-11546476D01*
X12535809Y-11556000D01*
X12545333Y-11565524D01*
X12554857Y-11584571D01*
X12554857Y-11603619D01*
X12545333Y-11632190D01*
X12431048Y-11746476D01*
X12554857Y-11746476D01*
X12678667Y-11546476D02*
X12697714Y-11546476D01*
X12716762Y-11556000D01*
X12726286Y-11565524D01*
X12735809Y-11584571D01*
X12745333Y-11622667D01*
X12745333Y-11670286D01*
X12735809Y-11708381D01*
X12726286Y-11727428D01*
X12716762Y-11736952D01*
X12697714Y-11746476D01*
X12678667Y-11746476D01*
X12659619Y-11736952D01*
X12650095Y-11727428D01*
X12640571Y-11708381D01*
X12631048Y-11670286D01*
X12631048Y-11622667D01*
X12640571Y-11584571D01*
X12650095Y-11565524D01*
X12659619Y-11556000D01*
X12678667Y-11546476D01*
X12983428Y-11746476D02*
X12983428Y-11546476D01*
X13069143Y-11746476D02*
X13069143Y-11641714D01*
X13059619Y-11622667D01*
X13040571Y-11613143D01*
X13012000Y-11613143D01*
X12992952Y-11622667D01*
X12983428Y-11632190D01*
X13192952Y-11746476D02*
X13173905Y-11736952D01*
X13164381Y-11727428D01*
X13154857Y-11708381D01*
X13154857Y-11651238D01*
X13164381Y-11632190D01*
X13173905Y-11622667D01*
X13192952Y-11613143D01*
X13221524Y-11613143D01*
X13240571Y-11622667D01*
X13250095Y-11632190D01*
X13259619Y-11651238D01*
X13259619Y-11708381D01*
X13250095Y-11727428D01*
X13240571Y-11736952D01*
X13221524Y-11746476D01*
X13192952Y-11746476D01*
X13373905Y-11746476D02*
X13354857Y-11736952D01*
X13345333Y-11717905D01*
X13345333Y-11546476D01*
X13526286Y-11736952D02*
X13507238Y-11746476D01*
X13469143Y-11746476D01*
X13450095Y-11736952D01*
X13440571Y-11717905D01*
X13440571Y-11641714D01*
X13450095Y-11622667D01*
X13469143Y-11613143D01*
X13507238Y-11613143D01*
X13526286Y-11622667D01*
X13535809Y-11641714D01*
X13535809Y-11660762D01*
X13440571Y-11679809D01*
X13612000Y-11736952D02*
X13631048Y-11746476D01*
X13669143Y-11746476D01*
X13688190Y-11736952D01*
X13697714Y-11717905D01*
X13697714Y-11708381D01*
X13688190Y-11689333D01*
X13669143Y-11679809D01*
X13640571Y-11679809D01*
X13621524Y-11670286D01*
X13612000Y-11651238D01*
X13612000Y-11641714D01*
X13621524Y-11622667D01*
X13640571Y-11613143D01*
X13669143Y-11613143D01*
X13688190Y-11622667D01*
X13764381Y-11822667D02*
X13773905Y-11813143D01*
X13792952Y-11784571D01*
X13802476Y-11765524D01*
X13812000Y-11736952D01*
X13821524Y-11689333D01*
X13821524Y-11651238D01*
X13812000Y-11603619D01*
X13802476Y-11575048D01*
X13792952Y-11556000D01*
X13773905Y-11527428D01*
X13764381Y-11517905D01*
D14*
X8787000Y-11905000D02*
X8787000Y-11935000D01*
X8772000Y-11920000D02*
X8802000Y-11920000D01*
D11*
X9097714Y-11810476D02*
X9116762Y-11810476D01*
X9135810Y-11820000D01*
X9145333Y-11829524D01*
X9154857Y-11848571D01*
X9164381Y-11886667D01*
X9164381Y-11934286D01*
X9154857Y-11972381D01*
X9145333Y-11991428D01*
X9135810Y-12000952D01*
X9116762Y-12010476D01*
X9097714Y-12010476D01*
X9078667Y-12000952D01*
X9069143Y-11991428D01*
X9059619Y-11972381D01*
X9050095Y-11934286D01*
X9050095Y-11886667D01*
X9059619Y-11848571D01*
X9069143Y-11829524D01*
X9078667Y-11820000D01*
X9097714Y-11810476D01*
X9250095Y-11991428D02*
X9259619Y-12000952D01*
X9250095Y-12010476D01*
X9240571Y-12000952D01*
X9250095Y-11991428D01*
X9250095Y-12010476D01*
X9326286Y-11810476D02*
X9450095Y-11810476D01*
X9383429Y-11886667D01*
X9412000Y-11886667D01*
X9431048Y-11896190D01*
X9440571Y-11905714D01*
X9450095Y-11924762D01*
X9450095Y-11972381D01*
X9440571Y-11991428D01*
X9431048Y-12000952D01*
X9412000Y-12010476D01*
X9354857Y-12010476D01*
X9335810Y-12000952D01*
X9326286Y-11991428D01*
X9573905Y-11810476D02*
X9592952Y-11810476D01*
X9612000Y-11820000D01*
X9621524Y-11829524D01*
X9631048Y-11848571D01*
X9640571Y-11886667D01*
X9640571Y-11934286D01*
X9631048Y-11972381D01*
X9621524Y-11991428D01*
X9612000Y-12000952D01*
X9592952Y-12010476D01*
X9573905Y-12010476D01*
X9554857Y-12000952D01*
X9545333Y-11991428D01*
X9535810Y-11972381D01*
X9526286Y-11934286D01*
X9526286Y-11886667D01*
X9535810Y-11848571D01*
X9545333Y-11829524D01*
X9554857Y-11820000D01*
X9573905Y-11810476D01*
X9764381Y-11810476D02*
X9783429Y-11810476D01*
X9802476Y-11820000D01*
X9812000Y-11829524D01*
X9821524Y-11848571D01*
X9831048Y-11886667D01*
X9831048Y-11934286D01*
X9821524Y-11972381D01*
X9812000Y-11991428D01*
X9802476Y-12000952D01*
X9783429Y-12010476D01*
X9764381Y-12010476D01*
X9745333Y-12000952D01*
X9735810Y-11991428D01*
X9726286Y-11972381D01*
X9716762Y-11934286D01*
X9716762Y-11886667D01*
X9726286Y-11848571D01*
X9735810Y-11829524D01*
X9745333Y-11820000D01*
X9764381Y-11810476D01*
X9916762Y-12010476D02*
X9916762Y-11877143D01*
X9916762Y-11896190D02*
X9926286Y-11886667D01*
X9945333Y-11877143D01*
X9973905Y-11877143D01*
X9992952Y-11886667D01*
X10002476Y-11905714D01*
X10002476Y-12010476D01*
X10002476Y-11905714D02*
X10012000Y-11886667D01*
X10031048Y-11877143D01*
X10059619Y-11877143D01*
X10078667Y-11886667D01*
X10088190Y-11905714D01*
X10088190Y-12010476D01*
X10183429Y-12010476D02*
X10183429Y-11877143D01*
X10183429Y-11896190D02*
X10192952Y-11886667D01*
X10212000Y-11877143D01*
X10240571Y-11877143D01*
X10259619Y-11886667D01*
X10269143Y-11905714D01*
X10269143Y-12010476D01*
X10269143Y-11905714D02*
X10278667Y-11886667D01*
X10297714Y-11877143D01*
X10326286Y-11877143D01*
X10345333Y-11886667D01*
X10354857Y-11905714D01*
X10354857Y-12010476D01*
X10745333Y-11800952D02*
X10573905Y-12058095D01*
X11002476Y-11810476D02*
X11021524Y-11810476D01*
X11040571Y-11820000D01*
X11050095Y-11829524D01*
X11059619Y-11848571D01*
X11069143Y-11886667D01*
X11069143Y-11934286D01*
X11059619Y-11972381D01*
X11050095Y-11991428D01*
X11040571Y-12000952D01*
X11021524Y-12010476D01*
X11002476Y-12010476D01*
X10983429Y-12000952D01*
X10973905Y-11991428D01*
X10964381Y-11972381D01*
X10954857Y-11934286D01*
X10954857Y-11886667D01*
X10964381Y-11848571D01*
X10973905Y-11829524D01*
X10983429Y-11820000D01*
X11002476Y-11810476D01*
X11154857Y-11991428D02*
X11164381Y-12000952D01*
X11154857Y-12010476D01*
X11145333Y-12000952D01*
X11154857Y-11991428D01*
X11154857Y-12010476D01*
X11288190Y-11810476D02*
X11307238Y-11810476D01*
X11326286Y-11820000D01*
X11335809Y-11829524D01*
X11345333Y-11848571D01*
X11354857Y-11886667D01*
X11354857Y-11934286D01*
X11345333Y-11972381D01*
X11335809Y-11991428D01*
X11326286Y-12000952D01*
X11307238Y-12010476D01*
X11288190Y-12010476D01*
X11269143Y-12000952D01*
X11259619Y-11991428D01*
X11250095Y-11972381D01*
X11240571Y-11934286D01*
X11240571Y-11886667D01*
X11250095Y-11848571D01*
X11259619Y-11829524D01*
X11269143Y-11820000D01*
X11288190Y-11810476D01*
X11545333Y-12010476D02*
X11431048Y-12010476D01*
X11488190Y-12010476D02*
X11488190Y-11810476D01*
X11469143Y-11839048D01*
X11450095Y-11858095D01*
X11431048Y-11867619D01*
X11735809Y-12010476D02*
X11621524Y-12010476D01*
X11678667Y-12010476D02*
X11678667Y-11810476D01*
X11659619Y-11839048D01*
X11640571Y-11858095D01*
X11621524Y-11867619D01*
X11850095Y-11896190D02*
X11831048Y-11886667D01*
X11821524Y-11877143D01*
X11812000Y-11858095D01*
X11812000Y-11848571D01*
X11821524Y-11829524D01*
X11831048Y-11820000D01*
X11850095Y-11810476D01*
X11888190Y-11810476D01*
X11907238Y-11820000D01*
X11916762Y-11829524D01*
X11926286Y-11848571D01*
X11926286Y-11858095D01*
X11916762Y-11877143D01*
X11907238Y-11886667D01*
X11888190Y-11896190D01*
X11850095Y-11896190D01*
X11831048Y-11905714D01*
X11821524Y-11915238D01*
X11812000Y-11934286D01*
X11812000Y-11972381D01*
X11821524Y-11991428D01*
X11831048Y-12000952D01*
X11850095Y-12010476D01*
X11888190Y-12010476D01*
X11907238Y-12000952D01*
X11916762Y-11991428D01*
X11926286Y-11972381D01*
X11926286Y-11934286D01*
X11916762Y-11915238D01*
X11907238Y-11905714D01*
X11888190Y-11896190D01*
X12002476Y-11810476D02*
X12002476Y-11848571D01*
X12078667Y-11810476D02*
X12078667Y-11848571D01*
X12373905Y-12086667D02*
X12364381Y-12077143D01*
X12345333Y-12048571D01*
X12335809Y-12029524D01*
X12326286Y-12000952D01*
X12316762Y-11953333D01*
X12316762Y-11915238D01*
X12326286Y-11867619D01*
X12335809Y-11839048D01*
X12345333Y-11820000D01*
X12364381Y-11791428D01*
X12373905Y-11781905D01*
X12431048Y-11810476D02*
X12564381Y-11810476D01*
X12478667Y-12010476D01*
X12792952Y-12010476D02*
X12792952Y-11810476D01*
X12878667Y-12010476D02*
X12878667Y-11905714D01*
X12869143Y-11886667D01*
X12850095Y-11877143D01*
X12821524Y-11877143D01*
X12802476Y-11886667D01*
X12792952Y-11896190D01*
X13002476Y-12010476D02*
X12983428Y-12000952D01*
X12973905Y-11991428D01*
X12964381Y-11972381D01*
X12964381Y-11915238D01*
X12973905Y-11896190D01*
X12983428Y-11886667D01*
X13002476Y-11877143D01*
X13031048Y-11877143D01*
X13050095Y-11886667D01*
X13059619Y-11896190D01*
X13069143Y-11915238D01*
X13069143Y-11972381D01*
X13059619Y-11991428D01*
X13050095Y-12000952D01*
X13031048Y-12010476D01*
X13002476Y-12010476D01*
X13183428Y-12010476D02*
X13164381Y-12000952D01*
X13154857Y-11981905D01*
X13154857Y-11810476D01*
X13335809Y-12000952D02*
X13316762Y-12010476D01*
X13278667Y-12010476D01*
X13259619Y-12000952D01*
X13250095Y-11981905D01*
X13250095Y-11905714D01*
X13259619Y-11886667D01*
X13278667Y-11877143D01*
X13316762Y-11877143D01*
X13335809Y-11886667D01*
X13345333Y-11905714D01*
X13345333Y-11924762D01*
X13250095Y-11943809D01*
X13421524Y-12000952D02*
X13440571Y-12010476D01*
X13478667Y-12010476D01*
X13497714Y-12000952D01*
X13507238Y-11981905D01*
X13507238Y-11972381D01*
X13497714Y-11953333D01*
X13478667Y-11943809D01*
X13450095Y-11943809D01*
X13431048Y-11934286D01*
X13421524Y-11915238D01*
X13421524Y-11905714D01*
X13431048Y-11886667D01*
X13450095Y-11877143D01*
X13478667Y-11877143D01*
X13497714Y-11886667D01*
X13573905Y-12086667D02*
X13583428Y-12077143D01*
X13602476Y-12048571D01*
X13612000Y-12029524D01*
X13621524Y-12000952D01*
X13631048Y-11953333D01*
X13631048Y-11915238D01*
X13621524Y-11867619D01*
X13612000Y-11839048D01*
X13602476Y-11820000D01*
X13583428Y-11791428D01*
X13573905Y-11781905D01*
D15*
X8796142Y-12198142D02*
X8796142Y-12169858D01*
X8767858Y-12169858D01*
X8767858Y-12198142D01*
X8796142Y-12198142D01*
D11*
X9097714Y-12074476D02*
X9116762Y-12074476D01*
X9135810Y-12084000D01*
X9145333Y-12093524D01*
X9154857Y-12112571D01*
X9164381Y-12150667D01*
X9164381Y-12198286D01*
X9154857Y-12236381D01*
X9145333Y-12255428D01*
X9135810Y-12264952D01*
X9116762Y-12274476D01*
X9097714Y-12274476D01*
X9078667Y-12264952D01*
X9069143Y-12255428D01*
X9059619Y-12236381D01*
X9050095Y-12198286D01*
X9050095Y-12150667D01*
X9059619Y-12112571D01*
X9069143Y-12093524D01*
X9078667Y-12084000D01*
X9097714Y-12074476D01*
X9250095Y-12255428D02*
X9259619Y-12264952D01*
X9250095Y-12274476D01*
X9240571Y-12264952D01*
X9250095Y-12255428D01*
X9250095Y-12274476D01*
X9431048Y-12141143D02*
X9431048Y-12274476D01*
X9383429Y-12064952D02*
X9335810Y-12207809D01*
X9459619Y-12207809D01*
X9573905Y-12074476D02*
X9592952Y-12074476D01*
X9612000Y-12084000D01*
X9621524Y-12093524D01*
X9631048Y-12112571D01*
X9640571Y-12150667D01*
X9640571Y-12198286D01*
X9631048Y-12236381D01*
X9621524Y-12255428D01*
X9612000Y-12264952D01*
X9592952Y-12274476D01*
X9573905Y-12274476D01*
X9554857Y-12264952D01*
X9545333Y-12255428D01*
X9535810Y-12236381D01*
X9526286Y-12198286D01*
X9526286Y-12150667D01*
X9535810Y-12112571D01*
X9545333Y-12093524D01*
X9554857Y-12084000D01*
X9573905Y-12074476D01*
X9764381Y-12074476D02*
X9783429Y-12074476D01*
X9802476Y-12084000D01*
X9812000Y-12093524D01*
X9821524Y-12112571D01*
X9831048Y-12150667D01*
X9831048Y-12198286D01*
X9821524Y-12236381D01*
X9812000Y-12255428D01*
X9802476Y-12264952D01*
X9783429Y-12274476D01*
X9764381Y-12274476D01*
X9745333Y-12264952D01*
X9735810Y-12255428D01*
X9726286Y-12236381D01*
X9716762Y-12198286D01*
X9716762Y-12150667D01*
X9726286Y-12112571D01*
X9735810Y-12093524D01*
X9745333Y-12084000D01*
X9764381Y-12074476D01*
X9916762Y-12274476D02*
X9916762Y-12141143D01*
X9916762Y-12160190D02*
X9926286Y-12150667D01*
X9945333Y-12141143D01*
X9973905Y-12141143D01*
X9992952Y-12150667D01*
X10002476Y-12169714D01*
X10002476Y-12274476D01*
X10002476Y-12169714D02*
X10012000Y-12150667D01*
X10031048Y-12141143D01*
X10059619Y-12141143D01*
X10078667Y-12150667D01*
X10088190Y-12169714D01*
X10088190Y-12274476D01*
X10183429Y-12274476D02*
X10183429Y-12141143D01*
X10183429Y-12160190D02*
X10192952Y-12150667D01*
X10212000Y-12141143D01*
X10240571Y-12141143D01*
X10259619Y-12150667D01*
X10269143Y-12169714D01*
X10269143Y-12274476D01*
X10269143Y-12169714D02*
X10278667Y-12150667D01*
X10297714Y-12141143D01*
X10326286Y-12141143D01*
X10345333Y-12150667D01*
X10354857Y-12169714D01*
X10354857Y-12274476D01*
X10745333Y-12064952D02*
X10573905Y-12322095D01*
X11002476Y-12074476D02*
X11021524Y-12074476D01*
X11040571Y-12084000D01*
X11050095Y-12093524D01*
X11059619Y-12112571D01*
X11069143Y-12150667D01*
X11069143Y-12198286D01*
X11059619Y-12236381D01*
X11050095Y-12255428D01*
X11040571Y-12264952D01*
X11021524Y-12274476D01*
X11002476Y-12274476D01*
X10983429Y-12264952D01*
X10973905Y-12255428D01*
X10964381Y-12236381D01*
X10954857Y-12198286D01*
X10954857Y-12150667D01*
X10964381Y-12112571D01*
X10973905Y-12093524D01*
X10983429Y-12084000D01*
X11002476Y-12074476D01*
X11154857Y-12255428D02*
X11164381Y-12264952D01*
X11154857Y-12274476D01*
X11145333Y-12264952D01*
X11154857Y-12255428D01*
X11154857Y-12274476D01*
X11288190Y-12074476D02*
X11307238Y-12074476D01*
X11326286Y-12084000D01*
X11335809Y-12093524D01*
X11345333Y-12112571D01*
X11354857Y-12150667D01*
X11354857Y-12198286D01*
X11345333Y-12236381D01*
X11335809Y-12255428D01*
X11326286Y-12264952D01*
X11307238Y-12274476D01*
X11288190Y-12274476D01*
X11269143Y-12264952D01*
X11259619Y-12255428D01*
X11250095Y-12236381D01*
X11240571Y-12198286D01*
X11240571Y-12150667D01*
X11250095Y-12112571D01*
X11259619Y-12093524D01*
X11269143Y-12084000D01*
X11288190Y-12074476D01*
X11545333Y-12274476D02*
X11431048Y-12274476D01*
X11488190Y-12274476D02*
X11488190Y-12074476D01*
X11469143Y-12103048D01*
X11450095Y-12122095D01*
X11431048Y-12131619D01*
X11726286Y-12074476D02*
X11631048Y-12074476D01*
X11621524Y-12169714D01*
X11631048Y-12160190D01*
X11650095Y-12150667D01*
X11697714Y-12150667D01*
X11716762Y-12160190D01*
X11726286Y-12169714D01*
X11735809Y-12188762D01*
X11735809Y-12236381D01*
X11726286Y-12255428D01*
X11716762Y-12264952D01*
X11697714Y-12274476D01*
X11650095Y-12274476D01*
X11631048Y-12264952D01*
X11621524Y-12255428D01*
X11802476Y-12074476D02*
X11935809Y-12074476D01*
X11850095Y-12274476D01*
X12002476Y-12074476D02*
X12002476Y-12112571D01*
X12078667Y-12074476D02*
X12078667Y-12112571D01*
X12373905Y-12350667D02*
X12364381Y-12341143D01*
X12345333Y-12312571D01*
X12335809Y-12293524D01*
X12326286Y-12264952D01*
X12316762Y-12217333D01*
X12316762Y-12179238D01*
X12326286Y-12131619D01*
X12335809Y-12103048D01*
X12345333Y-12084000D01*
X12364381Y-12055428D01*
X12373905Y-12045905D01*
X12535809Y-12141143D02*
X12535809Y-12274476D01*
X12488190Y-12064952D02*
X12440571Y-12207809D01*
X12564381Y-12207809D01*
X12726286Y-12074476D02*
X12688190Y-12074476D01*
X12669143Y-12084000D01*
X12659619Y-12093524D01*
X12640571Y-12122095D01*
X12631048Y-12160190D01*
X12631048Y-12236381D01*
X12640571Y-12255428D01*
X12650095Y-12264952D01*
X12669143Y-12274476D01*
X12707238Y-12274476D01*
X12726286Y-12264952D01*
X12735809Y-12255428D01*
X12745333Y-12236381D01*
X12745333Y-12188762D01*
X12735809Y-12169714D01*
X12726286Y-12160190D01*
X12707238Y-12150667D01*
X12669143Y-12150667D01*
X12650095Y-12160190D01*
X12640571Y-12169714D01*
X12631048Y-12188762D01*
X12983428Y-12274476D02*
X12983428Y-12074476D01*
X13069143Y-12274476D02*
X13069143Y-12169714D01*
X13059619Y-12150667D01*
X13040571Y-12141143D01*
X13012000Y-12141143D01*
X12992952Y-12150667D01*
X12983428Y-12160190D01*
X13192952Y-12274476D02*
X13173905Y-12264952D01*
X13164381Y-12255428D01*
X13154857Y-12236381D01*
X13154857Y-12179238D01*
X13164381Y-12160190D01*
X13173905Y-12150667D01*
X13192952Y-12141143D01*
X13221524Y-12141143D01*
X13240571Y-12150667D01*
X13250095Y-12160190D01*
X13259619Y-12179238D01*
X13259619Y-12236381D01*
X13250095Y-12255428D01*
X13240571Y-12264952D01*
X13221524Y-12274476D01*
X13192952Y-12274476D01*
X13373905Y-12274476D02*
X13354857Y-12264952D01*
X13345333Y-12245905D01*
X13345333Y-12074476D01*
X13526286Y-12264952D02*
X13507238Y-12274476D01*
X13469143Y-12274476D01*
X13450095Y-12264952D01*
X13440571Y-12245905D01*
X13440571Y-12169714D01*
X13450095Y-12150667D01*
X13469143Y-12141143D01*
X13507238Y-12141143D01*
X13526286Y-12150667D01*
X13535809Y-12169714D01*
X13535809Y-12188762D01*
X13440571Y-12207809D01*
X13612000Y-12264952D02*
X13631048Y-12274476D01*
X13669143Y-12274476D01*
X13688190Y-12264952D01*
X13697714Y-12245905D01*
X13697714Y-12236381D01*
X13688190Y-12217333D01*
X13669143Y-12207809D01*
X13640571Y-12207809D01*
X13621524Y-12198286D01*
X13612000Y-12179238D01*
X13612000Y-12169714D01*
X13621524Y-12150667D01*
X13640571Y-12141143D01*
X13669143Y-12141143D01*
X13688190Y-12150667D01*
X13764381Y-12350667D02*
X13773905Y-12341143D01*
X13792952Y-12312571D01*
X13802476Y-12293524D01*
X13812000Y-12264952D01*
X13821524Y-12217333D01*
X13821524Y-12179238D01*
X13812000Y-12131619D01*
X13802476Y-12103048D01*
X13792952Y-12084000D01*
X13773905Y-12055428D01*
X13764381Y-12045905D01*
D10*
X8777000Y-12473000D02*
X8802000Y-12448000D01*
X8777000Y-12423000D01*
X8752000Y-12448000D01*
X8777000Y-12473000D01*
D11*
X9097714Y-12338476D02*
X9116762Y-12338476D01*
X9135810Y-12348000D01*
X9145333Y-12357524D01*
X9154857Y-12376571D01*
X9164381Y-12414667D01*
X9164381Y-12462286D01*
X9154857Y-12500381D01*
X9145333Y-12519428D01*
X9135810Y-12528952D01*
X9116762Y-12538476D01*
X9097714Y-12538476D01*
X9078667Y-12528952D01*
X9069143Y-12519428D01*
X9059619Y-12500381D01*
X9050095Y-12462286D01*
X9050095Y-12414667D01*
X9059619Y-12376571D01*
X9069143Y-12357524D01*
X9078667Y-12348000D01*
X9097714Y-12338476D01*
X9250095Y-12519428D02*
X9259619Y-12528952D01*
X9250095Y-12538476D01*
X9240571Y-12528952D01*
X9250095Y-12519428D01*
X9250095Y-12538476D01*
X9440571Y-12338476D02*
X9345333Y-12338476D01*
X9335810Y-12433714D01*
X9345333Y-12424190D01*
X9364381Y-12414667D01*
X9412000Y-12414667D01*
X9431048Y-12424190D01*
X9440571Y-12433714D01*
X9450095Y-12452762D01*
X9450095Y-12500381D01*
X9440571Y-12519428D01*
X9431048Y-12528952D01*
X9412000Y-12538476D01*
X9364381Y-12538476D01*
X9345333Y-12528952D01*
X9335810Y-12519428D01*
X9573905Y-12338476D02*
X9592952Y-12338476D01*
X9612000Y-12348000D01*
X9621524Y-12357524D01*
X9631048Y-12376571D01*
X9640571Y-12414667D01*
X9640571Y-12462286D01*
X9631048Y-12500381D01*
X9621524Y-12519428D01*
X9612000Y-12528952D01*
X9592952Y-12538476D01*
X9573905Y-12538476D01*
X9554857Y-12528952D01*
X9545333Y-12519428D01*
X9535810Y-12500381D01*
X9526286Y-12462286D01*
X9526286Y-12414667D01*
X9535810Y-12376571D01*
X9545333Y-12357524D01*
X9554857Y-12348000D01*
X9573905Y-12338476D01*
X9764381Y-12338476D02*
X9783429Y-12338476D01*
X9802476Y-12348000D01*
X9812000Y-12357524D01*
X9821524Y-12376571D01*
X9831048Y-12414667D01*
X9831048Y-12462286D01*
X9821524Y-12500381D01*
X9812000Y-12519428D01*
X9802476Y-12528952D01*
X9783429Y-12538476D01*
X9764381Y-12538476D01*
X9745333Y-12528952D01*
X9735810Y-12519428D01*
X9726286Y-12500381D01*
X9716762Y-12462286D01*
X9716762Y-12414667D01*
X9726286Y-12376571D01*
X9735810Y-12357524D01*
X9745333Y-12348000D01*
X9764381Y-12338476D01*
X9916762Y-12538476D02*
X9916762Y-12405143D01*
X9916762Y-12424190D02*
X9926286Y-12414667D01*
X9945333Y-12405143D01*
X9973905Y-12405143D01*
X9992952Y-12414667D01*
X10002476Y-12433714D01*
X10002476Y-12538476D01*
X10002476Y-12433714D02*
X10012000Y-12414667D01*
X10031048Y-12405143D01*
X10059619Y-12405143D01*
X10078667Y-12414667D01*
X10088190Y-12433714D01*
X10088190Y-12538476D01*
X10183429Y-12538476D02*
X10183429Y-12405143D01*
X10183429Y-12424190D02*
X10192952Y-12414667D01*
X10212000Y-12405143D01*
X10240571Y-12405143D01*
X10259619Y-12414667D01*
X10269143Y-12433714D01*
X10269143Y-12538476D01*
X10269143Y-12433714D02*
X10278667Y-12414667D01*
X10297714Y-12405143D01*
X10326286Y-12405143D01*
X10345333Y-12414667D01*
X10354857Y-12433714D01*
X10354857Y-12538476D01*
X10745333Y-12328952D02*
X10573905Y-12586095D01*
X11002476Y-12338476D02*
X11021524Y-12338476D01*
X11040571Y-12348000D01*
X11050095Y-12357524D01*
X11059619Y-12376571D01*
X11069143Y-12414667D01*
X11069143Y-12462286D01*
X11059619Y-12500381D01*
X11050095Y-12519428D01*
X11040571Y-12528952D01*
X11021524Y-12538476D01*
X11002476Y-12538476D01*
X10983429Y-12528952D01*
X10973905Y-12519428D01*
X10964381Y-12500381D01*
X10954857Y-12462286D01*
X10954857Y-12414667D01*
X10964381Y-12376571D01*
X10973905Y-12357524D01*
X10983429Y-12348000D01*
X11002476Y-12338476D01*
X11154857Y-12519428D02*
X11164381Y-12528952D01*
X11154857Y-12538476D01*
X11145333Y-12528952D01*
X11154857Y-12519428D01*
X11154857Y-12538476D01*
X11288190Y-12338476D02*
X11307238Y-12338476D01*
X11326286Y-12348000D01*
X11335809Y-12357524D01*
X11345333Y-12376571D01*
X11354857Y-12414667D01*
X11354857Y-12462286D01*
X11345333Y-12500381D01*
X11335809Y-12519428D01*
X11326286Y-12528952D01*
X11307238Y-12538476D01*
X11288190Y-12538476D01*
X11269143Y-12528952D01*
X11259619Y-12519428D01*
X11250095Y-12500381D01*
X11240571Y-12462286D01*
X11240571Y-12414667D01*
X11250095Y-12376571D01*
X11259619Y-12357524D01*
X11269143Y-12348000D01*
X11288190Y-12338476D01*
X11545333Y-12538476D02*
X11431048Y-12538476D01*
X11488190Y-12538476D02*
X11488190Y-12338476D01*
X11469143Y-12367048D01*
X11450095Y-12386095D01*
X11431048Y-12395619D01*
X11640571Y-12538476D02*
X11678667Y-12538476D01*
X11697714Y-12528952D01*
X11707238Y-12519428D01*
X11726286Y-12490857D01*
X11735809Y-12452762D01*
X11735809Y-12376571D01*
X11726286Y-12357524D01*
X11716762Y-12348000D01*
X11697714Y-12338476D01*
X11659619Y-12338476D01*
X11640571Y-12348000D01*
X11631048Y-12357524D01*
X11621524Y-12376571D01*
X11621524Y-12424190D01*
X11631048Y-12443238D01*
X11640571Y-12452762D01*
X11659619Y-12462286D01*
X11697714Y-12462286D01*
X11716762Y-12452762D01*
X11726286Y-12443238D01*
X11735809Y-12424190D01*
X11802476Y-12338476D02*
X11935809Y-12338476D01*
X11850095Y-12538476D01*
X12002476Y-12338476D02*
X12002476Y-12376571D01*
X12078667Y-12338476D02*
X12078667Y-12376571D01*
X12373905Y-12614667D02*
X12364381Y-12605143D01*
X12345333Y-12576571D01*
X12335809Y-12557524D01*
X12326286Y-12528952D01*
X12316762Y-12481333D01*
X12316762Y-12443238D01*
X12326286Y-12395619D01*
X12335809Y-12367048D01*
X12345333Y-12348000D01*
X12364381Y-12319428D01*
X12373905Y-12309905D01*
X12459619Y-12538476D02*
X12497714Y-12538476D01*
X12516762Y-12528952D01*
X12526286Y-12519428D01*
X12545333Y-12490857D01*
X12554857Y-12452762D01*
X12554857Y-12376571D01*
X12545333Y-12357524D01*
X12535809Y-12348000D01*
X12516762Y-12338476D01*
X12478667Y-12338476D01*
X12459619Y-12348000D01*
X12450095Y-12357524D01*
X12440571Y-12376571D01*
X12440571Y-12424190D01*
X12450095Y-12443238D01*
X12459619Y-12452762D01*
X12478667Y-12462286D01*
X12516762Y-12462286D01*
X12535809Y-12452762D01*
X12545333Y-12443238D01*
X12554857Y-12424190D01*
X12792952Y-12538476D02*
X12792952Y-12338476D01*
X12878667Y-12538476D02*
X12878667Y-12433714D01*
X12869143Y-12414667D01*
X12850095Y-12405143D01*
X12821524Y-12405143D01*
X12802476Y-12414667D01*
X12792952Y-12424190D01*
X13002476Y-12538476D02*
X12983428Y-12528952D01*
X12973905Y-12519428D01*
X12964381Y-12500381D01*
X12964381Y-12443238D01*
X12973905Y-12424190D01*
X12983428Y-12414667D01*
X13002476Y-12405143D01*
X13031048Y-12405143D01*
X13050095Y-12414667D01*
X13059619Y-12424190D01*
X13069143Y-12443238D01*
X13069143Y-12500381D01*
X13059619Y-12519428D01*
X13050095Y-12528952D01*
X13031048Y-12538476D01*
X13002476Y-12538476D01*
X13183428Y-12538476D02*
X13164381Y-12528952D01*
X13154857Y-12509905D01*
X13154857Y-12338476D01*
X13335809Y-12528952D02*
X13316762Y-12538476D01*
X13278667Y-12538476D01*
X13259619Y-12528952D01*
X13250095Y-12509905D01*
X13250095Y-12433714D01*
X13259619Y-12414667D01*
X13278667Y-12405143D01*
X13316762Y-12405143D01*
X13335809Y-12414667D01*
X13345333Y-12433714D01*
X13345333Y-12452762D01*
X13250095Y-12471809D01*
X13421524Y-12528952D02*
X13440571Y-12538476D01*
X13478667Y-12538476D01*
X13497714Y-12528952D01*
X13507238Y-12509905D01*
X13507238Y-12500381D01*
X13497714Y-12481333D01*
X13478667Y-12471809D01*
X13450095Y-12471809D01*
X13431048Y-12462286D01*
X13421524Y-12443238D01*
X13421524Y-12433714D01*
X13431048Y-12414667D01*
X13450095Y-12405143D01*
X13478667Y-12405143D01*
X13497714Y-12414667D01*
X13573905Y-12614667D02*
X13583428Y-12605143D01*
X13602476Y-12576571D01*
X13612000Y-12557524D01*
X13621524Y-12528952D01*
X13631048Y-12481333D01*
X13631048Y-12443238D01*
X13621524Y-12395619D01*
X13612000Y-12367048D01*
X13602476Y-12348000D01*
X13583428Y-12319428D01*
X13573905Y-12309905D01*
D16*
X8735960Y-12678980D02*
X8802000Y-12745020D01*
X8802000Y-12678980D02*
X8735960Y-12745020D01*
X8802000Y-12712000D02*
G75*
G03*
X8802000Y-12712000I-33020J0D01*
G01*
D11*
X9097714Y-12602476D02*
X9116762Y-12602476D01*
X9135810Y-12612000D01*
X9145333Y-12621524D01*
X9154857Y-12640571D01*
X9164381Y-12678667D01*
X9164381Y-12726286D01*
X9154857Y-12764381D01*
X9145333Y-12783428D01*
X9135810Y-12792952D01*
X9116762Y-12802476D01*
X9097714Y-12802476D01*
X9078667Y-12792952D01*
X9069143Y-12783428D01*
X9059619Y-12764381D01*
X9050095Y-12726286D01*
X9050095Y-12678667D01*
X9059619Y-12640571D01*
X9069143Y-12621524D01*
X9078667Y-12612000D01*
X9097714Y-12602476D01*
X9250095Y-12783428D02*
X9259619Y-12792952D01*
X9250095Y-12802476D01*
X9240571Y-12792952D01*
X9250095Y-12783428D01*
X9250095Y-12802476D01*
X9431048Y-12602476D02*
X9392952Y-12602476D01*
X9373905Y-12612000D01*
X9364381Y-12621524D01*
X9345333Y-12650095D01*
X9335810Y-12688190D01*
X9335810Y-12764381D01*
X9345333Y-12783428D01*
X9354857Y-12792952D01*
X9373905Y-12802476D01*
X9412000Y-12802476D01*
X9431048Y-12792952D01*
X9440571Y-12783428D01*
X9450095Y-12764381D01*
X9450095Y-12716762D01*
X9440571Y-12697714D01*
X9431048Y-12688190D01*
X9412000Y-12678667D01*
X9373905Y-12678667D01*
X9354857Y-12688190D01*
X9345333Y-12697714D01*
X9335810Y-12716762D01*
X9621524Y-12602476D02*
X9583429Y-12602476D01*
X9564381Y-12612000D01*
X9554857Y-12621524D01*
X9535810Y-12650095D01*
X9526286Y-12688190D01*
X9526286Y-12764381D01*
X9535810Y-12783428D01*
X9545333Y-12792952D01*
X9564381Y-12802476D01*
X9602476Y-12802476D01*
X9621524Y-12792952D01*
X9631048Y-12783428D01*
X9640571Y-12764381D01*
X9640571Y-12716762D01*
X9631048Y-12697714D01*
X9621524Y-12688190D01*
X9602476Y-12678667D01*
X9564381Y-12678667D01*
X9545333Y-12688190D01*
X9535810Y-12697714D01*
X9526286Y-12716762D01*
X9764381Y-12602476D02*
X9783429Y-12602476D01*
X9802476Y-12612000D01*
X9812000Y-12621524D01*
X9821524Y-12640571D01*
X9831048Y-12678667D01*
X9831048Y-12726286D01*
X9821524Y-12764381D01*
X9812000Y-12783428D01*
X9802476Y-12792952D01*
X9783429Y-12802476D01*
X9764381Y-12802476D01*
X9745333Y-12792952D01*
X9735810Y-12783428D01*
X9726286Y-12764381D01*
X9716762Y-12726286D01*
X9716762Y-12678667D01*
X9726286Y-12640571D01*
X9735810Y-12621524D01*
X9745333Y-12612000D01*
X9764381Y-12602476D01*
X9916762Y-12802476D02*
X9916762Y-12669143D01*
X9916762Y-12688190D02*
X9926286Y-12678667D01*
X9945333Y-12669143D01*
X9973905Y-12669143D01*
X9992952Y-12678667D01*
X10002476Y-12697714D01*
X10002476Y-12802476D01*
X10002476Y-12697714D02*
X10012000Y-12678667D01*
X10031048Y-12669143D01*
X10059619Y-12669143D01*
X10078667Y-12678667D01*
X10088190Y-12697714D01*
X10088190Y-12802476D01*
X10183429Y-12802476D02*
X10183429Y-12669143D01*
X10183429Y-12688190D02*
X10192952Y-12678667D01*
X10212000Y-12669143D01*
X10240571Y-12669143D01*
X10259619Y-12678667D01*
X10269143Y-12697714D01*
X10269143Y-12802476D01*
X10269143Y-12697714D02*
X10278667Y-12678667D01*
X10297714Y-12669143D01*
X10326286Y-12669143D01*
X10345333Y-12678667D01*
X10354857Y-12697714D01*
X10354857Y-12802476D01*
X10745333Y-12592952D02*
X10573905Y-12850095D01*
X11002476Y-12602476D02*
X11021524Y-12602476D01*
X11040571Y-12612000D01*
X11050095Y-12621524D01*
X11059619Y-12640571D01*
X11069143Y-12678667D01*
X11069143Y-12726286D01*
X11059619Y-12764381D01*
X11050095Y-12783428D01*
X11040571Y-12792952D01*
X11021524Y-12802476D01*
X11002476Y-12802476D01*
X10983429Y-12792952D01*
X10973905Y-12783428D01*
X10964381Y-12764381D01*
X10954857Y-12726286D01*
X10954857Y-12678667D01*
X10964381Y-12640571D01*
X10973905Y-12621524D01*
X10983429Y-12612000D01*
X11002476Y-12602476D01*
X11154857Y-12783428D02*
X11164381Y-12792952D01*
X11154857Y-12802476D01*
X11145333Y-12792952D01*
X11154857Y-12783428D01*
X11154857Y-12802476D01*
X11288190Y-12602476D02*
X11307238Y-12602476D01*
X11326286Y-12612000D01*
X11335809Y-12621524D01*
X11345333Y-12640571D01*
X11354857Y-12678667D01*
X11354857Y-12726286D01*
X11345333Y-12764381D01*
X11335809Y-12783428D01*
X11326286Y-12792952D01*
X11307238Y-12802476D01*
X11288190Y-12802476D01*
X11269143Y-12792952D01*
X11259619Y-12783428D01*
X11250095Y-12764381D01*
X11240571Y-12726286D01*
X11240571Y-12678667D01*
X11250095Y-12640571D01*
X11259619Y-12621524D01*
X11269143Y-12612000D01*
X11288190Y-12602476D01*
X11431048Y-12621524D02*
X11440571Y-12612000D01*
X11459619Y-12602476D01*
X11507238Y-12602476D01*
X11526286Y-12612000D01*
X11535809Y-12621524D01*
X11545333Y-12640571D01*
X11545333Y-12659619D01*
X11535809Y-12688190D01*
X11421524Y-12802476D01*
X11545333Y-12802476D01*
X11716762Y-12602476D02*
X11678667Y-12602476D01*
X11659619Y-12612000D01*
X11650095Y-12621524D01*
X11631048Y-12650095D01*
X11621524Y-12688190D01*
X11621524Y-12764381D01*
X11631048Y-12783428D01*
X11640571Y-12792952D01*
X11659619Y-12802476D01*
X11697714Y-12802476D01*
X11716762Y-12792952D01*
X11726286Y-12783428D01*
X11735809Y-12764381D01*
X11735809Y-12716762D01*
X11726286Y-12697714D01*
X11716762Y-12688190D01*
X11697714Y-12678667D01*
X11659619Y-12678667D01*
X11640571Y-12688190D01*
X11631048Y-12697714D01*
X11621524Y-12716762D01*
X11859619Y-12602476D02*
X11878667Y-12602476D01*
X11897714Y-12612000D01*
X11907238Y-12621524D01*
X11916762Y-12640571D01*
X11926286Y-12678667D01*
X11926286Y-12726286D01*
X11916762Y-12764381D01*
X11907238Y-12783428D01*
X11897714Y-12792952D01*
X11878667Y-12802476D01*
X11859619Y-12802476D01*
X11840571Y-12792952D01*
X11831048Y-12783428D01*
X11821524Y-12764381D01*
X11812000Y-12726286D01*
X11812000Y-12678667D01*
X11821524Y-12640571D01*
X11831048Y-12621524D01*
X11840571Y-12612000D01*
X11859619Y-12602476D01*
X12002476Y-12602476D02*
X12002476Y-12640571D01*
X12078667Y-12602476D02*
X12078667Y-12640571D01*
X12373905Y-12878667D02*
X12364381Y-12869143D01*
X12345333Y-12840571D01*
X12335809Y-12821524D01*
X12326286Y-12792952D01*
X12316762Y-12745333D01*
X12316762Y-12707238D01*
X12326286Y-12659619D01*
X12335809Y-12631048D01*
X12345333Y-12612000D01*
X12364381Y-12583428D01*
X12373905Y-12573905D01*
X12440571Y-12621524D02*
X12450095Y-12612000D01*
X12469143Y-12602476D01*
X12516762Y-12602476D01*
X12535809Y-12612000D01*
X12545333Y-12621524D01*
X12554857Y-12640571D01*
X12554857Y-12659619D01*
X12545333Y-12688190D01*
X12431048Y-12802476D01*
X12554857Y-12802476D01*
X12792952Y-12802476D02*
X12792952Y-12602476D01*
X12878667Y-12802476D02*
X12878667Y-12697714D01*
X12869143Y-12678667D01*
X12850095Y-12669143D01*
X12821524Y-12669143D01*
X12802476Y-12678667D01*
X12792952Y-12688190D01*
X13002476Y-12802476D02*
X12983428Y-12792952D01*
X12973905Y-12783428D01*
X12964381Y-12764381D01*
X12964381Y-12707238D01*
X12973905Y-12688190D01*
X12983428Y-12678667D01*
X13002476Y-12669143D01*
X13031048Y-12669143D01*
X13050095Y-12678667D01*
X13059619Y-12688190D01*
X13069143Y-12707238D01*
X13069143Y-12764381D01*
X13059619Y-12783428D01*
X13050095Y-12792952D01*
X13031048Y-12802476D01*
X13002476Y-12802476D01*
X13183428Y-12802476D02*
X13164381Y-12792952D01*
X13154857Y-12773905D01*
X13154857Y-12602476D01*
X13335809Y-12792952D02*
X13316762Y-12802476D01*
X13278667Y-12802476D01*
X13259619Y-12792952D01*
X13250095Y-12773905D01*
X13250095Y-12697714D01*
X13259619Y-12678667D01*
X13278667Y-12669143D01*
X13316762Y-12669143D01*
X13335809Y-12678667D01*
X13345333Y-12697714D01*
X13345333Y-12716762D01*
X13250095Y-12735809D01*
X13421524Y-12792952D02*
X13440571Y-12802476D01*
X13478667Y-12802476D01*
X13497714Y-12792952D01*
X13507238Y-12773905D01*
X13507238Y-12764381D01*
X13497714Y-12745333D01*
X13478667Y-12735809D01*
X13450095Y-12735809D01*
X13431048Y-12726286D01*
X13421524Y-12707238D01*
X13421524Y-12697714D01*
X13431048Y-12678667D01*
X13450095Y-12669143D01*
X13478667Y-12669143D01*
X13497714Y-12678667D01*
X13573905Y-12878667D02*
X13583428Y-12869143D01*
X13602476Y-12840571D01*
X13612000Y-12821524D01*
X13621524Y-12792952D01*
X13631048Y-12745333D01*
X13631048Y-12707238D01*
X13621524Y-12659619D01*
X13612000Y-12631048D01*
X13602476Y-12612000D01*
X13583428Y-12583428D01*
X13573905Y-12573905D01*
D17*
X8727000Y-12938500D02*
X8802000Y-13013500D01*
X8802000Y-12938500D02*
X8727000Y-13013500D01*
X8764500Y-12938500D02*
X8764500Y-13013500D01*
X8727000Y-12976000D02*
X8802000Y-12976000D01*
D11*
X9097714Y-12866476D02*
X9116762Y-12866476D01*
X9135810Y-12876000D01*
X9145333Y-12885524D01*
X9154857Y-12904571D01*
X9164381Y-12942667D01*
X9164381Y-12990286D01*
X9154857Y-13028381D01*
X9145333Y-13047428D01*
X9135810Y-13056952D01*
X9116762Y-13066476D01*
X9097714Y-13066476D01*
X9078667Y-13056952D01*
X9069143Y-13047428D01*
X9059619Y-13028381D01*
X9050095Y-12990286D01*
X9050095Y-12942667D01*
X9059619Y-12904571D01*
X9069143Y-12885524D01*
X9078667Y-12876000D01*
X9097714Y-12866476D01*
X9250095Y-13047428D02*
X9259619Y-13056952D01*
X9250095Y-13066476D01*
X9240571Y-13056952D01*
X9250095Y-13047428D01*
X9250095Y-13066476D01*
X9326286Y-12866476D02*
X9459619Y-12866476D01*
X9373905Y-13066476D01*
X9631048Y-12866476D02*
X9535810Y-12866476D01*
X9526286Y-12961714D01*
X9535810Y-12952190D01*
X9554857Y-12942667D01*
X9602476Y-12942667D01*
X9621524Y-12952190D01*
X9631048Y-12961714D01*
X9640571Y-12980762D01*
X9640571Y-13028381D01*
X9631048Y-13047428D01*
X9621524Y-13056952D01*
X9602476Y-13066476D01*
X9554857Y-13066476D01*
X9535810Y-13056952D01*
X9526286Y-13047428D01*
X9764381Y-12866476D02*
X9783429Y-12866476D01*
X9802476Y-12876000D01*
X9812000Y-12885524D01*
X9821524Y-12904571D01*
X9831048Y-12942667D01*
X9831048Y-12990286D01*
X9821524Y-13028381D01*
X9812000Y-13047428D01*
X9802476Y-13056952D01*
X9783429Y-13066476D01*
X9764381Y-13066476D01*
X9745333Y-13056952D01*
X9735810Y-13047428D01*
X9726286Y-13028381D01*
X9716762Y-12990286D01*
X9716762Y-12942667D01*
X9726286Y-12904571D01*
X9735810Y-12885524D01*
X9745333Y-12876000D01*
X9764381Y-12866476D01*
X9916762Y-13066476D02*
X9916762Y-12933143D01*
X9916762Y-12952190D02*
X9926286Y-12942667D01*
X9945333Y-12933143D01*
X9973905Y-12933143D01*
X9992952Y-12942667D01*
X10002476Y-12961714D01*
X10002476Y-13066476D01*
X10002476Y-12961714D02*
X10012000Y-12942667D01*
X10031048Y-12933143D01*
X10059619Y-12933143D01*
X10078667Y-12942667D01*
X10088190Y-12961714D01*
X10088190Y-13066476D01*
X10183429Y-13066476D02*
X10183429Y-12933143D01*
X10183429Y-12952190D02*
X10192952Y-12942667D01*
X10212000Y-12933143D01*
X10240571Y-12933143D01*
X10259619Y-12942667D01*
X10269143Y-12961714D01*
X10269143Y-13066476D01*
X10269143Y-12961714D02*
X10278667Y-12942667D01*
X10297714Y-12933143D01*
X10326286Y-12933143D01*
X10345333Y-12942667D01*
X10354857Y-12961714D01*
X10354857Y-13066476D01*
X10745333Y-12856952D02*
X10573905Y-13114095D01*
X11002476Y-12866476D02*
X11021524Y-12866476D01*
X11040571Y-12876000D01*
X11050095Y-12885524D01*
X11059619Y-12904571D01*
X11069143Y-12942667D01*
X11069143Y-12990286D01*
X11059619Y-13028381D01*
X11050095Y-13047428D01*
X11040571Y-13056952D01*
X11021524Y-13066476D01*
X11002476Y-13066476D01*
X10983429Y-13056952D01*
X10973905Y-13047428D01*
X10964381Y-13028381D01*
X10954857Y-12990286D01*
X10954857Y-12942667D01*
X10964381Y-12904571D01*
X10973905Y-12885524D01*
X10983429Y-12876000D01*
X11002476Y-12866476D01*
X11154857Y-13047428D02*
X11164381Y-13056952D01*
X11154857Y-13066476D01*
X11145333Y-13056952D01*
X11154857Y-13047428D01*
X11154857Y-13066476D01*
X11288190Y-12866476D02*
X11307238Y-12866476D01*
X11326286Y-12876000D01*
X11335809Y-12885524D01*
X11345333Y-12904571D01*
X11354857Y-12942667D01*
X11354857Y-12990286D01*
X11345333Y-13028381D01*
X11335809Y-13047428D01*
X11326286Y-13056952D01*
X11307238Y-13066476D01*
X11288190Y-13066476D01*
X11269143Y-13056952D01*
X11259619Y-13047428D01*
X11250095Y-13028381D01*
X11240571Y-12990286D01*
X11240571Y-12942667D01*
X11250095Y-12904571D01*
X11259619Y-12885524D01*
X11269143Y-12876000D01*
X11288190Y-12866476D01*
X11431048Y-12885524D02*
X11440571Y-12876000D01*
X11459619Y-12866476D01*
X11507238Y-12866476D01*
X11526286Y-12876000D01*
X11535809Y-12885524D01*
X11545333Y-12904571D01*
X11545333Y-12923619D01*
X11535809Y-12952190D01*
X11421524Y-13066476D01*
X11545333Y-13066476D01*
X11640571Y-13066476D02*
X11678667Y-13066476D01*
X11697714Y-13056952D01*
X11707238Y-13047428D01*
X11726286Y-13018857D01*
X11735809Y-12980762D01*
X11735809Y-12904571D01*
X11726286Y-12885524D01*
X11716762Y-12876000D01*
X11697714Y-12866476D01*
X11659619Y-12866476D01*
X11640571Y-12876000D01*
X11631048Y-12885524D01*
X11621524Y-12904571D01*
X11621524Y-12952190D01*
X11631048Y-12971238D01*
X11640571Y-12980762D01*
X11659619Y-12990286D01*
X11697714Y-12990286D01*
X11716762Y-12980762D01*
X11726286Y-12971238D01*
X11735809Y-12952190D01*
X11916762Y-12866476D02*
X11821524Y-12866476D01*
X11812000Y-12961714D01*
X11821524Y-12952190D01*
X11840571Y-12942667D01*
X11888190Y-12942667D01*
X11907238Y-12952190D01*
X11916762Y-12961714D01*
X11926286Y-12980762D01*
X11926286Y-13028381D01*
X11916762Y-13047428D01*
X11907238Y-13056952D01*
X11888190Y-13066476D01*
X11840571Y-13066476D01*
X11821524Y-13056952D01*
X11812000Y-13047428D01*
X12002476Y-12866476D02*
X12002476Y-12904571D01*
X12078667Y-12866476D02*
X12078667Y-12904571D01*
X12373905Y-13142667D02*
X12364381Y-13133143D01*
X12345333Y-13104571D01*
X12335809Y-13085524D01*
X12326286Y-13056952D01*
X12316762Y-13009333D01*
X12316762Y-12971238D01*
X12326286Y-12923619D01*
X12335809Y-12895048D01*
X12345333Y-12876000D01*
X12364381Y-12847428D01*
X12373905Y-12837905D01*
X12440571Y-12885524D02*
X12450095Y-12876000D01*
X12469143Y-12866476D01*
X12516762Y-12866476D01*
X12535809Y-12876000D01*
X12545333Y-12885524D01*
X12554857Y-12904571D01*
X12554857Y-12923619D01*
X12545333Y-12952190D01*
X12431048Y-13066476D01*
X12554857Y-13066476D01*
X12792952Y-13066476D02*
X12792952Y-12866476D01*
X12878667Y-13066476D02*
X12878667Y-12961714D01*
X12869143Y-12942667D01*
X12850095Y-12933143D01*
X12821524Y-12933143D01*
X12802476Y-12942667D01*
X12792952Y-12952190D01*
X13002476Y-13066476D02*
X12983428Y-13056952D01*
X12973905Y-13047428D01*
X12964381Y-13028381D01*
X12964381Y-12971238D01*
X12973905Y-12952190D01*
X12983428Y-12942667D01*
X13002476Y-12933143D01*
X13031048Y-12933143D01*
X13050095Y-12942667D01*
X13059619Y-12952190D01*
X13069143Y-12971238D01*
X13069143Y-13028381D01*
X13059619Y-13047428D01*
X13050095Y-13056952D01*
X13031048Y-13066476D01*
X13002476Y-13066476D01*
X13183428Y-13066476D02*
X13164381Y-13056952D01*
X13154857Y-13037905D01*
X13154857Y-12866476D01*
X13335809Y-13056952D02*
X13316762Y-13066476D01*
X13278667Y-13066476D01*
X13259619Y-13056952D01*
X13250095Y-13037905D01*
X13250095Y-12961714D01*
X13259619Y-12942667D01*
X13278667Y-12933143D01*
X13316762Y-12933143D01*
X13335809Y-12942667D01*
X13345333Y-12961714D01*
X13345333Y-12980762D01*
X13250095Y-12999809D01*
X13421524Y-13056952D02*
X13440571Y-13066476D01*
X13478667Y-13066476D01*
X13497714Y-13056952D01*
X13507238Y-13037905D01*
X13507238Y-13028381D01*
X13497714Y-13009333D01*
X13478667Y-12999809D01*
X13450095Y-12999809D01*
X13431048Y-12990286D01*
X13421524Y-12971238D01*
X13421524Y-12961714D01*
X13431048Y-12942667D01*
X13450095Y-12933143D01*
X13478667Y-12933143D01*
X13497714Y-12942667D01*
X13573905Y-13142667D02*
X13583428Y-13133143D01*
X13602476Y-13104571D01*
X13612000Y-13085524D01*
X13621524Y-13056952D01*
X13631048Y-13009333D01*
X13631048Y-12971238D01*
X13621524Y-12923619D01*
X13612000Y-12895048D01*
X13602476Y-12876000D01*
X13583428Y-12847428D01*
X13573905Y-12837905D01*
D18*
X8724000Y-13201000D02*
X8802000Y-13279000D01*
X8802000Y-13201000D02*
X8724000Y-13279000D01*
X8790577Y-13267577D02*
X8790577Y-13212423D01*
X8735423Y-13212423D01*
X8735423Y-13267577D01*
X8790577Y-13267577D01*
D11*
X9097714Y-13130476D02*
X9116762Y-13130476D01*
X9135810Y-13140000D01*
X9145333Y-13149524D01*
X9154857Y-13168571D01*
X9164381Y-13206667D01*
X9164381Y-13254286D01*
X9154857Y-13292381D01*
X9145333Y-13311428D01*
X9135810Y-13320952D01*
X9116762Y-13330476D01*
X9097714Y-13330476D01*
X9078667Y-13320952D01*
X9069143Y-13311428D01*
X9059619Y-13292381D01*
X9050095Y-13254286D01*
X9050095Y-13206667D01*
X9059619Y-13168571D01*
X9069143Y-13149524D01*
X9078667Y-13140000D01*
X9097714Y-13130476D01*
X9250095Y-13311428D02*
X9259619Y-13320952D01*
X9250095Y-13330476D01*
X9240571Y-13320952D01*
X9250095Y-13311428D01*
X9250095Y-13330476D01*
X9326286Y-13130476D02*
X9459619Y-13130476D01*
X9373905Y-13330476D01*
X9564381Y-13216190D02*
X9545333Y-13206667D01*
X9535810Y-13197143D01*
X9526286Y-13178095D01*
X9526286Y-13168571D01*
X9535810Y-13149524D01*
X9545333Y-13140000D01*
X9564381Y-13130476D01*
X9602476Y-13130476D01*
X9621524Y-13140000D01*
X9631048Y-13149524D01*
X9640571Y-13168571D01*
X9640571Y-13178095D01*
X9631048Y-13197143D01*
X9621524Y-13206667D01*
X9602476Y-13216190D01*
X9564381Y-13216190D01*
X9545333Y-13225714D01*
X9535810Y-13235238D01*
X9526286Y-13254286D01*
X9526286Y-13292381D01*
X9535810Y-13311428D01*
X9545333Y-13320952D01*
X9564381Y-13330476D01*
X9602476Y-13330476D01*
X9621524Y-13320952D01*
X9631048Y-13311428D01*
X9640571Y-13292381D01*
X9640571Y-13254286D01*
X9631048Y-13235238D01*
X9621524Y-13225714D01*
X9602476Y-13216190D01*
X9764381Y-13130476D02*
X9783429Y-13130476D01*
X9802476Y-13140000D01*
X9812000Y-13149524D01*
X9821524Y-13168571D01*
X9831048Y-13206667D01*
X9831048Y-13254286D01*
X9821524Y-13292381D01*
X9812000Y-13311428D01*
X9802476Y-13320952D01*
X9783429Y-13330476D01*
X9764381Y-13330476D01*
X9745333Y-13320952D01*
X9735810Y-13311428D01*
X9726286Y-13292381D01*
X9716762Y-13254286D01*
X9716762Y-13206667D01*
X9726286Y-13168571D01*
X9735810Y-13149524D01*
X9745333Y-13140000D01*
X9764381Y-13130476D01*
X9916762Y-13330476D02*
X9916762Y-13197143D01*
X9916762Y-13216190D02*
X9926286Y-13206667D01*
X9945333Y-13197143D01*
X9973905Y-13197143D01*
X9992952Y-13206667D01*
X10002476Y-13225714D01*
X10002476Y-13330476D01*
X10002476Y-13225714D02*
X10012000Y-13206667D01*
X10031048Y-13197143D01*
X10059619Y-13197143D01*
X10078667Y-13206667D01*
X10088190Y-13225714D01*
X10088190Y-13330476D01*
X10183429Y-13330476D02*
X10183429Y-13197143D01*
X10183429Y-13216190D02*
X10192952Y-13206667D01*
X10212000Y-13197143D01*
X10240571Y-13197143D01*
X10259619Y-13206667D01*
X10269143Y-13225714D01*
X10269143Y-13330476D01*
X10269143Y-13225714D02*
X10278667Y-13206667D01*
X10297714Y-13197143D01*
X10326286Y-13197143D01*
X10345333Y-13206667D01*
X10354857Y-13225714D01*
X10354857Y-13330476D01*
X10745333Y-13120952D02*
X10573905Y-13378095D01*
X11002476Y-13130476D02*
X11021524Y-13130476D01*
X11040571Y-13140000D01*
X11050095Y-13149524D01*
X11059619Y-13168571D01*
X11069143Y-13206667D01*
X11069143Y-13254286D01*
X11059619Y-13292381D01*
X11050095Y-13311428D01*
X11040571Y-13320952D01*
X11021524Y-13330476D01*
X11002476Y-13330476D01*
X10983429Y-13320952D01*
X10973905Y-13311428D01*
X10964381Y-13292381D01*
X10954857Y-13254286D01*
X10954857Y-13206667D01*
X10964381Y-13168571D01*
X10973905Y-13149524D01*
X10983429Y-13140000D01*
X11002476Y-13130476D01*
X11154857Y-13311428D02*
X11164381Y-13320952D01*
X11154857Y-13330476D01*
X11145333Y-13320952D01*
X11154857Y-13311428D01*
X11154857Y-13330476D01*
X11288190Y-13130476D02*
X11307238Y-13130476D01*
X11326286Y-13140000D01*
X11335809Y-13149524D01*
X11345333Y-13168571D01*
X11354857Y-13206667D01*
X11354857Y-13254286D01*
X11345333Y-13292381D01*
X11335809Y-13311428D01*
X11326286Y-13320952D01*
X11307238Y-13330476D01*
X11288190Y-13330476D01*
X11269143Y-13320952D01*
X11259619Y-13311428D01*
X11250095Y-13292381D01*
X11240571Y-13254286D01*
X11240571Y-13206667D01*
X11250095Y-13168571D01*
X11259619Y-13149524D01*
X11269143Y-13140000D01*
X11288190Y-13130476D01*
X11421524Y-13130476D02*
X11545333Y-13130476D01*
X11478667Y-13206667D01*
X11507238Y-13206667D01*
X11526286Y-13216190D01*
X11535809Y-13225714D01*
X11545333Y-13244762D01*
X11545333Y-13292381D01*
X11535809Y-13311428D01*
X11526286Y-13320952D01*
X11507238Y-13330476D01*
X11450095Y-13330476D01*
X11431048Y-13320952D01*
X11421524Y-13311428D01*
X11669143Y-13130476D02*
X11688190Y-13130476D01*
X11707238Y-13140000D01*
X11716762Y-13149524D01*
X11726286Y-13168571D01*
X11735809Y-13206667D01*
X11735809Y-13254286D01*
X11726286Y-13292381D01*
X11716762Y-13311428D01*
X11707238Y-13320952D01*
X11688190Y-13330476D01*
X11669143Y-13330476D01*
X11650095Y-13320952D01*
X11640571Y-13311428D01*
X11631048Y-13292381D01*
X11621524Y-13254286D01*
X11621524Y-13206667D01*
X11631048Y-13168571D01*
X11640571Y-13149524D01*
X11650095Y-13140000D01*
X11669143Y-13130476D01*
X11802476Y-13130476D02*
X11935809Y-13130476D01*
X11850095Y-13330476D01*
X12002476Y-13130476D02*
X12002476Y-13168571D01*
X12078667Y-13130476D02*
X12078667Y-13168571D01*
X12373905Y-13406667D02*
X12364381Y-13397143D01*
X12345333Y-13368571D01*
X12335809Y-13349524D01*
X12326286Y-13320952D01*
X12316762Y-13273333D01*
X12316762Y-13235238D01*
X12326286Y-13187619D01*
X12335809Y-13159048D01*
X12345333Y-13140000D01*
X12364381Y-13111428D01*
X12373905Y-13101905D01*
X12535809Y-13197143D02*
X12535809Y-13330476D01*
X12488190Y-13120952D02*
X12440571Y-13263809D01*
X12564381Y-13263809D01*
X12792952Y-13330476D02*
X12792952Y-13130476D01*
X12878667Y-13330476D02*
X12878667Y-13225714D01*
X12869143Y-13206667D01*
X12850095Y-13197143D01*
X12821524Y-13197143D01*
X12802476Y-13206667D01*
X12792952Y-13216190D01*
X13002476Y-13330476D02*
X12983428Y-13320952D01*
X12973905Y-13311428D01*
X12964381Y-13292381D01*
X12964381Y-13235238D01*
X12973905Y-13216190D01*
X12983428Y-13206667D01*
X13002476Y-13197143D01*
X13031048Y-13197143D01*
X13050095Y-13206667D01*
X13059619Y-13216190D01*
X13069143Y-13235238D01*
X13069143Y-13292381D01*
X13059619Y-13311428D01*
X13050095Y-13320952D01*
X13031048Y-13330476D01*
X13002476Y-13330476D01*
X13183428Y-13330476D02*
X13164381Y-13320952D01*
X13154857Y-13301905D01*
X13154857Y-13130476D01*
X13335809Y-13320952D02*
X13316762Y-13330476D01*
X13278667Y-13330476D01*
X13259619Y-13320952D01*
X13250095Y-13301905D01*
X13250095Y-13225714D01*
X13259619Y-13206667D01*
X13278667Y-13197143D01*
X13316762Y-13197143D01*
X13335809Y-13206667D01*
X13345333Y-13225714D01*
X13345333Y-13244762D01*
X13250095Y-13263809D01*
X13421524Y-13320952D02*
X13440571Y-13330476D01*
X13478667Y-13330476D01*
X13497714Y-13320952D01*
X13507238Y-13301905D01*
X13507238Y-13292381D01*
X13497714Y-13273333D01*
X13478667Y-13263809D01*
X13450095Y-13263809D01*
X13431048Y-13254286D01*
X13421524Y-13235238D01*
X13421524Y-13225714D01*
X13431048Y-13206667D01*
X13450095Y-13197143D01*
X13478667Y-13197143D01*
X13497714Y-13206667D01*
X13573905Y-13406667D02*
X13583428Y-13397143D01*
X13602476Y-13368571D01*
X13612000Y-13349524D01*
X13621524Y-13320952D01*
X13631048Y-13273333D01*
X13631048Y-13235238D01*
X13621524Y-13187619D01*
X13612000Y-13159048D01*
X13602476Y-13140000D01*
X13583428Y-13111428D01*
X13573905Y-13101905D01*
D19*
X8722000Y-13464000D02*
X8802000Y-13544000D01*
X8802000Y-13464000D02*
X8722000Y-13544000D01*
X8762000Y-13544000D02*
X8802000Y-13504000D01*
X8762000Y-13464000D01*
X8722000Y-13504000D01*
X8762000Y-13544000D01*
D11*
X9097714Y-13394476D02*
X9116762Y-13394476D01*
X9135810Y-13404000D01*
X9145333Y-13413524D01*
X9154857Y-13432571D01*
X9164381Y-13470667D01*
X9164381Y-13518286D01*
X9154857Y-13556381D01*
X9145333Y-13575428D01*
X9135810Y-13584952D01*
X9116762Y-13594476D01*
X9097714Y-13594476D01*
X9078667Y-13584952D01*
X9069143Y-13575428D01*
X9059619Y-13556381D01*
X9050095Y-13518286D01*
X9050095Y-13470667D01*
X9059619Y-13432571D01*
X9069143Y-13413524D01*
X9078667Y-13404000D01*
X9097714Y-13394476D01*
X9250095Y-13575428D02*
X9259619Y-13584952D01*
X9250095Y-13594476D01*
X9240571Y-13584952D01*
X9250095Y-13575428D01*
X9250095Y-13594476D01*
X9373905Y-13480190D02*
X9354857Y-13470667D01*
X9345333Y-13461143D01*
X9335810Y-13442095D01*
X9335810Y-13432571D01*
X9345333Y-13413524D01*
X9354857Y-13404000D01*
X9373905Y-13394476D01*
X9412000Y-13394476D01*
X9431048Y-13404000D01*
X9440571Y-13413524D01*
X9450095Y-13432571D01*
X9450095Y-13442095D01*
X9440571Y-13461143D01*
X9431048Y-13470667D01*
X9412000Y-13480190D01*
X9373905Y-13480190D01*
X9354857Y-13489714D01*
X9345333Y-13499238D01*
X9335810Y-13518286D01*
X9335810Y-13556381D01*
X9345333Y-13575428D01*
X9354857Y-13584952D01*
X9373905Y-13594476D01*
X9412000Y-13594476D01*
X9431048Y-13584952D01*
X9440571Y-13575428D01*
X9450095Y-13556381D01*
X9450095Y-13518286D01*
X9440571Y-13499238D01*
X9431048Y-13489714D01*
X9412000Y-13480190D01*
X9573905Y-13394476D02*
X9592952Y-13394476D01*
X9612000Y-13404000D01*
X9621524Y-13413524D01*
X9631048Y-13432571D01*
X9640571Y-13470667D01*
X9640571Y-13518286D01*
X9631048Y-13556381D01*
X9621524Y-13575428D01*
X9612000Y-13584952D01*
X9592952Y-13594476D01*
X9573905Y-13594476D01*
X9554857Y-13584952D01*
X9545333Y-13575428D01*
X9535810Y-13556381D01*
X9526286Y-13518286D01*
X9526286Y-13470667D01*
X9535810Y-13432571D01*
X9545333Y-13413524D01*
X9554857Y-13404000D01*
X9573905Y-13394476D01*
X9764381Y-13394476D02*
X9783429Y-13394476D01*
X9802476Y-13404000D01*
X9812000Y-13413524D01*
X9821524Y-13432571D01*
X9831048Y-13470667D01*
X9831048Y-13518286D01*
X9821524Y-13556381D01*
X9812000Y-13575428D01*
X9802476Y-13584952D01*
X9783429Y-13594476D01*
X9764381Y-13594476D01*
X9745333Y-13584952D01*
X9735810Y-13575428D01*
X9726286Y-13556381D01*
X9716762Y-13518286D01*
X9716762Y-13470667D01*
X9726286Y-13432571D01*
X9735810Y-13413524D01*
X9745333Y-13404000D01*
X9764381Y-13394476D01*
X9916762Y-13594476D02*
X9916762Y-13461143D01*
X9916762Y-13480190D02*
X9926286Y-13470667D01*
X9945333Y-13461143D01*
X9973905Y-13461143D01*
X9992952Y-13470667D01*
X10002476Y-13489714D01*
X10002476Y-13594476D01*
X10002476Y-13489714D02*
X10012000Y-13470667D01*
X10031048Y-13461143D01*
X10059619Y-13461143D01*
X10078667Y-13470667D01*
X10088190Y-13489714D01*
X10088190Y-13594476D01*
X10183429Y-13594476D02*
X10183429Y-13461143D01*
X10183429Y-13480190D02*
X10192952Y-13470667D01*
X10212000Y-13461143D01*
X10240571Y-13461143D01*
X10259619Y-13470667D01*
X10269143Y-13489714D01*
X10269143Y-13594476D01*
X10269143Y-13489714D02*
X10278667Y-13470667D01*
X10297714Y-13461143D01*
X10326286Y-13461143D01*
X10345333Y-13470667D01*
X10354857Y-13489714D01*
X10354857Y-13594476D01*
X10745333Y-13384952D02*
X10573905Y-13642095D01*
X11002476Y-13394476D02*
X11021524Y-13394476D01*
X11040571Y-13404000D01*
X11050095Y-13413524D01*
X11059619Y-13432571D01*
X11069143Y-13470667D01*
X11069143Y-13518286D01*
X11059619Y-13556381D01*
X11050095Y-13575428D01*
X11040571Y-13584952D01*
X11021524Y-13594476D01*
X11002476Y-13594476D01*
X10983429Y-13584952D01*
X10973905Y-13575428D01*
X10964381Y-13556381D01*
X10954857Y-13518286D01*
X10954857Y-13470667D01*
X10964381Y-13432571D01*
X10973905Y-13413524D01*
X10983429Y-13404000D01*
X11002476Y-13394476D01*
X11154857Y-13575428D02*
X11164381Y-13584952D01*
X11154857Y-13594476D01*
X11145333Y-13584952D01*
X11154857Y-13575428D01*
X11154857Y-13594476D01*
X11288190Y-13394476D02*
X11307238Y-13394476D01*
X11326286Y-13404000D01*
X11335809Y-13413524D01*
X11345333Y-13432571D01*
X11354857Y-13470667D01*
X11354857Y-13518286D01*
X11345333Y-13556381D01*
X11335809Y-13575428D01*
X11326286Y-13584952D01*
X11307238Y-13594476D01*
X11288190Y-13594476D01*
X11269143Y-13584952D01*
X11259619Y-13575428D01*
X11250095Y-13556381D01*
X11240571Y-13518286D01*
X11240571Y-13470667D01*
X11250095Y-13432571D01*
X11259619Y-13413524D01*
X11269143Y-13404000D01*
X11288190Y-13394476D01*
X11421524Y-13394476D02*
X11545333Y-13394476D01*
X11478667Y-13470667D01*
X11507238Y-13470667D01*
X11526286Y-13480190D01*
X11535809Y-13489714D01*
X11545333Y-13508762D01*
X11545333Y-13556381D01*
X11535809Y-13575428D01*
X11526286Y-13584952D01*
X11507238Y-13594476D01*
X11450095Y-13594476D01*
X11431048Y-13584952D01*
X11421524Y-13575428D01*
X11735809Y-13594476D02*
X11621524Y-13594476D01*
X11678667Y-13594476D02*
X11678667Y-13394476D01*
X11659619Y-13423048D01*
X11640571Y-13442095D01*
X11621524Y-13451619D01*
X11916762Y-13394476D02*
X11821524Y-13394476D01*
X11812000Y-13489714D01*
X11821524Y-13480190D01*
X11840571Y-13470667D01*
X11888190Y-13470667D01*
X11907238Y-13480190D01*
X11916762Y-13489714D01*
X11926286Y-13508762D01*
X11926286Y-13556381D01*
X11916762Y-13575428D01*
X11907238Y-13584952D01*
X11888190Y-13594476D01*
X11840571Y-13594476D01*
X11821524Y-13584952D01*
X11812000Y-13575428D01*
X12002476Y-13394476D02*
X12002476Y-13432571D01*
X12078667Y-13394476D02*
X12078667Y-13432571D01*
X12373905Y-13670667D02*
X12364381Y-13661143D01*
X12345333Y-13632571D01*
X12335809Y-13613524D01*
X12326286Y-13584952D01*
X12316762Y-13537333D01*
X12316762Y-13499238D01*
X12326286Y-13451619D01*
X12335809Y-13423048D01*
X12345333Y-13404000D01*
X12364381Y-13375428D01*
X12373905Y-13365905D01*
X12440571Y-13413524D02*
X12450095Y-13404000D01*
X12469143Y-13394476D01*
X12516762Y-13394476D01*
X12535809Y-13404000D01*
X12545333Y-13413524D01*
X12554857Y-13432571D01*
X12554857Y-13451619D01*
X12545333Y-13480190D01*
X12431048Y-13594476D01*
X12554857Y-13594476D01*
X12792952Y-13594476D02*
X12792952Y-13394476D01*
X12878667Y-13594476D02*
X12878667Y-13489714D01*
X12869143Y-13470667D01*
X12850095Y-13461143D01*
X12821524Y-13461143D01*
X12802476Y-13470667D01*
X12792952Y-13480190D01*
X13002476Y-13594476D02*
X12983428Y-13584952D01*
X12973905Y-13575428D01*
X12964381Y-13556381D01*
X12964381Y-13499238D01*
X12973905Y-13480190D01*
X12983428Y-13470667D01*
X13002476Y-13461143D01*
X13031048Y-13461143D01*
X13050095Y-13470667D01*
X13059619Y-13480190D01*
X13069143Y-13499238D01*
X13069143Y-13556381D01*
X13059619Y-13575428D01*
X13050095Y-13584952D01*
X13031048Y-13594476D01*
X13002476Y-13594476D01*
X13183428Y-13594476D02*
X13164381Y-13584952D01*
X13154857Y-13565905D01*
X13154857Y-13394476D01*
X13335809Y-13584952D02*
X13316762Y-13594476D01*
X13278667Y-13594476D01*
X13259619Y-13584952D01*
X13250095Y-13565905D01*
X13250095Y-13489714D01*
X13259619Y-13470667D01*
X13278667Y-13461143D01*
X13316762Y-13461143D01*
X13335809Y-13470667D01*
X13345333Y-13489714D01*
X13345333Y-13508762D01*
X13250095Y-13527809D01*
X13421524Y-13584952D02*
X13440571Y-13594476D01*
X13478667Y-13594476D01*
X13497714Y-13584952D01*
X13507238Y-13565905D01*
X13507238Y-13556381D01*
X13497714Y-13537333D01*
X13478667Y-13527809D01*
X13450095Y-13527809D01*
X13431048Y-13518286D01*
X13421524Y-13499238D01*
X13421524Y-13489714D01*
X13431048Y-13470667D01*
X13450095Y-13461143D01*
X13478667Y-13461143D01*
X13497714Y-13470667D01*
X13573905Y-13670667D02*
X13583428Y-13661143D01*
X13602476Y-13632571D01*
X13612000Y-13613524D01*
X13621524Y-13584952D01*
X13631048Y-13537333D01*
X13631048Y-13499238D01*
X13621524Y-13451619D01*
X13612000Y-13423048D01*
X13602476Y-13404000D01*
X13583428Y-13375428D01*
X13573905Y-13365905D01*
D20*
X8752000Y-13718000D02*
X8752000Y-13818000D01*
X8702000Y-13768000D02*
X8802000Y-13768000D01*
X8802000Y-13768000D02*
G75*
G03*
X8802000Y-13768000I-50000J0D01*
G01*
D11*
X9164381Y-13858476D02*
X9050095Y-13858476D01*
X9107238Y-13858476D02*
X9107238Y-13658476D01*
X9088190Y-13687048D01*
X9069143Y-13706095D01*
X9050095Y-13715619D01*
X9250095Y-13839428D02*
X9259619Y-13848952D01*
X9250095Y-13858476D01*
X9240571Y-13848952D01*
X9250095Y-13839428D01*
X9250095Y-13858476D01*
X9383429Y-13658476D02*
X9402476Y-13658476D01*
X9421524Y-13668000D01*
X9431048Y-13677524D01*
X9440571Y-13696571D01*
X9450095Y-13734667D01*
X9450095Y-13782286D01*
X9440571Y-13820381D01*
X9431048Y-13839428D01*
X9421524Y-13848952D01*
X9402476Y-13858476D01*
X9383429Y-13858476D01*
X9364381Y-13848952D01*
X9354857Y-13839428D01*
X9345333Y-13820381D01*
X9335810Y-13782286D01*
X9335810Y-13734667D01*
X9345333Y-13696571D01*
X9354857Y-13677524D01*
X9364381Y-13668000D01*
X9383429Y-13658476D01*
X9573905Y-13658476D02*
X9592952Y-13658476D01*
X9612000Y-13668000D01*
X9621524Y-13677524D01*
X9631048Y-13696571D01*
X9640571Y-13734667D01*
X9640571Y-13782286D01*
X9631048Y-13820381D01*
X9621524Y-13839428D01*
X9612000Y-13848952D01*
X9592952Y-13858476D01*
X9573905Y-13858476D01*
X9554857Y-13848952D01*
X9545333Y-13839428D01*
X9535810Y-13820381D01*
X9526286Y-13782286D01*
X9526286Y-13734667D01*
X9535810Y-13696571D01*
X9545333Y-13677524D01*
X9554857Y-13668000D01*
X9573905Y-13658476D01*
X9764381Y-13658476D02*
X9783429Y-13658476D01*
X9802476Y-13668000D01*
X9812000Y-13677524D01*
X9821524Y-13696571D01*
X9831048Y-13734667D01*
X9831048Y-13782286D01*
X9821524Y-13820381D01*
X9812000Y-13839428D01*
X9802476Y-13848952D01*
X9783429Y-13858476D01*
X9764381Y-13858476D01*
X9745333Y-13848952D01*
X9735810Y-13839428D01*
X9726286Y-13820381D01*
X9716762Y-13782286D01*
X9716762Y-13734667D01*
X9726286Y-13696571D01*
X9735810Y-13677524D01*
X9745333Y-13668000D01*
X9764381Y-13658476D01*
X9916762Y-13858476D02*
X9916762Y-13725143D01*
X9916762Y-13744190D02*
X9926286Y-13734667D01*
X9945333Y-13725143D01*
X9973905Y-13725143D01*
X9992952Y-13734667D01*
X10002476Y-13753714D01*
X10002476Y-13858476D01*
X10002476Y-13753714D02*
X10012000Y-13734667D01*
X10031048Y-13725143D01*
X10059619Y-13725143D01*
X10078667Y-13734667D01*
X10088190Y-13753714D01*
X10088190Y-13858476D01*
X10183429Y-13858476D02*
X10183429Y-13725143D01*
X10183429Y-13744190D02*
X10192952Y-13734667D01*
X10212000Y-13725143D01*
X10240571Y-13725143D01*
X10259619Y-13734667D01*
X10269143Y-13753714D01*
X10269143Y-13858476D01*
X10269143Y-13753714D02*
X10278667Y-13734667D01*
X10297714Y-13725143D01*
X10326286Y-13725143D01*
X10345333Y-13734667D01*
X10354857Y-13753714D01*
X10354857Y-13858476D01*
X10745333Y-13648952D02*
X10573905Y-13906095D01*
X11002476Y-13658476D02*
X11021524Y-13658476D01*
X11040571Y-13668000D01*
X11050095Y-13677524D01*
X11059619Y-13696571D01*
X11069143Y-13734667D01*
X11069143Y-13782286D01*
X11059619Y-13820381D01*
X11050095Y-13839428D01*
X11040571Y-13848952D01*
X11021524Y-13858476D01*
X11002476Y-13858476D01*
X10983429Y-13848952D01*
X10973905Y-13839428D01*
X10964381Y-13820381D01*
X10954857Y-13782286D01*
X10954857Y-13734667D01*
X10964381Y-13696571D01*
X10973905Y-13677524D01*
X10983429Y-13668000D01*
X11002476Y-13658476D01*
X11154857Y-13839428D02*
X11164381Y-13848952D01*
X11154857Y-13858476D01*
X11145333Y-13848952D01*
X11154857Y-13839428D01*
X11154857Y-13858476D01*
X11288190Y-13658476D02*
X11307238Y-13658476D01*
X11326286Y-13668000D01*
X11335809Y-13677524D01*
X11345333Y-13696571D01*
X11354857Y-13734667D01*
X11354857Y-13782286D01*
X11345333Y-13820381D01*
X11335809Y-13839428D01*
X11326286Y-13848952D01*
X11307238Y-13858476D01*
X11288190Y-13858476D01*
X11269143Y-13848952D01*
X11259619Y-13839428D01*
X11250095Y-13820381D01*
X11240571Y-13782286D01*
X11240571Y-13734667D01*
X11250095Y-13696571D01*
X11259619Y-13677524D01*
X11269143Y-13668000D01*
X11288190Y-13658476D01*
X11421524Y-13658476D02*
X11545333Y-13658476D01*
X11478667Y-13734667D01*
X11507238Y-13734667D01*
X11526286Y-13744190D01*
X11535809Y-13753714D01*
X11545333Y-13772762D01*
X11545333Y-13820381D01*
X11535809Y-13839428D01*
X11526286Y-13848952D01*
X11507238Y-13858476D01*
X11450095Y-13858476D01*
X11431048Y-13848952D01*
X11421524Y-13839428D01*
X11640571Y-13858476D02*
X11678667Y-13858476D01*
X11697714Y-13848952D01*
X11707238Y-13839428D01*
X11726286Y-13810857D01*
X11735809Y-13772762D01*
X11735809Y-13696571D01*
X11726286Y-13677524D01*
X11716762Y-13668000D01*
X11697714Y-13658476D01*
X11659619Y-13658476D01*
X11640571Y-13668000D01*
X11631048Y-13677524D01*
X11621524Y-13696571D01*
X11621524Y-13744190D01*
X11631048Y-13763238D01*
X11640571Y-13772762D01*
X11659619Y-13782286D01*
X11697714Y-13782286D01*
X11716762Y-13772762D01*
X11726286Y-13763238D01*
X11735809Y-13744190D01*
X11907238Y-13725143D02*
X11907238Y-13858476D01*
X11859619Y-13648952D02*
X11812000Y-13791809D01*
X11935809Y-13791809D01*
X12002476Y-13658476D02*
X12002476Y-13696571D01*
X12078667Y-13658476D02*
X12078667Y-13696571D01*
X12373905Y-13934667D02*
X12364381Y-13925143D01*
X12345333Y-13896571D01*
X12335809Y-13877524D01*
X12326286Y-13848952D01*
X12316762Y-13801333D01*
X12316762Y-13763238D01*
X12326286Y-13715619D01*
X12335809Y-13687048D01*
X12345333Y-13668000D01*
X12364381Y-13639428D01*
X12373905Y-13629905D01*
X12431048Y-13658476D02*
X12554857Y-13658476D01*
X12488190Y-13734667D01*
X12516762Y-13734667D01*
X12535809Y-13744190D01*
X12545333Y-13753714D01*
X12554857Y-13772762D01*
X12554857Y-13820381D01*
X12545333Y-13839428D01*
X12535809Y-13848952D01*
X12516762Y-13858476D01*
X12459619Y-13858476D01*
X12440571Y-13848952D01*
X12431048Y-13839428D01*
X12745333Y-13858476D02*
X12631048Y-13858476D01*
X12688190Y-13858476D02*
X12688190Y-13658476D01*
X12669143Y-13687048D01*
X12650095Y-13706095D01*
X12631048Y-13715619D01*
X12983428Y-13858476D02*
X12983428Y-13658476D01*
X13069143Y-13858476D02*
X13069143Y-13753714D01*
X13059619Y-13734667D01*
X13040571Y-13725143D01*
X13012000Y-13725143D01*
X12992952Y-13734667D01*
X12983428Y-13744190D01*
X13192952Y-13858476D02*
X13173905Y-13848952D01*
X13164381Y-13839428D01*
X13154857Y-13820381D01*
X13154857Y-13763238D01*
X13164381Y-13744190D01*
X13173905Y-13734667D01*
X13192952Y-13725143D01*
X13221524Y-13725143D01*
X13240571Y-13734667D01*
X13250095Y-13744190D01*
X13259619Y-13763238D01*
X13259619Y-13820381D01*
X13250095Y-13839428D01*
X13240571Y-13848952D01*
X13221524Y-13858476D01*
X13192952Y-13858476D01*
X13373905Y-13858476D02*
X13354857Y-13848952D01*
X13345333Y-13829905D01*
X13345333Y-13658476D01*
X13526286Y-13848952D02*
X13507238Y-13858476D01*
X13469143Y-13858476D01*
X13450095Y-13848952D01*
X13440571Y-13829905D01*
X13440571Y-13753714D01*
X13450095Y-13734667D01*
X13469143Y-13725143D01*
X13507238Y-13725143D01*
X13526286Y-13734667D01*
X13535809Y-13753714D01*
X13535809Y-13772762D01*
X13440571Y-13791809D01*
X13612000Y-13848952D02*
X13631048Y-13858476D01*
X13669143Y-13858476D01*
X13688190Y-13848952D01*
X13697714Y-13829905D01*
X13697714Y-13820381D01*
X13688190Y-13801333D01*
X13669143Y-13791809D01*
X13640571Y-13791809D01*
X13621524Y-13782286D01*
X13612000Y-13763238D01*
X13612000Y-13753714D01*
X13621524Y-13734667D01*
X13640571Y-13725143D01*
X13669143Y-13725143D01*
X13688190Y-13734667D01*
X13764381Y-13934667D02*
X13773905Y-13925143D01*
X13792952Y-13896571D01*
X13802476Y-13877524D01*
X13812000Y-13848952D01*
X13821524Y-13801333D01*
X13821524Y-13763238D01*
X13812000Y-13715619D01*
X13802476Y-13687048D01*
X13792952Y-13668000D01*
X13773905Y-13639428D01*
X13764381Y-13629905D01*
D21*
X8782962Y-14077962D02*
X8782962Y-13986038D01*
X8691038Y-13986038D01*
X8691038Y-14077962D01*
X8782962Y-14077962D01*
X8802000Y-14032000D02*
G75*
G03*
X8802000Y-14032000I-65000J0D01*
G01*
D11*
X9164381Y-14122476D02*
X9050095Y-14122476D01*
X9107238Y-14122476D02*
X9107238Y-13922476D01*
X9088190Y-13951048D01*
X9069143Y-13970095D01*
X9050095Y-13979619D01*
X9250095Y-14103428D02*
X9259619Y-14112952D01*
X9250095Y-14122476D01*
X9240571Y-14112952D01*
X9250095Y-14103428D01*
X9250095Y-14122476D01*
X9326286Y-13922476D02*
X9450095Y-13922476D01*
X9383429Y-13998667D01*
X9412000Y-13998667D01*
X9431048Y-14008190D01*
X9440571Y-14017714D01*
X9450095Y-14036762D01*
X9450095Y-14084381D01*
X9440571Y-14103428D01*
X9431048Y-14112952D01*
X9412000Y-14122476D01*
X9354857Y-14122476D01*
X9335810Y-14112952D01*
X9326286Y-14103428D01*
X9573905Y-13922476D02*
X9592952Y-13922476D01*
X9612000Y-13932000D01*
X9621524Y-13941524D01*
X9631048Y-13960571D01*
X9640571Y-13998667D01*
X9640571Y-14046286D01*
X9631048Y-14084381D01*
X9621524Y-14103428D01*
X9612000Y-14112952D01*
X9592952Y-14122476D01*
X9573905Y-14122476D01*
X9554857Y-14112952D01*
X9545333Y-14103428D01*
X9535810Y-14084381D01*
X9526286Y-14046286D01*
X9526286Y-13998667D01*
X9535810Y-13960571D01*
X9545333Y-13941524D01*
X9554857Y-13932000D01*
X9573905Y-13922476D01*
X9764381Y-13922476D02*
X9783429Y-13922476D01*
X9802476Y-13932000D01*
X9812000Y-13941524D01*
X9821524Y-13960571D01*
X9831048Y-13998667D01*
X9831048Y-14046286D01*
X9821524Y-14084381D01*
X9812000Y-14103428D01*
X9802476Y-14112952D01*
X9783429Y-14122476D01*
X9764381Y-14122476D01*
X9745333Y-14112952D01*
X9735810Y-14103428D01*
X9726286Y-14084381D01*
X9716762Y-14046286D01*
X9716762Y-13998667D01*
X9726286Y-13960571D01*
X9735810Y-13941524D01*
X9745333Y-13932000D01*
X9764381Y-13922476D01*
X9916762Y-14122476D02*
X9916762Y-13989143D01*
X9916762Y-14008190D02*
X9926286Y-13998667D01*
X9945333Y-13989143D01*
X9973905Y-13989143D01*
X9992952Y-13998667D01*
X10002476Y-14017714D01*
X10002476Y-14122476D01*
X10002476Y-14017714D02*
X10012000Y-13998667D01*
X10031048Y-13989143D01*
X10059619Y-13989143D01*
X10078667Y-13998667D01*
X10088190Y-14017714D01*
X10088190Y-14122476D01*
X10183429Y-14122476D02*
X10183429Y-13989143D01*
X10183429Y-14008190D02*
X10192952Y-13998667D01*
X10212000Y-13989143D01*
X10240571Y-13989143D01*
X10259619Y-13998667D01*
X10269143Y-14017714D01*
X10269143Y-14122476D01*
X10269143Y-14017714D02*
X10278667Y-13998667D01*
X10297714Y-13989143D01*
X10326286Y-13989143D01*
X10345333Y-13998667D01*
X10354857Y-14017714D01*
X10354857Y-14122476D01*
X10745333Y-13912952D02*
X10573905Y-14170095D01*
X11002476Y-13922476D02*
X11021524Y-13922476D01*
X11040571Y-13932000D01*
X11050095Y-13941524D01*
X11059619Y-13960571D01*
X11069143Y-13998667D01*
X11069143Y-14046286D01*
X11059619Y-14084381D01*
X11050095Y-14103428D01*
X11040571Y-14112952D01*
X11021524Y-14122476D01*
X11002476Y-14122476D01*
X10983429Y-14112952D01*
X10973905Y-14103428D01*
X10964381Y-14084381D01*
X10954857Y-14046286D01*
X10954857Y-13998667D01*
X10964381Y-13960571D01*
X10973905Y-13941524D01*
X10983429Y-13932000D01*
X11002476Y-13922476D01*
X11154857Y-14103428D02*
X11164381Y-14112952D01*
X11154857Y-14122476D01*
X11145333Y-14112952D01*
X11154857Y-14103428D01*
X11154857Y-14122476D01*
X11288190Y-13922476D02*
X11307238Y-13922476D01*
X11326286Y-13932000D01*
X11335809Y-13941524D01*
X11345333Y-13960571D01*
X11354857Y-13998667D01*
X11354857Y-14046286D01*
X11345333Y-14084381D01*
X11335809Y-14103428D01*
X11326286Y-14112952D01*
X11307238Y-14122476D01*
X11288190Y-14122476D01*
X11269143Y-14112952D01*
X11259619Y-14103428D01*
X11250095Y-14084381D01*
X11240571Y-14046286D01*
X11240571Y-13998667D01*
X11250095Y-13960571D01*
X11259619Y-13941524D01*
X11269143Y-13932000D01*
X11288190Y-13922476D01*
X11535809Y-13922476D02*
X11440571Y-13922476D01*
X11431048Y-14017714D01*
X11440571Y-14008190D01*
X11459619Y-13998667D01*
X11507238Y-13998667D01*
X11526286Y-14008190D01*
X11535809Y-14017714D01*
X11545333Y-14036762D01*
X11545333Y-14084381D01*
X11535809Y-14103428D01*
X11526286Y-14112952D01*
X11507238Y-14122476D01*
X11459619Y-14122476D01*
X11440571Y-14112952D01*
X11431048Y-14103428D01*
X11735809Y-14122476D02*
X11621524Y-14122476D01*
X11678667Y-14122476D02*
X11678667Y-13922476D01*
X11659619Y-13951048D01*
X11640571Y-13970095D01*
X11621524Y-13979619D01*
X11812000Y-13941524D02*
X11821524Y-13932000D01*
X11840571Y-13922476D01*
X11888190Y-13922476D01*
X11907238Y-13932000D01*
X11916762Y-13941524D01*
X11926286Y-13960571D01*
X11926286Y-13979619D01*
X11916762Y-14008190D01*
X11802476Y-14122476D01*
X11926286Y-14122476D01*
X12002476Y-13922476D02*
X12002476Y-13960571D01*
X12078667Y-13922476D02*
X12078667Y-13960571D01*
X12373905Y-14198667D02*
X12364381Y-14189143D01*
X12345333Y-14160571D01*
X12335809Y-14141524D01*
X12326286Y-14112952D01*
X12316762Y-14065333D01*
X12316762Y-14027238D01*
X12326286Y-13979619D01*
X12335809Y-13951048D01*
X12345333Y-13932000D01*
X12364381Y-13903428D01*
X12373905Y-13893905D01*
X12440571Y-13941524D02*
X12450095Y-13932000D01*
X12469143Y-13922476D01*
X12516762Y-13922476D01*
X12535809Y-13932000D01*
X12545333Y-13941524D01*
X12554857Y-13960571D01*
X12554857Y-13979619D01*
X12545333Y-14008190D01*
X12431048Y-14122476D01*
X12554857Y-14122476D01*
X12792952Y-14122476D02*
X12792952Y-13922476D01*
X12878667Y-14122476D02*
X12878667Y-14017714D01*
X12869143Y-13998667D01*
X12850095Y-13989143D01*
X12821524Y-13989143D01*
X12802476Y-13998667D01*
X12792952Y-14008190D01*
X13002476Y-14122476D02*
X12983428Y-14112952D01*
X12973905Y-14103428D01*
X12964381Y-14084381D01*
X12964381Y-14027238D01*
X12973905Y-14008190D01*
X12983428Y-13998667D01*
X13002476Y-13989143D01*
X13031048Y-13989143D01*
X13050095Y-13998667D01*
X13059619Y-14008190D01*
X13069143Y-14027238D01*
X13069143Y-14084381D01*
X13059619Y-14103428D01*
X13050095Y-14112952D01*
X13031048Y-14122476D01*
X13002476Y-14122476D01*
X13183428Y-14122476D02*
X13164381Y-14112952D01*
X13154857Y-14093905D01*
X13154857Y-13922476D01*
X13335809Y-14112952D02*
X13316762Y-14122476D01*
X13278667Y-14122476D01*
X13259619Y-14112952D01*
X13250095Y-14093905D01*
X13250095Y-14017714D01*
X13259619Y-13998667D01*
X13278667Y-13989143D01*
X13316762Y-13989143D01*
X13335809Y-13998667D01*
X13345333Y-14017714D01*
X13345333Y-14036762D01*
X13250095Y-14055809D01*
X13421524Y-14112952D02*
X13440571Y-14122476D01*
X13478667Y-14122476D01*
X13497714Y-14112952D01*
X13507238Y-14093905D01*
X13507238Y-14084381D01*
X13497714Y-14065333D01*
X13478667Y-14055809D01*
X13450095Y-14055809D01*
X13431048Y-14046286D01*
X13421524Y-14027238D01*
X13421524Y-14017714D01*
X13431048Y-13998667D01*
X13450095Y-13989143D01*
X13478667Y-13989143D01*
X13497714Y-13998667D01*
X13573905Y-14198667D02*
X13583428Y-14189143D01*
X13602476Y-14160571D01*
X13612000Y-14141524D01*
X13621524Y-14112952D01*
X13631048Y-14065333D01*
X13631048Y-14027238D01*
X13621524Y-13979619D01*
X13612000Y-13951048D01*
X13602476Y-13932000D01*
X13583428Y-13903428D01*
X13573905Y-13893905D01*
M02*
