%TF.GenerationSoftware,KiCad,Pcbnew,(6.0.6)*%
%TF.CreationDate,2022-10-10T20:15:19-05:00*%
%TF.ProjectId,better-klipper-expander,62657474-6572-42d6-9b6c-69707065722d,V1*%
%TF.SameCoordinates,Original*%
%TF.FileFunction,Paste,Top*%
%TF.FilePolarity,Positive*%
%FSLAX46Y46*%
G04 Gerber Fmt 4.6, Leading zero omitted, Abs format (unit mm)*
G04 Created by KiCad (PCBNEW (6.0.6)) date 2022-10-10 20:15:19*
%MOMM*%
%LPD*%
G01*
G04 APERTURE LIST*
G04 Aperture macros list*
%AMRoundRect*
0 Rectangle with rounded corners*
0 $1 Rounding radius*
0 $2 $3 $4 $5 $6 $7 $8 $9 X,Y pos of 4 corners*
0 Add a 4 corners polygon primitive as box body*
4,1,4,$2,$3,$4,$5,$6,$7,$8,$9,$2,$3,0*
0 Add four circle primitives for the rounded corners*
1,1,$1+$1,$2,$3*
1,1,$1+$1,$4,$5*
1,1,$1+$1,$6,$7*
1,1,$1+$1,$8,$9*
0 Add four rect primitives between the rounded corners*
20,1,$1+$1,$2,$3,$4,$5,0*
20,1,$1+$1,$4,$5,$6,$7,0*
20,1,$1+$1,$6,$7,$8,$9,0*
20,1,$1+$1,$8,$9,$2,$3,0*%
G04 Aperture macros list end*
%TA.AperFunction,Profile*%
%ADD10C,0.050000*%
%TD*%
%ADD11C,0.010000*%
%ADD12RoundRect,0.250000X-0.262500X-0.450000X0.262500X-0.450000X0.262500X0.450000X-0.262500X0.450000X0*%
%ADD13R,2.500000X1.800000*%
%ADD14RoundRect,0.250000X-0.475000X0.250000X-0.475000X-0.250000X0.475000X-0.250000X0.475000X0.250000X0*%
%ADD15R,1.800000X2.500000*%
%ADD16RoundRect,0.250000X0.262500X0.450000X-0.262500X0.450000X-0.262500X-0.450000X0.262500X-0.450000X0*%
%ADD17RoundRect,0.250000X0.250000X0.475000X-0.250000X0.475000X-0.250000X-0.475000X0.250000X-0.475000X0*%
%ADD18RoundRect,0.250000X-0.250000X-0.475000X0.250000X-0.475000X0.250000X0.475000X-0.250000X0.475000X0*%
%ADD19RoundRect,0.249999X-0.395001X-0.395001X0.395001X-0.395001X0.395001X0.395001X-0.395001X0.395001X0*%
%ADD20RoundRect,0.050000X-0.387500X-0.050000X0.387500X-0.050000X0.387500X0.050000X-0.387500X0.050000X0*%
%ADD21RoundRect,0.050000X-0.050000X-0.387500X0.050000X-0.387500X0.050000X0.387500X-0.050000X0.387500X0*%
%ADD22RoundRect,0.042000X0.258000X-0.943000X0.258000X0.943000X-0.258000X0.943000X-0.258000X-0.943000X0*%
%ADD23RoundRect,0.250000X-0.450000X0.262500X-0.450000X-0.262500X0.450000X-0.262500X0.450000X0.262500X0*%
%ADD24R,1.000000X1.400000*%
%ADD25RoundRect,0.150000X0.150000X-0.587500X0.150000X0.587500X-0.150000X0.587500X-0.150000X-0.587500X0*%
%ADD26R,1.400000X1.200000*%
%ADD27RoundRect,0.243750X-0.243750X-0.456250X0.243750X-0.456250X0.243750X0.456250X-0.243750X0.456250X0*%
%ADD28RoundRect,0.237500X0.237500X-0.287500X0.237500X0.287500X-0.237500X0.287500X-0.237500X-0.287500X0*%
%ADD29RoundRect,0.250000X0.475000X-0.250000X0.475000X0.250000X-0.475000X0.250000X-0.475000X-0.250000X0*%
%ADD30RoundRect,0.150000X-0.587500X-0.150000X0.587500X-0.150000X0.587500X0.150000X-0.587500X0.150000X0*%
%ADD31RoundRect,0.006000X0.769000X0.294000X-0.769000X0.294000X-0.769000X-0.294000X0.769000X-0.294000X0*%
%ADD32RoundRect,0.250000X0.375000X1.075000X-0.375000X1.075000X-0.375000X-1.075000X0.375000X-1.075000X0*%
%ADD33RoundRect,0.040600X0.564400X0.249400X-0.564400X0.249400X-0.564400X-0.249400X0.564400X-0.249400X0*%
%ADD34R,3.500000X2.300000*%
%ADD35RoundRect,0.250000X0.450000X-0.262500X0.450000X0.262500X-0.450000X0.262500X-0.450000X-0.262500X0*%
%ADD36O,0.990600X1.803400*%
%ADD37O,0.990600X2.108200*%
%ADD38R,0.584200X1.143000*%
%ADD39R,0.304800X1.143000*%
G04 APERTURE END LIST*
D10*
X88045000Y-77495000D02*
X88045000Y-107495000D01*
X193045000Y-77500000D02*
X88045000Y-77495000D01*
X88045000Y-107495000D02*
X193045000Y-107495000D01*
X193045000Y-107495000D02*
X193045000Y-77495000D01*
%TO.C,U3*%
G36*
X171795000Y-93500000D02*
G01*
X169085000Y-93500000D01*
X169085000Y-90100000D01*
X171795000Y-90100000D01*
X171795000Y-93500000D01*
G37*
D11*
X171795000Y-93500000D02*
X169085000Y-93500000D01*
X169085000Y-90100000D01*
X171795000Y-90100000D01*
X171795000Y-93500000D01*
%TD*%
D12*
%TO.C,R8*%
X144787500Y-88762500D03*
X146612500Y-88762500D03*
%TD*%
D13*
%TO.C,D1*%
X155800000Y-96500000D03*
X151800000Y-96500000D03*
%TD*%
D14*
%TO.C,C1*%
X158400000Y-95650000D03*
X158400000Y-97550000D03*
%TD*%
D15*
%TO.C,D8*%
X123200000Y-95900000D03*
X123200000Y-91900000D03*
%TD*%
D12*
%TO.C,R12*%
X127537500Y-88762500D03*
X129362500Y-88762500D03*
%TD*%
D16*
%TO.C,R25*%
X100312500Y-92087500D03*
X98487500Y-92087500D03*
%TD*%
D17*
%TO.C,C23*%
X108150000Y-94787500D03*
X106250000Y-94787500D03*
%TD*%
D18*
%TO.C,C11*%
X189500000Y-94400000D03*
X191400000Y-94400000D03*
%TD*%
D17*
%TO.C,C18*%
X180850000Y-98800000D03*
X178950000Y-98800000D03*
%TD*%
D19*
%TO.C,U4*%
X183762500Y-94400000D03*
X183762500Y-92800000D03*
X182162500Y-92800000D03*
X182162500Y-94400000D03*
D20*
X179525000Y-91000000D03*
X179525000Y-91400000D03*
X179525000Y-91800000D03*
X179525000Y-92200000D03*
X179525000Y-92600000D03*
X179525000Y-93000000D03*
X179525000Y-93400000D03*
X179525000Y-93800000D03*
X179525000Y-94200000D03*
X179525000Y-94600000D03*
X179525000Y-95000000D03*
X179525000Y-95400000D03*
X179525000Y-95800000D03*
X179525000Y-96200000D03*
D21*
X180362500Y-97037500D03*
X180762500Y-97037500D03*
X181162500Y-97037500D03*
X181562500Y-97037500D03*
X181962500Y-97037500D03*
X182362500Y-97037500D03*
X182762500Y-97037500D03*
X183162500Y-97037500D03*
X183562500Y-97037500D03*
X183962500Y-97037500D03*
X184362500Y-97037500D03*
X184762500Y-97037500D03*
X185162500Y-97037500D03*
X185562500Y-97037500D03*
D20*
X186400000Y-96200000D03*
X186400000Y-95800000D03*
X186400000Y-95400000D03*
X186400000Y-95000000D03*
X186400000Y-94600000D03*
X186400000Y-94200000D03*
X186400000Y-93800000D03*
X186400000Y-93400000D03*
X186400000Y-93000000D03*
X186400000Y-92600000D03*
X186400000Y-92200000D03*
X186400000Y-91800000D03*
X186400000Y-91400000D03*
X186400000Y-91000000D03*
D21*
X185562500Y-90162500D03*
X185162500Y-90162500D03*
X184762500Y-90162500D03*
X184362500Y-90162500D03*
X183962500Y-90162500D03*
X183562500Y-90162500D03*
X183162500Y-90162500D03*
X182762500Y-90162500D03*
X182362500Y-90162500D03*
X181962500Y-90162500D03*
X181562500Y-90162500D03*
X181162500Y-90162500D03*
X180762500Y-90162500D03*
X180362500Y-90162500D03*
%TD*%
D16*
%TO.C,R14*%
X108925000Y-101950000D03*
X107100000Y-101950000D03*
%TD*%
D22*
%TO.C,U1*%
X179695000Y-84920000D03*
X180965000Y-84920000D03*
X182235000Y-84920000D03*
X183505000Y-84920000D03*
X183505000Y-79970000D03*
X182235000Y-79970000D03*
X180965000Y-79970000D03*
X179695000Y-79970000D03*
%TD*%
D15*
%TO.C,D9*%
X117200000Y-95900000D03*
X117200000Y-91900000D03*
%TD*%
D12*
%TO.C,R13*%
X127537500Y-86300000D03*
X129362500Y-86300000D03*
%TD*%
D18*
%TO.C,C10*%
X189500000Y-92000000D03*
X191400000Y-92000000D03*
%TD*%
D12*
%TO.C,R4*%
X176487500Y-87600000D03*
X178312500Y-87600000D03*
%TD*%
%TO.C,R11*%
X136287500Y-86300000D03*
X138112500Y-86300000D03*
%TD*%
D18*
%TO.C,C9*%
X172450000Y-96800000D03*
X174350000Y-96800000D03*
%TD*%
D15*
%TO.C,D5*%
X141200000Y-95900000D03*
X141200000Y-91900000D03*
%TD*%
D12*
%TO.C,R22*%
X101987500Y-88762500D03*
X103812500Y-88762500D03*
%TD*%
D23*
%TO.C,R17*%
X104700000Y-98287500D03*
X104700000Y-100112500D03*
%TD*%
D14*
%TO.C,C2*%
X160600000Y-95650000D03*
X160600000Y-97550000D03*
%TD*%
D18*
%TO.C,C16*%
X188850000Y-89600000D03*
X190750000Y-89600000D03*
%TD*%
D24*
%TO.C,D11*%
X102350000Y-94587500D03*
X104250000Y-94587500D03*
X103300000Y-92387500D03*
%TD*%
D17*
%TO.C,C20*%
X180850000Y-100800000D03*
X178950000Y-100800000D03*
%TD*%
D16*
%TO.C,R24*%
X108112500Y-92087500D03*
X106287500Y-92087500D03*
%TD*%
D12*
%TO.C,R26*%
X98487500Y-94787500D03*
X100312500Y-94787500D03*
%TD*%
%TO.C,R18*%
X118937500Y-88762500D03*
X120762500Y-88762500D03*
%TD*%
D25*
%TO.C,Q3*%
X123600000Y-87550000D03*
X125500000Y-87550000D03*
X124550000Y-85675000D03*
%TD*%
D12*
%TO.C,R3*%
X172687500Y-87600000D03*
X174512500Y-87600000D03*
%TD*%
D26*
%TO.C,Y1*%
X184000000Y-105150000D03*
X186400000Y-105150000D03*
X186400000Y-103250000D03*
X184000000Y-103250000D03*
%TD*%
D27*
%TO.C,F3*%
X144762500Y-100400000D03*
X146637500Y-100400000D03*
%TD*%
D12*
%TO.C,R16*%
X99300000Y-104600000D03*
X101125000Y-104600000D03*
%TD*%
D28*
%TO.C,F1*%
X170900000Y-97475000D03*
X170900000Y-95725000D03*
%TD*%
D16*
%TO.C,R2*%
X191025000Y-102800000D03*
X189200000Y-102800000D03*
%TD*%
D12*
%TO.C,R20*%
X110437500Y-88762500D03*
X112262500Y-88762500D03*
%TD*%
D18*
%TO.C,C21*%
X182550000Y-99800000D03*
X184450000Y-99800000D03*
%TD*%
D29*
%TO.C,C6*%
X176800000Y-99550000D03*
X176800000Y-97650000D03*
%TD*%
%TO.C,C17*%
X158500000Y-101150000D03*
X158500000Y-99250000D03*
%TD*%
D25*
%TO.C,Q6*%
X98050000Y-87550000D03*
X99950000Y-87550000D03*
X99000000Y-85675000D03*
%TD*%
D27*
%TO.C,L2*%
X173162500Y-98800000D03*
X175037500Y-98800000D03*
%TD*%
D17*
%TO.C,C4*%
X191062500Y-105100000D03*
X189162500Y-105100000D03*
%TD*%
D30*
%TO.C,U2*%
X175962500Y-103650000D03*
X175962500Y-105550000D03*
X177837500Y-104600000D03*
%TD*%
D14*
%TO.C,C5*%
X165000000Y-95650000D03*
X165000000Y-97550000D03*
%TD*%
%TO.C,C14*%
X186700000Y-86350000D03*
X186700000Y-88250000D03*
%TD*%
D25*
%TO.C,Q5*%
X106500000Y-87550000D03*
X108400000Y-87550000D03*
X107450000Y-85675000D03*
%TD*%
D29*
%TO.C,C13*%
X167500000Y-97250000D03*
X167500000Y-95350000D03*
%TD*%
D12*
%TO.C,R5*%
X188887500Y-87300000D03*
X190712500Y-87300000D03*
%TD*%
D31*
%TO.C,U3*%
X173140000Y-93705000D03*
X173140000Y-92435000D03*
X173140000Y-91165000D03*
X173140000Y-89895000D03*
X167740000Y-89895000D03*
X167740000Y-91165000D03*
X167740000Y-92435000D03*
X167740000Y-93705000D03*
%TD*%
D23*
%TO.C,R7*%
X176100000Y-93487500D03*
X176100000Y-95312500D03*
%TD*%
D12*
%TO.C,R10*%
X136287500Y-88762500D03*
X138112500Y-88762500D03*
%TD*%
D18*
%TO.C,C12*%
X189500000Y-96800000D03*
X191400000Y-96800000D03*
%TD*%
D16*
%TO.C,R15*%
X101125000Y-101900000D03*
X99300000Y-101900000D03*
%TD*%
D29*
%TO.C,C7*%
X180800000Y-105550000D03*
X180800000Y-103650000D03*
%TD*%
D25*
%TO.C,Q1*%
X140850000Y-87550000D03*
X142750000Y-87550000D03*
X141800000Y-85675000D03*
%TD*%
D15*
%TO.C,D10*%
X111200000Y-95900000D03*
X111200000Y-91900000D03*
%TD*%
D32*
%TO.C,L1*%
X163400000Y-100200000D03*
X160600000Y-100200000D03*
%TD*%
D12*
%TO.C,R23*%
X101987500Y-86300000D03*
X103812500Y-86300000D03*
%TD*%
D17*
%TO.C,C8*%
X177050000Y-101500000D03*
X175150000Y-101500000D03*
%TD*%
D14*
%TO.C,C3*%
X162800000Y-95650000D03*
X162800000Y-97550000D03*
%TD*%
D33*
%TO.C,U5*%
X163412500Y-105250000D03*
X163412500Y-104300000D03*
X163412500Y-103350000D03*
X160902500Y-103350000D03*
X160902500Y-104300000D03*
X160902500Y-105250000D03*
%TD*%
D17*
%TO.C,C22*%
X108962500Y-104600000D03*
X107062500Y-104600000D03*
%TD*%
D24*
%TO.C,D4*%
X103162500Y-104300000D03*
X105062500Y-104300000D03*
X104112500Y-102100000D03*
%TD*%
D15*
%TO.C,D6*%
X135200000Y-95900000D03*
X135200000Y-91900000D03*
%TD*%
D34*
%TO.C,D2*%
X163245000Y-92095000D03*
X157845000Y-92095000D03*
%TD*%
D25*
%TO.C,Q4*%
X115000000Y-87550000D03*
X116900000Y-87550000D03*
X115950000Y-85675000D03*
%TD*%
D12*
%TO.C,R19*%
X118937500Y-86300000D03*
X120762500Y-86300000D03*
%TD*%
D15*
%TO.C,D7*%
X129200000Y-95900000D03*
X129200000Y-91900000D03*
%TD*%
D13*
%TO.C,D3*%
X155800000Y-100200000D03*
X151800000Y-100200000D03*
%TD*%
D12*
%TO.C,R9*%
X144787500Y-86300000D03*
X146612500Y-86300000D03*
%TD*%
D35*
%TO.C,R6*%
X175200000Y-91712500D03*
X175200000Y-89887500D03*
%TD*%
D36*
%TO.C,J2*%
X177220002Y-80530800D03*
X168579998Y-80530800D03*
D37*
X177220002Y-84710800D03*
X168579998Y-84710800D03*
D38*
X176100000Y-85285800D03*
X175300001Y-85285800D03*
D39*
X174150000Y-85285800D03*
X173150000Y-85285800D03*
X172650000Y-85285800D03*
X171650000Y-85285800D03*
D38*
X169700000Y-85285800D03*
X170499999Y-85285800D03*
D39*
X171150001Y-85285800D03*
X172149999Y-85285800D03*
X173650001Y-85285800D03*
X174649999Y-85285800D03*
%TD*%
D12*
%TO.C,R21*%
X110437500Y-86300000D03*
X112262500Y-86300000D03*
%TD*%
D25*
%TO.C,Q2*%
X132350000Y-87550000D03*
X134250000Y-87550000D03*
X133300000Y-85675000D03*
%TD*%
M02*
