%TF.GenerationSoftware,KiCad,Pcbnew,(6.0.10)*%
%TF.CreationDate,2022-12-24T21:06:38-06:00*%
%TF.ProjectId,better-klipper-expander,62657474-6572-42d6-9b6c-69707065722d,V1*%
%TF.SameCoordinates,Original*%
%TF.FileFunction,Plated,1,4,PTH,Drill*%
%TF.FilePolarity,Positive*%
%FSLAX46Y46*%
G04 Gerber Fmt 4.6, Leading zero omitted, Abs format (unit mm)*
G04 Created by KiCad (PCBNEW (6.0.10)) date 2022-12-24 21:06:38*
%MOMM*%
%LPD*%
G01*
G04 APERTURE LIST*
%TA.AperFunction,ComponentDrill*%
%ADD10C,0.200000*%
%TD*%
%TA.AperFunction,ViaDrill*%
%ADD11C,0.250000*%
%TD*%
%TA.AperFunction,ViaDrill*%
%ADD12C,0.300000*%
%TD*%
%TA.AperFunction,ViaDrill*%
%ADD13C,0.400000*%
%TD*%
%TA.AperFunction,ViaDrill*%
%ADD14C,0.500000*%
%TD*%
%TA.AperFunction,ComponentDrill*%
%ADD15C,0.660400*%
%TD*%
%TA.AperFunction,ViaDrill*%
%ADD16C,0.750000*%
%TD*%
%TA.AperFunction,ComponentDrill*%
%ADD17C,0.780000*%
%TD*%
%TA.AperFunction,ComponentDrill*%
%ADD18C,0.800000*%
%TD*%
%TA.AperFunction,ComponentDrill*%
%ADD19C,1.000000*%
%TD*%
%TA.AperFunction,ComponentDrill*%
%ADD20C,1.300000*%
%TD*%
G04 APERTURE END LIST*
D10*
%TO.C,U3*%
X169790000Y-89850000D03*
X169790000Y-91150000D03*
X169790000Y-92450000D03*
X169790000Y-93750000D03*
X171090000Y-89850000D03*
X171090000Y-91150000D03*
X171090000Y-92450000D03*
X171090000Y-93750000D03*
%TD*%
D11*
X164550569Y-104349431D03*
X177300000Y-92200000D03*
X177500000Y-92900000D03*
X177600000Y-91500000D03*
X178000000Y-93400000D03*
X178200000Y-90900000D03*
X178600000Y-93800000D03*
X180700000Y-94200000D03*
X182200000Y-98100000D03*
X182900000Y-98100000D03*
X183400000Y-91400000D03*
X183620878Y-88920878D03*
X183797382Y-97911054D03*
X184376516Y-88940488D03*
X185199104Y-88892181D03*
X185200000Y-94600000D03*
X187400000Y-93500000D03*
X187600000Y-90700000D03*
X187800000Y-92000000D03*
X187800000Y-92800000D03*
D12*
X163400000Y-104300000D03*
X176100000Y-96400000D03*
X178900000Y-101100000D03*
X179700000Y-83799502D03*
X180900000Y-102000000D03*
X182200000Y-105400000D03*
X186400000Y-103300000D03*
D13*
X102000000Y-86300000D03*
X102312600Y-94887400D03*
X103125100Y-104587400D03*
X103812500Y-88812500D03*
X104250000Y-94900000D03*
X105062500Y-104600000D03*
X105900000Y-100100000D03*
X108000000Y-106300000D03*
X108237500Y-92100000D03*
X108362500Y-87587500D03*
X109050000Y-101937500D03*
X112262500Y-88900000D03*
X116862500Y-87582905D03*
X120762500Y-88900000D03*
X125462500Y-87571351D03*
X129362500Y-88600000D03*
X134262500Y-87571351D03*
X138112500Y-88662500D03*
X142762500Y-87571351D03*
X144762500Y-99600000D03*
X146612500Y-88762500D03*
X146637500Y-99600000D03*
X158500000Y-99200000D03*
X160600000Y-100200000D03*
X163245000Y-92095000D03*
X165000000Y-97550000D03*
X172600000Y-83300000D03*
X174800000Y-88000000D03*
X176650000Y-103650000D03*
X178400000Y-104600000D03*
X178600000Y-87200000D03*
X180850000Y-98800000D03*
X181917500Y-92605000D03*
X181917500Y-94605000D03*
X182917500Y-93600000D03*
X184000000Y-103200000D03*
X184017500Y-92605000D03*
X184017500Y-94605000D03*
X186400000Y-105200000D03*
X186700000Y-86400000D03*
X187700000Y-97400000D03*
X189500000Y-92000000D03*
X190700000Y-87400000D03*
X191100000Y-102800000D03*
X191100000Y-105100000D03*
X191400000Y-94400000D03*
D14*
X99950000Y-87550000D03*
X111200000Y-91800000D03*
X111200000Y-95900000D03*
X117200000Y-91000000D03*
X123200000Y-91000000D03*
X129200000Y-91000000D03*
X135200000Y-91000000D03*
X141200000Y-91000000D03*
X151800000Y-100200000D03*
D15*
%TO.C,J2*%
X170010001Y-84210801D03*
X175789999Y-84210801D03*
%TD*%
D16*
X123200000Y-96000000D03*
X141200000Y-95900000D03*
D17*
%TO.C,F2*%
X151800000Y-80250000D03*
X151800000Y-83950000D03*
X151800000Y-88250000D03*
X151800000Y-91950000D03*
D18*
%TO.C,C19*%
X167047349Y-102200000D03*
X170547349Y-102200000D03*
D19*
%TO.C,J10*%
X91545000Y-88975000D03*
%TO.C,J6*%
X91545000Y-96295000D03*
%TO.C,J10*%
X94045000Y-88975000D03*
%TO.C,J6*%
X94045000Y-96295000D03*
%TO.C,JP2*%
X99325000Y-98000000D03*
%TO.C,J9*%
X100150000Y-80575000D03*
%TO.C,JP2*%
X101865000Y-98000000D03*
%TO.C,J9*%
X102650000Y-80575000D03*
%TO.C,J8*%
X108550000Y-80575000D03*
X111050000Y-80575000D03*
%TO.C,J13*%
X112960000Y-99025000D03*
X112960000Y-101565000D03*
X115500000Y-99025000D03*
X115500000Y-101565000D03*
%TO.C,J7*%
X116950000Y-80575000D03*
X119450000Y-80575000D03*
%TO.C,J5*%
X125350000Y-80575000D03*
X127850000Y-80575000D03*
%TO.C,J4*%
X133800000Y-80575000D03*
%TO.C,J11*%
X133925000Y-99025000D03*
X133925000Y-101565000D03*
%TO.C,J4*%
X136300000Y-80575000D03*
%TO.C,J11*%
X136465000Y-99025000D03*
X136465000Y-101565000D03*
%TO.C,J3*%
X142200000Y-80575000D03*
X144700000Y-80575000D03*
%TO.C,J12*%
X152920000Y-104200000D03*
X155460000Y-104200000D03*
X158000000Y-104200000D03*
%TO.C,JP1*%
X187425000Y-99700000D03*
X189965000Y-99700000D03*
D20*
%TO.C,J1*%
X158300000Y-84295000D03*
X163300000Y-84295000D03*
M02*
